<svg xmlns="http://www.w3.org/2000/svg" xmlns:xlink="http://www.w3.org/1999/xlink" version="1.1" id="Capa_1" x="0px" y="0px" viewBox="0 0 612 612" style="enable-background:new 0 0 612 612;" xml:space="preserve" width="27px" height="27px">
<g>
	<g>
		<path d="M269.272,310.198c86.177-0.005,117.184-86.291,125.301-157.169C404.572,65.715,363.282,0,269.272,0    C175.274,0,133.963,65.71,143.97,153.029C152.095,223.907,183.093,310.204,269.272,310.198z" fill="#FFFFFF"/>
		<path d="M457.707,346.115c2.773,0,5.528,0.083,8.264,0.235c-4.101-5.85-8.848-11.01-14.403-15.158    c-16.559-12.359-38.005-16.414-56.964-23.864c-9.229-3.625-17.493-7.226-25.251-11.326    c-26.184,28.715-60.329,43.736-100.091,43.74c-39.749,0-73.891-15.021-100.072-43.74c-7.758,4.101-16.024,7.701-25.251,11.326    c-18.959,7.451-40.404,11.505-56.964,23.864c-28.638,21.375-36.039,69.46-41.854,102.26c-4.799,27.076-8.023,54.707-8.964,82.209    c-0.729,21.303,9.789,24.29,27.611,30.721c22.315,8.048,45.356,14.023,68.552,18.921c44.797,9.46,90.973,16.729,136.95,17.054    c22.278-0.159,44.601-1.956,66.792-4.833c-16.431-23.807-26.068-52.645-26.068-83.695    C309.995,412.378,376.258,346.115,457.707,346.115z" fill="#FFFFFF"/>
		<path d="M457.707,375.658c-65.262,0-118.171,52.909-118.171,118.171S392.444,612,457.707,612s118.172-52.909,118.172-118.171    C575.878,428.566,522.969,375.658,457.707,375.658z M509.407,514.103h-31.425v31.424c0,11.198-9.077,20.276-20.274,20.276    c-11.198,0-20.276-9.078-20.276-20.276v-31.424h-31.424c-11.198,0-20.276-9.077-20.276-20.276    c0-11.198,9.077-20.276,20.276-20.276h31.424v-31.424c0-11.198,9.078-20.276,20.276-20.276c11.198,0,20.274,9.078,20.274,20.276    v31.424h31.425c11.198,0,20.276,9.078,20.276,20.276C529.682,505.027,520.606,514.103,509.407,514.103z" fill="#FFFFFF"/>
	</g>
</g>
</svg>
