<?xml version="1.0" encoding="utf-8"?>
<!-- Generator: Adobe Illustrator 13.0.0, SVG Export Plug-In . SVG Version: 6.00 Build 14948)  -->
<!DOCTYPE svg PUBLIC "-//W3C//DTD SVG 1.1//EN" "http://www.w3.org/Graphics/SVG/1.1/DTD/svg11.dtd">
<svg version="1.1" id="HQFL" xmlns="http://www.w3.org/2000/svg" xmlns:xlink="http://www.w3.org/1999/xlink" x="0px" y="0px"
	 width="28px" height="21px" viewBox="0 0 571.828 601.023" enable-background="new 0 0 571.828 601.023"
	 xml:space="preserve">
<path fill="#FFE600" d="M569.379,334.244c-8.565-12.752-12.973-45.551-12.973-56.751c0-7.399-3.991-24.615-40.926-24.615
	c-18.832,0-36.558,11.217-45.449,17.906c-5.435,4.089-23.184,18.393-23.184,30.622c0,9.998,5.761,16.338,10.391,21.434
	c1.383,1.521,2.656,2.934,3.755,4.368c-38.001,29.175-82.514,48.373-129.664,55.89c3.641-4.043,5.563-9.181,5.563-15.132
	c0-3.792-1.568-9.255-9.024-13.739c-1.227-0.764-4.676-2.535-11.847-4.05c4.875-1.368,10.095-2.695,15.256-4.003
	c24.55-6.234,55.109-13.992,79.807-31.209c29.471-20.544,44.414-50.796,44.414-89.918c0-36.578-10.603-65.292-19.119-88.368
	c-5.341-14.459-9.95-26.946-9.95-36.602c0-17.965,18.943-39.131,25.475-44.403l7.594-6.138l-7.342-6.439L407.602,3.974L403.077,0
	l-5.153,3.119l-0.5,0.302c-21.229,12.847-35.251,21.331-61.806,21.331c-19.907,0-40.755-11.236-43.726-13.646l-5.178-4.205
	l-5.18,4.205c-2.968,2.41-23.819,13.646-43.726,13.646c-26.551,0-40.579-8.483-61.801-21.327l-0.501-0.306L170.349,0l-4.525,3.977
	l-44.558,39.122l-7.329,6.438l7.59,6.132c6.526,5.275,25.467,26.452,25.467,44.409c0,9.653-4.606,22.142-9.943,36.602
	c-8.52,23.076-19.119,51.791-19.119,88.368c0,39.122,14.937,69.374,44.411,89.918c24.691,17.217,55.257,24.975,79.807,31.209
	c5.002,1.268,10.041,2.548,14.778,3.867c-8.002,1.617-11.716,3.572-12.874,4.287c-6.053,3.648-9.12,8.24-9.12,13.638
	c0,5.951,1.917,11.089,5.565,15.132c-47.154-7.517-91.671-26.715-129.668-55.89c1.101-1.435,2.376-2.85,3.75-4.368
	c4.636-5.096,10.399-11.436,10.399-21.434c0-12.229-17.75-26.533-23.184-30.625c-8.891-6.686-26.621-17.903-45.446-17.903
	c-36.945,0-40.928,17.216-40.928,24.615c0,11.2-4.416,43.996-12.972,56.751c-1.443,1.91-2.45,4.425-2.45,7.455
	c0,2.853,0.872,6.129,3.07,9.706l0.081,0.131l0.082,0.134c0.147,0.223,15.564,22.711,30.558,22.716
	c1.125,1.008,2.246,2.018,2.246,2.018c65.299,58.81,149.591,92.819,237.356,95.775l8.809,0.293c0,0-0.667-28.601-0.871-37.28
	c1.688-0.32,3.244-0.492,4.581-0.492c1.329,0,2.891,0.172,4.583,0.492c-0.199,8.68-0.868,37.28-0.868,37.28l8.81-0.293
	c87.757-2.956,172.061-36.966,237.355-95.775c0,0,1.117-1.01,2.239-2.018c15.001-0.005,30.406-22.493,30.562-22.716l0.085-0.134
	l0.083-0.131c2.193-3.574,3.068-6.854,3.068-9.706C571.828,338.669,570.816,336.156,569.379,334.244z"/>
<path fill="#24559B" d="M562.48,338.901c-10.049-14.953-14.402-49.715-14.402-61.408c0-11.678-14.668-16.292-32.598-16.292
	c-27.435,0-60.309,29.884-60.309,40.206c0,11.96,12.49,16.574,16.539,28.005c-41.698,33.643-92.707,56.213-148.538,63.265
	l-0.331-13.059c3.327-2.414,5.729-5.993,5.729-11.651c0-2.439-1.746-4.664-5.022-6.63c0,0-8.077-5.389-37.444-5.389
	c-29.165,0-37.705,5.479-37.705,5.479c-3.302,1.98-5.149,4.093-5.149,6.539c0,5.658,2.409,9.237,5.735,11.651l-0.333,13.059
	c-55.838-7.052-106.833-29.622-148.536-63.265c4.045-11.431,16.543-16.045,16.543-28.005c0-10.322-32.874-40.206-60.31-40.206
	c-17.933,0-32.612,4.615-32.612,16.292c0,11.693-4.346,46.455-14.391,61.408c-1.625,1.624-1.353,4.612,0.815,8.145
	c2.72,4.078,14.945,19.02,23.637,19.02c4.072,0,6.237-1.908,6.792-5.702c0.192-2.012,1.259-6.495,2.907-12.16
	c1.805,1.585,3.747,3.246,5.826,4.99l-7.717,17.022c61.895,55.741,142.942,90.638,232.077,93.64l-0.827-35.043
	c2.453-0.807,7.888-2.442,13.056-2.442c5.17,0,10.604,1.636,13.057,2.442l-0.822,35.043c89.131-3.002,170.176-37.898,232.073-93.64
	l-9.158-20.198c2.059-1.803,4.118-3.623,6.167-5.471c2.268,7.357,3.765,13.381,4.014,15.816c0.541,3.794,2.71,5.702,6.788,5.702
	c8.695,0,20.92-14.941,23.636-19.02C563.838,343.514,564.11,340.525,562.48,338.901z"/>
<g>
	<path fill="#FFFFFF" d="M94.235,323.034c-4.481-3.842-9.393-8.079-13.652-12.189c1.838-2.108,2.926-2.372,4.014-2.372
		c2.446,0.264,14.672,4.07,17.118,3.531C98.996,314.175,94.634,321.566,94.235,323.034z"/>
</g>
<g>
	<path fill="#FFFFFF" d="M258.264,383.777c5.059,1.607,9.442,2.613,9.442,5.379c0,1.085-1.084,5.707-9.78,4.619L258.264,383.777z"/>
</g>
<g>
	<path fill="#FFFFFF" d="M313.56,383.777c-5.056,1.607-9.438,2.613-9.438,5.379c0,1.085,1.084,5.707,9.776,4.619L313.56,383.777z"/>

</g>
<g>
	<path fill="#FFFFFF" d="M285.912,363.618c22.825,0,31.247,2.993,31.247,6.792c0,6.256-22.82,5.171-22.82,19.022
		c0,7.052,3.258,9.229,5.365,10.877l-0.361,15.738c-6.356-1.353-9.076-2.173-13.43-2.173c-4.35,0-7.068,0.82-13.424,2.173
		l-0.367-15.738c2.112-1.647,5.369-3.825,5.369-10.877c0-13.852-22.829-12.767-22.829-19.022
		C254.661,366.611,263.087,363.618,285.912,363.618z"/>
</g>
<g>
	<path fill="#FFFFFF" d="M477.586,323.034c4.479-3.842,9.4-8.079,13.647-12.189c-1.834-2.106-2.918-2.372-4.01-2.372
		c-2.438,0.266-14.67,4.073-17.109,3.531C472.832,314.175,477.187,321.566,477.586,323.034z"/>
</g>
<path fill="#FFFFFF" d="M45.764,340.823c5.482-16.979,14.259-38.651,21.173-41.315c-9.234-1.096-31.243-8.423-31.243-23.64
	c0-4.071,9.234-6.788,18.752-6.788c23.628,0,51.337,22.95,51.337,31.79c0,3.794-3.795,3.794-5.977,3.794
	c-4.346,0-8.695-2.994-15.744-2.994c-3.273,0-11.627,0.087-16.82,12.003L52.347,346.53C49.959,344.5,47.757,342.59,45.764,340.823z"
	/>
<path fill="#FFFFFF" d="M518.018,343.305l-13.433-29.632c-5.194-11.916-13.556-12.003-16.816-12.003
	c-7.064,0-11.406,2.994-15.76,2.994c-2.169,0-5.967,0-5.967-3.794c0-8.839,27.708-31.79,51.343-31.79
	c9.507,0,18.746,2.717,18.746,6.788c0,15.217-22.007,22.548-31.248,23.64c6.432,2.474,14.471,21.375,19.975,37.668
	C522.579,339.25,520.308,341.294,518.018,343.305z"/>
<path fill="#FFFFFF" d="M515.592,303.644c22.006-6.927,25.674-17.926,25.951-20.907c-0.692,21.321,10.045,51.213,13.44,56.641
	c1.63,2.717,1.216,5.156,0.679,5.975c-0.956,1.356-12.224,13.718-15.896,14.95c-4.893,1.083-4.615-1.907-4.893-3.271
	C530.529,333.398,517.764,307.179,515.592,303.644"/>
<path fill="#FFFFFF" d="M54.822,303.644c-2.176,3.536-14.937,29.755-19.29,53.387c-0.265,1.364,0,4.354-4.884,3.271
	c-3.674-1.232-14.941-13.594-15.898-14.95c-0.538-0.818-0.95-3.258,0.685-5.975c3.392-5.428,14.129-35.32,13.444-56.641
	C29.152,285.715,32.817,296.717,54.822,303.644"/>
<path fill="#FFFFFF" d="M73.965,314.528c49.747,48.879,116.362,80.644,190.316,85.784l1.623,57.656
	c-82.951-4.461-158.42-37.058-217.046-88.402L73.965,314.528"/>
<path fill="#FFFFFF" d="M306.131,400.313c73.954-5.141,140.565-36.905,190.317-85.784l25.112,55.038
	c-58.63,51.345-134.104,83.941-217.055,88.402L306.131,400.313"/>
<path fill="#24559B" d="M46.946,306.238c-2.984-0.823-13.044-7.069-14.129-8.704c-0.135,14.27-10.865,40.748-12.768,42.927
	c-0.807,0.813-0.946,2.714,0,4.071c0.815,1.09,8.018,7.882,9.645,8.965c1.765,1.232,1.907-0.678,1.907-0.678
	C34.317,337.34,45.315,309.769,46.946,306.238"/>
<path fill="#24559B" d="M76.616,324.642L56.829,367.83c55.012,46.519,125.277,77.606,201.489,83.404l-1.097-46.122
	C188.396,398.84,124.768,368.772,76.616,324.642"/>

<path fill="#24559B" d="M313.193,405.112l-1.093,46.122c76.207-5.798,146.468-36.886,201.489-83.404l-19.791-43.188
	C445.642,368.772,382.019,398.84,313.193,405.112"/>
<path fill="#24559B" d="M523.469,306.238c1.626,3.53,12.629,31.106,15.352,46.585c0,0,0.13,1.907,1.899,0.675
	c1.626-1.083,8.826-7.875,9.646-8.965c0.95-1.357,0.819-3.258,0-4.071c-1.904-2.18-12.634-28.657-12.768-42.927
	C536.513,299.169,526.452,305.416,523.469,306.238"/>
<path fill="#24559B" d="M42.56,112.176c-5.894,0-12.359,0-12.359,0l5.802,5.802v35.748l-5.802,5.803h24.716l-5.803-5.803v-35.748
	l5.803-5.802C54.917,112.176,48.451,112.176,42.56,112.176z"/>
<polygon fill="#24559B" points="457.223,128.754 457.223,112.355 499.009,112.355 476.527,174.243 476.527,180.326 464.626,180.326 
	489.752,121.613 463.834,121.613 "/>
<path fill="#24559B" d="M102.394,123.444c0.564-0.351,9.502-6.032,9.502-14.423c0-12.886-8.657-19.049-21.066-19.06
	c-0.004,0-0.022,0-0.031,0s-0.027,0-0.031,0c-12.409,0.011-21.066,6.174-21.066,19.06c0,8.391,8.938,14.072,9.502,14.423
	c-0.564,0.35-12.664,4.061-12.664,18.211c0,14.151,11.818,19.05,24.228,19.06c0.005,0,0.025,0,0.031,0s0.026,0,0.031,0
	c12.409-0.01,24.228-4.909,24.228-19.06C115.058,127.504,102.958,123.793,102.394,123.444z M90.785,92.513
	c5.485,0,9.934,6.672,9.934,14.901c0,8.229-4.449,14.899-9.934,14.899c-5.487,0-9.935-6.67-9.935-14.899
	C80.851,99.186,85.298,92.513,90.785,92.513z M90.785,158.582c-6.689,0-12.115-7.668-12.115-17.128
	c0-9.458,5.426-17.126,12.115-17.126c6.699,0,12.129,7.668,12.129,17.126C102.914,150.914,97.484,158.582,90.785,158.582z"/>
<path fill="#24559B" d="M543.652,123.444c0.565-0.351,9.504-6.032,9.504-14.423c0-12.886-8.657-19.049-21.066-19.06
	c-0.004,0-0.022,0-0.031,0c-0.01,0-0.026,0-0.031,0c-12.41,0.011-21.065,6.174-21.065,19.06c0,8.391,8.938,14.072,9.502,14.423
	c-0.563,0.35-12.663,4.061-12.663,18.211c0,14.151,11.816,19.05,24.227,19.06c0.005,0,0.026,0,0.031,0c0.007,0,0.026,0,0.031,0
	c12.409-0.01,24.229-4.909,24.229-19.06C556.318,127.504,544.218,123.793,543.652,123.444z M532.044,92.513
	c5.485,0,9.936,6.672,9.936,14.901c0,8.229-4.45,14.899-9.936,14.899c-5.486,0-9.934-6.67-9.934-14.899
	C522.11,99.186,526.558,92.513,532.044,92.513z M532.044,158.582c-6.688,0-12.114-7.668-12.114-17.128
	c0-9.458,5.426-17.126,12.114-17.126c6.698,0,12.129,7.668,12.129,17.126C544.173,150.914,538.742,158.582,532.044,158.582z"/>
<path fill="#24559B" d="M40.749,545.024c0-15.082,0-41.55,0-41.55L29.17,492.576h72.882v22.479l-12.941-13.624H60.503v36.783h21.115
	l8.174-9.537v26.59l-8.174-9.536H60.503v42.888h28.609l12.941-13.622v22.477H29.17l11.579-10.896
	C40.749,586.577,40.749,560.109,40.749,545.024z"/>
<polygon fill="#24559B" points="146.328,524.592 105.459,524.592 116.357,534.809 141.56,597.476 153.821,597.476 178.342,533.449 
	189.24,524.59 160.632,524.59 170.85,532.765 153.821,575.679 136.792,533.449 "/>
<path fill="#24559B" d="M309.271,520.176c-4.412,0-16.711,12.16-20.58,16.102v-15.941c-8.917,2.972-29.973,10.219-29.973,10.219
	l10.9,10.898v45.637l-9.538,10.217h38.144l-9.534-10.217v-39.183l12.94-14.63c0,0,1.672-2.098,3.311-2.098
	c1.638,0,3.043,2.107,3.043,2.107l14.748,15.099v-28.21C322.732,520.176,314.537,520.176,309.271,520.176z"/>
<path fill="#24559B" d="M497.474,548.078v39.181l9.537,10.219h-38.145l9.536-10.219v-45.638l-10.898-10.898
	c0,0,21.056-7.246,29.97-10.216v15.939c0,0,12.991-17.648,31.582-17.648c10.726,0,17.159,8.578,17.159,15.729v52.91l10.727,10.01
	h-30.029c0,0,0-50.189,0-58.055s-2.862-9.872-9.296-9.872C511.182,529.521,497.474,548.078,497.474,548.078z"/>
<path fill="#24559B" d="M377.473,529.521v-7.148h-21.449c0-11.606,0-20.021,0-20.021l-25.741,26.454v6.437h6.434
	c0,0,0,32.89,0,48.621c0,9.295,11.44,17.16,21.452,17.16c10.008,0,18.589-12.871,18.589-12.871l-2.859-4.289
	c-10.013,11.439-17.874,11.439-17.874,5.721c0-3.522,0-35.789,0-60.063H377.473z"/>
<path fill="#24559B" d="M421.09,520.572c-21.451,0-38.84,18.01-38.84,40.226c0,22.217,17.389,40.226,38.84,40.226
	s38.84-18.009,38.84-40.226C459.93,538.582,442.541,520.572,421.09,520.572z M421.09,594.089c-9.957,0-18.031-14.904-18.031-33.291
	s8.074-33.293,18.031-33.293s18.031,14.906,18.031,33.293S431.047,594.089,421.09,594.089z"/>
<path fill="#24559B" d="M227.385,592.852c-6.276,0-10.692-1.859-13.797-4.699c-6.111-5.047-7.902-16.528-7.905-29.899l51.609-0.181
	c-1.119-21.256-16.847-38.104-36.087-38.104c-19.965,0-36.149,18.146-36.149,40.528c0,22.385,16.184,40.527,36.149,40.527
	c12.478,0,27.129-4.898,33.627-15.68l-4.288-3.391C250.544,581.953,243.052,592.852,227.385,592.852z M221.919,526.099
	c16.329,0.019,14.968,25.202,14.968,25.202s-7.602,0-14.968,0c-7.367,0-14.968,0-14.968,0S205.588,526.117,221.919,526.099z"/>
<path fill="#FFFFFF" d="M105.278,359.142l3.29,2.187l-16.441,24.711l-3.521-2.335l4.843-22.204l-0.045-0.026l-11.724,17.625
	l-3.282-2.188l16.437-24.715l3.706,2.468l-4.753,21.651l0.044,0.04L105.278,359.142z"/>
<path fill="#FFFFFF" d="M103.436,392.88l-3.629-2.163l15.23-25.483l3.628,2.17L103.436,392.88z"/>
<path fill="#FFFFFF" d="M117.655,394.79l8.851,4.786l-2.553,4.728l-12.568-6.797l14.118-26.116l3.713,2.02L117.655,394.79z"/>
<path fill="#FFFFFF" d="M148.828,406.09c-0.627,1.516-1.365,4.631,2.022,6.098c1.848,0.8,4.163,1.041,5.414-1.842
	c0.917-2.128-0.232-3.307-1.904-4.835l-1.688-1.545c-2.556-2.327-5.022-4.57-2.43-10.561c1.313-3.035,4.75-7.903,10.771-5.295
	c5.687,2.471,4.847,8.597,3.429,11.948l-3.729-1.619c0.427-1.254,1.369-4.275-2.023-5.742c-1.476-0.645-3.571-0.603-4.651,1.854
	c-0.917,2.131,0.077,3.099,0.734,3.696l3.819,3.603c2.136,2.006,3.808,4.53,1.688,9.422c-3.547,8.198-9.552,6.452-11.178,5.744
	c-6.776-2.937-5.455-9.166-4-12.546L148.828,406.09z"/>

<path fill="#FFFFFF" d="M179.779,403.626l0.044,0.019l-1.619,11.895l-4.855-1.753L179.779,403.626z M170.548,418.23l7.025,2.526
	l-0.861,6.196l4.326,1.557l3.375-30.328l-4.59-1.664l-16.865,25.47l4.191,1.519L170.548,418.23z"/>
<path fill="#FFFFFF" d="M194.571,432.621l-4.06-1.21l6.971-23.414l-5.858-1.746l1.497-5.027l15.78,4.686l-1.509,5.039l-5.857-1.744
	L194.571,432.621z"/>
<path fill="#FFFFFF" d="M211.685,437.151l-4.112-1.008l7.064-28.831l4.112,1.011L211.685,437.151z"/>
<path fill="#FFFFFF" d="M225.33,430.832c-0.281,1.639-0.318,4.821,3.318,5.506c1.965,0.377,4.281,0.105,4.868-2.993
	c0.432-2.271-0.942-3.161-2.915-4.286l-1.997-1.145c-3-1.696-5.907-3.352-4.691-9.759c0.618-3.253,2.889-8.761,9.347-7.538
	c6.091,1.16,6.62,7.311,5.973,10.89l-3.992-0.75c0.139-1.322,0.392-4.468-3.241-5.151c-1.577-0.308-3.624,0.194-4.117,2.828
	c-0.436,2.278,0.747,3.012,1.525,3.453l4.508,2.662c2.536,1.483,4.716,3.588,3.727,8.824c-1.664,8.777-7.901,8.393-9.65,8.061
	c-7.252-1.367-7.334-7.737-6.649-11.352L225.33,430.832z"/>
<path fill="#FFFFFF" d="M332.96,411.829l3.914-0.529l4.036,29.407l-4.188,0.571l-11.061-19.837l-0.052,0.004l2.878,20.965
	l-3.91,0.537l-4.04-29.397l4.407-0.621l10.783,19.39l0.049-0.01L332.96,411.829z"/>
<path fill="#FFFFFF" d="M349.653,439.028l-4.153,0.783l-5.476-29.173l4.157-0.783L349.653,439.028z"/>
<path fill="#FFFFFF" d="M355.25,428.559c0.412,1.604,1.676,4.533,5.271,3.688c1.953-0.457,3.955-1.655,3.238-4.707
	c-0.531-2.257-2.158-2.52-4.404-2.744l-2.291-0.232c-3.436-0.337-6.754-0.658-8.251-7.02c-0.757-3.215-0.908-9.171,5.479-10.671
	c6.041-1.418,9.02,3.991,9.878,7.526l-3.946,0.938c-0.411-1.264-1.461-4.247-5.057-3.406c-1.564,0.368-3.23,1.65-2.616,4.269
	c0.526,2.259,1.903,2.442,2.794,2.536l5.209,0.595c2.914,0.338,5.769,1.364,6.991,6.565c2.038,8.681-3.819,10.867-5.548,11.271
	c-7.185,1.683-9.854-4.097-10.697-7.681L355.25,428.559z"/>
<path fill="#FFFFFF" d="M377.249,432.347l-4.061,1.16l-8.092-28.568l4.072-1.157L377.249,432.347z"/>
<path fill="#FFFFFF" d="M387.546,413.555c-2.841-7.808-0.534-10.845,1.614-11.623c2.141-0.797,5.869,0.057,8.716,7.858
	c2.841,7.812,0.533,10.845-1.614,11.64C394.123,422.207,390.392,421.368,387.546,413.555z M383.58,415.005
	c4.769,13.095,11.964,12.268,14.487,11.351c2.508-0.918,8.545-4.914,3.784-18.016c-4.771-13.083-11.974-12.263-14.489-11.349
	C384.838,397.912,378.809,401.915,383.58,415.005z"/>
<path fill="#FFFFFF" d="M408.72,404.277l-3.51-7.98l3.073-1.352c2.401-1.058,3.885-0.401,5.048,2.25
	c0.533,1.214,1.865,4.239-1.029,5.503L408.72,404.277z M410.778,408.975l4.44-1.957c4.98-2.18,3.184-8.794,2.103-11.25
	c-2.344-5.342-5.992-7.758-9.58-6.189l-8.467,3.727l11.943,27.171l3.87-1.699L410.778,408.975z"/>
<path fill="#FFFFFF" d="M437.023,408.445l-3.775,1.907l-11.035-21.802l-5.454,2.764l-2.372-4.694l14.688-7.43l2.373,4.689
	l-5.459,2.759L437.023,408.445z"/>
<path fill="#FFFFFF" d="M448.683,402.188l-3.697,2.046l-14.355-25.987l3.698-2.047L448.683,402.188z"/>
<path fill="#FFFFFF" d="M469.493,389.781l-3.367,2.056l-12.927-21.169l-0.045,0.038l9.707,23.128L459.322,396l-16.078-19.245
	l-0.054,0.023l12.932,21.169l-3.372,2.069l-15.471-25.341l5.271-3.223l15.323,18.062l0.046-0.033l-9.11-21.844l5.212-3.194
	L469.493,389.781z"/>
<path fill="#FFFFFF" d="M481.246,369.141c4.444,6.422,3.71,11.006-0.489,13.902c-1.529,1.064-4.175,2.091-7.329,0.708
	c-1.941-0.874-3.653-2.604-5.391-5.016l-11.201-16.181l3.543-2.457l10.965,15.832c2.353,3.408,4.734,3.98,6.354,2.846
	c2.388-1.65,2.187-4.021,0.141-6.978l-11.13-16.083l3.546-2.453L481.246,369.141z"/>
<path fill="#FFFFFF" d="M506.729,362.739l-3.117,2.412l-15.179-19.62l-0.044,0.028l12.188,21.933l-3.274,2.539l-18.102-17.36
	l-0.044,0.042l15.183,19.615l-3.131,2.411l-18.159-23.478l4.886-3.773l17.217,16.257l0.049-0.021l-11.468-20.721l4.843-3.745
	L506.729,362.739z"/>
<radialGradient id="SVGID_1_" cx="-3584.4202" cy="-3608.4497" r="141.8242" gradientTransform="matrix(1.1746 0 0 1.1746 4497.3979 4421.418)" gradientUnits="userSpaceOnUse">
	<stop  offset="0.55" style="stop-color:#00AEE8"/>

	<stop  offset="1" style="stop-color:#24559B"/>
</radialGradient>
<path fill="url(#SVGID_1_)" d="M126.697,49.275l44.545-39.12c22.013,13.313,37.492,22.817,66.566,22.817
	c21.729,0,44.554-11.951,48.903-15.483c4.354,3.532,27.18,15.483,48.907,15.483c29.065,0,44.554-9.504,66.559-22.817l44.56,39.12
	c-7.067,5.708-28.53,29.07-28.53,50.802c0,27.443,29.07,65.929,29.07,124.97c0,117.63-139.362,104.32-160.565,129.855
	c-21.19-25.535-160.56-12.226-160.56-129.855c0-59.041,29.066-97.528,29.066-124.97C155.217,78.345,133.757,54.984,126.697,49.275z"
	/>
<path fill="#FFFFFF" d="M240.796,83.522c0,3.26,1.09,4.891,3.258,4.891c6.522,0,5.699-10.867,5.162-15.487
	C248.399,77.814,240.796,79.449,240.796,83.522z"/>
<path fill="#FFFFFF" d="M190.81,54.454c7.33,0,5.975-11.954,11.406-12.768c-4.076,0.271-15.213,2.716-15.213,8.965
	C187.002,52.821,188.906,54.454,190.81,54.454z"/>
<path fill="#FFFFFF" d="M179.671,64.507c1.624,0,4.073-2.446,4.073-4.618c0-2.177-2.45-7.339,0.277-10.053
	c-2.182,0.815-7.615,3.26-7.615,11.408C176.407,62.871,177.772,64.507,179.671,64.507z"/>
<path fill="#FFFFFF" d="M188.906,63.959c2.987,0,9.776-5.973,9.233-10.863c-1.896,4.347-13.033,1.629-13.033,7.876
	C185.106,62.332,186.46,63.959,188.906,63.959z"/>
<path fill="#FFFFFF" d="M174.237,76.186c1.9,0,3.253-1.903,3.253-5.432c0-2.715-4.884-8.423-5.421-11.14
	C170.704,62.332,167.719,76.186,174.237,76.186z"/>
<path fill="#FFFFFF" d="M179.126,71.566c0,0.819,1.088,2.446,3.265,2.446c1.631,0,9.78-3.801,10.587-9.778
	C189.994,67.765,179.126,64.507,179.126,71.566z"/>
<path fill="#FFFFFF" d="M171.795,88.413c2.165,0,3.254-1.631,3.254-4.891c0-4.073-7.612-5.708-8.414-10.597
	C166.081,77.546,165.269,88.413,171.795,88.413z"/>
<path fill="#FFFFFF" d="M174.779,102.271c1.901,0,3.804-1.088,3.804-3.804c0-6.249-9.784-3.803-11.948-9.782
	C166.354,91.942,169.077,102.271,174.779,102.271z"/>
<path fill="#FFFFFF" d="M187.732,74.459c0.219-0.058,0.433-0.116,0.627-0.176C188.136,74.3,187.928,74.361,187.732,74.459z"/>
<path fill="#FFFFFF" d="M187.732,74.459c-3.752,0.992-10.775,1.831-10.775,8.248c0,2.172,1.904,2.989,3.795,2.989
	C184.573,85.696,184.813,75.916,187.732,74.459z"/>
<path fill="#FFFFFF" d="M182.118,97.378c4.884,0,2.988-10.322,4.614-12.5c-2.446,1.629-8.148,3.806-8.148,8.967
	C178.583,94.933,179.126,97.378,182.118,97.378z"/>
<path fill="#FFFFFF" d="M184.286,111.234c0-6.795-12.491-4.08-14.125-8.426c0.812,4.346,6.519,11.412,9.51,11.412
	C181.025,114.221,184.286,114.492,184.286,111.234z"/>
<path fill="#FFFFFF" d="M189.183,109.059c1.626,0,2.71-1.904,2.71-3.804c0-2.171-6.245-6.788-4.353-10.591
	C185.375,97.647,181.295,109.059,189.183,109.059z"/>

<path fill="#FFFFFF" d="M193.79,115.578c-3.796,0-8.142,4.62-13.303,2.174c3.258,2.719,8.96,5.702,12.769,5.702
	c2.173,0,5.16-1.354,5.16-4.344C198.416,117.207,196.513,115.578,193.79,115.578z"/>
<path fill="#FFFFFF" d="M225.037,54.454c1.902,0,3.811-1.632,3.811-3.803c0-6.249-11.137-8.694-15.215-8.965
	C219.061,42.5,217.711,54.454,225.037,54.454z"/>
<path fill="#FFFFFF" d="M232.101,59.889c0,2.172,2.443,4.618,4.073,4.618c1.903,0,3.269-1.636,3.269-3.263
	c0-8.148-5.434-10.593-7.615-11.408C234.543,52.55,232.101,57.711,232.101,59.889z"/>
<path fill="#FFFFFF" d="M217.711,53.096c-0.554,4.89,6.249,10.863,9.229,10.863c2.442,0,3.808-1.627,3.808-2.987
	C230.748,54.725,219.606,57.442,217.711,53.096z"/>
<path fill="#FFFFFF" d="M241.611,76.186c6.526,0,3.536-13.854,2.168-16.571c-0.541,2.717-5.425,8.424-5.425,11.14
	C238.355,74.283,239.704,76.186,241.611,76.186z"/>
<path fill="#FFFFFF" d="M236.719,71.566c0-7.059-10.868-3.801-13.856-7.333c0.82,5.978,8.965,9.778,10.595,9.778
	C235.635,74.012,236.719,72.385,236.719,71.566z"/>
<path fill="#FFFFFF" d="M237.262,98.466c0,2.716,1.908,3.804,3.807,3.804c5.703,0,8.422-10.329,8.146-13.586
	C247.042,94.663,237.262,92.217,237.262,98.466z"/>
<path fill="#FFFFFF" d="M228.105,74.459c-0.196-0.098-0.405-0.16-0.627-0.176C227.673,74.343,227.886,74.401,228.105,74.459z"/>
<path fill="#FFFFFF" d="M238.893,82.707c0-6.417-7.029-7.256-10.787-8.248c2.923,1.457,3.165,11.237,6.988,11.237
	C236.993,85.696,238.893,84.879,238.893,82.707z"/>
<path fill="#FFFFFF" d="M233.728,97.378c2.992,0,3.535-2.446,3.535-3.532c0-5.162-5.699-7.338-8.153-8.967
	C230.748,87.057,228.848,97.378,233.728,97.378z"/>
<path fill="#FFFFFF" d="M231.563,111.234c0,3.258,3.257,2.986,4.611,2.986c2.997,0,8.692-7.066,9.51-11.412
	C244.054,107.154,231.563,104.439,231.563,111.234z"/>
<path fill="#FFFFFF" d="M226.671,109.059c7.872,0,3.803-11.411,1.63-14.396c1.903,3.803-4.342,8.42-4.342,10.591
	C223.959,107.154,225.037,109.059,226.671,109.059z"/>
<path fill="#FFFFFF" d="M222.052,115.578c-2.715,0-4.623,1.629-4.623,3.532c0,2.989,2.996,4.344,5.165,4.344
	c3.799,0,9.506-2.983,12.768-5.702C230.205,120.198,225.852,115.578,222.052,115.578z"/>
<path fill="#FFFFFF" d="M212.818,113.95c0-0.319-0.012-0.621-0.03-0.915c0.676,0.989,1.904,2.004,3.015,2.004
	c5.977,0,6.792-9.24,6.792-12.5c-0.504,3.534-8.974,4.026-10.174,8.217c-0.874-3.14-3.013-4.14-4.497-4.14
	c-1.486,0-3.624,1.004-4.491,4.157c-1.182-4.207-9.68-4.695-10.176-8.234c0,3.26,0.815,12.5,6.787,12.5
	c1.121,0,2.355-1.027,3.028-2.021c-0.019,0.299-0.031,0.607-0.031,0.933c0,1.897,0.261,13.31-3.536,14.668
	c4.611,1.087,5.427-2.446,8.419-2.446c2.988,0,3.808,3.533,8.426,2.446C212.537,127.26,212.818,115.847,212.818,113.95z"/>
<path fill="#FFFFFF" d="M329.373,88.413c2.168,0,3.257-1.631,3.257-4.891c0-4.073-7.606-5.708-8.419-10.597
	C323.67,77.546,322.851,88.413,329.373,88.413z"/>
<path fill="#FFFFFF" d="M382.621,54.454c1.896,0,3.804-1.632,3.804-3.803c0-6.249-11.138-8.694-15.214-8.965
	C376.641,42.5,375.287,54.454,382.621,54.454z"/>
<path fill="#FFFFFF" d="M389.678,59.889c0,2.172,2.445,4.618,4.076,4.618c1.9,0,3.261-1.636,3.261-3.263
	c0-8.148-5.428-10.593-7.605-11.408C392.123,52.551,389.678,57.711,389.678,59.889z"/>

<path fill="#FFFFFF" d="M375.287,53.096c-0.55,4.89,6.246,10.863,9.229,10.863c2.446,0,3.806-1.627,3.806-2.987
	C388.322,54.725,377.184,57.443,375.287,53.096z"/>
<path fill="#FFFFFF" d="M399.188,76.186c6.52,0,3.535-13.854,2.178-16.571c-0.55,2.717-5.434,8.424-5.434,11.14
	C395.932,74.283,397.284,76.186,399.188,76.186z"/>
<path fill="#FFFFFF" d="M394.301,71.566c0-7.059-10.873-3.801-13.853-7.333c0.815,5.978,8.961,9.779,10.591,9.779
	C393.212,74.012,394.301,72.385,394.301,71.566z"/>
<path fill="#FFFFFF" d="M398.373,83.522c0,3.26,1.089,4.891,3.265,4.891c6.52,0,5.707-10.867,5.161-15.487
	C405.983,77.814,398.373,79.45,398.373,83.522z"/>
<path fill="#FFFFFF" d="M394.848,98.466c0,2.716,1.9,3.804,3.799,3.804c5.703,0,8.422-10.329,8.152-13.586
	C404.623,94.663,394.848,92.217,394.848,98.466z"/>
<path fill="#FFFFFF" d="M385.689,74.459c-0.195-0.098-0.402-0.16-0.625-0.176C385.259,74.343,385.471,74.401,385.689,74.459z"/>
<path fill="#FFFFFF" d="M396.479,82.707c0-6.417-7.035-7.256-10.789-8.248c2.92,1.456,3.16,11.237,6.984,11.237
	C394.57,85.696,396.479,84.879,396.479,82.707z"/>
<path fill="#FFFFFF" d="M391.316,97.378c2.984,0,3.531-2.446,3.531-3.532c0-5.162-5.708-7.338-8.153-8.967
	C388.322,87.057,386.425,97.378,391.316,97.378z"/>
<path fill="#FFFFFF" d="M389.14,111.234c0,3.258,3.262,2.986,4.614,2.986c2.994,0,8.699-7.066,9.512-11.412
	C401.638,107.155,389.14,104.439,389.14,111.234z"/>
<path fill="#FFFFFF" d="M384.247,109.059c7.876,0,3.804-11.411,1.635-14.396c1.899,3.803-4.349,8.421-4.349,10.591
	C381.533,107.155,382.621,109.059,384.247,109.059z"/>
<path fill="#FFFFFF" d="M379.634,115.578c-2.72,0-4.623,1.629-4.623,3.533c0,2.989,2.988,4.343,5.161,4.343
	c3.811,0,9.506-2.983,12.771-5.702C387.781,120.198,383.428,115.578,379.634,115.578z"/>
<path fill="#FFFFFF" d="M348.386,54.454c7.335,0,5.977-11.954,11.415-12.768c-4.08,0.271-15.215,2.716-15.215,8.965
	C344.586,52.821,346.49,54.454,348.386,54.454z"/>
<path fill="#FFFFFF" d="M337.248,64.507c1.631,0,4.077-2.446,4.077-4.618c0-2.177-2.446-7.338,0.272-10.053
	c-2.172,0.815-7.603,3.26-7.603,11.408C333.995,62.871,335.349,64.507,337.248,64.507z"/>
<path fill="#FFFFFF" d="M346.49,63.959c2.988,0,9.781-5.973,9.23-10.863c-1.901,4.348-13.037,1.629-13.037,7.876
	C342.684,62.332,344.04,63.959,346.49,63.959z"/>
<path fill="#FFFFFF" d="M331.814,76.186c1.908,0,3.261-1.903,3.261-5.432c0-2.715-4.888-8.423-5.434-11.14
	C328.279,62.332,325.295,76.186,331.814,76.186z"/>
<path fill="#FFFFFF" d="M336.707,71.566c0,0.819,1.085,2.446,3.261,2.446c1.63,0,9.78-3.801,10.595-9.779
	C347.574,67.765,336.707,64.507,336.707,71.566z"/>
<path fill="#FFFFFF" d="M332.356,102.271c1.901,0,3.804-1.088,3.804-3.804c0-6.249-9.775-3.803-11.949-9.782
	C323.935,91.942,326.653,102.271,332.356,102.271z"/>

<path fill="#FFFFFF" d="M345.316,74.459c-3.754,0.992-10.782,1.831-10.782,8.248c0,2.172,1.899,2.989,3.798,2.989
	C342.157,85.696,342.397,75.916,345.316,74.459z"/>
<path fill="#FFFFFF" d="M345.316,74.459c0.219-0.058,0.433-0.116,0.627-0.176C345.721,74.3,345.514,74.361,345.316,74.459z"/>
<path fill="#FFFFFF" d="M339.695,97.378c4.891,0,2.988-10.322,4.623-12.5c-2.451,1.629-8.158,3.806-8.158,8.967
	C336.16,94.933,336.707,97.378,339.695,97.378z"/>
<path fill="#FFFFFF" d="M341.867,111.234c0-6.795-12.494-4.08-14.121-8.426c0.811,4.346,6.512,11.412,9.502,11.412
	C338.602,114.221,341.867,114.492,341.867,111.234z"/>
<path fill="#FFFFFF" d="M346.754,109.059c1.632,0,2.725-1.904,2.725-3.804c0-2.17-6.259-6.788-4.35-10.591
	C342.96,97.648,338.879,109.059,346.754,109.059z"/>
<path fill="#FFFFFF" d="M351.379,115.578c-3.805,0-8.159,4.62-13.312,2.174c3.258,2.719,8.961,5.702,12.764,5.702
	c2.173,0,5.162-1.354,5.162-4.343C355.993,117.207,354.089,115.578,351.379,115.578z"/>
<path fill="#FFFFFF" d="M370.395,113.95c0-0.32-0.013-0.623-0.03-0.917c0.675,0.99,1.903,2.006,3.015,2.006
	c5.977,0,6.793-9.24,6.793-12.5c-0.501,3.535-8.979,4.026-10.175,8.22c-0.873-3.142-3.013-4.143-4.494-4.143
	c-1.484,0-3.623,1.001-4.495,4.144c-1.195-4.194-9.668-4.686-10.177-8.221c0,3.26,0.817,12.5,6.792,12.5
	c1.112,0,2.343-1.018,3.018-2.009c-0.018,0.295-0.03,0.6-0.03,0.92c0,1.897,0.274,13.31-3.533,14.668
	c4.628,1.087,5.435-2.446,8.426-2.446c2.993,0,3.8,3.533,8.423,2.446C370.127,127.26,370.395,115.847,370.395,113.95z"/>
<path fill="#FFFFFF" d="M341.325,166.658c4.219-0.604,6.399-2.434,6.399-7.067c0-3.202-2.596-6.799-9.318-9.913l-44.758-87.462
	l4.013-7.895c2.959-5.801-3.967-9.266-6.972-3.402l-1.386,2.856l-1.403-2.856c-3.004-5.864-9.93-2.399-6.966,3.402l4.006,7.84
	l-44.748,87.517c-6.727,3.114-9.332,6.711-9.332,9.913c0,4.634,2.193,6.464,6.413,7.067v25.028
	c-3.465,2.222-11.574,9.565-11.574,26.856c0,13.288,1.578,24.396,11.574,30.114v57.537l7.79-2.444v-51.124l82.971,42.258
	c6.348,3.533,5.556,11.136,5.556,14.393c8.722-2.443,14.012-15.213,14.012-27.166c0-11.03-2.873-19.241-6.277-24.919V166.658z
	 M239.716,242.43l-0.065-0.034c-4.142-2.145-5.85-7.815-6.563-13.137c0.855,1.465,3.794,3.521,6.628,5.279V242.43z M239.716,226.821
	c-3.139-2.007-6.312-4.204-7.134-5.403c0-0.45-0.004-0.873-0.004-1.244c0-1.948,0.212-4.262,0.579-6.637
	c0.412,1.302,3.376,3.538,6.56,5.647V226.821z M239.716,211.656c-2.952-2.018-5.341-4.053-5.031-5.325
	c0.786-2.841,1.718-5.252,2.645-6.528c0,1.243,0.966,2.545,2.386,3.832V211.656z M289.313,70.681l5.601,10.954
	c-2.194-0.021-4.428-0.024-6.767,0.017c-1.908-0.034-2.181,3.354,0.273,3.699c2.752-0.012,5.585,0.028,8.442,0.091l1.831,3.584
	c-1.228-0.026-2.476-0.052-3.76-0.066c-3.794,0.131-4.067,3.389,0.274,3.771c1.814,0.032,3.635,0.086,5.459,0.149l2.266,4.444
	c-3.886-0.165-8.042-0.25-12.475-0.216c-3.264,0.132-3.811,3.521,0.127,3.729c4.695,0.01,9.547,0.131,14.34,0.386l2.289,4.472
	c-3.641-0.225-7.542-0.38-11.729-0.432c-2.177-0.009-2.987,3.627,0.408,3.778c4.443,0.086,8.947,0.281,13.342,0.604l3.176,6.216
	c-4.316-0.375-9.103-0.655-14.341-0.77c-2.585-0.053-4.488,3.493-0.142,3.762c5.547,0.149,11.222,0.487,16.541,1.04l3.649,7.137
	c-6.409-0.745-14.187-1.309-23.185-1.395c-3.395-0.005-7.74,3.906-1.895,3.906c9.188,0.093,18.85,0.542,27.252,1.728l3.636,7.122
	c-5.287-0.789-11.851-1.506-19.604-1.886c-3.538-0.006-9.372,2.878,0.27,3.812c7.721,0.404,15.254,1.185,21.609,2.525l1.691,3.307
	c-9.029-2.193-21.646-3.676-38.63-3.676c-17.003,0-29.527,1.482-38.56,3.675L289.313,70.681z M252.928,249.219l-7.655-3.94v-7.475
	c0.032,0.021,0.085,0.056,0.126,0.074l7.529,3.914V249.219z M252.928,234.359l-6.559-3.441c-0.252-0.159-0.636-0.389-1.096-0.67
	v-7.563c0.852,0.52,1.577,0.961,2.074,1.269l5.581,2.956V234.359z M252.928,219.446l-4.594-2.46
	c-0.783-0.481-1.863-1.116-3.062-1.834v-7.572c1.418,0.874,2.833,1.698,4.031,2.444l3.624,1.96V219.446z M268.538,257.242
	l-9.257-4.759v-7.393l9.257,4.807V257.242z M268.538,242.539l-9.257-4.855v-7.418l9.257,4.9V242.539z M268.538,227.79l-9.257-4.95
	v-7.421l9.257,5.012V227.79z M284.399,265.399l-9.523-4.894v-7.318l9.523,4.943V265.399z M284.399,250.848l-9.523-4.987v-7.336
	l9.523,5.04V250.848z M284.399,236.264l-9.523-5.085v-7.32l9.523,5.155V236.264z M299.744,273.289l-8.99-4.622v-7.237l8.99,4.667
	V273.289z M299.744,258.893l-8.99-4.714v-7.251l8.99,4.758V258.893z M299.744,244.466l-8.99-4.807v-7.209l8.99,4.869V244.466z
	 M314.814,281.038l-8.728-4.485v-7.163l8.728,4.529V281.038z M314.814,266.795l-8.728-4.574v-7.175l8.728,4.617V266.795z
	 M314.814,252.521l-8.728-4.662v-7.105l8.728,4.72V252.521z M328.297,287.971l-7.138-3.669v-7.084l7.138,3.706V287.971z
	 M328.297,273.861l-7.138-3.743v-7.096l7.138,3.778V273.861z M328.297,259.731l-7.138-3.818v-7.003l7.138,3.865V259.731z
	 M333.531,171.114c-7.836-1.908-23.604-4.72-45.658-4.686c-4.628,0.23-6.527,3.367,0.545,3.695
	c15.862,0.223,34.174,1.566,45.112,5.713v4.678c-6.018-1.27-12.459-2.425-19.353-3.381c-6.783-0.861-7.709,1.714-0.985,2.829
	c2.409,0.301,10.366,1.777,20.338,4.162v6.279c-6.192-1.51-17.317-3.583-32.642-4.371v-2.192v-11.479h-22.796v13.551
	c-5.973,0.23-12.316,0.677-19.026,1.393c-6.788,0.815-7.065,3.53-0.278,2.987c2.308-0.277,9.727-0.742,19.304-0.874v4.674h22.796
	v-4.267c12.287,0.668,24.491,2.205,32.642,5.295v5.988c-5.94-1.25-12.283-2.388-19.078-3.33c-6.789-0.856-7.715,1.714-0.992,2.835
	c2.395,0.295,10.225,1.745,20.07,4.091v5.799c-9.688-2.358-31.496-6.095-62.27-4.138c-8.386,0.226-9.072,3.519,0.708,3.25
	c17.375-0.509,46.542-0.07,61.561,5.603v6.971c-6.082-1.479-16.932-3.506-31.81-4.321c-3.52,0.404-9.516,3.178,0.541,3.826
	c11.802,0.711,23.429,2.24,31.269,5.21v6.425c-2.531-0.617-5.879-1.329-10.021-2.007c-3.578-0.276-6.322,2.044,0.752,4.14
	c3.439,0.708,6.578,1.558,9.27,2.577v10.436c-0.351-0.237-0.693-0.437-1-0.595l-82.241-44.819c-1.614-0.994-3.453-2.067-5.226-3.191
	v-33.622c6.124-1.429,17.228-5.027,44.198-5.027c26.967,0,38.142,3.598,44.269,5.027V171.114z M296.77,183.902
	c0,2.633-2.136,4.768-4.769,4.768c-2.634,0-4.768-2.135-4.768-4.768s2.134-4.768,4.768-4.768
	C294.634,179.134,296.77,181.269,296.77,183.902z M289.263,154.7c-25.633,0-42.124,5.467-44.851,5.467
	c-2.743,0-3.807-0.712-3.807-2.48c0-2.038,2.784-2.987,4.859-3.837c9.119-2.995,23.375-5.106,43.798-5.128
	c20.587,0,34.7,2.122,43.873,5.128c2.073,0.851,4.855,1.8,4.855,3.838c0,1.768-1.064,2.479-3.804,2.479
	C331.451,160.167,314.881,154.7,289.263,154.7z M338.289,266c-0.947-0.854-2.776-2.146-4.436-3.202v-5.379
	C335.707,259.841,337.183,262.819,338.289,266z M338.549,297.326c0-2.085-2.23-4.205-4.695-5.959v-7.136
	c3.013,1.897,5.638,3.845,6.343,6.028c0.009,0,0.009-0.007,0.009-0.014C339.857,292.517,339.332,294.87,338.549,297.326z
	 M340.794,284.055c-0.022-0.246-0.043-0.448-0.069-0.587c-0.37-2.127-3.561-4.39-6.871-6.415v-7.194
	c3.077,1.739,5.38,3.07,6.424,4.193c0.387,2.433,0.587,4.812,0.587,6.973C340.864,282.012,340.844,283.021,340.794,284.055z"/>
<path fill="#FFFFFF" d="M263.932,277.1c-2.422,0.143-4.196,0.279-5.142,0.394c-6.787,0.545-6.51-2.179,0.278-2.989
	c1.644-0.177,3.269-0.336,4.875-0.474C265.183,273.96,267.718,276.707,263.932,277.1z"/>
<path fill="#FFFFFF" d="M279.438,273.066c-1.696,0.056-3.412,0.132-5.165,0.223c-2.442,0.265-5.287,3.99-0.538,3.418
	c1.805-0.046,3.709-0.084,5.711-0.109C281.347,276.272,283.227,272.852,279.438,273.066z"/>
<path fill="#FFFFFF" d="M299.268,283.754c-6.156-0.274-12.956-0.336-20.359-0.074c-2.455,0.193-4.228,3.302,0.808,3.516
	c6.009-0.056,12.764,0.023,19.551,0.343C301.729,287.54,304.281,284.036,299.268,283.754z"/>
<path fill="#FFFFFF" d="M265.056,299.858c-3.008,0.155-5.185,0.32-6.266,0.452c-6.787,0.542-6.51-2.172,0.278-2.984
	c2.026-0.221,4.015-0.408,5.977-0.576C266.947,296.78,269.541,299.677,265.056,299.858z"/>
<path fill="#FFFFFF" d="M282.699,295.799c-1.769,0.034-3.583,0.093-5.429,0.167c-1.77,0.131-3.942,3.442,0,3.486
	c1.826-0.029,3.739-0.044,5.707-0.051C284.885,299.36,286.637,295.764,282.699,295.799z"/>
<path fill="#FFFFFF" d="M306.356,296.401c-2.743-0.208-5.649-0.373-8.699-0.486c-2.725,0.05-5.022,3.141-0.27,3.765
	c2.979,0.132,5.985,0.299,8.947,0.53C308.794,300.311,311.117,296.706,306.356,296.401z"/>
<path fill="#FFFFFF" d="M327.767,299.176c-2.561-0.493-5.536-0.99-8.903-1.458c-2.328-0.263-4.562,2.99-0.049,3.877
	c2.878,0.441,5.613,0.952,8.146,1.567C328.896,303.708,332.479,301.029,327.767,299.176z"/>
<path fill="#FFFFFF" d="M286.78,136.288c-1.385,0.035-2.787,0.075-4.223,0.129c-1.752-0.054-2.707,3.02,1.228,3.588
	c0.991-0.021,1.989-0.032,2.996-0.037C288.688,140.028,290.046,136.62,286.78,136.288z"/>
<path fill="#FFFFFF" d="M267.062,126.875c-0.725,0.067-1.443,0.145-2.165,0.216c-1.761,0.447-2.506,3.048,0.216,3.048
	c0.522-0.033,1.411-0.043,1.974-0.08C268.439,129.979,269.606,126.767,267.062,126.875z"/>

<path fill="#FFFFFF" d="M280.935,125.892c-1.423,0.063-2.875,0.142-4.343,0.231c-2.31,0.325-2.177,3.334,0.4,3.457
	c1.281-0.038,2.597-0.082,3.943-0.114C282.431,129.297,283.78,125.61,280.935,125.892z"/>
<path fill="#FFFFFF" d="M282.98,115.211c-1.912,0.076-3.864,0.165-5.857,0.283c-1.342-0.053-3.111,3.197,0.415,3.474
	c1.656-0.055,3.392-0.102,5.17-0.137C284.607,118.842,285.423,115.387,282.98,115.211z"/>
<path fill="#FFFFFF" d="M288.284,105.29c-1.907,0.028-3.864,0.087-5.853,0.165c-1.489,0.071-2.304,3.146,1.354,3.58
	c1.476-0.022,2.971-0.039,4.5-0.047C289.23,108.919,291.139,105.454,288.284,105.29z"/>
<path fill="#FFFFFF" d="M283.784,97.257c-1.02,0.03-2.063,0.071-3.124,0.122c-1.214,0.133-3.668,3.176,0.551,3.557
	c0.848-0.018,1.7-0.039,2.573-0.053C285.423,100.907,286.365,97.264,283.784,97.257z"/>
<path fill="#FFFFFF" d="M284.469,92.724c0.856-0.018,1.721-0.024,2.585-0.03c2.316-0.064,1.365-3.465-0.82-3.666
	c-0.498,0.017-0.991,0.027-1.496,0.042C283.385,89.228,281.619,92.279,284.469,92.724z"/>
<path fill="#FFFFFF" d="M260.168,170.864c-0.566,0.05-1.026,0.098-1.378,0.138c-6.787,0.54-6.51-2.175,0.278-2.989
	C262.602,168.013,264.526,170.73,260.168,170.864z"/>
</svg>