<?xml version="1.0" encoding="UTF-8" standalone="no"?>
<svg width="21px" height="15px" viewBox="0 0 21 15" version="1.1" xmlns="http://www.w3.org/2000/svg" xmlns:xlink="http://www.w3.org/1999/xlink">
    <!-- Generator: Sketch 3.8.2 (29753) - http://www.bohemiancoding.com/sketch -->
    <title>SG</title>
    <desc>Created with Sketch.</desc>
    <defs>
        <rect id="path-1" x="0" y="0" width="21" height="15" rx="2"></rect>
        <path d="M7.43759486,0.5 L3.36260955,0.5 L3.24878315,0.5 L1.49839394,0.5 C0.946996191,0.5 0.5,0.949948758 0.5,1.50684547 L0.5,13.4931545 C0.5,14.0492199 0.955305576,14.5 1.49180311,14.5 L19.5081969,14.5 C20.0559546,14.5 20.5,14.0500512 20.5,13.4931545 L20.5,1.50684547 C20.5,0.950780073 20.0545211,0.5 19.4987694,0.5 L7.43759486,0.5 Z" id="path-3"></path>
    </defs>
    <g id=":)" stroke="none" stroke-width="1" fill="none" fill-rule="evenodd">
        <g id="Flags-by-@lucchaissac" transform="translate(-205.000000, -230.000000)">
            <g id="SG" transform="translate(205.000000, 230.000000)">
                <mask id="mask-2" fill="white">
                    <use xlink:href="#path-1"></use>
                </mask>
                <use id="background" fill="#FFFFFF" xlink:href="#path-1"></use>
                <rect id="Rectangle-366" fill="#ED3A40" mask="url(#mask-2)" x="0" y="0" width="21" height="8"></rect>
                <path d="M5,5.73243561 C4.70582663,5.90260571 4.36428714,6 4,6 C2.8954305,6 2,5.1045695 2,4 C2,2.8954305 2.8954305,2 4,2 C4.36428714,2 4.70582663,2.09739429 5,2.26756439 C4.40219863,2.61337381 4,3.25971764 4,4 C4,4.74028236 4.40219863,5.38662619 5,5.73243561 Z" id="Oval-28" fill="#FFFFFF" mask="url(#mask-2)"></path>
                <path d="M6,5 L6,6 L7,6 L7,5 L6,5 Z M8,5 L8,6 L9,6 L9,5 L8,5 Z M9,3 L9,4 L10,4 L10,3 L9,3 Z M5,3 L5,4 L6,4 L6,3 L5,3 Z M7,2 L7,3 L8,3 L8,2 L7,2 Z" id="Rectangle-368" fill="#FFFFFF" mask="url(#mask-2)"></path>
                <mask id="mask-4" fill="white">
                    <use xlink:href="#path-3"></use>
                </mask>
                <use id="overlay" stroke-opacity="0.156646286" stroke="#2F343A" xlink:href="#path-3"></use>
            </g>
        </g>
    </g>
</svg>