<?xml version="1.0" encoding="utf-8"?>
<!-- Generator: Adobe Illustrator 14.0.0, SVG Export Plug-In . SVG Version: 6.00 Build 43363)  -->
<svg version="1.2" baseProfile="tiny" id="Layer_1" xmlns:svg="http://www.w3.org/2000/svg"
	 xmlns="http://www.w3.org/2000/svg" xmlns:xlink="http://www.w3.org/1999/xlink" x="0px" y="0px" width="28px"
	 height="21px" viewBox="0 0 430.9 480.65" xml:space="preserve">
<g id="g3" transform="matrix(11.576693,0,0,11.576693,-25336.222,-14858.668)">
	<polygon id="polygon5" fill="#ED2127" points="2207.051,1324.253 2224.641,1306.662 2218.852,1293.381 2222.123,1293.381 
		2222.123,1284.701 2191.977,1284.701 2191.977,1293.381 2195.249,1293.381 2189.46,1306.662 	"/>
	<path id="path7" fill="#FBEE23" d="M2193.626,1286.35c0,1.656,0,3.726,0,5.382c0.812,0,26.037,0,26.849,0c0-1.656,0-3.726,0-5.382
		C2217.698,1286.35,2196.403,1286.35,2193.626,1286.35L2193.626,1286.35z"/>
	<path id="path9" d="M2207.051,1293.381h-10.002c-1.533,3.517-5.034,11.548-5.628,12.91c1.348,1.349,13.695,13.696,15.63,15.631
		V1293.381L2207.051,1293.381z"/>
	<path id="path11" fill="#FBEE23" d="M2217.052,1293.381h-10.002v28.541c1.935-1.935,14.281-14.282,15.63-15.631
		C2222.086,1304.929,2218.585,1296.898,2217.052,1293.381L2217.052,1293.381z"/>
	<polygon id="polygon13" points="2197.451,1288.341 2198.037,1291.05 2198.8,1291.05 2199.703,1287.221 2199.006,1287.221 
		2198.425,1290.165 2197.843,1287.221 2197.109,1287.221 2196.519,1290.165 2195.927,1287.221 2195.219,1287.221 2196.122,1291.05 
		2196.915,1291.05 	"/>
	<path id="path15" d="M2201.003,1289.69l0.421-1.301l0.421,1.301H2201.003L2201.003,1289.69z M2202.284,1291.05h0.733l-1.23-3.345
		h-0.727l-1.23,3.345h0.733l0.252-0.779h1.218L2202.284,1291.05L2202.284,1291.05z"/>
	<polygon id="polygon17" points="2203.029,1287.706 2203.029,1288.287 2203.945,1288.287 2203.945,1291.05 2204.647,1291.05 
		2204.647,1288.287 2205.544,1288.287 2205.683,1287.706 	"/>
	<polygon id="polygon19" points="2206.278,1287.706 2206.278,1291.05 2206.956,1291.05 2206.956,1289.6 2207.97,1289.6 
		2207.97,1289.02 2206.956,1289.02 2206.956,1288.287 2208.132,1288.287 2208.271,1287.706 	"/>
	<path id="path21" d="M2210.259,1290.605c-0.667,0-0.832-0.543-0.832-1.212s0.165-1.212,0.832-1.212s0.832,0.543,0.832,1.212
		S2210.925,1290.605,2210.259,1290.605L2210.259,1290.605z M2210.259,1287.663c-1.139,0-1.616,0.774-1.616,1.73
		c0,0.955,0.477,1.73,1.616,1.73s1.617-0.775,1.617-1.73C2211.875,1288.438,2211.398,1287.663,2210.259,1287.663L2210.259,1287.663z
		"/>
	<path id="path23" d="M2213.894,1289.158h-0.527v-0.871h0.527c0.191,0,0.479,0.03,0.479,0.408S2214.085,1289.158,2213.894,1289.158
		L2213.894,1289.158z M2214.324,1289.637v-0.036c0.224,0,0.787-0.212,0.787-0.927c0-0.714-0.545-0.968-1.169-0.968h-1.267v3.344
		h0.691v-1.395h0.058c0.233,0,1.051,1.395,1.051,1.395h0.872L2214.324,1289.637L2214.324,1289.637z"/>
	<path id="path25" d="M2217.277,1290.469h-0.529v-2.182h0.529c0.456,0,0.719,0.441,0.719,1.099
		C2217.997,1290.045,2217.734,1290.469,2217.277,1290.469L2217.277,1290.469z M2217.254,1287.706h-1.188v3.344h1.188
		c1.066,0,1.51-0.714,1.51-1.663S2218.32,1287.706,2217.254,1287.706L2217.254,1287.706z"/>
	<path id="path27" d="M2201.391,1296.015c0,0.102,0.011,0.166,0.02,0.224c0.01,0.062,0.021,0.125,0.021,0.287
		c0,0.51-0.117,0.749-0.198,0.749c-0.017,0-0.025-0.001-0.031-0.002c-0.009-0.011-0.026-0.033-0.039-0.053
		c-0.138-0.197-0.327-0.406-0.835-0.406c-0.472,0-0.788,0.335-0.788,0.833c0,0.731,0.185,1.322,0.333,1.797
		c0.087,0.276,0.161,0.514,0.161,0.673c0,0.127-0.061,0.252-0.098,0.279c-0.185-0.003-0.246-0.063-0.377-0.191
		c-0.176-0.174-0.418-0.413-0.96-0.413c-0.231,0-0.766,0.079-0.766,0.814c0,0.32,0.112,0.594,0.219,0.858
		c0.115,0.281,0.233,0.571,0.233,0.952c0,0.03-0.003,0.3-0.091,0.3c-0.347,0-0.478-0.215-0.678-0.594
		c-0.175-0.331-0.392-0.741-0.895-0.741c-0.826,0-0.826,1.234-0.826,1.698c0,2.624,2.49,3.575,4.164,3.575
		c0.318,0,0.504-0.027,0.684-0.053c0.186-0.027,0.361-0.053,0.707-0.053c1.016,0,1.785,0.203,2.248,0.587
		c-0.255-0.097-0.559-0.161-0.921-0.161c-0.874,0-1.197,0.208-1.504,0.459c-0.115,0.095-0.2,0.164-0.356,0.209l-1.242,0.355
		l1.26,0.282c0.526,0.118,0.817,0.531,1.126,0.968c0.329,0.466,0.701,0.995,1.385,0.995c0.064,0,0.124-0.005,0.182-0.014
		c-0.059,0.323-0.108,0.732-0.108,1.205c0,0.683,0.167,0.949,0.387,1.226l0.105,0.14c0.098,0.143,0.202,0.282,0.304,0.416
		c0.36,0.476,0.701,0.927,0.701,1.544c0,0.329,0.016,0.595,0.031,0.851c0.016,0.257,0.029,0.499,0.029,0.803
		c0,0.91,0.629,1.192,0.967,1.343c0.034,0.016,0.075,0.034,0.107,0.05c0.065,0.311,0.372,0.413,0.564,0.475l0.067,0.022l0.07,0.028
		c0.098,0.042,0.231,0.1,0.473,0.1c0.629,0,0.905-0.467,0.962-0.856c0.011-0.005,0.022-0.009,0.032-0.014
		c0.277-0.123,0.854-0.377,0.854-1.188c0-0.425-0.053-0.746-0.1-1.029c-0.034-0.209-0.065-0.39-0.065-0.569
		c0-0.514,0.211-0.775,0.5-1.135c0.39-0.486,0.877-1.089,0.877-2.448c0-0.481-0.027-0.849-0.063-1.127
		c0.079,0.018,0.161,0.031,0.246,0.031c0.9,0,1.211-0.54,1.437-0.987c0.422-0.837,1.238-0.788,1.238-0.788s-0.646-1.118-2.185-1.118
		c-0.469,0-0.829,0.094-1.101,0.217c0.126-0.362,0.341-0.523,0.518-0.618c0.425-0.225,1.056-0.245,1.615-0.245
		c0.343,0,0.586,0.025,0.822,0.05c0.222,0.023,0.451,0.047,0.746,0.047c2.269,0,2.865-0.719,3.495-1.48
		c0.536-0.646,0.891-1.273,0.891-2.243c0-0.652-0.188-1.348-0.718-1.348c-0.458,0-0.655,0.428-0.813,0.772
		c-0.189,0.41-0.3,0.582-0.495,0.582c-0.255,0-0.462-0.251-0.462-0.559c0-0.285,0.189-0.645,0.372-0.993
		c0.208-0.398,0.425-0.809,0.425-1.217c0-0.23-0.095-0.435-0.268-0.577c-0.144-0.119-0.329-0.185-0.522-0.185
		c-0.403,0-0.724,0.335-1.035,0.659c-0.198,0.207-0.468,0.488-0.632,0.498c-0.033-0.029-0.084-0.143-0.084-0.234
		c0-0.283,0.126-0.701,0.249-1.104c0.132-0.434,0.255-0.845,0.255-1.174c0-0.711-0.414-1.028-0.825-1.028
		c-0.374,0-0.617,0.175-0.812,0.316c-0.146,0.105-0.24,0.166-0.355,0.175c-0.003-0.005-0.005-0.009-0.006-0.014
		c0-0.015,0.001-0.34,0.001-0.34c0-0.103,0.001-0.203,0.001-0.299c0-0.753-0.031-1.265-0.323-1.558
		c-0.142-0.143-0.328-0.215-0.552-0.215c-1.031,0-1.494,1.362-1.494,2.711c0,0.626,0.026,1.179,0.051,1.713
		c0.024,0.51,0.046,0.99,0.046,1.512c0,1.252-0.256,2.277-0.475,2.813c-0.071-0.597-0.18-1.496-0.875-1.496
		c-0.576,0-0.711,0.736-0.866,1.588c-0.14,0.765-0.333,1.813-0.808,1.813c-0.399,0-0.514-0.729-0.625-1.682
		c-0.108-0.934-0.231-1.992-1.062-1.992c-0.904,0-0.963,1.172-1.001,1.947c-0.005,0.097-0.011,0.212-0.02,0.323
		c-0.221-0.433-0.487-1.178-0.487-1.862c0-0.868,0.054-1.548,0.108-2.206c0.051-0.63,0.104-1.282,0.104-2.074
		c0-1.746-0.434-2.218-0.817-2.634l-0.027-0.029c-0.257-0.279-0.499-0.543-0.88-0.543
		C2201.677,1294.992,2201.391,1295.507,2201.391,1296.015L2201.391,1296.015z"/>
	<path id="path29" fill="#ED2127" d="M2209.477,1310.547l-0.056,0.092c0,0-0.311-0.101-0.598-0.101
		c-0.517,0-0.707,0.355-0.707,0.355s0.17-0.101,0.505-0.101c0.444,0,0.767,0.238,0.767,0.327c0,0.092-0.137,0.141-0.247,0.141
		c0,0.214-0.291,0.509-1.168,0.509c0,0.432,0.267,0.719,0.267,0.845c-0.223,0-0.255,0.214-0.255,0.594c0,0-0.307-1.216-0.307-1.705
		c0-0.723,0.291-1.269,0.909-1.269C2209.029,1310.236,2209.477,1310.547,2209.477,1310.547L2209.477,1310.547z M2211.346,1308.113
		c0.136,0,0.212,0.024,0.212,0.024c-0.815,0.149-0.806,1.134-1.458,1.134c-0.142,0-0.236-0.064-0.236-0.064
		c0.092-0.179,0.397-0.222,0.397-0.463c-0.211,0-0.366,0.018-0.573,0.06C2209.689,1308.725,2210.341,1308.113,2211.346,1308.113
		L2211.346,1308.113z M2205.889,1313.261v-0.525c0-0.146-0.065-0.209-0.194-0.209l0.34-0.776v-0.077
		c-0.602,0-1.124-0.121-1.124-0.549h-0.17c-0.036,0-0.114-0.041-0.114-0.114c0-0.053,0.202-0.282,0.679-0.282
		c0.364,0,0.582,0.153,0.582,0.153s-0.206-0.485-0.76-0.485c-0.327,0-0.412,0.044-0.412,0.044s0.198-0.255,0.464-0.255
		c0.836,0,1.054,0.525,1.054,1.45C2206.237,1312.615,2205.889,1313.261,2205.889,1313.261L2205.889,1313.261z M2203.567,1308.895
		c0,0.085,0.271,0.15,0.428,0.15c0,0.097-0.19,0.238-0.367,0.238c-0.683,0-0.352-1.059-1.717-1.325c0,0,0.073-0.032,0.25-0.032
		c1.078,0,1.39,0.836,1.976,0.836C2203.966,1308.781,2203.567,1308.794,2203.567,1308.895L2203.567,1308.895z M2217.233,1301.914
		c-0.546,0-0.509,1.353-1.309,1.353c-0.442,0-0.792-0.396-0.792-0.889c0-0.719,0.796-1.544,0.796-2.21
		c0-0.285-0.24-0.432-0.461-0.432c-0.537,0-1.083,1.16-1.676,1.16c-0.279,0-0.405-0.364-0.405-0.566c0-0.646,0.505-1.7,0.505-2.278
		c0-0.464-0.211-0.699-0.495-0.699c-0.527,0-0.703,0.495-1.198,0.495c-0.189,0-0.303-0.207-0.303-0.34
		c0-1.297,0.066-2.091-0.544-2.091c-0.79,0-1.163,1.194-1.163,2.382c0,1.206,0.097,2.139,0.097,3.226
		c0,1.683-0.406,3.094-0.76,3.398c0,0-0.088,0.98,0.299,0.98c0.782,0,2.052-2.19,3.628-2.19c0.711,0,0.76,0.437,0.76,0.614
		c0,0.573-0.808,0.865-0.808,1.228c0,0.186,0.282,0.202,0.63,0.202c1.034,0,1.794-0.638,1.794-0.638s-0.743,0.881-1.906,0.881
		c-0.51,0-0.905-0.161-0.905-0.461c0-0.476,0.962-0.856,0.962-1.333c0-0.145-0.161-0.347-0.525-0.347
		c-1.285,0-2.642,2.432-3.7,2.432c-0.218,0-0.521-0.145-0.521-0.698c0-0.472-0.037-2.422-0.627-2.422
		c-0.709,0-0.369,3.401-1.675,3.401c-1.379,0-0.556-3.674-1.687-3.674c-0.687,0-0.579,0.995-0.687,1.89
		c-0.089,0.733-0.301,1.4-0.751,1.4c-0.594,0-1.014-0.273-1.52-0.586c-0.322-0.199-0.664-0.395-0.948-0.608
		c-0.461-0.345-0.714-0.69-1.169-0.69c-0.242,0-0.509,0.133-0.509,0.381c0,0.485,0.509,0.673,0.509,1.091
		c0,0.236-0.345,0.424-0.74,0.424c-1.2,0-1.921-0.787-1.921-1.103c0,0,0.6,0.848,1.975,0.848c0.297,0,0.406-0.066,0.406-0.212
		c0-0.272-0.412-0.515-0.412-1.042c0-0.333,0.26-0.606,0.636-0.606c0.479,0,0.803,0.35,1.297,0.709
		c0.711,0.517,1.636,1.102,2.345,1.102c0.272,0,0.454-0.121,0.454-0.404c0-0.269-0.806-1.007-0.806-2.517
		c0-1.726,0.212-2.69,0.212-4.28c0-1.658-0.397-2.048-0.757-2.44c-0.27-0.295-0.418-0.437-0.636-0.437
		c-0.376,0-0.503,0.412-0.503,0.695c0,0.173,0.042,0.184,0.042,0.511c0,0.588-0.139,1.078-0.527,1.078
		c-0.454,0-0.218-0.461-0.905-0.461c-0.329,0-0.458,0.236-0.458,0.503c0,1.139,0.494,1.952,0.494,2.469
		c0,0.258-0.149,0.609-0.414,0.609c-0.685,0-0.564-0.606-1.35-0.606c-0.335,0-0.437,0.194-0.437,0.485
		c0,0.563,0.452,0.994,0.452,1.809c0,0.36-0.121,0.63-0.42,0.63c-1.022,0-0.895-1.336-1.572-1.336c-0.346,0-0.496,0.453-0.496,1.368
		c0,2.448,2.392,3.246,3.834,3.246c0.612,0,0.678-0.105,1.391-0.105c3.347,0,3.077,2.049,3.077,2.049s-0.428-0.965-1.75-0.965
		c-1.289,0-1.149,0.476-1.77,0.655c1.287,0.289,1.401,1.955,2.44,1.955c0.464,0,0.694-0.355,0.694-0.355s-0.291,0.75-0.291,1.877
		c0,0.77,0.227,0.875,0.435,1.181c0.443,0.651,1.062,1.226,1.062,2.146c0.148,0,0.26-0.685,0.343-0.685c0.054,0,0.1,0.106,0.1,0.257
		c0,0.351-0.381,0.969-0.381,2.082c0,0.667,0.418,0.883,0.73,1.024c0.076,0,0.513-0.917,0.513-0.917
		c-0.262,0.714-0.182,1.115-0.182,1.163c0,0.19,0.185,0.229,0.421,0.307c0.134,0.045,0.203,0.111,0.438,0.111
		c0.548,0,0.644-0.488,0.644-0.68c0-0.194-0.198-0.558-0.198-0.776c0,0-0.008-0.133,0.024-0.133c0.068,0,0.358,0.762,0.358,0.762
		c0.257-0.114,0.69-0.28,0.69-0.901c0-0.723-0.438-1.705-0.438-2.147c0-0.102,0.036-0.17,0.073-0.17c0.085,0,0.228,0.4,0.228,0.4
		c0.189-1.106,1.352-1.211,1.352-3.263c0-1.299-0.198-1.717-0.198-1.717s0.345,0.291,0.71,0.291c1.252,0,0.956-1.248,1.939-1.664
		c0-0.124-0.529-0.57-1.45-0.57c-1.163,0-1.539,0.631-1.539,0.631c0-1.826,1.279-1.935,2.569-1.935c0.691,0,0.988,0.097,1.568,0.097
		c2.117,0,2.637-0.631,3.244-1.364c0.539-0.651,0.812-1.212,0.812-2.03C2217.621,1302.49,2217.512,1301.914,2217.233,1301.914
		L2217.233,1301.914z"/>
	<path id="path31" fill="#ED2127" d="M2208.083,1311.387l-0.048,0.105c0,0,0.101,0.073,0.318,0.073c0.437,0,0.629-0.354,0.586-0.396
		c-0.042-0.042-0.231,0.271-0.57,0.271C2208.167,1311.44,2208.083,1311.387,2208.083,1311.387L2208.083,1311.387z"/>
	<path id="path33" fill="#ED2127" d="M2208.556,1311.266c0,0.033-0.043,0.061-0.097,0.061c-0.053,0-0.097-0.027-0.097-0.061
		c0-0.033,0.043-0.061,0.097-0.061C2208.513,1311.205,2208.556,1311.233,2208.556,1311.266L2208.556,1311.266z"/>
	<path id="path35" fill="#ED2127" d="M2205.216,1311.104c0.045,0.034,0.136,0.263,0.375,0.263c0.174,0,0.198-0.065,0.252-0.095
		c0.054-0.03,0.111,0.027,0.077,0.077c-0.034,0.051-0.099,0.115-0.321,0.115c-0.287,0-0.454-0.234-0.476-0.291
		C2205.083,1311.074,2205.124,1311.04,2205.216,1311.104L2205.216,1311.104z"/>
	<path id="path37" fill="#ED2127" d="M2205.634,1311.172c0,0.031-0.036,0.056-0.08,0.056c-0.045,0-0.081-0.025-0.081-0.056
		c0-0.03,0.036-0.055,0.081-0.055C2205.598,1311.117,2205.634,1311.142,2205.634,1311.172L2205.634,1311.172z"/>
</g>
</svg>
