<svg width="40px" height="37px" viewBox="0 0 40 37" version="1.1" xmlns="http://www.w3.org/2000/svg" xmlns:xlink="http://www.w3.org/1999/xlink">
    <!-- Generator: sketchtool 3.8.2 (29753) - http://www.bohemiancoding.com/sketch -->
    <title>B2072B32-587D-47BE-9EF3-415472E71DF0</title>
    <desc>Created with sketchtool.</desc>
    <defs>
        <rect id="path-1" x="0.875058315" y="0.745762712" width="439.279274" height="72.2542373" rx="36.1271186"></rect>
        <filter x="-50%" y="-50%" width="200%" height="200%" filterUnits="objectBoundingBox" id="filter-2">
            <feOffset dx="2" dy="2" in="SourceAlpha" result="shadowOffsetOuter1"></feOffset>
            <feGaussianBlur stdDeviation="0.5" in="shadowOffsetOuter1" result="shadowBlurOuter1"></feGaussianBlur>
            <feComposite in="shadowBlurOuter1" in2="SourceAlpha" operator="out" result="shadowBlurOuter1"></feComposite>
            <feColorMatrix values="0 0 0 0 0   0 0 0 0 0   0 0 0 0 0  0 0 0 0.2 0" type="matrix" in="shadowBlurOuter1"></feColorMatrix>
        </filter>
        <mask id="mask-3" maskContentUnits="userSpaceOnUse" maskUnits="objectBoundingBox" x="0" y="0" width="439.279274" height="72.2542373" fill="white">
            <use xlink:href="#path-1"></use>
        </mask>
    </defs>
    <g id="Page-1" stroke="none" stroke-width="1" fill="none" fill-rule="evenodd">
        <g id="sportify---login" transform="translate(-869.000000, -434.000000)">
            <g id="Group" transform="translate(499.000000, 284.000000)">
                <g id="PASSWORD" transform="translate(0.000000, 132.000000)">
                    <g id="Group-5">
                        <g id="Rectangle-225">
                            <use fill="black" fill-opacity="1" filter="url(#filter-2)" xlink:href="#path-1"></use>
                            <use stroke-opacity="0.7" stroke="#FFFFFF" mask="url(#mask-3)" stroke-width="2" fill-opacity="0.161656476" fill="#FFFFFF" fill-rule="evenodd" xlink:href="#path-1"></use>
                        </g>
                    </g>
                    <g id="controller" transform="translate(370.000000, 18.000000)" fill-opacity="0.8" fill="#FFFFFF">
                        <path d="M16.5526761,26.8222388 L23.2050704,26.8222388 C23.6698592,26.8222388 24.0861972,27.121 24.2552113,27.5451194 C25.6287324,30.9977164 29.9369014,34.2586866 32.2732394,34.2586866 C35.6490141,34.2586866 37.343662,25.6741343 37.343662,20.8768358 C37.343662,16.8554328 34.0580282,13.5685075 30.0197183,13.5685075 L9.73802817,13.5685075 C5.76788732,13.5685075 2.41408451,16.9487612 2.41408451,20.9270896 C2.41408451,26.3390299 4.21971831,34.1791642 7.48450704,34.1791642 C9.83492958,34.1791642 14.1453521,30.9524328 15.5030986,27.5401493 C15.6715493,27.1165821 16.0884507,26.8222388 16.5526761,26.8222388 L16.5526761,26.8222388 Z M32.2732394,36.458806 C28.9949296,36.458806 24.3543662,32.8968657 22.4687324,29.031194 L17.2890141,29.031194 C15.4140845,32.8968657 10.7757746,36.3787313 7.48450704,36.3787313 C1.50647887,36.3787313 0.16056338,24.9258507 0.16056338,20.9171493 C0.16056338,15.6526567 4.45690141,11.3595522 9.73802817,11.3595522 L30.0197183,11.3595522 C35.3008451,11.3595522 39.5971831,15.6322239 39.5971831,20.8718657 C39.5971831,24.912597 38.2512676,36.458806 32.2732394,36.458806 L32.2732394,36.458806 Z" id="Fill-360"></path>
                        <path d="M19.0338028,25.7177612 L18.4704225,25.7177612 C18.1588732,25.7177612 17.9070423,25.4709104 17.9070423,25.1655224 C17.9070423,24.8606866 18.1588732,24.6132836 18.4704225,24.6132836 L19.0338028,24.6132836 C19.3453521,24.6132836 19.5971831,24.8606866 19.5971831,25.1655224 C19.5971831,25.4709104 19.3453521,25.7177612 19.0338028,25.7177612" id="Fill-361"></path>
                        <path d="M7.53859155,32.7096567 C7.22704225,32.7096567 6.97521127,32.4716418 6.97521127,32.1662537 C6.97521127,31.8608657 7.22704225,31.6189851 7.53859155,31.6189851 C9.15605634,31.6189851 13.1278873,27.6434179 14.1780282,24.9827313 C14.2619718,24.7706716 14.4709859,24.6132836 14.703662,24.6132836 L16.7802817,24.6132836 C17.091831,24.6132836 17.343662,24.8606866 17.343662,25.1655224 C17.343662,25.4709104 17.091831,25.7177612 16.7802817,25.7177612 L15.0771831,25.7177612 C13.8129577,28.4789552 9.86253521,32.7096567 7.53859155,32.7096567" id="Fill-362"></path>
                        <path d="M19.8687324,13.4437015 C19.543662,13.4437015 19.2214085,13.3067463 18.9988732,13.0422239 C18.6033803,12.5717164 18.6709859,11.8753433 19.1504225,11.4871194 C20.0929577,10.7250299 20.7138028,9.70449254 20.7312676,8.88828358 C20.7408451,8.43434328 20.5707042,8.06765672 20.1938028,7.73576119 C18.9323944,6.623 16.3092958,4.30801493 18.7752113,0.97580597 C19.1414085,0.482656716 19.8450704,0.373313433 20.3492958,0.730059701 C20.8529577,1.08901493 20.9650704,1.77931343 20.5994366,2.27301493 C19.5864789,3.64201493 19.8129577,4.42785075 21.7014085,6.09395522 C22.564507,6.85549254 23.0084507,7.83737313 22.9847887,8.93522388 C22.9521127,10.410806 22.0552113,12.001806 20.5853521,13.1913284 C20.3752113,13.3603134 20.1211268,13.4437015 19.8687324,13.4437015" id="Fill-363"></path>
                        <path d="M9.67098592,25.7564179 C9.35943662,25.7564179 9.10760563,25.5090149 9.10760563,25.2041791 L9.10760563,17.4728358 C9.10760563,17.1674478 9.35943662,16.920597 9.67098592,16.920597 C9.98253521,16.920597 10.2343662,17.1674478 10.2343662,17.4728358 L10.2343662,25.2041791 C10.2343662,25.5090149 9.98253521,25.7564179 9.67098592,25.7564179" id="Fill-364"></path>
                        <path d="M13.4,21.8520896 L5.51267606,21.8520896 C5.20112676,21.8520896 4.94929577,21.6052388 4.94929577,21.2998507 C4.94929577,20.9950149 5.20112676,20.7476119 5.51267606,20.7476119 L13.4,20.7476119 C13.7115493,20.7476119 13.9633803,20.9950149 13.9633803,21.2998507 C13.9633803,21.6052388 13.7115493,21.8520896 13.4,21.8520896" id="Fill-365"></path>
                        <path d="M30.4101408,18.708194 C30.195493,18.708194 29.9932394,18.7893731 29.8416901,18.9384776 C29.6895775,19.0875821 29.6061972,19.2852836 29.6061972,19.4962388 C29.6061972,19.7066418 29.6895775,19.9043433 29.8416901,20.0534478 C30.1453521,20.352209 30.6738028,20.352209 30.9785915,20.0534478 C31.1307042,19.9043433 31.2140845,19.7066418 31.2140845,19.4962388 C31.2140845,19.2858358 31.1307042,19.0881343 30.9780282,18.9384776 C30.8264789,18.7893731 30.6242254,18.708194 30.4101408,18.708194 L30.4101408,18.708194 Z M30.4101408,21.3893134 C29.8940845,21.3893134 29.4090141,21.1916119 29.044507,20.8337612 C28.68,20.4770149 28.4794366,20.0020896 28.4794366,19.4962388 C28.4794366,18.9903881 28.68,18.5149104 29.0450704,18.1576119 C29.7735211,17.4424627 31.0461972,17.4424627 31.7746479,18.1576119 C32.1402817,18.5149104 32.3408451,18.9903881 32.3408451,19.4962388 C32.3408451,20.0020896 32.1402817,20.4770149 31.7752113,20.8343134 C31.4107042,21.1916119 30.9261972,21.3893134 30.4101408,21.3893134 L30.4101408,21.3893134 Z" id="Fill-366"></path>
                        <path d="M33.4985915,21.7355672 C33.2839437,21.7355672 33.0822535,21.8178507 32.9301408,21.966403 C32.7785915,22.1155075 32.6946479,22.313209 32.6946479,22.5236119 C32.6946479,22.7340149 32.7785915,22.9317164 32.9301408,23.0808209 C33.2343662,23.3790299 33.7639437,23.3790299 34.068169,23.0813731 C34.3808451,22.7737761 34.3808451,22.274 34.0676056,21.966403 C33.915493,21.8178507 33.7138028,21.7355672 33.4985915,21.7355672 L33.4985915,21.7355672 Z M33.4991549,24.4166866 C32.9830986,24.4166866 32.4980282,24.2195373 32.1329577,23.8611343 C31.7690141,23.5049403 31.5678873,23.0294627 31.5678873,22.5236119 C31.5678873,22.0177612 31.7690141,21.5428358 32.1335211,21.1855373 C32.8619718,20.4703881 34.1346479,20.4703881 34.8642254,21.1855373 C35.6174648,21.9227761 35.6174648,23.1233433 34.8647887,23.8622388 C34.4991549,24.2200896 34.0146479,24.4166866 33.4991549,24.4166866 L33.4991549,24.4166866 Z" id="Fill-367"></path>
                        <path d="M27.3211268,21.7355672 C27.1064789,21.7355672 26.9047887,21.8178507 26.7526761,21.966403 C26.6011268,22.1155075 26.5171831,22.313209 26.5171831,22.5236119 C26.5171831,22.7340149 26.6005634,22.9317164 26.7521127,23.0808209 C27.0569014,23.3801343 27.5864789,23.3784776 27.8901408,23.0813731 C28.0416901,22.9322687 28.1256338,22.7340149 28.1256338,22.5236119 C28.1256338,22.313209 28.0416901,22.1155075 27.8901408,21.9669552 C27.7374648,21.8178507 27.5357746,21.7355672 27.3211268,21.7355672 L27.3211268,21.7355672 Z M27.3211268,24.4166866 C26.8050704,24.4166866 26.3205634,24.2200896 25.955493,23.8616866 C25.5909859,23.5043881 25.3898592,23.0289104 25.3904225,22.5236119 C25.3904225,22.0177612 25.5915493,21.5428358 25.9560563,21.1855373 C26.684507,20.4703881 27.9577465,20.4703881 28.6861972,21.1855373 C29.0507042,21.5422836 29.2523944,22.017209 29.2523944,22.5230597 C29.2529577,23.0289104 29.051831,23.5049403 28.6867606,23.8622388 C28.3216901,24.2200896 27.8371831,24.4166866 27.3211268,24.4166866 L27.3211268,24.4166866 Z" id="Fill-368"></path>
                        <path d="M30.4101408,24.7634925 C30.195493,24.7634925 29.9932394,24.8452239 29.8416901,24.9943284 C29.6895775,25.1428806 29.6061972,25.3411343 29.6061972,25.5515373 C29.6061972,25.7619403 29.6895775,25.960194 29.8416901,26.1087463 C30.1459155,26.4069552 30.675493,26.4058507 30.9785915,26.1087463 C31.1307042,25.960194 31.2140845,25.7613881 31.2140845,25.5515373 C31.2140845,25.3411343 31.1307042,25.1428806 30.9785915,24.9948806 C30.8264789,24.8452239 30.6242254,24.7634925 30.4101408,24.7634925 L30.4101408,24.7634925 Z M30.4101408,27.4440597 C29.8940845,27.4440597 29.4090141,27.2474627 29.0450704,26.8896119 C28.68,26.5323134 28.4794366,26.0573881 28.4794366,25.5515373 C28.4794366,25.0456866 28.68,24.570209 29.0450704,24.2134627 C29.7735211,23.4983134 31.0461972,23.4983134 31.7746479,24.2134627 C32.1397183,24.5696567 32.3408451,25.0451343 32.3408451,25.5509851 C32.3414085,26.0568358 32.1408451,26.5323134 31.7752113,26.8896119 C31.4107042,27.2474627 30.9261972,27.4440597 30.4101408,27.4440597 L30.4101408,27.4440597 Z" id="Fill-369"></path>
                    </g>
                </g>
            </g>
        </g>
    </g>
</svg>