<svg width="31px" height="39px" viewBox="0 0 31 39" version="1.1" xmlns="http://www.w3.org/2000/svg" xmlns:xlink="http://www.w3.org/1999/xlink">
    <!-- Generator: sketchtool 3.8.2 (29753) - http://www.bohemiancoding.com/sketch -->
    <title>E8294927-CAE0-43BD-B502-EE81AC64EF78</title>
    <desc>Created with sketchtool.</desc>
    <defs>
        <rect id="path-1" x="0" y="0" width="439.279274" height="72.2542373" rx="36.1271186"></rect>
        <filter x="-50%" y="-50%" width="200%" height="200%" filterUnits="objectBoundingBox" id="filter-2">
            <feOffset dx="2" dy="2" in="SourceAlpha" result="shadowOffsetOuter1"></feOffset>
            <feGaussianBlur stdDeviation="0.5" in="shadowOffsetOuter1" result="shadowBlurOuter1"></feGaussianBlur>
            <feComposite in="shadowBlurOuter1" in2="SourceAlpha" operator="out" result="shadowBlurOuter1"></feComposite>
            <feColorMatrix values="0 0 0 0 0   0 0 0 0 0   0 0 0 0 0  0 0 0 0.2 0" type="matrix" in="shadowBlurOuter1"></feColorMatrix>
        </filter>
        <mask id="mask-3" maskContentUnits="userSpaceOnUse" maskUnits="objectBoundingBox" x="0" y="0" width="439.279274" height="72.2542373" fill="white">
            <use xlink:href="#path-1"></use>
        </mask>
    </defs>
    <g id="Page-1" stroke="none" stroke-width="1" fill="none" fill-rule="evenodd">
        <g id="sportify---login" transform="translate(-874.000000, -300.000000)">
            <g id="Group" transform="translate(499.000000, 284.000000)">
                <g id="Group-5">
                    <g id="EMAIL-ADDRESS">
                        <g id="Rectangle-225">
                            <use fill="black" fill-opacity="1" filter="url(#filter-2)" xlink:href="#path-1"></use>
                            <use stroke-opacity="0.8" stroke="#FFFFFF" mask="url(#mask-3)" stroke-width="2" fill-opacity="0" fill="#FFFFFF" fill-rule="evenodd" xlink:href="#path-1"></use>
                        </g>
                        <g id="ghost" transform="translate(375.000000, 16.000000)" fill-opacity="0.8" fill="#FFFFFF">
                            <path d="M20.8284231,29.2913636 L21.0269423,29.2913636 C23.1778654,29.2913636 24.5412692,30.5618182 24.5412692,32.6772727 L24.5412692,34.45 C24.5412692,35.2772727 25.5654615,36.3822727 26.3899423,36.3822727 L26.5890577,36.3822727 C27.31875,36.3822727 28.1181923,35.3659091 28.1181923,34.45 L28.1181923,14.5245455 C28.1181923,7.87090909 22.7367115,2.70045455 15.9018077,2.70045455 L14.8311154,2.70045455 C8.00753846,2.70045455 2.48357692,7.97727273 2.48357692,14.5245455 L2.48357692,34.45 C2.48357692,35.3127273 3.37065385,36.3822727 4.14386538,36.3822727 L4.34238462,36.3822727 C5.05598077,36.3822727 5.46434615,35.2418182 5.46434615,34.45 L5.46434615,32.6772727 C5.46434615,30.4495455 7.63613462,29.2913636 9.70538462,29.2913636 L9.90390385,29.2913636 C12.1877692,29.2913636 13.8105,30.6563636 13.8105,32.6772727 L13.8105,34.45 C13.8105,35.3659091 14.5455577,36.3822727 15.2669038,36.3822727 L15.4654231,36.3822727 C16.1969038,36.3822727 16.7912692,35.3186364 16.7912692,34.45 L16.7912692,32.6772727 C16.7912692,30.6859091 18.4730192,29.2913636 20.8284231,29.2913636 L20.8284231,29.2913636 Z M26.5890577,38.7459091 L26.3899423,38.7459091 C24.2396154,38.7459091 22.1566538,36.595 22.1566538,34.45 L22.1566538,32.6772727 C22.1566538,31.8677273 21.8615577,31.655 21.0269423,31.655 L20.8284231,31.655 C20.2477692,31.655 19.1758846,31.8322727 19.1758846,32.6772727 L19.1758846,34.45 C19.1758846,36.5004545 17.6688077,38.7459091 15.4654231,38.7459091 L15.2669038,38.7459091 C12.9872115,38.7459091 11.4258846,36.4590909 11.4258846,34.45 L11.4258846,32.6772727 C11.4258846,31.7140909 10.3534038,31.655 9.90390385,31.655 L9.70538462,31.655 C8.94588462,31.655 7.84896154,31.9504545 7.84896154,32.6772727 L7.84896154,34.45 C7.84896154,36.5122727 6.60180769,38.7459091 4.34238462,38.7459091 L4.14386538,38.7459091 C2.05017308,38.7459091 0.0989615385,36.6363636 0.0989615385,34.45 L0.0989615385,14.5245455 C0.0989615385,6.67727273 6.69301923,0.336818182 14.8311154,0.336818182 L15.9018077,0.336818182 C23.9373654,0.336818182 30.5028077,6.67727273 30.5028077,14.5245455 L30.5028077,34.45 C30.5028077,36.4531818 28.8133077,38.7459091 26.5890577,38.7459091 L26.5890577,38.7459091 Z" id="Fill-405"></path>
                            <path d="M15.5715385,5.06409091 L15.5506731,5.06409091 C15.4236923,5.06409091 15.2961154,5.03454545 15.1679423,5.03454545 C14.8388654,5.03454545 14.5717885,4.76272727 14.5717885,4.43772727 C14.5717885,4.11272727 14.8388654,3.84090909 15.1679423,3.84090909 C15.3104231,3.84090909 15.4517115,3.84090909 15.5918077,3.84681818 C15.9208846,3.85863636 16.1784231,4.14818182 16.1670962,4.47318182 C16.1557692,4.79227273 15.8910769,5.06409091 15.5715385,5.06409091" id="Fill-406"></path>
                            <path d="M25.7335769,22.1531818 C25.4039038,22.1531818 25.1374231,21.8872727 25.1374231,21.5622727 L25.1374231,14.43 C25.1374231,10.1222727 22.2073269,6.47636364 17.8667308,5.35363636 C17.5483846,5.27090909 17.3504615,4.95181818 17.4333269,4.63272727 C17.5161923,4.31954545 17.8494423,4.13045455 18.1701731,4.21318182 C23.0443269,5.47181818 26.3297308,9.57863636 26.3297308,14.43 L26.3297308,21.5622727 C26.3297308,21.8872727 26.0626538,22.1531818 25.7335769,22.1531818" id="Fill-407"></path>
                            <path d="M8.02423077,13.3781818 C6.76217308,13.3781818 5.735,14.4004545 5.735,15.6472727 C5.735,16.9 6.76217308,17.9163636 8.02423077,17.9163636 C9.28628846,17.9163636 10.3134615,16.9 10.3134615,15.6472727 C10.3134615,14.4004545 9.28628846,13.3781818 8.02423077,13.3781818 L8.02423077,13.3781818 Z M8.02423077,19.0981818 C6.10401923,19.0981818 4.54269231,17.55 4.54269231,15.6472727 C4.54269231,13.7445455 6.10401923,12.1963636 8.02423077,12.1963636 C9.94384615,12.1963636 11.5057692,13.7445455 11.5057692,15.6472727 C11.5057692,17.55 9.94384615,19.0981818 8.02423077,19.0981818 L8.02423077,19.0981818 Z" id="Fill-408"></path>
                            <path d="M16.8085577,13.3781818 C15.5465,13.3781818 14.5193269,14.4004545 14.5193269,15.6472727 C14.5193269,16.9 15.5465,17.9163636 16.8085577,17.9163636 C18.0712115,17.9163636 19.0977885,16.9 19.0977885,15.6472727 C19.0977885,14.4004545 18.0712115,13.3781818 16.8085577,13.3781818 L16.8085577,13.3781818 Z M16.8085577,19.0981818 C14.8889423,19.0981818 13.3270192,17.55 13.3270192,15.6472727 C13.3270192,13.7445455 14.8889423,12.1963636 16.8085577,12.1963636 C18.7281731,12.1963636 20.2900962,13.7445455 20.2900962,15.6472727 C20.2900962,17.55 18.7281731,19.0981818 16.8085577,19.0981818 L16.8085577,19.0981818 Z" id="Fill-409"></path>
                        </g>
                    </g>
                </g>
            </g>
        </g>
    </g>
</svg>