<?xml version="1.0" encoding="utf-8"?>
<!-- Generator: Adobe Illustrator 13.0.0, SVG Export Plug-In . SVG Version: 6.00 Build 14948)  -->
<!DOCTYPE svg PUBLIC "-//W3C//DTD SVG 1.0//EN" "http://www.w3.org/TR/2001/REC-SVG-20010904/DTD/svg10.dtd">
<svg version="1.0" id="Ebene_1" xmlns="http://www.w3.org/2000/svg" xmlns:xlink="http://www.w3.org/1999/xlink" x="0px" y="0px"
	 width="28px" height="21px" viewBox="0 0 323.78 396.197" enable-background="new 0 0 323.78 396.197"
	 xml:space="preserve">
<path d="M290.964,59.99l-0.662-6.158h-34.757C250.432,23.281,223.885,0,191.877,0c-32.001,0-58.555,23.277-63.666,53.832h-94.73
	l-0.666,6.158c-0.025,0.204-0.637,5.957-0.637,15.776c0.003,20.65,2.69,59.318,19.45,102.332
	c16.741,43.001,47.729,90.357,103.879,127.577h0.006c1.599,1.088,3.712,1.795,5.763,1.776c0.208,0,0.409-0.016,0.612-0.027
	c0.202,0.012,0.403,0.027,0.61,0.027c2.044,0.02,4.162-0.688,5.756-1.764l0.022-0.012c56.15-37.226,87.129-84.583,103.875-127.586
	c16.76-43.02,19.447-81.688,19.447-102.328C291.601,65.946,290.99,60.193,290.964,59.99z"/>
<path fill="#E53223" d="M277.815,75.759c0-3.222-0.071-5.944-0.162-8.131h-21.289c-1.606,34.231-29.851,61.492-64.487,61.492
	c-34.628,0-62.88-27.261-64.484-61.492H46.126c-0.091,2.19-0.162,4.918-0.162,8.138c-0.003,19.443,2.579,56.478,18.514,97.324
	c15.829,40.545,44.651,84.85,97.414,120.251c8.166-5.479,15.755-11.173,22.814-17.032l-43.992-50.772l2.124-1.745l0.646-0.528
	l0.837-0.057l0.84-0.02c1.57,0.013,3.12,0.179,4.884,0.179c2.831,0,6.151-0.388,10.453-2.655c1.77-0.956,2.913-2.287,3.696-3.897
	c0.774-1.605,1.125-3.496,1.125-5.292c0.009-1.961-0.443-3.82-0.962-4.827c-0.933-1.948-3.295-3.387-5.658-4.19
	c-1.162-0.395-2.273-0.649-3.076-0.79l-0.942-0.146l-0.29-0.032l-0.115-0.006l-1.627-0.28l-0.882-0.159l-8.264-9.193l3.906-3.377
	l2.685-2.321l3.912-3.382l58.151,67.116c0.688-0.767,1.364-1.536,2.039-2.307l-57.886-66.8l3.908-3.379l57.375,66.219
	c0.665-0.793,1.32-1.588,1.971-2.384l-57.035-65.832l1.339-1.158c0,0,1.967,0.545,5.076,0.676l53.903,62.216
	c0.641-0.817,1.282-1.633,1.906-2.452l-51.848-59.847c1.814-0.151,3.812-0.476,5.908-1.072l49.105,56.678
	c0.617-0.844,1.227-1.688,1.83-2.534l-47.87-55.259c1.734-0.868,2.968-2.089,3.835-3.463l47.083,54.347
	c0.597-0.878,1.176-1.758,1.757-2.637l-47.484-54.801c0.868-3.063,0.61-6.126,0.444-7.372l49.956,57.664
	c0.572-0.906,1.131-1.813,1.687-2.72l-54.17-62.522v-7.883l56.961,65.74c0.622-1.065,1.23-2.13,1.83-3.194l-52.437-60.509
	l3.257-2.824l51.4,59.311c5.228-9.682,9.625-19.32,13.309-28.756C275.236,132.228,277.822,95.203,277.815,75.759z"/>
<path fill="#FFFFFF" d="M203.523,128.07v24.756l21.433,24.732v-57.548C218.464,123.892,211.233,126.666,203.523,128.07z"/>
<path fill="#FFFFFF" d="M170.491,211.521c-0.001,0.872-0.063,1.765-0.19,2.666l36.234,41.801c0.708-0.738,1.417-1.476,2.11-2.218
	l-38.251-44.147C170.455,210.242,170.488,210.875,170.491,211.521z"/>
<path fill="#FFFFFF" d="M166.615,222.403l34.14,39.443c0.73-0.715,1.443-1.436,2.161-2.155l-34.498-39.798
	C167.926,220.773,167.324,221.619,166.615,222.403z"/>
<path fill="#FFFFFF" d="M194.526,142.585c-4.93-5.016-13.757-10.87-22.187-16.478c-9.728-3.085-18.455-8.413-25.579-15.376
	c-6.292,1.03-11.489,8.07-11.489,8.07l-26.509-0.682l-0.455,10.507c0,0-3.891-0.227-7.998,0c-4.117,0.235-4.343,5.947-4.343,5.947
	s-3.2-0.235-6.625,0.681c-3.432,0.917-2.97,6.167-2.97,6.167s-8.915,0.226-11.885,3.661c-2.971,3.426-3.433,10.516-0.456,14.624
	c2.964,4.117,19.883,28.342,24.216,37.932c4.346,9.596,5.034,42.052,5.034,42.052l0.27,0.774
	c15.153,18.677,34.245,36.706,58.343,52.875c8.166-5.479,15.755-11.173,22.814-17.032l-43.992-50.772l2.124-1.745l0.646-0.528
	l0.837-0.057l0.84-0.02c1.57,0.013,3.12,0.179,4.884,0.179c2.831,0,6.151-0.388,10.453-2.655c1.77-0.956,2.913-2.287,3.696-3.897
	c0.774-1.605,1.125-3.496,1.125-5.292c0.009-1.961-0.443-3.82-0.962-4.827c-0.933-1.948-3.295-3.387-5.658-4.19
	c-1.162-0.395-2.273-0.649-3.076-0.79l-0.942-0.146l-0.29-0.032l-0.115-0.006l-1.627-0.28l-0.882-0.159l-8.264-9.193l3.906-3.377
	l2.685-2.321l3.912-3.382l58.151,67.116c0.688-0.767,1.364-1.536,2.039-2.307l-57.886-66.8l3.908-3.379l57.375,66.219
	c0.665-0.793,1.32-1.588,1.971-2.384l-57.035-65.832l1.339-1.158c0,0,1.967,0.545,5.076,0.676l53.903,62.216
	c0.641-0.817,1.282-1.633,1.906-2.452l-51.848-59.847c1.814-0.151,3.812-0.476,5.908-1.072l49.105,56.678
	c0.617-0.844,1.227-1.688,1.83-2.534l-47.87-55.259c1.734-0.868,2.968-2.089,3.835-3.463l47.083,54.347
	c0.597-0.878,1.176-1.758,1.757-2.637l-47.484-54.801c0.868-3.063,0.61-6.126,0.444-7.372l49.956,57.664
	c0.572-0.906,1.131-1.813,1.687-2.72l-54.17-62.522v-7.883l56.961,65.74c0.622-1.065,1.23-2.13,1.83-3.194l-52.437-60.509
	L194.526,142.585z"/>
<path fill="#FFFFFF" d="M159.559,226.799l35.223,40.698c0.748-0.687,1.502-1.373,2.237-2.063l-34.557-39.929
	C161.466,226.013,160.498,226.441,159.559,226.799z"/>
<path fill="#FFFFFF" d="M256.364,67.628c-0.689,14.673-6.273,28.064-15.157,38.578v90.104l4.789,5.525
	c5.228-9.682,9.625-19.32,13.309-28.756c1.188-3.046,2.292-6.067,3.336-9.064V67.628H256.364z"/>
<path fill="#FFFFFF" d="M150.161,228.542l38.488,44.427c0.774-0.668,1.532-1.341,2.292-2.012l-36.951-42.692
	C152.601,228.467,151.319,228.542,150.161,228.542z"/>
<path fill="#FFFFFF" d="M154.82,196.381l0-0.002c0.123,0.018,2.293,0.198,5.02,1.066l-9.744-11.246l-2.685,2.321l7.001,7.795
	L154.82,196.381z"/>
<path fill="#FFFFFF" d="M178.99,120.656l-13.561-20.315l-23.025-6.358c-4.31-7.229-7.071-15.481-7.847-24.316l15.109-19.174
	l-1.088-23.836c0.839-0.958,1.697-1.898,2.597-2.799c5.207-5.202,11.395-9.41,18.266-12.32l22.911,8.534l22.397-8.338
	c6.696,2.902,12.734,7.032,17.824,12.125c0.962,0.962,1.879,1.97,2.772,2.998l-1.027,24.374l14.86,18.689
	c-0.812,8.829-3.607,17.07-7.951,24.283l-23.529,6.597l-13.172,19.916c-4.07,0.913-8.298,1.412-12.648,1.413
	C187.442,122.124,183.133,121.605,178.99,120.656z"/>
<polygon points="216.953,58.175 192.351,40.304 167.753,58.175 177.151,87.087 207.561,87.087 "/>
<path d="M322.072,286.112l-15.28-8.91c3.57-8.366,6.507-17.446,8.909-25.845c4.61-16.263,6.992-29.858,7.007-29.928
	c0.246-1.414-0.398-2.827-1.627-3.565c-1.22-0.726-2.776-0.63-3.896,0.254L291,238.647l-18.692-32.188
	c-0.832-1.433-2.557-2.07-4.12-1.522c-1.563,0.547-2.515,2.114-2.273,3.757c0.242,1.662,0.359,3.477,0.359,5.4
	c0.029,11.22-4.11,25.948-8.326,37.639c-2.101,5.865-4.205,10.997-5.784,14.652c-0.784,1.834-1.442,3.298-1.9,4.292
	c-0.456,1-0.704,1.516-0.704,1.528c-0.793,1.649-0.156,3.617,1.445,4.508l13.257,7.302c-20.02,34.373-58.33,57.693-102.372,57.693
	c-44.042,0-82.352-23.32-102.373-57.693l13.257-7.302c1.601-0.891,2.238-2.859,1.445-4.508c0-0.013-0.249-0.528-0.704-1.528
	c-0.458-0.993-1.118-2.458-1.901-4.292c-1.579-3.655-3.684-8.788-5.785-14.652c-4.215-11.691-8.354-26.419-8.326-37.639
	c0-1.923,0.118-3.738,0.359-5.4c0.242-1.643-0.709-3.209-2.273-3.757c-1.563-0.548-3.289,0.089-4.12,1.522l-18.692,32.188
	l-26.184-20.53c-1.121-0.884-2.678-0.98-3.897-0.254c-1.229,0.738-1.872,2.152-1.627,3.565c0.016,0.07,2.397,13.665,7.008,29.928
	c2.401,8.399,5.338,17.479,8.908,25.845l-15.279,8.91c-1.48,0.866-2.101,2.7-1.452,4.279
	C25.669,352.425,88.49,396.197,161.89,396.197s136.22-43.772,161.633-105.805C324.173,288.813,323.552,286.979,322.072,286.112z"/>
<path fill="#FFFFFF" d="M55.945,277.394l6.584-3.788l-9.992-3.828C53.579,272.363,54.714,274.904,55.945,277.394z"/>
<path fill="#FFFFFF" d="M261.25,273.606l6.584,3.788c1.231-2.49,2.366-5.03,3.408-7.616L261.25,273.606z"/>
<path fill="#FFFFFF" d="M45.037,260.85c0.044-0.025,0.082-0.058,0.127-0.082c0.036-0.018,0.075-0.025,0.111-0.042
	c0.156-0.073,0.316-0.132,0.479-0.181c0.057-0.016,0.114-0.031,0.172-0.044c0.189-0.045,0.38-0.075,0.574-0.087
	c0.031-0.001,0.061-0.001,0.091-0.003c0.453-0.016,0.911,0.052,1.349,0.217c0.061,0.023,0.119,0.053,0.178,0.08l16.219,6.202
	c-1.471-3.5-3.234-7.914-5.002-12.847c-3.556-9.974-7.159-21.976-8.33-33.057L36.753,245.55c-0.503,0.854-1.354,1.458-2.334,1.644
	c-0.98,0.197-1.993-0.051-2.776-0.663l-21.951-17.22c1.445,6.653,3.732,16.232,6.815,26.223c1.864,6.096,4.055,12.345,6.5,18.159
	l21.966-12.81C44.994,260.871,45.016,260.862,45.037,260.85z"/>
<path fill="#FFFFFF" d="M275.663,260.708c0.059-0.027,0.115-0.056,0.176-0.08c0.438-0.165,0.896-0.233,1.349-0.217
	c0.03,0.001,0.061,0.001,0.092,0.003c0.193,0.012,0.385,0.042,0.573,0.087c0.058,0.014,0.114,0.028,0.172,0.044
	c0.163,0.048,0.324,0.108,0.481,0.181c0.036,0.017,0.074,0.023,0.109,0.041c0.045,0.022,0.082,0.056,0.126,0.081
	c0.021,0.013,0.044,0.021,0.065,0.034l21.967,12.81c2.444-5.813,4.636-12.063,6.5-18.159c3.083-9.991,5.371-19.57,6.815-26.223
	l-21.951,17.22c-0.784,0.611-1.796,0.859-2.776,0.663c-0.981-0.186-1.831-0.79-2.333-1.644l-14.253-24.543
	c-1.172,11.082-4.774,23.083-8.331,33.057c-1.768,4.933-3.531,9.345-5.001,12.847L275.663,260.708z"/>
<path fill="#FFFFFF" d="M161.89,389.313c-69.523,0-129.046-40.844-154.086-98.769l37.025-21.601
	c17.042,46.463,63.057,79.648,117.062,79.648s100.02-33.185,117.062-79.648l37.025,21.601
	C290.937,348.469,231.413,389.313,161.89,389.313z"/>
<path fill="#E53223" d="M45.276,287.386l2.945,4.585l-18.062,24.611l-3.041-4.744l3.744-5.038l-6.313-9.837l-6.183,1.248
	l-3.041-4.75 M40.373,293.779l-10.354,2.032l4.171,6.501L40.373,293.779z"/>
<polyline fill="#E53223" points="55.493,302.197 64.675,312.914 60.701,316.308 55.028,309.685 51.061,313.085 56.738,319.714 
	52.771,323.108 47.094,316.486 37.357,324.821 33.855,320.727 "/>
<path fill="#E53223" d="M82.18,335.054l-5.209,0.299c-0.197-3.751-1.519-6.667-3.97-8.743c-2.066-1.783-4.413-2.547-7.033-2.343
	c-2.623,0.21-4.813,1.35-6.584,3.42c-1.235,1.445-2.016,2.986-2.343,4.648c-0.328,1.649-0.191,3.292,0.411,4.896
	c0.605,1.63,1.608,3.031,3.006,4.228c1.197,1.019,2.477,1.719,3.846,2.114c1.372,0.408,3.155,0.522,5.352,0.357l0.299,5.298
	c-2.938,0.191-5.374,0-7.313-0.611c-1.939-0.611-3.824-1.694-5.651-3.248c-3.365-2.872-5.212-6.291-5.54-10.258
	c-0.322-3.967,0.939-7.609,3.786-10.946c1.847-2.165,3.967-3.667,6.38-4.508c2.404-0.853,4.951-1.005,7.641-0.477
	c2.693,0.535,5.091,1.7,7.189,3.489c1.789,1.528,3.19,3.369,4.203,5.534C81.654,330.361,82.167,332.653,82.18,335.054"/>
<path fill="#E53223" d="M82.676,362.321l12.287-25.707l4.031,1.93c2.343,1.114,3.979,2.088,4.916,2.897
	c1.337,1.14,2.203,2.49,2.579,4.024c0.379,1.541,0.213,3.056-0.506,4.56c-0.468,0.974-1.099,1.764-1.888,2.355
	c-0.79,0.611-1.818,1.032-3.072,1.293c1.21,1.477,1.92,2.942,2.114,4.393c0.191,1.452-0.066,2.917-0.79,4.433
	c-0.688,1.445-1.697,2.585-3.005,3.419c-1.315,0.834-2.7,1.254-4.164,1.292c-1.455,0.025-3.226-0.458-5.295-1.452 M92.922,353.368
	l-3.159,6.604l1.236,0.592c2.031,0.974,3.531,1.375,4.482,1.191c0.958-0.172,1.672-0.751,2.14-1.726
	c0.525-1.107,0.532-2.184,0.006-3.235c-0.525-1.031-1.754-2.018-3.687-2.941L92.922,353.368z M97.589,343.6l-2.576,5.394
	l1.073,0.516c1.204,0.573,2.21,0.745,3.031,0.522c0.818-0.216,1.429-0.758,1.847-1.611c0.382-0.809,0.407-1.573,0.076-2.299
	c-0.325-0.738-1.054-1.375-2.178-1.916L97.589,343.6z"/>
<path fill="#E53223" d="M119.727,354.125c1.91,0.554,3.566,1.561,4.979,3c1.401,1.445,2.34,3.126,2.808,5.031
	c0.468,1.91,0.427,3.808-0.124,5.711s-1.547,3.547-2.98,4.929c-1.436,1.381-3.104,2.311-5.018,2.77
	c-1.911,0.458-3.853,0.395-5.83-0.172c-2.903-0.847-5.084-2.598-6.54-5.26c-1.458-2.655-1.757-5.469-0.904-8.417
	c0.923-3.152,2.85-5.444,5.785-6.877C114.473,353.604,117.078,353.354,119.727,354.125 M118.424,358.914
	c-1.582-0.465-3.053-0.299-4.425,0.491c-1.366,0.802-2.302,2.05-2.802,3.775c-0.516,1.758-0.411,3.344,0.309,4.725
	c0.723,1.401,1.882,2.331,3.474,2.795c1.592,0.458,3.082,0.293,4.461-0.502c1.378-0.796,2.317-2.07,2.827-3.814
	c0.5-1.732,0.395-3.292-0.325-4.687C121.213,360.308,120.045,359.385,118.424,358.914"/>
<path fill="#E53223" d="M132.437,358.042l5.237,0.668l-1.286,10.067c-0.255,1.961-0.293,3.336-0.112,4.139
	c0.185,0.795,0.548,1.439,1.108,1.948c0.554,0.503,1.28,0.802,2.174,0.917c0.901,0.121,1.685,0,2.359-0.332
	c0.678-0.331,1.223-0.891,1.627-1.662c0.299-0.567,0.58-1.84,0.831-3.814l1.315-10.239l5.234,0.675l-1.134,8.851
	c-0.468,3.642-1.076,6.1-1.834,7.374c-0.917,1.541-2.117,2.662-3.604,3.362c-1.5,0.713-3.305,0.917-5.429,0.649
	c-2.308-0.299-4.113-1.044-5.406-2.254s-2.111-2.764-2.458-4.667c-0.251-1.318-0.166-3.648,0.261-6.998"/>
<path fill="#E53223" d="M153.921,360.378l4.636,0.077l-0.057,2.661c0.5-1.031,1.143-1.827,1.942-2.336
	c0.802-0.529,1.672-0.79,2.607-0.771c0.663,0.019,1.356,0.21,2.073,0.586l-1.697,4.515c-0.596-0.313-1.092-0.484-1.484-0.49
	c-0.796-0.007-1.48,0.477-2.047,1.47c-0.564,0.993-0.882,2.968-0.933,5.897v1.031l-0.168,8.507l-5.273-0.102"/>
<path fill="#E53223" d="M166.723,360.715l5.256-0.483l0.194,2.152c1.108-1.114,2.12-1.91,3.06-2.394
	c0.933-0.491,1.907-0.771,2.923-0.873c2.083-0.185,3.913,0.382,5.499,1.701c1.334,1.121,2.108,2.884,2.331,5.304l1.273,13.856
	l-5.26,0.478l-0.837-9.169c-0.236-2.509-0.497-4.152-0.796-4.947c-0.299-0.809-0.748-1.395-1.337-1.777
	c-0.599-0.376-1.299-0.528-2.117-0.458c-1.063,0.102-1.939,0.535-2.637,1.325c-0.688,0.776-1.13,1.808-1.305,3.095
	c-0.092,0.662-0.039,2.088,0.162,4.272l0.768,8.412l-5.253,0.478"/>
<path fill="#E53223" d="M211.653,365.071l-16.479,4.19c0.605,1.388,1.528,2.381,2.777,2.98c1.248,0.592,2.674,0.694,4.272,0.279
	c1.91-0.477,3.387-1.572,4.419-3.253l4.82,0.923c-0.688,1.796-1.687,3.248-2.993,4.368c-1.318,1.108-3.006,1.93-5.069,2.445
	c-3.209,0.815-6.068,0.472-8.59-1.044c-2.528-1.503-4.171-3.776-4.945-6.813c-0.795-3.107-0.442-5.96,1.045-8.533
	c1.49-2.56,3.753-4.234,6.785-5.005c3.209-0.814,6.1-0.452,8.634,1.095c2.534,1.554,4.235,4.018,5.094,7.386 M205.534,362.346
	c-0.63-1.038-1.528-1.783-2.712-2.234c-1.178-0.453-2.433-0.51-3.757-0.179c-1.439,0.363-2.592,1.089-3.484,2.152
	c-0.547,0.668-0.955,1.7-1.219,3.101L205.534,362.346z"/>
<path fill="#E53223" d="M209.979,353.457l4.744-2.305l1.07,2.203c0.376-1.299,0.942-2.419,1.732-3.343
	c0.771-0.942,1.745-1.688,2.922-2.254c1.191-0.592,2.401-0.815,3.636-0.694c1.248,0.121,2.426,0.599,3.56,1.439
	c0.197-1.497,0.713-2.801,1.528-3.916c0.809-1.127,1.873-2.006,3.171-2.656c1.343-0.649,2.687-0.917,4.018-0.796
	c1.324,0.133,2.464,0.592,3.4,1.382c0.942,0.796,1.961,2.318,3.075,4.591l5.419,11.086l-4.737,2.324l-4.681-9.571
	c-1.044-2.14-2.019-3.451-2.922-3.948c-0.917-0.503-1.911-0.484-2.98,0.044c-0.828,0.401-1.439,0.993-1.865,1.764
	c-0.427,0.79-0.592,1.663-0.516,2.624c0.089,0.981,0.566,2.369,1.439,4.165l4.165,8.513l-4.738,2.324l-4.464-9.144
	c-0.828-1.681-1.547-2.84-2.171-3.49c-0.624-0.624-1.273-1.005-1.961-1.133c-0.688-0.121-1.381-0.006-2.101,0.344
	c-0.79,0.389-1.408,0.981-1.834,1.764c-0.408,0.783-0.579,1.681-0.484,2.681c0.09,1.006,0.574,2.407,1.465,4.228l4.101,8.38
	l-4.744,2.324"/>
<path fill="#E53223" d="M247.867,331.183c1.573-1.21,3.355-1.975,5.355-2.242c1.993-0.299,3.897-0.077,5.718,0.675
	c1.821,0.745,3.337,1.904,4.534,3.471c1.222,1.573,1.967,3.343,2.242,5.31c0.267,1.974,0.038,3.866-0.713,5.687
	c-0.758,1.802-1.955,3.343-3.58,4.604c-2.394,1.847-5.094,2.579-8.099,2.197c-3.012-0.389-5.457-1.796-7.335-4.228
	c-2.013-2.611-2.732-5.521-2.153-8.724C244.333,335.118,245.683,332.864,247.867,331.183 M250.967,335.054
	c-1.299,1.006-2.038,2.305-2.203,3.878s0.299,3.063,1.388,4.476c1.121,1.452,2.458,2.299,4.012,2.535
	c1.554,0.242,2.986-0.153,4.298-1.159c1.318-1.019,2.057-2.305,2.222-3.896c0.166-1.592-0.306-3.107-1.414-4.534
	c-1.108-1.426-2.439-2.254-3.986-2.503C253.737,333.627,252.305,334.017,250.967,335.054"/>
<path fill="#E53223" d="M258.583,323.179l3.623-3.833l7.374,6.979c1.433,1.363,2.528,2.197,3.279,2.528
	c0.745,0.332,1.49,0.414,2.223,0.255c0.726-0.153,1.407-0.548,2.024-1.21c0.618-0.656,1-1.35,1.127-2.102
	c0.127-0.745,0-1.516-0.376-2.292c-0.287-0.586-1.152-1.554-2.598-2.923l-7.495-7.1l3.63-3.833l6.47,6.132
	c2.674,2.534,4.305,4.477,4.891,5.839c0.7,1.643,0.903,3.292,0.585,4.903c-0.318,1.617-1.21,3.196-2.687,4.756
	c-1.605,1.688-3.261,2.7-5.005,3.037c-1.731,0.332-3.477,0.077-5.215-0.763c-1.21-0.586-3.043-2.032-5.489-4.343"/>
<polyline fill="#E53223" points="268.014,301.089 271.21,296.886 277.393,301.585 279.278,299.096 282.876,301.84 280.985,304.311 
	294.146,314.333 290.956,318.53 277.788,308.533 276.158,310.666 272.56,307.928 274.184,305.788 "/>
<path fill="#E53223" d="M273.56,293.358l2.751-4.508l8.769,5.349c-0.223-1.356-0.255-2.585-0.096-3.713
	c0.165-1.126,0.522-2.146,1.083-3.056c1.088-1.789,2.623-2.91,4.597-3.394c1.707-0.388,3.604,0.051,5.667,1.312l11.882,7.233
	l-2.712,4.457l-7.883-4.801c-2.076-1.26-3.553-2.025-4.406-2.273c-0.866-0.249-1.618-0.249-2.267,0.006
	c-0.662,0.254-1.197,0.738-1.63,1.452c-0.554,0.904-0.726,1.872-0.522,2.903c0.21,1.02,0.764,1.974,1.655,2.866
	c0.459,0.465,1.644,1.273,3.579,2.445l7.221,4.406l-2.751,4.496"/>
</svg>
