<?xml version="1.0" encoding="UTF-8" standalone="no"?>
<svg width="21px" height="15px" viewBox="0 0 21 15" version="1.1" xmlns="http://www.w3.org/2000/svg" xmlns:xlink="http://www.w3.org/1999/xlink">
    <!-- Generator: Sketch 3.8.2 (29753) - http://www.bohemiancoding.com/sketch -->
    <title>DJ</title>
    <desc>Created with Sketch.</desc>
    <defs>
        <rect id="path-1" x="0" y="0" width="21" height="15" rx="2"></rect>
        <filter x="-50%" y="-50%" width="200%" height="200%" filterUnits="objectBoundingBox" id="filter-3">
            <feMorphology radius="1" operator="erode" in="SourceAlpha" result="shadowSpreadInner1"></feMorphology>
            <feOffset dx="0" dy="0" in="shadowSpreadInner1" result="shadowOffsetInner1"></feOffset>
            <feComposite in="shadowOffsetInner1" in2="SourceAlpha" operator="arithmetic" k2="-1" k3="1" result="shadowInnerInner1"></feComposite>
            <feColorMatrix values="0 0 0 0 0   0 0 0 0 0   0 0 0 0 0  0 0 0 0.121659873 0" type="matrix" in="shadowInnerInner1"></feColorMatrix>
        </filter>
        <rect id="path-4" x="0.5" y="0.5" width="20" height="14" rx="1"></rect>
    </defs>
    <g id=":)" stroke="none" stroke-width="1" fill="none" fill-rule="evenodd">
        <g id="Flags-by-@lucchaissac" transform="translate(-112.000000, -80.000000)">
            <g id="DJ" transform="translate(112.000000, 80.000000)">
                <mask id="mask-2" fill="white">
                    <use xlink:href="#path-1"></use>
                </mask>
                <g id="background">
                    <use fill="#7AB9E7" fill-rule="evenodd" xlink:href="#path-1"></use>
                    <use fill="black" fill-opacity="1" filter="url(#filter-3)" xlink:href="#path-1"></use>
                </g>
                <rect id="bottom" fill="#35B246" mask="url(#mask-2)" x="0" y="7" width="21" height="8"></rect>
                <path d="M1,1.99850233 C1,1.44704472 1.39926147,1.19963074 1.90195036,1.45097518 L13,7 L1.86301041,13.4965773 C1.38638292,13.77461 1,13.5525106 1,13.0014977 L1,1.99850233 Z" id="triangle" fill="#FFFFFF" mask="url(#mask-2)"></path>
                <mask id="mask-5" fill="white">
                    <use xlink:href="#path-4"></use>
                </mask>
                <use id="overlay" stroke-opacity="0.156646286" stroke="#2F343A" xlink:href="#path-4"></use>
                <path d="M2,6 L3.70940171,7.10769231 L3.11111111,9 L4.5,7.6 L5.88888889,9 L5.29059829,7.10769231 L7,6 L5.05555556,6 L3.94444444,6 L2,6 Z M5,6 L4,6 L4.5,4 L5,6 Z" id="star" fill="#ED4C49" mask="url(#mask-5)"></path>
            </g>
        </g>
    </g>
</svg>