<?xml version="1.0" encoding="utf-8"?>
<!-- Generator: Adobe Illustrator 13.0.0, SVG Export Plug-In . SVG Version: 6.00 Build 14948)  -->
<!DOCTYPE svg PUBLIC "-//W3C//DTD SVG 1.1//EN" "http://www.w3.org/Graphics/SVG/1.1/DTD/svg11.dtd">
<svg version="1.1" id="Ebene_1" xmlns="http://www.w3.org/2000/svg" xmlns:xlink="http://www.w3.org/1999/xlink" x="0px" y="0px"
	 width="28px" height="21px" viewBox="0 0 521.066 473.129" enable-background="new 0 0 521.066 473.129"
	 xml:space="preserve">
<path d="M83.837,0v6.003c-0.014,233.029-0.003,233.16,0.013,233.429c11.328,157.585,172.707,231.864,174.333,232.591l2.462,1.107
	l2.462-1.107c1.63-0.732,162.784-75.011,174.107-232.558c0.021-0.307,0.026-0.433,0.013-233.462V0H83.837z"/>
<path fill="#F8B100" d="M95.842,65.059c-0.003,68.745-0.006,173.535-0.017,173.541c10.075,140.109,145.23,211.638,164.819,221.288
	c19.566-9.649,154.528-81.16,164.577-220.907c0,0,0-106.689,0-173.921H95.842z"/>
<polyline fill="#FFFFFF" points="125.159,12.464 125.159,52.965 114.626,52.965 114.626,35.952 111.478,35.952 111.478,52.965 
	100.945,52.965 100.945,12.464 111.478,12.464 111.478,26.95 114.626,26.95 114.626,12.464 125.159,12.464 "/>
<path fill="#FFFFFF" d="M154.613,12.464v27.068c0,3.07-0.101,5.23-0.304,6.481c-0.199,1.234-0.789,2.507-1.774,3.829
	c-0.985,1.3-2.288,2.291-3.902,2.976c-1.603,0.671-3.492,0.998-5.678,0.998c-2.419,0-4.55-0.393-6.409-1.198
	c-1.849-0.799-3.23-1.847-4.147-3.133c-0.92-1.279-1.463-2.634-1.63-4.048c-0.168-1.435-0.249-4.438-0.249-9.008V12.464h10.533
	v30.375c0,1.767,0.091,2.899,0.272,3.397c0.203,0.484,0.599,0.723,1.182,0.723c0.664,0,1.093-0.262,1.271-0.795
	c0.2-0.55,0.302-1.839,0.302-3.855V12.464H154.613"/>
<polyline fill="#FFFFFF" points="170.505,12.464 170.505,44.861 176.906,44.861 176.906,52.965 159.975,52.965 159.975,12.464 
	170.505,12.464 "/>
<polyline fill="#FFFFFF" points="191.271,12.464 191.271,44.861 197.681,44.861 197.681,52.965 180.742,52.965 180.742,12.464 
	191.271,12.464 "/>
<path fill="#FFFFFF" d="M236.417,30.129h-10.536v-7.06c0-2.05-0.115-3.326-0.351-3.827c-0.212-0.517-0.71-0.773-1.472-0.773
	c-0.865,0-1.421,0.312-1.65,0.927c-0.235,0.616-0.353,1.951-0.353,4v18.811c0,1.97,0.118,3.256,0.353,3.855
	c0.229,0.603,0.76,0.897,1.575,0.897c0.786,0,1.297-0.294,1.522-0.897c0.255-0.599,0.376-2.006,0.376-4.232v-5.073h10.536v1.579
	c0,4.188-0.301,7.151-0.904,8.905c-0.582,1.751-1.892,3.287-3.928,4.599c-2.019,1.323-4.513,1.977-7.482,1.977
	c-3.083,0-5.623-0.557-7.626-1.675c-2-1.113-3.325-2.661-3.977-4.625c-0.651-1.984-0.979-4.959-0.979-8.936V26.748
	c0-2.913,0.102-5.1,0.302-6.552c0.202-1.469,0.792-2.877,1.777-4.232c0.998-1.345,2.373-2.406,4.13-3.178
	c1.76-0.783,3.793-1.172,6.078-1.172c3.096,0,5.659,0.603,7.675,1.803c2.026,1.201,3.345,2.701,3.984,4.498
	c0.628,1.791,0.942,4.572,0.949,8.36V30.129"/>
<rect x="241.471" y="12.464" fill="#FFFFFF" width="10.533" height="40.5"/>
<polyline fill="#FFFFFF" points="278.726,12.464 278.726,20.568 272.481,20.568 272.481,52.965 261.944,52.965 261.944,20.568 
	255.719,20.568 255.719,12.464 278.726,12.464 "/>
<path fill="#FFFFFF" d="M306.136,12.464l-7.679,25.841v14.66h-9.755v-14.66l-7.409-25.841h9.688
	c1.511,7.891,2.364,13.199,2.552,15.933c0.584-4.317,1.552-9.633,2.92-15.933H306.136"/>
<path fill="#FFFFFF" d="M332.143,38.508c-0.538-4.585-1.067-10.251-1.604-16.988c-1.066,7.735-1.735,13.4-2.003,16.988H332.143
	 M337.721,12.464l6.021,40.5h-10.775l-0.53-7.279h-3.776l-0.623,7.279h-10.911l5.354-40.5H337.721z"/>
<rect x="346.904" y="44.714" fill="#FFFFFF" width="7.633" height="8.258"/>
<polyline fill="#FFFFFF" points="358.851,12.464 376.682,12.464 376.682,20.568 369.378,20.568 369.378,28.25 375.883,28.25 
	375.883,35.952 369.378,35.952 369.378,52.965 358.851,52.965 358.851,12.464 "/>
<rect x="376.604" y="44.714" fill="#FFFFFF" width="7.632" height="8.258"/>
<path fill="#FFFFFF" d="M413.139,30.129h-10.54v-7.06c0-2.05-0.111-3.326-0.347-3.827c-0.215-0.517-0.707-0.773-1.479-0.773
	c-0.865,0-1.414,0.312-1.65,0.927c-0.229,0.616-0.353,1.951-0.353,4v18.811c0,1.97,0.123,3.256,0.353,3.855
	c0.237,0.603,0.759,0.897,1.585,0.897c0.778,0,1.289-0.294,1.518-0.897c0.255-0.599,0.374-2.006,0.374-4.232v-5.073h10.54v1.579
	c0,4.188-0.301,7.151-0.912,8.905c-0.574,1.751-1.885,3.287-3.927,4.599c-2.017,1.323-4.504,1.977-7.476,1.977
	c-3.083,0-5.63-0.557-7.633-1.675c-2.001-1.113-3.325-2.661-3.979-4.625c-0.649-1.984-0.969-4.959-0.969-8.936V26.748
	c0-2.913,0.098-5.1,0.301-6.552c0.196-1.469,0.786-2.877,1.772-4.232c1.002-1.345,2.377-2.406,4.125-3.178
	c1.774-0.783,3.804-1.172,6.088-1.172c3.096,0,5.655,0.603,7.671,1.803c2.024,1.201,3.345,2.701,3.986,4.498
	c0.628,1.791,0.95,4.572,0.95,8.36V30.129"/>
<rect x="416.986" y="44.714" fill="#FFFFFF" width="7.633" height="8.258"/>
<path fill="#FFFFFF" d="M396.936,134.304c1.153-5.812,2.372-16.451,2.372-17.798c0-7.241-2.449-18.124-12.178-18.124
	c-2.166,0-4.09,0.206-6.245,2.002c0.028,0.429,1.022,0.776,2.181,2.01c-2.389,4.834-8.104,4.936-12.025,7.443
	c-1.486,0.943-2.527,2.733-3.737,3.947c-0.883,0.885-2.41,0.845-3.286,1.454c-0.877,0.609-0.739,2.979-2.155,3.99
	c-2.447,1.688-6.016,1.313-8.561,2.203c2.514,2.53,1.165,6.163,4.876,6.163c7.849,0,11.503-8.654,19.75-8.654
	c1.349,0,3.398,0.046,5.132,1.287c-1.237,2.36-3.796,1.06-6.101,2.072c-2.305,1.011-3.574,3.256-5.328,5.014
	c-0.883,0.878-2.279,0.718-3.09,1.797c-1.885,2.566-0.687,4.978-3.6,4.978c-1.348,0-2.735-0.743-4.353-0.952
	c-1.251-0.155-2.513-0.004-3.777,0.147l5.407,8.493l10.721,4.727l1.63,7.079l0.597,0.691c0.595,0.022,1.38,0.173,2.094,0.173
	C386.253,154.446,395.377,142.218,396.936,134.304z"/>
<path fill="#FFFFFF" d="M235.995,181.636c3.192,5.597,4.413,13.58,10.586,20.222c-1.388-0.563-3.398-0.354-4.573-0.91
	c-1.889-0.952-3.122-3.019-4.478-3.019c-1.353,0-1.159,0.466-1.633,0.915v1.501c0.678,2.246,4.651,2.203,6.877,3.149
	c1.629,0.677,3.833,2.595,5.558,4.01c-3.012-0.383-7.554-2.541-8.902-2.541c-3.587,0-3.755,3.499-6.013,7.568
	c-0.35-2.956-5.935-5.764-7.469-6.49l-0.864,0.863c1.726,2.508,0.089,7.522,5.365,7.878v1.944c-2.219,1.708-4.189,4.215-6.556,5.84
	c-3.044,2.097-7.021,3.43-10.195,6.045v1.904c1.466,0.429,3.544-0.127,5.816-0.102c0.625,0.596,0.703,0.25,0.703,1.601
	c0,5.611-11.763,5.943-13.252,5.943c-10.684,0-47.218-8.529-49.449-9.301v-1.95c8.977-3.597,17.127-15.063,15.438-23.039
	c-0.344-1.555,0.193-3.303,0.34-5.168c1.899,1.1,4.183,2.677,5.539,2.677c1.354,0,1.394-0.418,1.694-0.866
	c-0.743-4.504,2.845-12.245,8.521-13.601c4.196-0.946,9.204-1.22,13.917-2.206c-0.056-0.367-1.086-0.75-1.495-1.299
	c-0.684-1.093-0.154-2.2-0.677-3.237c-0.507-0.51-0.046-0.429-1.401-0.429c-1.353,0-1.575,0.668-2.662,0.871
	c-1.62,0.269-3.318-0.289-4.805,0.321c-7.24,3.178-19.111,6.249-19.445,14.994c-1.342-0.526-2.353-0.507-4.929-1.051l-0.896,0.871
	c1.044,1.421,3.25,2.923,3.25,4.279c0,5.073-15.96,8.385-17.852,8.385c-2.098,0-3.613-0.471-5.375-3.722h8.278
	c3.855-0.065,10.375-4.824,8.654-9.027c2.225,0.314,3.263-2.32,4.833-3.862c3.755-0.095,5.725-5.954,7.62-8.051
	c0.746-0.81,2.736-1.107,3.414-2.258c0.743-1.215,1.594-6.072,4.396-6.563c0,0,0.102,1.293,0.076,2.271
	c0.487,0.452,0.026,0.376,1.371,0.376c1.355,0,3.112-2.129,5.352-3.445c3.326,0.195,8.444-1.428,9.8-1.428
	c1.354,0,3.25,1.087,4.598,1.087c1.355,0,2.855-0.517,4.269-1.047v2.87c0.062,1.355-1.562,1.963-1.562,3.313
	c0,2.298,1.823,1.896,2.167,1.896c2.566,0,6.537-3.601,8.795-7.017h6.556c1.352-0.014,4.906,2.412,6.735,3.966
	C233.174,178.547,234.695,180.844,235.995,181.636"/>
<path fill="#FFFFFF" d="M255.395,229.613l0.111-0.566C255.477,229.237,255.421,229.426,255.395,229.613z"/>
<path fill="#FFFFFF" d="M173.587,267.241c-1.125,0.26-2.481-0.059-3.309-0.08c-0.455,0.485-0.376,0.289-0.376,1.644
	c0,13.316,28.803,21.433,30.024,21.433c2.166-0.066,4.33,0.747,6.689,0.824c0.082,1.277-1.623,2.009-2.628,2.874
	c1.502,0.883,4.324,1.918,5.678,1.918c13.394,0,22.202-11.261,28.221-26.342c1.49-3.654,1.964-8.313,3.587-12.438
	c2.409-6.028,6.779-14.086,11.341-19.999c1.205-2.86,1.878-4.653,2.092-5.239c-1.483,1.197-3.663,1.59-5.009,2.936
	c-1.829,1.827-3.096,3.836-4.719,5.8c-1.08,1.354-0.167,3.855-0.844,5.354c-2.023,4.458-4.619,9.302-7.593,13.558
	c-0.747,1.085-2.527,1.662-3.977,3.227c-0.115,0.478,0.435,0.948,0.435,2.311c0,7.097-10.195,7.973-13.088,8.052
	c-0.452,1.492,0.104,3.029,0.084,4.759c-0.596,0.634-1.6,1.249-2.955,1.249c-2.092,0-6.762-2.526-8.769-4.896
	c-0.428,0.025-1.241,0.569-1.241,1.917c0,1.017,1.912,7.692,3.78,10.344c0,0,0.01,0.752-1.346,0.752
	c-1.354,0-2.896-1.702-3.888-2.717h-11.73c-1.355,0.007-2.707-2.599-4.541-3.678c-0.877-0.543-2.189-0.151-3.217-1.009
	c0.592-6.487-9.666-5.191-12.052-10.12c-0.004-0.183,0.148-0.386,0.255-0.583C174.232,268.693,173.895,268.045,173.587,267.241z"/>
<path fill="#FFFFFF" d="M144.477,236.571c1.299-0.745,8.11-1.374,8.11-4.831c0-1.989-2.641-5.105-4.56-7.151
	c-1.011-1.07-1.816-1.849-1.927-2.016c1.247-2.582,2.246-1.842,3.826-3.381v-2.426c-4.867-0.306-3.152,3.889-5.449,3.889
	c-1.355,0-2.017-1.113-2.468-1.348c-3.358-4.029-2.17-8.88-4.203-12.87c-0.401-0.877-2.526-2.285-2.526-3.64
	c0-1.353,0.811-7.333,1.214-10.585c0.138-1.11,0.998-2.75,2.461-4.147l-0.105-0.203c-0.501-0.242-1.312-0.236-2.317-0.436
	c-0.366-0.225-0.756-0.769-1.172-1.414c-0.249-0.376-0.503-0.786-0.772-1.181c0,0-0.314-0.508-0.629-0.969
	c-0.442,0.802-0.644,1.518-0.703,2.156c-0.134,1.395,0.396,2.341,0.396,2.714c0,1.348-2.108,2.366-2.577,4.123
	c-0.543,2.03-0.671,4.799-0.671,6.154c0,1.355,0.671,5.207,1.208,7.234c0.474,1.761,3.123,3.587,3.123,4.939
	c0,1.354-1.083,1.897-1.083,3.243c0,1.355,1.518,1.951,3.001,3.099c0.615,2.203-0.289,4.874-0.089,7.063
	c0.056,0.576,0.189,1.126,0.438,1.624c2.976,5.81,5.85,0.998,5.85,6.071c0,0.55-0.272,0.949-0.7,1.378
	c0.704,1.411,2.579,3.264,2.579,3.264l0.091-0.026C144.712,236.781,144.585,236.688,144.477,236.571z"/>
<path fill="#FFFFFF" d="M239.187,136.537c-0.014,0-0.027,0-0.04,0c-2.284,2.929-3.237,3.165-3.237,5.937
	c0,1.624-0.082,3.004,2.988,4.599c3.204-1.198,2.288-3.741,2.448-5.79c0.596-0.625,1.326-0.704,2.681-0.704
	c0.36,0,1.329,0.357,2.56,0.862c-2.484-2.845-3.931-4.089-5.198-4.586C240.646,136.759,239.265,136.546,239.187,136.537z"/>
<path fill="#FFFFFF" d="M154.175,154.185v1.751c0.036,1.346-2.144,3.417-2.848,5.093v0.678c2.762-2.988,3.554-5.33,7.073-7.502
	c0.16-0.461,0.148-1.516,0.321-2.144c1.469-1.083,3.105-1.646,4.588-1.859c0.148-0.115,0.334-0.274,0.495-0.399
	c0.815-0.861,1.25-2.115,1.414-3.688c4.223-2.259,5.04-5.417,6.307-9.038c0,0,0.079-0.36-0.242-0.828
	c-0.884,1.505-1.823,3.25-2.7,4.736c-0.679,1.156-2.649,1.578-3.46,2.729c-1.153,1.624-2.73,4.438-5.23,4.438
	c-1.352,0-2.492,0.282-4.632-1.859c-3.162-4.421-2.131-6.251-2.131-7.605c0-2.099,2.167-4.056,3.244-4.056
	c1.354,0,3.171,2.782,4.645,4.33c0.919-0.517,1.931-1.004,2.952-1.996c-0.089-2.193-5.564-5.041-7.321-5.041
	c-1.352,0-2.976,2.707-4.33,2.707c-1.356,0-1.081-0.543-1.817-0.625c-0.072-0.73-0.615-0.462-0.615-1.813
	c0-1.175,0.802-1.604,1.151-2.033c-0.32,0.029-1.669,0.288-2.773,1.894c-1.357,4.283-2.708,8.533-2.708,9.607
	C145.558,144.706,149.351,153.973,154.175,154.185z"/>
<path fill="#FFFFFF" d="M235.995,181.636c3.192,5.597,4.413,13.58,10.586,20.222c-1.388-0.563-3.398-0.354-4.573-0.91
	c-1.889-0.952-3.122-3.019-4.478-3.019c-1.353,0-1.159,0.466-1.633,0.915v1.501c0.678,2.246,4.651,2.203,6.877,3.149
	c1.629,0.677,3.833,2.595,5.558,4.01c-3.012-0.383-7.554-2.541-8.902-2.541c-3.587,0-3.755,3.499-6.013,7.568
	c-0.35-2.956-5.935-5.764-7.469-6.49l-0.864,0.863c1.726,2.508,0.089,7.522,5.365,7.878v1.944c-2.219,1.708-4.189,4.215-6.556,5.84
	c-3.044,2.097-7.021,3.43-10.195,6.045v1.904c1.466,0.429,3.544-0.127,5.816-0.102c0.625,0.596,0.703,0.25,0.703,1.601
	c0,5.611-11.763,5.943-13.252,5.943c-10.684,0-47.218-8.529-49.449-9.301v-1.95c8.977-3.597,17.127-15.063,15.438-23.039
	c-0.344-1.555,0.193-3.303,0.34-5.168c1.899,1.1,4.183,2.677,5.539,2.677c1.354,0,1.394-0.418,1.694-0.866
	c-0.743-4.504,2.845-12.245,8.521-13.601c4.196-0.946,9.204-1.22,13.917-2.206c-0.056-0.367-1.086-0.75-1.495-1.299
	c-0.684-1.093-0.154-2.2-0.677-3.237c-0.507-0.51-0.046-0.429-1.401-0.429c-1.353,0-1.575,0.668-2.662,0.871
	c-1.62,0.269-3.318-0.289-4.805,0.321c-7.24,3.178-19.111,6.249-19.445,14.994c-1.342-0.526-2.353-0.507-4.929-1.051l-0.896,0.871
	c1.044,1.421,3.25,2.923,3.25,4.279c0,5.073-15.96,8.385-17.852,8.385c-2.098,0-3.613-0.471-5.375-3.722h8.278
	c3.855-0.065,10.375-4.824,8.654-9.027c2.225,0.314,3.263-2.32,4.833-3.862c3.755-0.095,5.725-5.954,7.62-8.051
	c0.746-0.81,2.736-1.107,3.414-2.258c0.743-1.215,1.594-6.072,4.396-6.563c0,0,0.102,1.293,0.076,2.271
	c0.487,0.452,0.026,0.376,1.371,0.376c1.355,0,3.112-2.129,5.352-3.445c3.326,0.195,8.444-1.428,9.8-1.428
	c1.354,0,3.25,1.087,4.598,1.087c1.355,0,2.855-0.517,4.269-1.047v2.87c0.062,1.355-1.562,1.963-1.562,3.313
	c0,2.298,1.823,1.896,2.167,1.896c2.566,0,6.537-3.601,8.795-7.017h6.556c1.352-0.014,4.906,2.412,6.735,3.966
	C233.174,178.547,234.695,180.844,235.995,181.636"/>
<path fill="#FFFFFF" d="M223.61,144.418h1.929c1.57,6.926,6.987,8.608,11.723,8.608c1.349,0,4.259-1.074,6.74-1.469
	c-2.252,1.951-4.995,3.6-7.028,4.526c0.53,0.878,0.825,1.267,2.18,1.267c5.007,0,10.817-7.034,13.796-7.034
	c1.351,0,2.896,1.163,4.592,2.917c-2.985,8.607-13.073,10.746-18.932,11.691l-23.808-4.324c-1.644,0.27-4.252,2.628-6.458,2.01
	c0.605-1.522,8.218-4.717,9.171-4.717c1.348,0,6.756,1.62,8.11,1.62c1.355,0,3.434-0.521,4.88-0.864
	c-3.299-2.713-9.748-4.343-9.748-8.333C220.759,148.964,222.429,146.106,223.61,144.418"/>
<path fill="#FFFFFF" d="M157.206,214.701c0.779,1.809,2.877,3.868,4.56,5.859h-4.144c-0.623-0.531-1.785-0.993-1.785-2.344
	C155.837,216.867,156.407,215.928,157.206,214.701"/>
<path fill="#FFFFFF" d="M183.495,238.6c5.558,1.539,13.246,3.824,18.83,3.824c-3.303,6.554-3.479,9.454-3.316,14.421
	c-4.31-1.447-7.597-9.577-8.192-14.185C188.686,239.673,185.073,242.542,183.495,238.6"/>
<path fill="#FFFFFF" d="M153.17,240.172h3.951c1.352-0.046,1.787,1.054,2.231,1.262c0.802,2.678,1.326,5.879,2.906,9.42
	c-1.58-0.399-9.128-5.25-9.089-7.684V240.172"/>
<path d="M383.308,186.006c-0.322-0.455-0.51-1.061-0.878-0.999c-0.446-2.547-1.033-4.815-2.264-6.543
	c-1.27,0.556-2.24,0.53-2.998,0.645c0.693,2.324,1.891,4.992,2.604,6.903v0.006c0.355,0.953,0.589,1.722,0.589,2.171
	c0,1.354,0.08,1.162-0.275,1.623c-0.34-0.461-0.537-1.623-1.885-1.623c-1.355,0-4.242,2.206-4.721,3.561
	c-1.086,2.976-1.772,8.271-1.759,9.626v1.823c6.676,4.022,5.014,11.142,7.724,16.892l0.891-0.536c0.026-1.875-0.51-3.231-0.51-4.586
	c0-1.42,1.558-2.906,3.397-3.001l0.93,0.891c-1.067,2.556-2.168,6.166-2.168,7.521c0,1.355,0.577,2.828,1.297,4.056l1.087-1.086
	c0.131,0.395,0.275,0.811,0.417,1.24c0.767,2.38,1.527,5.195,1.527,6.343c0,2.233-1.213,5.726,0.739,8.015
	c1.151,1.356,3.863,3.346,5.21,3.346c0.543,0,4.334-1.689,4.295-4.667v-5.011h-1.964c-0.629,0.563-1.703,1.096-2.107,1.568
	c-2.148-0.914-1.906-6.825-1.847-9.594c0-0.262,0-0.494,0-0.691c0-1.354,0-5.086,0.353-7.586c1.362,1.496,3.247-0.543,4.712-1.081
	c2.037,2.71,1.218,6.497,2.372,9.358c0.654,1.604,1.916,2.91,4.646,3.568c-0.17-1.242-0.34-1.944-0.549-3.083l-0.026-0.485
	c-0.669-3.57-1.467-6.709-2.181-9.679c-0.608-2.641,0.543-5.924,0.216-8.627c-0.144-1.086-0.961-2.324-1.427-2.674
	c1.002-0.894,1.362-1.893,1.78-1.918l2.173,2.131h3.025c-0.353-2.56-3.863-7.512-5.617-7.512c-1.362,0-0.275,1.076-1.624,1.076
	c-1.361,0-3.575-3.135-5.146-5.118c0.458-0.371,1.349-0.832,1.794-0.851c0.989,1.023,2.264,3.269,3.613,3.269
	c1.362,0,2.166-1.63,3.515-1.63c1.355,0,3.371-0.025,4.589-0.735c-1.198-2.118-2.972-4.439-4.654-6.308
	c-0.635-0.705-1.251-1.342-1.828-1.876c1.277-1.168,2.397-1.214,3.248-2.743c-1.165-1.24-2.192-1.708-2.743-2.526
	c0.853,0.127,1.931,0.127,3.24,0.013c-0.51-1.866-1.61-2.985-2.133-3.863c0.943-0.378,1.636-1.708,1.61-2.372
	c-3.338-2.265-6.521-4.37-8.653-6.789c1.911,0.154,4.084,1.235,5.431,1.235c1.357,0,1.545-0.082,2.168-0.811
	c-1.159-1.277-2.194-2.825-2.75-3.647c1.396,0.124,1.939,0.667,3.293,0.667c1.354,0,0.812-0.544,1.545-0.616
	c0.078-0.735-0.551-1.476-0.551-1.476c-2.513-1.063-2.029-4.337-2.336-5.368c-2.572-1.689-5.82-2.776-8.405-4.229
	c1.041-1.418,3.201-3.581,4.156-5.097c3.621,1.087,7.345,2.147,10.997,4.063c-0.928,0.308-2.014,0.308-3.207,0.932v1.882
	c2.75,2.796,6.023,4.989,8.078,6.409c-1.544,1.414-3.064,2.435-4.831,3.057v1.879c0.137,0.271,6.729,10.471,8.955,10.415h2.317
	c-0.504-1.925-1.617-3.613-2.658-5.041l0.837-0.857c4.694,3.332,9.716,8.654,14.585,8.654c1.35,0,1.27-0.075,1.885-0.845
	c-2.828-1.816-5.459-3.914-7.038-5.852c0.95-0.363,1.552-0.952,2.173-1.669c-2.218-2.891-4.968-5.636-7.573-7.593l1.624-1.604
	c-1.676-2.347-3.862-3.997-5.951-5.974c0.464-0.347,1.355-0.268,2.122-0.334v-3.378c0.044-4.874-15.07-18.587-16.734-21.772
	l0.544-17.792c-0.34-9.21-4.667-16.503-13.524-16.503c-10.016,0-37.195,10.82-43.559,10.82c-4.392,0-8.615-5.067-10.605-8.218
	c4.053,1.178,10.344,3.352,11.691,3.352c0.275,0,1.978-0.18,3.51-2.507c-5.022-2.341-9.688-4.504-14.219-6.536
	c-1.493-0.678-3.398-0.341-4.884-0.884c-2.84-1.011-5.879-3.446-8.653-4.524c-8.93-3.521-20.758-7.527-30.061-8.716
	c0.485,1.876,1.021,3.447,1.205,4.995c4.306,1.914,8.602,2.988,12.253,4.952c-0.458,0.314-1.622,0.235-1.622,1.583
	c0,1.352,5.957,9.473,5.957,10.825c0,1.348-0.518,2.821,0.131,4.022c2.042-0.102,6.912-0.416,7.986,2.393
	c-2.055,1.482-5.681,4.13-7.043,4.13c-1.349,0-1.807-1.135-2.894-1.477c-2.094-0.671-4.306-1.234-5.864-2.454
	c-1.689-1.352-6.363-4.046-8.464-4.108c-0.085,1.816,0.451,3.983,0.492,5.462c-2.05,0.985-4.244,0.998-5.99,2.301
	c2.271,1.85,4.968,2.38,7.404,4.458c0.183,2.062,2.336,4.478,2.336,5.83c0,1.348-0.34,0.818-0.34,0.818
	c-1.401-1.044-3.286-1.172-4.092-1.774c-3.718-2.844-2.055-4.182-5.578-4.182c-1.347,0-4.496,1.138-6.611,2.88
	c0.538,2.724-3.587,7.662-4.333,10.297c-0.608,2.097-0.68,4.336-1.007,6.3c-2.848-3.819-4.687-5.954-6.979-5.954
	c-0.68,0-6.225,0.947-6.225,2.704c0,1.355,2.704,3.25,2.704,4.6c0,4.394-6.29,9.467-10.279,9.467c-1.354,0-11.093-4.87-12.441-4.87
	c-1.355,0-2.085,0.079-2.681,0.704c-0.16,2.049,0.755,4.592-2.448,5.79c-3.07-1.595-2.988-2.975-2.988-4.599
	c0-2.775,0.953-3.007,3.244-5.944c0,0,2.72,0.416,2.688,0.367c-1.353-1.639-3.987-1.722-3.987-1.722
	c-2.857,1.099-7.355,3.244-8.709,3.244c-1.352,0-1.078-1.087-2.433-1.087c-7.849,0-8.909,14.48-16.509,15.868
	c-0.752,1.018-0.792,2.883-0.465,3.862c-1.125,2.196-5.073,2.452-6.562,2.452c-1.352,0-8.117-3.244-9.469-3.244
	c-1.35,0-7.06,1.208-8.104,3.05c6.434,3.143,13.498,2.854,18.927,6.442c-0.46,0.327-1.004,1.407-1.453,1.876h-8.487
	c-1.355-0.008-5.483-1.627-6.831-1.627c-1.354,0-4.15,0.557-5.898,1.185c-0.19,2.723-2.831,4.222-3.843,4.222
	c-1.352,0-0.622-2.624-1.368-3.243c-2.357,2.802-6.205,7.578-6.205,8.923c0,1.354,0.082,1.273,0.703,1.875
	c1.188,0.023,2.079-0.059,2.547,0.337c-1.333,2.68-3.577,2.877-5.656,5.093c-0.887-1.5-0.959-3.205-2.729-4.331
	c-2.246,1.329-3.706,0.906-5.591,1.826c-1.044,1.407-2.078,2.772-3.07,4.114c-1.944,2.636-3.735,5.194-5.143,7.898
	c0.618,0.694,0.658,1.273,0.658,1.273h2.441c1.715-2.232,3.391-6.451,4.746-6.451c1.352,0,0.815,1.316,0.815,1.316
	c-4.376,3.754-4.331,8.961-9.737,8.961c-1.356,0-1.169,0.083-1.637-0.363v-2.547c0.006-1.351,1.764-3.819,1.97-5.443
	c0.154-1.486-0.039-3.167,0.154-4.638c0.147-1.06,0.497-2.019,1.342-2.707c0.262,0.682,0.327,1.715,0.616,2.701
	c0.114,0.377,0.249,0.743,0.448,1.086c0.665-0.363,1.24-0.724,1.744-1.086c4.083-2.929,3.492-5.921,6.589-8.546
	c1.446-0.59,5.538,0.851,5.538-2.534c0-1.348-1.081-1.623-1.12-2.02c0.972-0.441,2.727-0.232,3.672-0.645
	c3.109-1.486,1.804-4.69,3.827-6.179c1.898-1.352,9.855-0.353,9.855-4.952c0-1.348-0.543-1.348-0.625-2.085
	c-2.894-0.082-4.973,0.475-6.435,0.053v-1.409c2.147-3.167,4.271-6.375,6.759-9c1.152,2.035,0.776,4.33,3.544,4.33
	c1.354,0,6.765-4.33,8.117-4.33c1.354,0,2.978,1.62,4.324,1.62c1.355,0,2.831-1.646,4.72-2.592c1.42-0.677,3.525-0.599,4.405-1.476
	c1.755-1.754,4.403-5.394,4.403-6.749s-1.63-5.208-2.291-7.534c-4.13,0.91-3.536,4.458-4.343,5.469
	c-0.813,1.018-3.101,2.609-3.101,3.954c0,1.355,0.665,1.316,0.665,1.316c1.229,0.039,2.118-0.043,2.603,0.415
	c-0.02,0.436-1.028,1.326-1.476,1.804h-9.571c-1.348-0.013-3.99,1.646-5.59,2.74c0.379-1.358,1.44-2.367,2.003-3.607
	c-0.615-0.687-2.239-0.687-2.7-1.057c2.104-2.521,4.33-6.21,4.33-7.556c0-1.354-0.563-2.137-0.422-2.615
	c0.808-2.097,2.042-4.693,2.042-6.045c0-1.355-0.782-1.349-0.782-1.349c-2.943,3.339-6.287,6.831-8.245,10.418
	c-1.289,2.432-1.675,5.45-3.567,8.091c-0.742,1.077-1.741,2.049-2.092,2.125c0.082-1.97,0.121-3.627,0.73-5.116
	c1.021-2.367,3.99-4.72,5.07-7.018c1.688-3.453,2.036-8.602,6.032-10.56c1.42-0.673,3.614-1.03,4.222-1.843
	c1.011-1.345,2.418-4.215,2.418-5.57c0-1.352-0.622-1.273-1.23-1.869h-1.852c-1.166,1.139-1.634,2.173-2.553,2.687
	c-0.396-0.467-0.314-0.794-0.314-0.794c1.038-1.496,2.163-4.079,2.163-5.431c0-1.355-0.079-1.273-0.73-1.885
	c-2.023,0.331-7.374,2.481-8.316,5.59c-0.478,1.624-0.478,3.339-1.898,4.759c-1.221,1.214-3.66,2.354-3.66,3.708
	c0,1.354,1.62,1.081,1.62,2.432c0,1.489-3.878,6.307-4.984,6.81c0.111-1.401,0.104-2.412,0.602-4.811
	c-0.756-0.102-1.342-0.645-1.342-0.645c-0.69,0.615-0.769,1.08-2.124,1.08c-1.35,0-0.826-0.356-0.826-0.356
	c1.067-1.957,3.05-4.094,3.587-5.784c0.475-1.554-0.376-3.299,0.302-4.251c0.811-1.081,3.165-2.66,3.123-4.012v-2.288
	c-0.769-0.082-1.313-0.622-1.936-0.609c-4.611,3.358-11.013,15.812-11.013,17.576c0,1.345,1.093,2.767,1.632,4.792
	c-0.467,0.422-0.281,0.883-1.632,0.883c-5.27,0-1.624-5.95-7.302-5.95c-1.352,0-6.02,1.633-8.707,2.374
	c-0.207,0.514-1.299,0.876-1.299,2.226c0,1.351,0.543,1.083,0.615,1.813c0.736,0.081,0.461,0.625,1.817,0.625
	c1.354,0,2.978-2.707,4.33-2.707c1.757,0,7.232,2.847,7.321,5.041c-1.021,0.992-2.033,1.479-2.952,1.996
	c-1.473-1.548-3.29-4.33-4.645-4.33c-1.077,0-3.244,1.958-3.244,4.056c0,1.354-1.031,3.184,2.131,7.605
	c2.14,2.142,3.28,1.859,4.632,1.859c2.5,0,4.078-2.815,5.23-4.438c0.811-1.152,2.781-1.573,3.46-2.729
	c0.876-1.486,1.815-3.23,2.7-4.736c0.321,0.468,0.242,0.828,0.242,0.828c-1.267,3.621-2.084,6.779-6.307,9.038
	c-0.183,1.75-0.625,3.184-1.644,4.021c-1.548,0.181-3.299,0.78-4.853,1.925c-0.173,0.628-0.161,1.683-0.321,2.144
	c-3.519,2.173-4.311,4.514-7.073,7.502v-0.678c0.704-1.675,2.883-3.747,2.848-5.093v-1.751c-4.825-0.212-8.618-9.479-8.618-12.522
	c0-1.351,2.15-7.761,3.747-12.902h-2c-0.635,1.146-0.608,2.321-1.352,3.263c-1.283,1.63-3.414,3.235-4.022,4.515
	c-1.489,2.975-3.407,8.372-3.407,9.724c0,1.355-0.54,4.867-0.54,6.222c0,1.353,1.083,8.117,1.083,9.467
	c0,3.859-1.267,11.662-5.656,13.802c-2.916-2.121-10.981-8.661-14.166-8.569h-1.81c3.613,3.031,15.138,8.7,15.138,12.355
	c0,1.346-2.704,3.787-4.056,3.787c-1.355,0-6.863-5.352-10.297-8.117c-0.716,0.615-0.792,1.286-0.792,1.286
	c-0.006,0.603,1.074,0.876,1.074,2.226c0,1.352-0.456,0.89-0.456,0.89c-1.011,0.497-1.977,0.462-3.325,0.462
	c-1.356,0-14.883-1.621-16.235-1.621c-1.348,0-10.068,1.626-15.144,3.015c5.706-0.314,12.441-0.851,13.796-0.851
	c7.165,0,18.212,1.731,23.537,4.084c-1.804,1.09-3.748-0.658-5.679,1.306h-0.007c-0.261,0.269-0.524,0.608-0.785,1.024h9.371
	c1.558,0.075,3.044,1.495,3.044,3.594c0,1.355-0.39,3.004-1.354,3.518c-4.759-2.144-9.624-3.766-14.33-5.691
	c0.932-0.288,1.62-1.07,1.601-1.715c-0.602-0.629-1.063-0.711-2.419-0.711c-1.348,0-5.135,1.081-6.487,1.081
	c-1.355,0-8.654-1.081-10.009-1.081c-2.167,0-5.397-0.262-8.091,2.546c6.219-0.382,8.847-0.39,11.341-0.059
	c-1.509,0.806-2.982,1.299-4.062,1.568c3.787,0.275,9.734-0.813,11.086-0.813c4.598,0,19.834,5.879,22.014,7.977
	c1.261,6.952,3.421,20.159,3.421,21.511c0,1.931-1.155,3.895-2.812,5.833c-3.217,3.774-8.336,7.426-10.529,10.379
	c-2.5,3.376-3.954,8.033-5.47,12.15c1.361-1.199,13.466-21.597,20.163-21.597c1.349,0,2.435,0.813,2.435,2.163
	c0,1.356-9.197,9.673-9.165,11.021v1.905h1.963c3.333-3.267,6.557-6.487,9.077-8.601c0.363,0.464,0.907,1.548,1.369,1.924
	c-2.118,2.925-8.117,12.825-8.117,16.746c0,1.355,0.543,1.623,0.615,2.375h2.501c2.333-4.555,3.089-12.457,7.623-16.646
	c2.565-2.376,3.872-2.768,3.872-4.124c0-5.073-2.874-0.262-5.85-6.071c-0.249-0.498-0.382-1.048-0.438-1.624
	c-0.2-2.19,0.704-4.86,0.089-7.063c-1.483-1.148-3.001-1.744-3.001-3.099c0-1.346,1.083-1.889,1.083-3.243
	c0-1.353-2.648-3.178-3.123-4.939c-0.537-2.027-1.208-5.878-1.208-7.234c0-1.354,0.127-4.124,0.671-6.154
	c0.468-1.757,2.577-2.775,2.577-4.123c0-0.373-0.53-1.319-0.396-2.714c0.059-0.638,0.261-1.354,0.703-2.156
	c0.314,0.461,0.629,0.969,0.629,0.969c0.269,0.396,0.523,0.805,0.772,1.181c0.416,0.645,0.806,1.188,1.172,1.414
	c1.126,0.223,2.073,0.141,2.534,0.499c-1.548,1.426-2.433,3.142-2.572,4.288c-0.403,3.252-1.214,9.232-1.214,10.585
	c0,1.355,2.125,2.762,2.526,3.64c2.033,3.989,0.845,8.84,4.203,12.87c0.452,0.235,1.113,1.348,2.468,1.348
	c2.297,0,0.582-4.195,5.449-3.889v2.426c-1.58,1.539-2.579,0.799-3.826,3.381c0.111,0.167,0.917,0.946,1.927,2.016
	c1.918,2.046,4.56,5.162,4.56,7.151c0,3.458-6.811,4.086-8.11,4.831c1.702,1.854,3.895,3.504,5.243,4.503
	c0.167,2.057,0.815,4.674,1.964,6.502c3.041,4.863,9.698,7.705,13.888,7.705c1.354,0,1.548-0.085,2.16-0.747
	c-1.087-3.929-3.785-10.074-3.785-11.431c0-4.398,1.336-2.506,5.256-3.207c1.14-0.909,1.63-2.5,2.449-3.051
	c-0.128,1.387-0.639,2.894-1.201,4.15c2.265,1.788,4.733,3.129,5.207,4.883c1.081,4.125,2.36,11.292,2.36,12.641
	c0,1.355-0.403,5.099-0.743,7.265c-0.134,1.087-1.292,1.971-1.811,2.3c-0.516,0.196-1.234,0.987-1.227,1.589
	c2.386,4.929,12.644,3.633,12.052,10.12c1.028,0.858,2.34,0.466,3.217,1.009c1.833,1.079,3.186,3.685,4.541,3.678h11.73
	c0.992,1.015,2.533,2.717,3.888,2.717c1.356,0,1.346-0.752,1.346-0.752c-1.868-2.652-3.78-9.327-3.78-10.344
	c0-1.347,0.813-1.891,1.241-1.917c2.006,2.369,6.677,4.896,8.769,4.896c1.355,0,2.359-0.615,2.955-1.249
	c0.02-1.73-0.537-3.268-0.084-4.759c2.893-0.079,13.088-0.956,13.088-8.052c0-1.362-0.55-1.833-0.435-2.311
	c1.45-1.565,3.23-2.142,3.977-3.227c2.975-4.256,5.57-9.1,7.593-13.558c0.678-1.499-0.235-4,0.844-5.354
	c1.624-1.964,2.89-3.974,4.719-5.8c1.415-1.414,3.774-1.748,5.251-3.104c0.232-1.509,0.213-3.069,0.877-4.66
	c0.39-0.515-0.102-0.407,1.254-0.407c1.351,0,0.89-0.074,1.374,0.374c-0.023,1.522-0.35,3.292,0.128,4.848
	c0.534,1.688,1.473,3.166,1.473,4.514c0,1.362-0.537,9.505,0.082,14.029h2.446l2.026-2.129c0.883,2.016,1.4,4.609,1.4,5.959
	c0,5.949-4.331,7.167-4.331,9.464c0,1.362,1.622,1.087,1.622,2.436c0,1.354-3.788,7.854-3.788,9.196
	c0,1.354,2.815,2.652,4.167,3.654c0.164,1.524,0.7,3.92,0.7,5.276c0,1.354-2.701,6.225-4.056,6.225s-1.08-0.538-1.4-0.425
	c0.71-1.723-1.165-4.445-2.923-4.445c-2.029,0-11.093,17.04-11.093,19.206c0,1.349,0.54,1.086,0.609,1.826h1.958
	c0.576-0.876,2.775-9.668,6.087-9.668c1.353,0,1.353,0.536,1.715,0.472c0.455,3.626-0.363,7.403,0.046,10.644
	c0.134,1.151,1.758,2.408,2.442,2.369c0.635-1.192,1.132-2.749,1.977-3.757c0.884,2.016,1.87,4.012,1.938,5.701
	c0.409,7.038,0.551,8.57,0.115,10.422h3.078c-0.904-3.94,1.996-9.943,3.09-13.419c1.373,1.55,2.918,4.064,2.918,5.413
	c0,1.362-2.173,3.522-2.173,4.877c0,1.348,0.576,2.553,1.204,3.75h2.382c1.141-0.536,2.102-1.597,2.501-1.623
	c1.728,3.469,1.847,7.939,5.042,10.854c1.348-2.023-0.708-4.872,1.86-4.872c1.354,0,1.354,0,2.055-0.044
	c0.642-1.761,0.111-3.463,0.091-13.644c0.486-0.451,0.826-0.917,1.244-0.948l0.971,0.974c0.522,2.102,0.522,15.626,1.086,17.589
	c-2.075,0.551-3.28,3.046-3.28,4.46c0,0,0.406,3.515,2.703,3.515c1.35,0,1.002-0.079,1.604-0.708
	c0.019-1.185-0.013-2.683,0.359-3.626c1.401,1.047,3.175,2.173,4.531,2.173c1.152,0,2.159-0.811,2.159-2.979
	c0-1.341-1.623-7.842-1.623-9.196c0-1.349-0.08-1.97,0.222-2.436c1.429,3.626,2.488,7.306,2.567,10.749
	c2.763,0.007,3.711,1.695,3.711,4.406c0,6.894-3.791,2.835-3.791,9.734c0,0.208,4.635-0.224,9.474-2.266
	c0.261-1.203,0.17-2.12,1.249-3.031c0.943-0.111,2.042,0.427,3.188,0.203c1.682-1.465,3.214-2.488,4.975-3.136
	c0.046-1.78,0.589-3.402,0.589-4.752c0-1.354-1.081-8.398-1.29-12.732c-0.196-5.341,0.052-13.224-2.54-18.611h-2.585
	c-1.579,2.246-3.327,10.651-3.327,12.129c0,1.362,1.087,4.602,1.087,5.957c0,1.486,0.543,5.317-1.774,6.796
	c-0.392-8.438,0.157-11.123,0.079-13.472c-6.808-0.556-2.225-7.515-6.796-8.72c-1.753,2.815-2.84,5.511-4.254,8.091
	c-0.314-0.458-0.51-1.081-0.85-0.989c0.471-4.262,1.648-8.902-1.264-10.914c-1.224,0.569-1.839,1.702-2.187,2.168
	c-0.348-0.466-0.538-1.087-0.891-1.01c0.079-3.724-2.088-5.079-2.088-7.651c0-1.35-0.072-0.616,0.314-1.081
	c0.924,0.517,2.127,1.081,3.477,1.081c3.319,0,5.178-8.274,5.702-9.742c2.317,3.811,1.179,12.438,7.385,11.3
	c-0.105,2.5-0.643,5.256-0.007,8.117h2.493c0.648-1.741,1.199-3.424,1.264-4.354c1.897-0.463,4.261-2.611,5.624-2.611
	c1.347,0,0.863,0.425,0.863,0.425c0.484,3.129-0.851,6.631,0.098,9.131c1.081,2.973,3.09,2.946,3.09,5.048
	c0,1.354-1.08,8.923-1.08,10.285c0,1.348,1.623,4.319,1.623,5.674c0,1.357-0.543,3.765-1.015,12.085
	c0.739,0.084,1.283,0.635,1.924,0.608c0.636-0.601,1.171-0.601,1.774-1.23c0.026-2.808,0.484-6.047,1.231-8.687
	c0.268-1.079,1.494-2.776,1.494-4.131c0-1.347-2.161-7.031-2.161-8.385c0-1.349,0.458-2.513,1.308-3.515
	c0.878,2.017,3.556,3.791,3.556,5.138c0,1.356-1.624,2.443-1.624,3.791c0,1.349,1.086,2.436,1.086,3.785
	c0,1.354-0.948,4.332-0.948,5.949c0,1.087-1.218,1.898-1.218,3.248c0,1.087,1.689,2.808,3.083,3.502
	c0.7-2.352,0.688-4.479,1.316-6.023c0.878-0.49,1.964-1.033,2.895-1.61c0.777-1.125,0.654-2.284,0.915-2.763
	c0.878-1.419,15.057-24.686,15.057-31.25c0-1.349-1.35-1.073-1.991-1.061c-5.354,4.648-8.797,13.589-12.346,21.085
	c-0.845-2.016-2.258-3.692-3.404-6.33c-1.558-3.457-2.133-7.476-2.277-11.267c-0.342-9.196-0.543-9.727-0.543-11.082
	c0-1.349,0.536-5.088,0.889-7.588c0.275,0.479,0.203,0.883,0.203,0.883c-0.013,1.565-0.013,3.229,0.145,4.373
	c0.445,0.603-0.668,1.166-0.668,1.166h3.057c3.07-3.175,0.438-9.183,4.72-9.361c0.837-2.096,1.388-4.268,2.009-6.343
	c0.87-0.479,1.996-0.505,2.913-1.277c0.826-1.387,1.426-4.412,3.281-6.898c0.222-1.139,0.149-2.462-0.315-2.815
	c1.002-0.891,2.991-1.205,3.542-2.017c1.623-2.501,3.75-4.949,4.36-7.11c0.407-1.558-0.34-3.77-0.059-5.217
	c0.288,1.447,0.824,3.064,1.499,4.852c1.833-0.538,2.266-0.786,2.266-0.786c0.811-1.506,1.924-3.522,1.924-4.87
	c0-1.349-1.086-1.349-1.086-2.711c0-1.754,3.574-11.573,4.012-12.176c0.883,2.017,2.042,4.283,4.555,5.944v-2.349
	c0.087-3.11-0.378-2.541,2.534-6.295c0.34,0.462,0.531,1.084,0.839,1.005v8.53c-0.041,1.362-1.664,7.776-1.664,9.131
	c0,1.354,0.615,1.813,1.329,2.436c1.801-1.125,3.515-2.861,3.855-3.791c0.309,0.464,0.497,1.08,0.878,1.036
	c1.118,3.717-0.667,7.749,3.706,9.137v12.354c-0.028,1.354,1.092,1.151,1.414,1.656c0.799,3.345,0.202,8.588,4.417,10.376
	c-1-3.528-1.538-9.119-1.538-10.481c0-1.347,1.087-7.306,1.087-8.653c0-1.362-0.203-12.425,0.137-16.208
	c0.139-1.617,0.414-2.998,0.414-4.354c0-5.55-0.878-11.756-2.266-17.972c-1.414-6.353-3.392-12.709-5.552-18.391
	c-0.34-0.563-1.662-1.235-2.387-1.156c-0.085,1.817-0.623,3.165-0.623,4.521c0,1.352,1.624,1.62,1.624,2.975
	c0,1.355-1.212,2.373-1.48,3.459c-0.209,1.012,0.667,2.213,0.394,8.164l-0.027,0.435c-0.183,1.879-1.165,2.006-1.858,2.006
	c-1.356,0-0.891,0.079-1.37-0.363v-5.25c0.013-1.352,1.638-1.689,1.638-3.041c0-0.402-0.937-1.783-2.487-2.703
	c-2.233,3.172-2.181,6.33-2.501,9.344c-0.072,0.691-0.164,1.375-0.314,2.053h-3.516c-0.7-0.717-1.184-1.407-1.493-2.053
	c-0.379-0.763-0.518-1.453-0.518-2.045l-0.537-15.147c0-1.355-0.425-6.045,0.649-8.546c0.889-2.033,5.302-2.68,5.302-5.794
	c0-1.049-1.65-4.301-2.966-7.043c-0.373-0.772-0.713-1.495-0.976-2.124c-0.974,0.281-1.486,0.798-1.746,2.124
	c-0.216,1.159-0.263,2.929-0.263,5.699c0,0.537-0.465,1.427-0.767,1.895c-1.125-2.453-1.688-4.973-2.46-7.594
	c-0.21-0.69-0.427-1.395-0.675-2.098c-1.238-0.052-2.814,0.497-3.842,0.302c-0.498-0.314-1.729-1.435-2.39-1.408
	c-0.924,1.241-1.65,2.265-2.219,3.205c-1.244,2.045-1.715,3.646-1.715,5.967c0,1.352,2.161,5.676,2.161,7.03
	c0,1.355-1.617,3.788-1.617,5.143c0,1.351,1.617,11.629,1.617,12.984s-0.812,1.888-1.277,1.905c-1.826-1.061-1.42-3.938-1.42-5.424
	c0-1.355,0.536-4.055,0.458-6.408c-1.277-0.082-2.899-0.625-4.243-0.625c-1.36,0-1.007,0.625-1.623,1.279
	c0.536,2.301,1.074,5.754,1.074,7.106c0,2.91,0.458,4.789-2.004,8.406c-1.524-0.239-2.56,0.281-3.286,1.214
	c-1.715,2.2-1.767,6.631-2.691,8.54h-4.064l-0.956-0.949c0.019-0.982-0.067-2.256-0.538-2.508c2.539-0.029,3.796-2.864,3.796-4.961
	c0-0.04,0-0.079,0-0.122c-0.052-1.326-1.072-2.896-1.072-4.209c0-1.355-0.079-1.427,0.261-1.889
	c0.355,0.461,0.812,0.809,0.884,1.562h1.931c1.166-1.1,1.787-1.562,1.787-2.917s-1.617-5.953-1.617-7.306
	c0-1.355,2.227-6.189,2.495-8.896c0.477-3.855-0.688-7.885,2.141-10.585c0.917,0.518,1.583,1.087,2.933,1.087
	c1.362,0,1.545-0.081,2.161-0.766c-0.564-1.247-1.71-2.955-2.869-3.947c-0.772-0.052-1.603-0.341-2.416-0.71h-0.013
	c-1.538-0.684-3.003-1.61-3.894-1.61c-1.35,0-1.571,0.107-2.004,0.69c-0.092,0.311-0.237,0.618-0.406,0.919v0.006
	c-1.001,1.83-3.003,3.447-3.003,4.606c0,1.355,1.63,5.954,1.63,7.305c0,1.356-0.551,7.26-0.826,10.278
	c-0.268-1.958-1.347-4.579-1.754-6.811c-0.602-3.179,0.479-6.469,0.204-9.712c-0.19-2.032-2.22-4.278-2.467-5.672
	c-0.015-0.089-0.033-0.174-0.033-0.255c0-1.42,4.674-6.22,6.762-6.22c1.36,0,9.478,4.324,10.821,4.324
	c1.354,0,1.283-0.082,1.891-0.767c-3.534-7.4-11.352-5.255-11.352-13.029c0-1.355,0.301-0.812,0.301-0.812
	c1.514,2.065,4.97,7.574,7.542,7.574c1.347,0,1.315-0.651,1.315-0.651v-1.869c-2.717-3.859-5.204-8.291-7.233-11.944
	c-0.61-1.155-2.076-2.032-2.684-2.167c-1.553-0.333-3.116-0.602-4.118-1.446c0.935-0.351,2.625-0.396,3.789-1.696
	c-3.299-2.36-7.036-5.315-7.036-7.279c0-1.348,0.536-1.84,1.027-4.769c-0.752-0.098-0.752-0.642-2.108-0.642
	c-1.347,0-1.898,1.627-2.802,1.689l-0.471-1.83c1.467-0.409,3.196-1.021,4.066-2.026c2.508,3.683,4.68,7.477,7.038,10.284
	c1.289-1.162,2.37-1.702,2.972-2.333c0.019-1.186-1.599-1.722-1.599-3.077c0-1.355,1.074-0.544,1.074-1.898
	c0-1.346-4.831-10.268-7.265-14.733c-0.813-1.489-3.09-1.682-4.099-2.5c2.5-0.347,5.173,0.193,7.444-0.039
	c2.31-2.982,4.195-2.475,6.356-2.475c4.334,0,1.885,0.302,7.973,4.088c0.878,0.537,2.292,0.03,3.312,0.364
	c2.161,0.677,4.282,2.982,6.521,3.46c2.632,0.543,5.426-0.537,8.137-0.203c1.618,0.209,3.005,0.952,4.353,0.952
	c2.913,0,1.715-2.412,3.6-4.978c0.812-1.08,2.207-0.919,3.09-1.797c1.754-1.758,3.023-4.003,5.328-5.014
	c2.305-1.012,4.864,0.288,6.101-2.072c-1.734-1.24-3.784-1.287-5.132-1.287c-8.247,0-11.9,8.654-19.75,8.654
	c-3.711,0-2.362-3.633-4.876-6.163c2.545-0.89,6.114-0.514,8.561-2.203c1.416-1.012,1.277-3.381,2.155-3.99
	c0.876-0.609,2.403-0.569,3.286-1.454c1.21-1.214,2.251-3.004,3.737-3.947c3.921-2.507,9.636-2.608,12.025-7.443
	c-1.159-1.234-2.153-1.581-2.181-2.01c2.155-1.796,4.079-2.002,6.245-2.002c9.729,0,12.178,10.883,12.178,18.124
	c0,1.348-1.218,11.986-2.372,17.798c-1.558,7.914-10.683,20.142-19.677,20.142c-0.956,0-2.212-0.389-2.684-0.18
	c-2.029,0.878-4.491,3.896-4.491,6.333c0,1.35,0.563,1.991,0.746,2.399c2.088,1.343,4.662,4.631,6.016,4.631
	c1.355,0,1.342-0.73,1.342-0.73c-2.251-4.267,1.767-5.112,4.059-7.93c0.865,1.509,1.906,3.787,1.906,5.143
	c0,1.355,0,6.389,0.347,9.23c0.196,1.624,0.188,3.217,0.188,4.565c0,1.549-0.273,6.557-1.354,8.104
	c-0.005,0.006-0.005,0.006-0.013,0.013c0-0.007-0.005-0.013-0.013-0.013V186.006"/>
<path fill="#FFFFFF" d="M223.61,144.418h1.929c1.57,6.926,6.987,8.608,11.723,8.608c1.349,0,4.259-1.074,6.74-1.469
	c-2.252,1.951-4.995,3.6-7.028,4.526c0.53,0.878,0.825,1.267,2.18,1.267c5.007,0,10.817-7.034,13.796-7.034
	c1.351,0,2.896,1.163,4.592,2.917c-2.985,8.607-13.073,10.746-18.932,11.691l-23.808-4.324c-1.644,0.27-4.252,2.628-6.458,2.01
	c0.605-1.522,8.218-4.717,9.171-4.717c1.348,0,6.756,1.62,8.11,1.62c1.355,0,3.434-0.521,4.88-0.864
	c-3.299-2.713-9.748-4.343-9.748-8.333C220.759,148.964,222.429,146.106,223.61,144.418"/>
<path fill="#FFFFFF" d="M157.206,214.701c0.779,1.809,2.877,3.868,4.56,5.859h-4.144c-0.623-0.531-1.785-0.993-1.785-2.344
	C155.837,216.867,156.407,215.928,157.206,214.701"/>
<path fill="#FFFFFF" d="M183.495,238.6c5.558,1.539,13.246,3.824,18.83,3.824c-3.303,6.554-3.479,9.454-3.316,14.421
	c-4.31-1.447-7.597-9.577-8.192-14.185C188.686,239.673,185.073,242.542,183.495,238.6"/>
<path fill="#FFFFFF" d="M153.17,240.172h3.951c1.352-0.046,1.787,1.054,2.231,1.262c0.802,2.678,1.326,5.879,2.906,9.42
	c-1.58-0.399-9.128-5.25-9.089-7.684V240.172"/>
<path fill="#F8B100" d="M313.395,87.063c2.434,1.067,5.341,1.872,7.299,2.825c1.29,0.609,1.426,2.354,2.238,3.162
	c1.29,1.28,3.752,1.866,4.708,3.286c7.437,11.086,15.933,16.107,24.049,16.107c1.355,0,6.678-1.067,9.755-1.81
	c-3.443,1.394-9.348,6.141-13.538,6.141c-1.362,0-5.957-2.164-7.311-2.164c-0.669,0-2.849-0.282-1.985,3.182
	c-1.381-0.501-1.793-1.018-3.147-1.018c-1.356,0-2.168,3.786-3.523,3.786s-6.526-1.086-10.481-1.714
	c-0.064-0.717-0.603-1.803-0.497-3.103c1.872,0.506,4.216,1.031,5.57,1.031c2.168,0,4.602-1.012,4.602-3.244
	c0-1.355-1.033-1.194-1.473-1.797c-0.149-1.145-0.149-2.212-0.307-3.191c-0.798-0.461-2.369-1.522-4.169-2.36
	c0.804-0.226,1.695-0.69,2.166-1.106C324.582,96.362,314.088,95.162,313.395,87.063"/>
<path fill="#F8B100" d="M310.305,117.854c1.348,0,3.85,1.093,6.219,1.931c-0.811,0.232-1.086,1.319-2.436,1.319
	c-1.35,0-1.623-1.087-2.972-1.087c-1.355,0-3.248,1.087-3.248,2.442c0,1.349,0.458,0.884,1.081,1.623
	c-1.159,1.273-3.241,2.976-3.241,4.321c0,1.354,0.996,1.437,2.134,2.602v6.71c-0.595,0.625-1.676,1.157-2.331,1.77l-5.21-0.717
	c1.486-1.698,3.232-2.992,3.232-4.412c0-1.355-1-2.514-2.159-3.741c0.569-1.247,1.911-2.2,2.532-3.411
	c0.466-0.946-0.195-2.386,0.34-3.267c1.087-1.83,2.56-3.757,3.301-5.335C308.052,118.41,308.95,117.854,310.305,117.854"/>
<path fill="#F8B100" d="M281.896,139.767l-0.603,1.259c-0.557,0.557-1.833,0.096-2.514,0.053c-0.641-1.192-0.131-2.936,0.04-4.806
	C279.655,136.87,281.324,138.566,281.896,139.767"/>
<path fill="#F8B100" d="M317.585,136.958c-0.603,0.838-1.14,0.838-1.808,1.447l-2.5-0.844
	C314.088,137.332,314.626,136.788,317.585,136.958"/>
<path fill="#F8B100" d="M294.22,140.088c0.124,0.766-0.451,1.964-1.105,3.166c-10.03-1.188-6.116-0.332-7.975-1.35
	C288.068,141.128,291.269,141.142,294.22,140.088"/>
<path fill="#F8B100" d="M308.681,142.742c1.349,0,4.596,3.25,4.596,4.599c0,1.623-4.582,4.785-5.866,5.067
	c0.458-2.495-1.27-4.275-2.776-4.986C305.945,145.236,306.586,142.742,308.681,142.742"/>
<path fill="#F8B100" d="M280.538,143.829c1.357,0,4.512,1.683,6.528,3.385c0.235,1.715,0.786,3.645,0.786,5.001
	c0,1.348-1.625,1.62-1.625,2.968c0,1.354,1.074,0.275,1.074,1.63c0,1.349-3.784,3.787-3.784,5.136c0,1.351,1.087,1.083,1.087,2.438
	c0,1.349-1.139,1.516-1.506,1.991c-0.124,1.021,0.08,2.488,0.419,4.175c0.196,1.087-1.079,1.944-1.079,3.3
	c0,1.355,1.002,1.434,1.623,2.206c-1.237,0.743-2.311,1.279-3.26,1.668c0.522,0.872,1.552,1.882,2.173,2.661
	c-1.224,0.737-2.769,1.217-4.131,2.701c-1.506,0.229-3.711,0.235-5.681,0.154c0.078,0.35-0.466,0.082-0.466,1.427
	c0,1.624,5.571,4.35,6.487,4.923c-1.348,0.219-2.847-0.351-3.889,0.167c-0.51,0.517-0.43,0.052-0.43,1.408
	c0,3.243,5.746,4.055,7.574,4.055c1.354,0,8.831-2.688,13.021-4.209v-1.388c-1.035-0.972-2.737-1.437-2.737-2.789
	c0-1.355,0.615-1.273,1.074-1.623c-0.458-0.348-0.93-1.382-2.161-2.157c2.238-1.394,4.569,0.059,6.325-2.851
	c0.34-0.609,0.785-2.216,1.792-3.149c-0.917-1.656-3.562-2.687-4.306-3.057v-1.835c-0.027-1.355,2.14-1.83,2.14-3.178
	c0-1.356-1.002-1.977-2.167-3.25c1.166-1.273,3.791-2.16,3.791-3.513c0-1.354-1.08-1.354-1.061-2
	c0.597-0.628,1.761-2.056,2.915-2.19c2.171-0.343,5.452-1.221,6.807-1.221c1.349,0,2.972,1.08,4.753,1.133
	c0.642,1.753,1.19,4.003,1.19,5.354c0,2.033-3.109,5.505-1.623,7.348c-2.356,1.607-4.321,1.106-4.321,3.472
	c0,1.355,1.584,8.605,3.353,12.052c1.347,2.709,5.89,3.869,9.046,5.39c0.039,2.305-0.368,6.52,1.662,8.808
	c-0.621,0.724-0.536,1.073-0.621,1.811c-0.726,0.072-0.726,0.615-2.088,0.615c-1.35,0-3.194-2.822-4.11-4.337
	c-1.833,1.126-1.833,2.173-1.833,2.716c0,1.353,1.08,2.701,1.08,4.052c0,1.356-0.543,1.63-0.765,2.979
	c-0.837-1.803-1.813-3.292-3.188-4.35c-0.374,2.514-2.534,7.326-2.534,8.68c0,1.355,1.081,2.432,1.081,3.787
	c0,3.986-8.117-0.268-8.15,5.744v2.272c-0.837,0.292-3.626,1.195-3.981,4.425c-1.373-2.877-1.256-6.187-1.597-8.886
	c-0.137-1.087-1.427-1.932-1.427-3.287c0-1.355,1.623-0.812,1.623-2.167c0-1.346-4.242-6.36-7.489-9.404
	c-2.016-1.823-6.466-0.946-8.581-1.165c-0.623-0.599-1.238-0.518-1.238-1.872c0-1.352,1.625-1.62,1.625-2.976
	c0-5.679-8.406-3.862-10.514-3.453c-4.005-1.708-5.652-2.501-7.885-2.501c-1.348,0-7.862,1.086-14.749,0.511
	c0,0-0.403-0.511-0.403,0.845c0,4.055,7.208,6.173,9.575,7.119c5.475,2.167,12.913,6.596,17.234,13.291
	c0.942,1.422,1.753,3.922,3.39,5.137c0.942,0.677,15.796,8.539,15.796,13.95c0,1.354-0.543,5.361-0.19,8.338l-2.801-1.576
	c-1.072,0.641-1.885,1.354-1.885,2.167c0,1.354,0.551,5.119,1.035,13.414c-2.323,0.575-3.195,7.214-3.195,8.563
	c0,1.348,0,11.833-0.242,17.517c-4.221-22.95-8.411-11.227-8.411-27.047c0-2.704-0.288-6.587,1.808-9.623
	c0.811-1.153,2.526-2.424,2.867-3.706c0.746-2.58,2.9-7.777,2.9-9.125c0-1.42-0.884-2.976-2.166-2.976
	c-4.937,0-4.126,9.732-11.089,9.732c-1.349,0-3.064-0.583-3.875-1.728c-3.451-4.806-2.639-14.111-10.826-17.086
	c-1.42-0.536-9.921-0.589-9.921-4.712c0-2.508,2.307-6.623,6.733-5.342c0.435-0.301,0.923-0.806,1.384-1.188
	c-1.58-2.534-4.435-5.041-6.935-7.197c-1.287-1.153-3.935-0.71-5.358-1.381c-1.889-0.952-3.122-3.019-4.478-3.019
	c-1.353,0-1.159,0.466-1.633,0.915v1.501c0.678,2.246,4.651,2.203,6.877,3.149c1.629,0.677,3.833,2.595,5.558,4.01
	c-3.012-0.383-7.554-2.541-8.902-2.541c-3.587,0-3.755,3.499-6.013,7.568c-0.35-2.956-5.935-5.764-7.469-6.49l-0.864,0.863
	c1.726,2.508,0.089,7.522,5.365,7.878v1.944c-2.219,1.708-4.189,4.215-6.556,5.84c-3.044,2.097-7.021,3.43-10.195,6.045v1.904
	c1.466,0.429,3.544-0.127,5.816-0.102c0.625,0.596,0.703,0.25,0.703,1.601c0,5.611-11.763,5.943-13.252,5.943
	c-10.684,0-47.218-8.529-49.449-9.301v-1.95c8.977-3.597,17.127-15.063,15.438-23.039c-0.344-1.555,0.193-3.303,0.34-5.168
	c1.899,1.1,4.183,2.677,5.539,2.677c1.354,0,1.394-0.418,1.694-0.866c-0.743-4.504,2.845-12.245,8.521-13.601
	c4.196-0.946,9.204-1.22,13.917-2.206c-0.056-0.367-1.086-0.75-1.495-1.299c-0.684-1.093-0.154-2.2-0.677-3.237
	c-0.507-0.51-0.046-0.429-1.401-0.429c-1.353,0-1.575,0.668-2.662,0.871c-1.62,0.269-3.318-0.289-4.805,0.321
	c-7.24,3.178-19.111,6.249-19.445,14.994c-1.342-0.526-2.353-0.507-4.929-1.051l-0.896,0.871c1.044,1.421,3.25,2.923,3.25,4.279
	c0,5.073-15.96,8.385-17.852,8.385c-2.098,0-3.613-0.471-5.375-3.722h8.278c3.855-0.065,10.375-4.824,8.654-9.027
	c2.225,0.314,3.263-2.32,4.833-3.862c3.755-0.095,5.725-5.954,7.62-8.051c0.746-0.81,2.736-1.107,3.414-2.258
	c0.743-1.215,1.594-6.072,4.396-6.563c0,0,0.102,1.293,0.076,2.271c0.487,0.452,0.026,0.376,1.371,0.376
	c1.355,0,3.112-2.129,5.352-3.445c3.326,0.195,8.444-1.428,9.8-1.428c1.354,0,3.25,1.087,4.598,1.087
	c1.355,0,2.855-0.517,4.269-1.047v2.87c0.062,1.355-1.562,1.963-1.562,3.313c0,2.298,1.823,1.896,2.167,1.896
	c2.566,0,6.537-3.601,8.795-7.017h6.556c1.352-0.014,4.906,2.412,6.735,3.966c1.349,1.155,3.404,4.674,4.759,4.674h18.261
	c1.352,0,2.232-1.623,3.583-1.623c1.356,0,6.224,3.247,7.578,3.247c1.35,0,2.697-0.269,2.697-1.624c0-2.167-1.551-4.337-3.725-4.976
	c-0.059-1.38,0.386-2.11-1.113-3.537c1.95,0.408,3.763,0.938,5.112,0.938s1.426-0.465,2.441-1.414
	c-0.53-1.477-2.676-3.063-3.775-5.453c1.583-0.629,5.393,0.376,5.393-2.599c0-1.356-0.458-0.891-1.086-1.624l1.63-1.683
	c-0.518-0.903-1.551-1.918-2.704-3.204c2.127-1.817,6.605-1.896,8.655-4.874c-0.924-1.755-2.436-2.312-3.752-3.09
	c-0.046-0.677,0.583-1.407,1.041-1.796c-1.178-1.997-2.5-1.856-3.24-1.856c-1.355,0-4.012,0.536-7.566,0.884
	C270.714,146.005,279.197,143.829,280.538,143.829"/>
<path fill="#F8B100" d="M175.172,148.729c-0.135,1.643-3.132,6.389-3.971,6.991c0,0-0.755,0.006-0.755-1.349
	C170.446,153.026,173.228,150.398,175.172,148.729"/>
<path fill="#F8B100" d="M167.113,158.509c-0.481,1.4-1.541,1.816-1.541,3.171c0,1.352,0.46,1.159,1.086,1.882
	c-2.77,3.433-3.849,6.67-6.363,9.439C162.148,167.936,160.162,162.321,167.113,158.509"/>
<path fill="#F8B100" d="M143.728,167.638c0.206,8.038-4.124,6.823-4.124,7.026C139.604,173.31,142.34,169.944,143.728,167.638"/>
<path fill="#F8B100" d="M156.718,168.725c0.403,1.567-0.013,6.477-2.972,6.938C154.224,173.25,154.806,170.982,156.718,168.725"/>
<path fill="#F8B100" d="M145.508,177.486c-2.157,3.551-4.448,6.514-2.693,10.036h-3.712
	C141.053,183.27,141.508,178.189,145.508,177.486"/>
<path fill="#F8B100" d="M150.699,177.908c0.73,0.622-0.35,2.628-2.327,4.285C148.833,180.763,149.423,179.073,150.699,177.908"/>
<path fill="#F8B100" d="M374.536,224.44c0.956,5.654,0.956,11.653,0.183,17.852c-0.837-1.806-1.35-3.364-2.475-5.12
	c0.576-1.223,2.173-2.388,2.292-3.743V224.44"/>
<path fill="#F8B100" d="M351.455,227.684c0.234,0.813,0.778,1.893,0.752,13.902c-0.595,0.629-1.329,1.793-2.063,1.702
	C350.066,236.611,350.615,230.052,351.455,227.684"/>
<path fill="#F8B100" d="M318.979,229.851c0.778,1.804,1.826,3.908,2.815,5.444c0.412-0.033,0.687-0.577,2.029-0.577
	c1.355,0,1.749,1.651,2.972,2.377c-2.887,4.007-1.551,7.594-1.198,11.652c-1.924-1.094-4.164-2.245-5.04-3.757
	c-0.865,1.007-1.872,2.985-1.872,4.333c0,1.356,1.086,2.443,1.086,3.785c0,4.811-8.851,9.367-10.212,10.191
	c-0.629,1.552-1.151,3.615-1.231,5.428c-4.517,0.078-9.367,1.159-15.521,1.635v-2.029c5.728-0.072,7.012-7.226,7.156-10.885
	c0.981,1.643,0.757,5.524,2.735,7.023c5.04-5.315-0.824-12.503,2.593-18.892c1.224-0.039,2.846,0.499,3.822,0.525
	c2.199-2.5-0.301-5.866,2.907-7.581c0.707,1.788,1.78,3.953,2.161,5.414c2.212-1.342,2.343-4.208,2.343-5.702
	c0-0.536,0.812-0.275,1.204-0.235C318.173,237.029,318.173,231.08,318.979,229.851"/>
<path fill="#F8B100" d="M328.497,238.05h1.749c0.889,25.608,1.427,30.21,1.427,31.565c0,2.776-4.262,7.203-4.071,10.554
	c-0.263-2.442-0.25-5.748,0.445-8.509c0.438-0.584,1.504-1.65,1.819-2.147c0.183-1.028,0.721-2.063,0.721-3.417L328.497,238.05"/>
<path fill="#F8B100" d="M292.866,248.813c1.205,1.08,2.553,6.729,2.553,9.984c0,2.637-0.274,3.01-4.791,5.099v-3.051
	c2.919-2.854,3.168-3.064,3.168-5.838C293.795,253.656,293.272,251.287,292.866,248.813"/>
<path fill="#F8B100" d="M337.275,256.368c0.804,0.614,1.427,0.529,1.427,1.885c0,1.354-1.074,3.783-1.324,6.217
	C336.542,262.108,336.542,259.286,337.275,256.368"/>
<path fill="#F8B100" d="M271.708,270.488c3.137,0.477,3.137,5.177,3.548,6.945c-1.434-1.715-4.177-4.295-4.177-5.657
	C271.08,270.429,271.617,271.24,271.708,270.488"/>
<path fill="#F8B100" d="M269.011,278.015c2.56,3.351,5.31,8.641,5.31,9.995c0,1.349-1.625,2.436-1.625,3.785
	c0,2.166,3.24,12.176,6.5,12.176c1.341,0,2.699-1.625,2.699-2.979c0-1.355-1.625-4.051-1.625-5.406c0-1.357,0.544-1.082,0.78-1.893
	c1.375,3.979,1.918,8.313,2.952,12.333c-1.291,0.105-2.179,0.026-3.214,1.028l-0.739,13.144c-4.079-9.367-7.339-18.99-10.448-28.861
	c-0.61-2.029,0.595-4.903,0.196-7.071c-0.064-0.608-0.89-1.334-0.786-2.683V278.015"/>
<path fill="#F8B100" d="M261.254,295.932c0.082,1.82,1.503,3.621-0.288,5.315C260.798,300.456,260.523,295.854,261.254,295.932"/>
<path fill="#F8B100" d="M267.546,296.39c0.824,2.926,1.348,6.142,2.31,9.714C267.559,303.742,266.957,299.676,267.546,296.39"/>
<path fill="#F8B100" d="M322.396,306.216c0.085,0.727,0.616,1.275,0.536,4.169c-0.727,0.078-0.974-1.153-1.538-2.343
	C321.394,308.042,321.669,306.131,322.396,306.216"/>
<path fill="#FFFFFF" d="M235.995,181.636c3.192,5.597,4.413,13.58,10.586,20.222c-1.388-0.563-3.398-0.354-4.573-0.91
	c-1.889-0.952-3.122-3.019-4.478-3.019c-1.353,0-1.159,0.466-1.633,0.915v1.501c0.678,2.246,4.651,2.203,6.877,3.149
	c1.629,0.677,3.833,2.595,5.558,4.01c-3.012-0.383-7.554-2.541-8.902-2.541c-3.587,0-3.755,3.499-6.013,7.568
	c-0.35-2.956-5.935-5.764-7.469-6.49l-0.864,0.863c1.726,2.508,0.089,7.522,5.365,7.878v1.944c-2.219,1.708-4.189,4.215-6.556,5.84
	c-3.044,2.097-7.021,3.43-10.195,6.045v1.904c1.466,0.429,3.544-0.127,5.816-0.102c0.625,0.596,0.703,0.25,0.703,1.601
	c0,5.611-11.763,5.943-13.252,5.943c-10.684,0-47.218-8.529-49.449-9.301v-1.95c8.977-3.597,17.127-15.063,15.438-23.039
	c-0.344-1.555,0.193-3.303,0.34-5.168c1.899,1.1,4.183,2.677,5.539,2.677c1.354,0,1.394-0.418,1.694-0.866
	c-0.743-4.504,2.845-12.245,8.521-13.601c4.196-0.946,9.204-1.22,13.917-2.206c-0.056-0.367-1.086-0.75-1.495-1.299
	c-0.684-1.093-0.154-2.2-0.677-3.237c-0.507-0.51-0.046-0.429-1.401-0.429c-1.353,0-1.575,0.668-2.662,0.871
	c-1.62,0.269-3.318-0.289-4.805,0.321c-7.24,3.178-19.111,6.249-19.445,14.994c-1.342-0.526-2.353-0.507-4.929-1.051l-0.896,0.871
	c1.044,1.421,3.25,2.923,3.25,4.279c0,5.073-15.96,8.385-17.852,8.385c-2.098,0-3.613-0.471-5.375-3.722h8.278
	c3.855-0.065,10.375-4.824,8.654-9.027c2.225,0.314,3.263-2.32,4.833-3.862c3.755-0.095,5.725-5.954,7.62-8.051
	c0.746-0.81,2.736-1.107,3.414-2.258c0.743-1.215,1.594-6.072,4.396-6.563c0,0,0.102,1.293,0.076,2.271
	c0.487,0.452,0.026,0.376,1.371,0.376c1.355,0,3.112-2.129,5.352-3.445c3.326,0.195,8.444-1.428,9.8-1.428
	c1.354,0,3.25,1.087,4.598,1.087c1.355,0,2.855-0.517,4.269-1.047v2.87c0.062,1.355-1.562,1.963-1.562,3.313
	c0,2.298,1.823,1.896,2.167,1.896c2.566,0,6.537-3.601,8.795-7.017h6.556c1.352-0.014,4.906,2.412,6.735,3.966
	C233.174,178.547,234.695,180.844,235.995,181.636"/>
<path d="M247.271,72.414c1.356,0,28.746,3.243,30.095,3.256h10.853c1.172,1.146,2.305,2.298,2.848,3.62
	c-5.454,1.299-4.236,1.509-15.933,1.234c-4.941-0.069-2.114,3.04-4.602,5.208c0.667,1.81,4.739,1.26,6.906,2.54
	c1.826,1.086,3.959,3.767,4.772,5.39c0.745,1.555,0.772,3.346,0.889,4.893c0.368,0.475,0.917,1.032,1.284,1.622
	c0.209,1.125,0.209,2.225,0.307,3.191c0.857,0.455,2.207,1.791,2.402,2.802c0.209,1.018,0.196,2.314-0.19,3.266
	c0.348,0.416,1.454,0.999,2.526,3.424c-0.771,0.127-0.497,0.67-1.852,0.67c-1.35,0-3.287-1.221-4.909-1.496
	c-2.436-0.402-6.286,0.275-9.402-2.45c-0.025-1.196,1.205-2.515,2.142-2.845c-2.613-1.922-5.853-3.009-8.655-5.329
	c0.564-1.26,2.344-2.475,3.791-2.802c-3.686-2.445-8.03-4.618-11.896-7.977c0.393-2.71,2.76-3.135,8.674-2.923
	c-1.604-1.881-4.317-2.98-5.859-5.462c-6.851-0.779-16.195-5.578-23.108-4.969c-5.963,0-6.5-0.543-7.292-0.697
	C234.823,71.896,243.144,72.414,247.271,72.414"/>
<path d="M223.701,76.74c1.657-0.006,2.2,0.537,2.973,0.665c-1.073,2.428-2.128,6.396-4.425,7.751
	c-4.733,2.775-10.955,1.646-16.297,3.07c-0.608,0.133-1.105,1.626-2.189,1.83c-1.624,0.275-3.862,0.531-5.895,1.407
	c-0.743,0.269-9.23,6.376-11.528,6.362h-2.756c-0.615-0.605-0.615-1.147-1.234-1.898C194.496,86.939,209.948,79.784,223.701,76.74"
	/>
<path d="M236.178,81.607c1.353,0,2.165,2.704,3.52,2.704c1.354,0,2.975-1.08,4.33-1.08c1.348,0,2.01,0.569,3.23,1.273
	c-2.193,3.934-8.143,3.715-10.988,4.791c-1.689,0.611-3.289,2.114-4.919,2.39c-1.624,0.266-3.875-0.76-5.355-0.223
	c-1.286,0.474-2.595,1.904-4.356,2.379c-2.025,0.537-4.988,0.537-7.557,1.414c-0.809,0.269-12.735,7.453-15.505,7.453
	c-1.352,0-2.163-1.083-2.163-2.438c0-3.446,4.331-2.808,3.833-7.728c3.472-0.92,1.174-0.658,12.562-0.638
	c0.458-0.475,1.495-1.502,2.104-2.533c0.638-0.18,1.155-0.173,1.643-0.351c2.662-2.599,5.839-1.568,8.137-2.72
	c1.624-0.811,3.374-3.613,4.72-3.613c1.355,0,1.355,1.086,2.71,1.086C233.475,83.774,234.823,81.607,236.178,81.607"/>
<path d="M281.999,82.743h8.431c0.917,2.076,0.662,2.246,0.662,2.651c0,1.354,3.953,1.878,5.309,2.897
	c4.523,3.446,5.249,10.572,11.417,12.369c-0.157,2.144-1.578,3.672-3.469,3.672c-1.349,0-4.414-2.448-6.574-3.123
	c-1.02-0.344-2.001-0.141-3.168,0.2c-4.189-4.746-5.472-10.169-11.495-13.547c-0.472-0.269-1.185-1.535-1.754-2.693L281.999,82.743"
	/>
<path d="M245.441,95.197h2.871c-0.518,1.915-1.042,2.916-1.061,3.353c0.481,0.448,1.375-0.167,6.786-0.167
	c3.987,0,3.244,4,3.06,6.615c2.782,1.044,2.999,4.184,2.072,6.051c1.008,0.934,2.589,0.901,4.291,2.079v2.445
	c-1.195,0.632-2.661,1.745-4.016,1.745c-5.817,0-9.673-10.284-17.583-10.284c-1.352,0-6.118,1.611-8.941,2.71
	c0,0-0.527-0.543-1.299-0.671c0.53-1.348,1.662-2.5,3.204-3.921c-2.481-2.181-5.865,1.784-7.567-2.756
	C230.153,98.749,245.241,95.135,245.441,95.197"/>
<path d="M194.604,98.935l1.268,1.316c-0.569,1.228-0.537,1.915-0.537,3.27c0,2.366-2.164,3.512-3.25,3.512
	c-1.355,0-1.081-1.62-2.433-1.62c-1.354,0-3.158,1.064-5.05,1.554C185.328,103.052,191.233,99.466,194.604,98.935"/>
<path d="M167.905,103.302h3.009c0.075,0.755,0.611,0.219,0.611,1.568c0,1.355-3.313,5.584-3.653,8.418
	c-0.203,1.624,0.406,3.781,0.187,6.026c-0.919,1.148-1.944,1.246-3.299,1.246c-2.565,0-2.507-1.119-7.842-4.562
	C160.244,112.525,163.487,107.658,167.905,103.302"/>
<path d="M202.702,103.835h3.385c-0.141,3.823-4.538,6.421-6.045,8.045h-1.856c-0.611-0.596-0.69-0.249-0.69-1.601
	C197.494,109.265,200.81,103.789,202.702,103.835"/>
<path d="M221.551,107.576c1.222,0.569,1.918,1.354,1.918,2.704c0,1.895-9.908,17.93-11.462,19.216
	c-0.409,0.337-1.771,0.21-2.717,0.887c-1.086,0.809-2.186,2.586-5.067,4.242c-0.697-0.618-1.316-0.269-1.316-1.624
	c0-1.346,1.637-4.14,2.193-5.548c-1.99-0.408-4.156,0.135-6.421-0.458c0,0-0.019-0.563-0.642-1.279
	c2.223-2.891,6.494-6.507,6.494-7.862c0-1.348-1.004-1.158-1.568-1.791v-2.467c0.757-0.066,1.025-0.609,2.38-0.609
	c1.354,0,4.388,2.716,6.421,3.256c0.959-1.011,1.473-2.599,2.177-3.583c0.978-0.704,2.71-0.753,3.722-0.933
	C219.23,110.353,219.793,108.701,221.551,107.576"/>
<path d="M238.343,110.28c2.91,0,7.841,0.476,7.841,5.142c0,1.353-0.576,3.366-1.796,3.839c-3.11,1.146-6.723,1.332-9.698,3.025
	c-2.432,1.352-2.842,6.494-6.557,8.507h-2.473v-4.079c-0.034-0.199,3.943-9.891,4.687-10.913c0.742-1.011,1.044-3.001,1.855-3.819
	C233.481,110.702,236.987,110.28,238.343,110.28"/>
<path d="M270.806,110.28c1.348,0,1.813,0.622,2.416,1.253c0.019,0.642-0.603,1.914-1.239,2.521l-7.934-0.733
	C265.79,111.949,269.457,110.28,270.806,110.28"/>
<path d="M249.438,124.891c1.345,0,5.406,0.537,6.762,0.537c4.323,0,4.598,5.341,4.598,6.767c0,2.163-0.208,5.138-3.518,5.138
	c-1.355,0-9.875-4.362-14.841-7.164v-1.896C244.668,126.567,248.083,124.891,249.438,124.891"/>
<path d="M333.492,128.691c1.125,0.408,4.215,2.67,6.263,5.793c-1.316,0.147-2.402,0.684-3.345,0.644c0,0-0.418-0.497-0.418,0.853
	c0,1.351,0.987,1.414,2.022,2.264c2.318,0.658,4.025-1.604,5.812,1.254c0.314-0.932,0.289-1.898,0.309-3.076l1.244-1.241
	c0.628-0.013,1.898,0.609,3.05,1.777v6.527c0.013,1.355-3.273,7.253-5.406,10.277c0.943,0.37,2.356,0.354,4.242-0.134
	c-0.445,3.499-0.445,5.073-0.484,6.837c-1.193,0.645-2.934,0.671-4.321,0.537c1.951,2.904-1.296,5.43,3.495,7.178
	c0.407-0.468,0.865-1.358,0.95-2.13h1.741c1.625-0.04,6.265,6.401,7.141,8.238c0.211,0.55,0.237,0.92,0.237,2.271
	c0,1.348-0.551,3.787-0.564,5.512c-0.608,0.629-0.247,0.71-1.61,0.71c-6.754,0-3.142-5.905-9.458-8.661c0,0-0.361-0.074-0.819,0.275
	c1.009,0.891,2.684,2.042,3.196,3.181v2.429c-0.76,0.066-0.485,0.609-1.847,0.609c-2.016,0-3.783-2.687-3.915-4.576
	c-0.34-4.874-1.073-10.425-2.5-15.089c-0.734-2.441-3.044-4.949-3.044-6.304c0-1.352,0.575-1.492,0.902-2.016
	c0.19-0.517-0.372-0.691-0.372-2.045c0-3.579,4.875-1.556,4.875-5.944c0-3.043-5.06-1.971-5.833-2.147
	c-1.7-2.579-3.286-5.24-5.524-7.573C331.187,132.572,332.261,130.422,333.492,128.691"/>
<path d="M199.592,133.037v3.417c0.065,1.355-2.366,3.044-3.682,2.961v-2.418C195.871,135.642,197.615,134.137,199.592,133.037"/>
<path d="M370.163,133.057h3.547l1.238,1.32c-0.615,0.709-1.689,2.411-3.031,2.373h-2.849
	C369.004,134.899,370.084,133.813,370.163,133.057"/>
<path d="M151.929,141.168c1.182,2.828,1.739,6.133,2.174,9.638c-1.362-0.517-2.566-1.725-3.129-2.877
	C150.974,147.93,151.239,141.122,151.929,141.168"/>
<path d="M364.403,145.448c1.347,0,3.79,1.081,6.206,1.248c-0.603,0.839-0.576,1.961-1.323,2.972
	c-0.811,1.083-2.716,2.271-4.071,2.271c-1.349,0-2.684-1.771-3.196-2.91v-2.431C362.778,146.529,363.054,145.448,364.403,145.448"/>
<path d="M355.662,156.283c4.054,0.665,5.769,5.195,5.769,7.018c0,1.355-0.543,1.899-0.628,2.648h-2.488
	c-1.702-2.209-3.914-5.623-3.914-6.979C354.4,157.625,355.016,156.885,355.662,156.283"/>
<path d="M88.953,162.302c0.268-0.079,2.268,0.871,2.991,2.507c-2.961-0.295-6.3-0.243-8.045-2.507H88.953"/>
<path d="M371.354,169.267c1.898,1.689,3.522,4.39,5.742,6.645v1.85c-0.597,0.609-0.25,0.69-1.604,0.69
	c-1.35,0-3.745-2.288-4.857-3.99L371.354,169.267"/>
<path d="M405.838,172.559h1.985c3.731,4.986,10.219,7.084,13.654,9.377c-1.159,1.307-2.704,1.925-4.059,1.925
	c-3.791,0-7.705-3.07-11.581-7.744V172.559"/>
<path d="M307.594,178.451c0.734,0.622,0.813,0.543,0.813,1.896c0,1.348-1.081,1.624-1.18,2.91l-3.128-0.635
	C304.65,181.306,306.324,179.61,307.594,178.451"/>
<path d="M367.964,181.767c3.495,0.203,4.484,5.577,4.692,8.549c-1.316-0.76-4.739-3.548-4.692-5.034V181.767"/>
<path d="M245.916,183.325c1.354,0,2.261-0.134,8.69,0.537c4.798,0.541,12.114,0.541,17.004,5.181
	c-1.224,0.743-1.89,0.769-3.24,0.769c-1.349,0-3.85-1.08-5.205-1.08h-10.151c-1.344,0-5.2-2.164-6.555-2.164
	c-1.352,0-2.642,0.53-4.946,1.074l-1.273-1.363c0.616-0.716,1.185-1.822,1.791-2.264
	C243.176,183.869,244.564,183.325,245.916,183.325"/>
<path d="M410.159,184.988h2.331c1.349-0.043,6.18,3.8,8.438,5.724c-0.798,0.181-0.798,0.724-2.154,0.724
	c-2.37,0-7.476-1.853-8.615-4.533V184.988"/>
<path d="M206.437,187.105c0,0,0.527,0.543,1.299,0.622v1.751c0.039,1.346-3.152,4.786-4.907,6.543
	c-0.876,0.883-2.955,1.05-4.369,1.996c-1.764,1.152-2.141,3.09-3.804,4.536c-0.583,0.229-0.674,0.786-2.029,0.786
	c-1.356,0-2.138-1.233-2.711-2.444c4.17-6.759,3.791-3.777,3.791-6.484C193.708,191.301,203.955,188.078,206.437,187.105"/>
<path d="M218.723,187.184h1.984c-0.422,3.413,2.552,2.628,3.299,2.628c1.352,0,4.33-1.08,5.683-1.08c1.348,0,1.745,0.03,2.896,0.618
	c0,0,0,0.543,0.596,1.172c0.019,0.646-1.14,1.374-1.768,1.987h-7.61c-1.354,0.007-2.654,1.601-3.601,1.99
	c0.531,0.878,0.826,1.267,2.181,1.267c1.354,0,3.787-1.081,5.142-1.081c1.352,0,1.621,0.537,2.38,0.619v1.921
	c-2.448,2.844-3.051,2.929-5.457,2.269c0.098,0.87-0.979,2.759-0.979,4.114c0,1.354,0.455,0.89,1.076,1.62
	c-0.622,0.733-0.54,0.813-1.895,0.813c-1.349,0-3.787-1.078-5.596-1.159c-0.082-0.73-0.626-0.187-0.626-1.542
	c0-1.895,3.428-4.074,4.331-4.579c-0.93-0.32-2.163-0.832-3.518-0.832c-1.355,0-2.164,1.081-3.345,1.061
	c-0.629-0.595-1.254-0.524-1.254-1.872C212.642,195.766,216.998,190.503,218.723,187.184"/>
<path d="M303.535,191.655c0,0,0,1.944-1.348,1.944c-1.354,0-3.476-2.284-4.57-4.182C300.02,189.268,301.794,190.401,303.535,191.655
	"/>
<path d="M87.833,192.058h1.965c-0.796,2.252-2.681,3.23-5.355,2.997C85.581,193.681,86.661,193.138,87.833,192.058"/>
<path d="M304.662,194.813c2.389-0.127,2.932,0.41,3.666,0.492c0.08,0.73,0.623,1.273,0.577,1.957c0,0,0.046,0.667-1.311,0.667
	C306.239,197.929,305.186,196.156,304.662,194.813"/>
<path d="M301.441,199.648c2.436,0.455,4.726,2.15,6.402,3.859c0.026,0.645-0.595,1.918-1.244,2.52
	C304.459,205.841,302.005,201.35,301.441,199.648"/>
<path d="M188.028,202.797c0.73,0.625,1.889,0.812,1.889,2.166c0,1.352-0.615,2.085-1.787,3.192h-1.932
	c-0.068-0.759-0.605-0.216-0.605-1.571C185.593,205.228,186.755,203.959,188.028,202.797"/>
<path d="M213.185,205.503c1.354,0,1.354,0.538,2.111,0.619v1.932c-1.113,1.159-1.843,2.317-3.191,2.317
	c-1.353,0-2.085-0.623-2.701-1.3C210.23,206.891,212.442,205.503,213.185,205.503"/>
<path d="M184.281,207.671c0.69,0.614,1.313,1.079,1.313,2.434c0,1.353-1.205,1.843-3.001,2.975
	c-0.703-0.625-0.786-0.543-0.786-1.897C181.806,209.83,183.04,208.233,184.281,207.671"/>
<path d="M201.621,210.387h3.83c0.622,0.603,0.704,0.796,0.704,2.15c0,2.029-2.098,3.244-3.521,3.244
	c-1.353,0-2.286-0.569-3.477-1.205v-2.428C199.74,211.532,200.27,210.371,201.621,210.387"/>
<path d="M257.28,210.914c1.351,0,6.141,5.492,9.467,8.903c0,0,0,1.917-1.349,1.917c-1.355,0-6.704-6.045-9.99-10.124
	C256.2,211.458,255.925,210.914,257.28,210.914"/>
<path d="M264.704,210.934h2.253c1.754-0.02,4.916,5.908,5.15,6.952h-1.772c-2.24,0.062-6.291-4.203-6.291-5.349L264.704,210.934"/>
<path d="M218.802,214.207h3.506c0.075,0.762,0.618,1.03,0.618,2.386c0,1.355-1.168,1.816-1.79,2.387h-4.652v-2.501
	C217.054,215.863,217.664,214.73,218.802,214.207"/>
<path d="M193.438,214.701c1.352,0,2.433,0.536,2.433,1.891c0,2.573-3.856,2.975-5.201,2.969c0,0-0.478-0.538-1.241-0.643
	C189.934,217.047,192.084,214.701,193.438,214.701"/>
<path d="M182.458,217.987h2.439c0.618,0.583,1.233,1.313,1.214,1.958c-0.596,0.628-1.87,1.247-2.513,1.227
	c-0.629-0.599-1.172-0.599-1.784-1.252L182.458,217.987"/>
<path d="M208.534,218.491c3.296,0,3.296,0.533,4.029,0.616c0.079,1.273-2.154,4.248-3.499,4.196h-3.944
	C205.752,220.252,206.394,219.312,208.534,218.491"/>
<path d="M112.43,223.396c0.125,1.791-1.329,4.069-3.649,3.028C109.337,225.132,111.082,223.924,112.43,223.396"/>
<path d="M196.038,223.375h4.003l1.24,1.316c-0.435,0.89-3.044,2.994-3.787,2.994c-1.349,0-2.046-0.588-2.046-0.588
	c-0.576-0.569-0.658-0.219-0.658-1.575C194.791,224.167,195.41,223.98,196.038,223.375"/>
<path d="M187.76,223.897c1.348,0,2.674,1.234,3.244,2.436c-0.569,1.204-1.352,1.894-2.707,1.894c-1.348,0-1.892-0.543-2.628-0.621
	c-0.076-0.73-0.616-1.816-0.596-2.461C185.669,224.517,186.405,223.897,187.76,223.897"/>
<path d="M105.504,231.105c-1.662,2.419-3.826,5.125-5.545,7.339h-1.983v-1.9c-0.025-1.347,3.895-4.493,6.275-5.809L105.504,231.105"
	/>
<path d="M207.401,230.414c0.643-0.026,1.372,0.053,1.944,0.685v2.469c-0.759,0.072-1.302,0.608-4.225,0.529v-1.924
	C205.69,231.553,206.77,231.01,207.401,230.414"/>
<path d="M107.622,254.782v1.782c0.063,1.354-1.581,3.43-2.34,5.06c-0.341,0.557-1.922-1.205-1.922,0.137
	C103.36,260.754,105.351,255.568,107.622,254.782"/>
<path d="M225.446,280.719l0.723,4.576c-0.134,4.955-7.911,7.312-10.552,7.312c-1.352,0-2.821-0.026-4.014-0.667
	c-0.042-1.218-0.042-2.305,0-3.528c2.138-1.121,6.648,0.438,8.681-1.867C221.905,284.646,223.541,282.409,225.446,280.719"/>
<path d="M177.476,299.637c1.356,0,2.979,0.543,4.5,0.562l0.838-0.51v3.039l-3.931,3.94c-1.761-0.551-2.367-2.75-4.095-3.966
	C175.332,300.971,176.265,299.637,177.476,299.637"/>
<path d="M185.259,302.903h1.81c0.609,0.602,0.609,1.146,1.228,1.841c-0.569,1.244-1.892,3.01-3.244,3.01
	c-1.355,0-2.085-0.621-2.704-1.308C182.913,305.202,184.12,303.459,185.259,302.903"/>
<path d="M189.685,307.218c0.697,0.614,1.044,0.536,1.694,0.562c0.622,0.603,0.705,0.524,0.705,1.867c0,2.166-3.178,9.472-4.6,9.472
	c-2.5,0-2.431-2.298-2.431-2.696C185.053,315.464,188.63,307.792,189.685,307.218"/>
<path d="M171.149,309.404h2.386c0.619,0.601,0.697,1.059,0.697,2.408c0,1.355-0.588,2.861-1.636,4.262
	c0.946,0.373,2.716,0.072,2.716,1.419c0,1.357-0.543,2.436-0.563,3.621c-0.596,0.635-1.991,0.674-3.186,0.046
	c-0.039-1.231,0.53-2.186,0.236-3.123c-0.3,0.937-1.63,2.16-2.769,2.154c-1.139-0.563-1.836-1.341-1.836-2.698
	C167.196,314.385,170.458,310.072,171.149,309.404"/>
<path d="M181.947,309.417c0.671-0.041,1.75,0.503,2.487,0.587c0.076,0.729,0.619,0.185,0.619,1.54c0,1.355-1.126,3.665-2.367,5.4
	c-1.273-0.563-3.044-1.349-3.044-2.696C179.643,312.899,180.769,311.12,181.947,309.417"/>
<path d="M244.918,309.392c0,0,0.729-0.015,0.729,1.342c0,0.811-4.288,9.178-6.435,9.969v-3.549
	C239.154,314.784,243.216,310.221,244.918,309.392"/>
<path d="M212.488,309.946c0.671,1.212,0.697,2.411,0.697,3.765c0,1.349-0.959,4.066-1.502,5.761
	c-0.467,1.558,0.485,3.213,0.216,4.831c-0.21,1.086-1.568,2.364-2.834,2.92c-1.778-2.258-4.534-6.482-4.534-7.836
	c0-3.044,0.877,0.557,0.639-9.407C207.569,310.471,210.141,310.471,212.488,309.946"/>
<path d="M219.499,311.022l1.215,1.249v5.152c-0.767,0.07-1.042,0.614-2.386,0.614c-1.965,0-2.443-2.03-2.443-3.516
	C215.885,312.69,216.209,311.277,219.499,311.022"/>
<path d="M195.448,312.12h2.432c0.618,0.584,0.697,0.237,0.697,1.591c0,1.349-1.97,9.046-2.913,13.315
	c-0.068,0.529-1.148,1.289-2.494,1.289c-1.355,0-3.254-1.079-3.254-2.434C189.917,324.524,193.727,316.592,195.448,312.12"/>
<path d="M200.911,319.139c0.645-0.02,1.28,0.543,1.731,0.752c0.259,1.061,0.802,1.924,0.802,3.286c0,1.348-0.537,1.623-0.616,3.463
	h-4.088c-0.625-0.571-0.704-0.759-0.704-2.116C198.037,323.177,199.74,320.277,200.911,319.139"/>
<path d="M238.886,321.285c0.73,0.616,0.812,0.268,0.812,1.617c0,2.573-2.167,7.582-4.668,7.556h-2.795c0,0-0.654,0.026-0.654-1.331
	C231.58,326.554,236.935,323.123,238.886,321.285"/>
<path d="M173.836,324.565l3.607,0.641c-0.524,1.847-1.057,3.463-1.63,5.146c-0.583,0.589-1.978,0.641-3.162,0
	c-0.043-0.682-0.582-0.413-0.582-1.767C172.069,327.236,173.182,325.762,173.836,324.565"/>
<path d="M181.806,326.148c1.348,0,2.013,0.57,3.224,1.218v1.689c0.023,2.985-1.941,5.753-3.768,5.753
	c-2.841,0-3.787-1.892-3.787-4.066C177.476,327.902,178.223,326.148,181.806,326.148"/>
<path d="M227.377,328.381h2.514c0.065,2.913,0.065,6.152,0.046,8.962c-0.603,0.628-1.811,0.706-2.298,0.817
	c-2.595,1.938-2.013,3.687-4.713,3.687c-1.354,0-1.898-0.551-2.655-0.628v-7.332c0.57-0.628,1.722-1.218,2.923-1.782
	c1.205,0.563,1.742,1.65,2.6,2.187C226.182,332.832,226.195,330.627,227.377,328.381"/>
<path d="M188.559,329.939c0,0,0.549,0.544,1.313,0.621v6.796c-0.57,0.616-0.57,1.165-1.201,1.754h-1.849
	c-0.609-0.589-1.768-1.329-1.768-2.678C185.053,334.403,187.344,330.652,188.559,329.939"/>
<path d="M216.428,333.728c1.356,0,2.085,0.618,2.698,1.277c-0.537,2.305-1.074,4.406-1.148,6.757
	c-0.737,0.084-0.462,0.621-1.817,0.621c-2.5,0-2.432-2.029-2.432-3.515C213.729,338.193,214.063,333.728,216.428,333.728"/>
<path d="M197.494,335.346c2.03,0,3.25,2.167,3.25,3.254c0,2.696-2.301,2.696-2.708,2.696c-1.355,0-3.791-1.347-3.791-2.696
	C194.247,337.245,196.145,335.346,197.494,335.346"/>
<path d="M206.698,335.889c1.346,0,2.654,3.366,3.781,5.173c-1.162,1.241-3.515,2.945-4.867,2.945c-1.354,0-3.243-1.086-3.243-2.436
	C202.368,340.158,204.531,335.889,206.698,335.889"/>
<path d="M252.95,236.885c1.767,2.062,5.142,1.689,5.142,4.596c0,1.355-1.081,2.166-1.081,3.522c0,1.347,2.701,4.319,2.701,5.676
	c0,1.355-2.17,6.016-2.949,9.13c-0.932,0.813-1.997,0.8-3.001,1.689c0.461,0.355,1.353,0.263,2.668,0.355v1.741
	c0.039,1.355-2.2,2.565-2.542,3.927c-0.266,1.074,0.229,3.064-0.38,3.876c-1.012,1.354-3.071,2.735-4.631,4.267
	c0.02,0.981,1.492,1.826,2.693,2.487c-0.314,2.266-5.384,6.946-5.384,10.396c0,1.36,1.086,3.247,1.086,4.602
	c0,1.354-0.588,3.665-1.823,5.4c-1.272-0.564-3.038-1.8-3.325-3.234c-0.825,2.534-1.369,5.238-2.776,8.197
	c1.061-0.603,2.239-1.167,3.388-1.159c0,0,0.475,0.536,1.254,0.615v1.747c0.039,1.349-3.07,5.645-5.506,7.13
	c-1.889,1.146-6.359,1.321-7.714,1.321c-1.146,0-5.974-2.689-6.639-3.698c-9.364-1.44-1.272-3.876-8.778-3.876
	c-1.355,0-1.898,1.625-3.247,1.625c-1.42,0-9.161-1.82-10.65-4.347c-4.767,1.36-0.034,8.13-4.498,8.13
	c-1.355,0-1.355-0.538-2.125-0.616v-3.51c-0.042-1.347,1.064-1.674,1.594-2.552c-0.945-0.379-2.719-0.798-4.209-1.676
	c-1.146-0.681-1.751-2.146-1.898-3.104c-1.306-0.458-4.256-0.981-5.61-1.007h-1.715c-0.619-1.21-1.581-2.711-2.602-3.227
	c-0.481,0.005-1.375,1.002-1.998,1.603h-1.849c-0.612-0.601-0.69-0.523-0.69-1.871c0-1.356,1.619-1.624,1.619-2.979
	c0-1.342-1.594-2.854-1.915-3.791c-0.979,1.52,0.161,4.399-3.836,5.408c-0.665-0.609-0.736-0.806-0.736-2.155
	c0-1.354,2.7-6.219,2.7-7.573c0-3.384-7.574-8.588-7.574-16.502c0-2.101,0.945-5.138,3.787-5.138c1.354,0,3.165,1.701,4.291,2.873
	v1.879c-1.194,0.628-2.936,0.119-3.915,0.098c-0.455,0.485-0.376,0.289-0.376,1.644c0,13.316,28.803,21.433,30.024,21.433
	c2.166-0.066,4.33,0.747,6.689,0.824c0.082,1.277-1.623,2.009-2.628,2.874c1.502,0.883,4.324,1.918,5.678,1.918
	c13.394,0,22.202-11.261,28.221-26.342c1.49-3.654,1.964-8.313,3.587-12.438C243.906,250.986,248.338,242.81,252.95,236.885"/>
<path d="M361.05,241.231c1.311,0.543,2.514,1.205,3.051,2.358v11.166c1.401-0.025,3.09-0.549,4.805,0.047
	c0.601,1.164,0.098,2.907,0.078,13.084c0.484,0.453,1.375-0.17,3.096-0.144l1.251,1.311c-1.113,2.305-4.02,4.058-5.302,6.637
	c-1.965,3.987-4.438,12.046-4.438,13.407c0,1.349,0.523,3.7,1.072,5.466c-0.615,0.675-0.26,0.752-1.609,0.752
	c-3.05,0-3.706-2.789-5.748-4.883c-1.479,0.536-3.606,2.691-6.062,3.732c0.458-1.912,0.989-4.257,0.989-5.617
	c0-1.349-1.623-6.992-2.133-10.153c-0.492-0.477-1.388-0.392-2.049-0.426c-1.728-2.382,1.4-6.219-0.943-9.165
	c-0.878,1.499-2.096,3.234-4.02,3.731v-5.151c-0.052-1.356,4.347-3.909,6.67-6.154c3.013,1.656,1.722,3.554,1.526,5.191
	c-0.144,0.551-0.138,0.76-0.138,2.107c0,3.798-0.124,1.336,3.527,3.759c0.786,2.1,0.773,4.242,1.651,6.258l2.938-2.959
	c-1.499-0.877-3.791-2.999-3.791-4.347c0-1.354,1.702-2.899,3.293-4.432v-7.764c-1.406,0.02-3.018,0.02-4.785-0.019
	c0,0-0.667,0.039-0.667-1.315c0-2.024,3.888-4.733,4.7-6.083C359.775,248.65,359.819,244.636,361.05,241.231"/>
<path d="M344.254,273.702c1.904,0.522,2.905,5.341,3.076,6.61c0.491,0.471,1.382-0.144,2.114-0.072
	c0.08,1.277,0.623,1.813,0.623,3.168c0,1.356-1.625,9.539-2.907,14.056c-3.502-3.104-5.21-9.178-5.21-11.888
	C341.949,284.222,343.042,277.655,344.254,273.702"/>
<path d="M339.101,281.281c0.688,2.887,2.305,8.079,2.305,9.441c0,1.478-0.216,0.994-1.511,2.264
	c-0.106,2.612,0.425,5.905-0.368,9.047c-0.412,0.275-1.499,0.282-2.362,0.747c-0.636,3.142-1.187,6.979-3.013,10.919
	c-2.743-2.789-2.48-3.639-2.48-5.944c0-1.349,3.791-15.69,3.791-17.032c0-1.362-1.087-2.174-1.087-3.523
	C334.375,285.772,336.227,282.342,339.101,281.281"/>
<path d="M102.435,168.825c4.255,1.957,9.19,4.733,13.848,6.818c-4.127-5.142-12.683-9.633-19.906-10.605
	C97.165,166.94,101.282,168.282,102.435,168.825"/>
<path d="M116.853,202.407c-6.903,0.664-15.174,3.466-22.548,7.253c-1.958,1.015-6.094,3.42-5.967,6.081
	c9.391-4.517,17.731-9.165,27.262-11.737C116.135,203.87,116.263,203.258,116.853,202.407"/>
<path fill="#F8B100" d="M238.565,303.538c-0.57,0.891-1.725,2.03-2.865,2.54h-1.888c-0.069-0.76,0.474-1.296,0.557-2.03
	C235.635,303.971,237.144,303.997,238.565,303.538"/>
<path d="M0.137,391.531c7.214-2.003,21.886-4.012,42.566-3.234c12.218,0.458,24.419,5.874,33.965,7.777
	c8.225,1.65,16.712-0.917,22.636-3.09c0.511,1.074,0.985,2.142,1.441,3.216c3.023,7.074-0.394,19.958-5.964,26.648
	c-5.564,6.678-5.659,5.506-8.032,9.217c-3.29,5.132-0.141,9.341-0.141,9.341c3.633,5.964,11.55,0.218,11.564,0.203
	c3.142-1.636,11.488-5.589,17.723-6.716c5.516-0.987,15.875-2.854,22.604-3.312c7.21-0.477,9.443-0.052,11.213,1.8
	c1.427,1.499,2.046,2.993,2.354,4.339c-3.122,2.228-11.933,7.654-30.835,13.813c-24.816,8.078-35.961,4.916-43.79,1.532
	c-7.833-3.379-21.138-9.054-35.356-6.292c-14.222,2.763-30.128,7.005-35.353,10.074c-5.213,3.07-5.368,3.222-5.368,3.222
	s1.018-8.071,8.847-16.365c7.83-8.288,22.411-14.676,32.646-16.064c10.229-1.375,20.767-2.613,26.908-3.68
	c6.14-1.074,9.054-2.003,9.054-2.003s-10.845-5.472-17.292-11.298c-6.452-5.84-19.494-13.054-26.654-14.585
	c-7.162-1.538-11.462-2.303-16.378-2.303c-4.906,0-10.375-0.1-13.445-0.564C1.973,392.749-0.636,391.984,0.137,391.531"/>
<path fill="#F8B100" d="M151.814,419.843c-5.397,0.517-10.516,1.035-13.993,1.486c-8.333,1.087-17.917,1.782-25.065,2.861
	c-4.568,0.688-7.324,1.447-12.533,3.528c-8.389,3.358-9.521,10.671-9.569,10.715c1.439,2.273,4.709,1.973,4.709,1.973
	s1.83-0.355,4.939-2.266c3.421-1.749,9.547-4.622,20.761-6.763c13.648-2.611,21.752-3.188,28.316-2.31
	c5.328,0.721,5.884,6.925,5.957,6.899C156.59,435.41,160.396,424,151.814,419.843z"/>
<path d="M520.929,392.134c-7.213-1.99-21.897-4-42.568-3.221c-12.222,0.458-24.424,5.866-33.97,7.777
	c-8.22,1.65-16.718-0.917-22.636-3.088c-0.51,1.071-0.989,2.146-1.44,3.207c-3.024,7.083,0.399,19.965,5.957,26.656
	c5.578,6.677,5.67,5.511,8.04,9.217c3.286,5.132,0.137,9.335,0.137,9.335c-3.626,5.969-11.54,0.216-11.553,0.209
	c-3.144-1.636-11.496-5.591-17.728-6.709c-5.511-0.997-15.868-2.874-22.604-3.319c-7.206-0.479-9.446-0.052-11.22,1.794
	c-1.427,1.492-2.035,2.998-2.349,4.339c3.121,2.239,11.926,7.667,30.838,13.819c24.81,8.078,35.965,4.909,43.794,1.538
	c7.829-3.377,21.124-9.053,35.355-6.29c14.218,2.756,30.125,7.003,35.342,10.067c5.218,3.077,5.375,3.227,5.375,3.227
	s-1.02-8.084-8.849-16.372c-7.831-8.287-22.414-14.683-32.641-16.058c-10.231-1.388-20.764-2.612-26.903-3.685
	c-6.141-1.074-9.06-2.004-9.06-2.004s10.839-5.465,17.295-11.298c6.441-5.833,19.495-13.053,26.648-14.585
	c7.162-1.538,11.455-2.305,16.372-2.305c4.911,0,10.383-0.098,13.453-0.562C519.083,393.372,521.702,392.6,520.929,392.134"/>
<path fill="#F8B100" d="M420.838,427.718c-5.21-2.082-7.96-2.841-12.529-3.528c-7.148-1.079-16.731-1.774-25.072-2.861
	c-3.477-0.451-8.594-0.969-13.994-1.486c-8.576,4.156-4.773,15.567-3.517,16.123c0.072,0.026,0.63-6.178,5.964-6.899
	c6.559-0.878,14.663-0.301,28.306,2.31c11.22,2.141,17.347,5.014,20.764,6.763c3.109,1.911,4.95,2.266,4.95,2.266
	s3.26,0.301,4.699-1.958C430.376,438.467,429.27,431.089,420.838,427.718z"/>
<path d="M260.144,352.164c-12.85,0-26.869-0.322-55.885,1.27c-29.114,1.584-55.115,4.61-69.674,6.126
	c-14.552,1.507-32.371,4.609-37.86,7.477c-5.493,2.861-3.184,6.52-1.194,10.1c1.99,3.582,6.765,10.973,9.779,18.049
	c3.024,7.083,0.174,20.489-5.959,26.649c-6.111,6.134-11.803,10.702-8.7,16.62c0.033,0.065,1.119-7.35,9.573-10.736
	c5.209-2.082,7.964-2.841,12.533-3.528c7.149-1.079,16.732-1.774,25.065-2.861c8.327-1.087,25.969-2.514,34.648-3.508
	c8.688-0.997,55.885-3.693,88.812-4.007c32.936,0.314,78.62,3.01,87.314,4.007c8.681,0.994,26.321,2.421,34.642,3.508
	c8.341,1.087,17.924,1.782,25.072,2.861c4.569,0.688,7.319,1.447,12.529,3.528c8.458,3.386,9.546,10.801,9.571,10.736
	c3.104-5.918-2.58-10.486-8.693-16.62c-6.14-6.16-8.988-19.566-5.964-26.649c3.019-7.077,7.79-14.468,9.781-18.049
	c1.991-3.58,4.301-7.239-1.192-10.1c-5.491-2.867-23.312-5.97-37.862-7.477c-14.552-1.517-40.562-4.542-69.672-6.126
	C287.79,351.842,272.995,352.164,260.144,352.164"/>
<path fill="#FFFFFF" d="M140.176,382.683l-0.396-3.471c-0.21-1.818-0.16-3.325,0.141-4.535c0.308-1.213,0.946-2.285,1.912-3.228
	c0.972-0.931,2.104-1.611,3.396-2.031l0.314,2.776c-0.876,0.641-1.331,1.427-1.351,2.356l1.601-0.183l0.864,7.573L140.176,382.683"
	/>
<polyline fill="#FFFFFF" points="170.098,367.036 170.84,374.8 164.854,375.376 167.839,406.391 157.758,407.361 154.774,376.345 
	148.811,376.919 148.064,369.157 170.098,367.036 "/>
<polyline fill="#FFFFFF" points="197.006,365.321 199.385,404.191 189.275,404.806 188.276,388.481 185.255,388.665 
	186.254,404.989 176.136,405.62 173.756,366.734 183.875,366.119 184.726,380.017 187.747,379.839 186.896,365.936 197.006,365.321 
	"/>
<polyline fill="#FFFFFF" points="201.792,365.032 218.664,364.3 218.998,372.088 212.249,372.384 212.569,379.762 218.89,379.487 
	219.213,386.883 212.89,387.159 213.267,395.721 220.693,395.394 221.03,403.184 203.486,403.949 201.792,365.032 "/>
<polyline fill="#FFFFFF" points="252.57,363.711 252.636,371.514 246.623,371.56 246.896,402.712 236.768,402.805 236.491,371.645 
	230.509,371.697 230.44,363.907 252.57,363.711 "/>
<polyline fill="#FFFFFF" points="265.014,363.474 265.354,402.424 255.224,402.504 254.88,363.56 265.014,363.474 "/>
<path fill="#FFFFFF" d="M293.321,378.506l-10.134-0.263l0.098-3.536c0.059-2.23,0-3.626-0.177-4.195
	c-0.183-0.563-0.628-0.857-1.347-0.878c-0.63-0.012-1.061,0.217-1.297,0.688c-0.235,0.479-0.379,1.715-0.433,3.692l-0.484,18.696
	c-0.052,1.748,0.028,2.899,0.237,3.469c0.216,0.549,0.654,0.832,1.329,0.852c0.74,0.019,1.237-0.283,1.512-0.898
	c0.288-0.621,0.458-1.839,0.51-3.646l0.118-4.615l-2.042-0.059l0.157-5.911l11.862,0.307l-0.549,20.903l-6.376-0.17l-0.866-2.815
	c-0.726,1.185-1.622,2.075-2.696,2.65c-1.061,0.563-2.305,0.826-3.731,0.8c-1.689-0.053-3.286-0.499-4.753-1.362
	c-1.452-0.865-2.54-1.925-3.286-3.169c-0.732-1.231-1.178-2.52-1.342-3.861c-0.149-1.35-0.195-3.366-0.124-6.036l0.301-11.574
	c0.098-3.718,0.366-6.415,0.811-8.091c0.446-1.676,1.63-3.175,3.562-4.524c1.944-1.354,4.424-2.001,7.437-1.916
	c2.972,0.064,5.413,0.745,7.337,2.015c1.924,1.271,3.162,2.75,3.711,4.452c0.551,1.689,0.78,4.123,0.701,7.305L293.321,378.506"/>
<polyline fill="#FFFFFF" points="298.334,364.233 315.21,364.968 314.87,372.758 308.115,372.462 307.786,379.839 314.111,380.115 
	313.789,387.519 307.472,387.244 307.093,395.801 314.518,396.128 314.188,403.917 296.632,403.15 298.334,364.233 "/>
<path fill="#FFFFFF" d="M329.135,372.431l-0.531,8.647c1.139,0.072,1.937-0.034,2.408-0.309c0.484-0.301,0.772-1.296,0.886-3.011
	l0.123-2.135c0.078-1.236-0.098-2.055-0.524-2.475C331.092,372.745,330.299,372.502,329.135,372.431 M319.433,365.164l7.155,0.433
	c4.771,0.301,7.986,0.68,9.649,1.151c1.676,0.465,2.985,1.499,3.953,3.077c0.976,1.578,1.362,4.02,1.167,7.332
	c-0.183,3.023-0.688,5.04-1.506,6.036c-0.812,0.989-2.331,1.525-4.556,1.598c1.97,0.615,3.273,1.367,3.915,2.238
	c0.641,0.878,1.02,1.669,1.133,2.39c0.137,0.695,0.111,2.611-0.085,5.755l-0.628,10.25l-9.389-0.574l0.785-12.917
	c0.131-2.088,0.041-3.384-0.26-3.901c-0.301-0.51-1.141-0.812-2.526-0.896l-1.074,17.529l-10.107-0.621L319.433,365.164z"/>
<path fill="#FFFFFF" d="M367.456,381.038l-9.369-0.896l0.275-2.879c0.131-1.336,0.099-2.199-0.111-2.601
	c-0.203-0.384-0.584-0.601-1.146-0.66c-0.603-0.067-1.094,0.145-1.455,0.603c-0.353,0.471-0.575,1.203-0.68,2.212
	c-0.118,1.291-0.039,2.285,0.25,2.964c0.274,0.688,1.152,1.579,2.617,2.652c4.236,3.103,6.847,5.55,7.856,7.378
	c0.994,1.826,1.309,4.634,0.948,8.437c-0.268,2.758-0.791,4.767-1.563,6.01c-0.772,1.244-2.122,2.226-4.059,2.946
	c-1.939,0.693-4.138,0.93-6.6,0.688c-2.689-0.255-4.947-0.989-6.768-2.199c-1.801-1.2-2.92-2.626-3.358-4.262
	c-0.438-1.637-0.518-3.909-0.242-6.809l0.242-2.547l9.369,0.91l-0.453,4.714c-0.137,1.453-0.111,2.396,0.111,2.841
	c0.237,0.438,0.682,0.695,1.349,0.752c0.674,0.072,1.192-0.144,1.565-0.646c0.386-0.492,0.628-1.256,0.727-2.292
	c0.222-2.292,0.059-3.809-0.497-4.568c-0.577-0.773-2.029-2.088-4.381-3.981c-2.351-1.898-3.894-3.26-4.627-4.097
	c-0.747-0.824-1.329-1.926-1.741-3.312c-0.399-1.375-0.499-3.09-0.302-5.146c0.281-2.972,0.864-5.106,1.754-6.409
	c0.891-1.303,2.226-2.246,3.994-2.854c1.767-0.615,3.848-0.813,6.245-0.584c2.617,0.257,4.803,0.891,6.559,1.918
	c1.767,1.028,2.887,2.207,3.351,3.556c0.484,1.334,0.577,3.546,0.275,6.631L367.456,381.038"/>
<path fill="#FFFFFF" d="M378.604,370.636l-0.394,3.471c-0.209,1.792-0.589,3.258-1.151,4.399c-0.563,1.112-1.429,2.008-2.593,2.696
	c-1.146,0.68-2.395,1.086-3.77,1.217l0.32-2.789c1.015-0.425,1.643-1.081,1.867-1.978l-1.617-0.175l0.857-7.581L378.604,370.636"/>
<g>
	<path d="M445.358,0c0.958,0,1.895,0.246,2.808,0.738c0.913,0.492,1.625,1.196,2.134,2.112c0.51,0.916,0.765,1.871,0.765,2.865
		c0,0.984-0.251,1.93-0.753,2.839c-0.502,0.908-1.206,1.614-2.111,2.115c-0.906,0.502-1.854,0.753-2.842,0.753
		c-0.989,0-1.937-0.251-2.842-0.753c-0.906-0.502-1.611-1.207-2.116-2.115s-0.757-1.854-0.757-2.839
		c0-0.994,0.256-1.949,0.768-2.865s1.225-1.62,2.139-2.112C443.463,0.246,444.399,0,445.358,0z M445.358,0.945
		c-0.803,0-1.583,0.206-2.343,0.617c-0.76,0.412-1.354,1-1.783,1.764c-0.429,0.765-0.644,1.561-0.644,2.388
		c0,0.823,0.21,1.611,0.632,2.366c0.421,0.755,1.01,1.343,1.768,1.764c0.757,0.421,1.547,0.632,2.37,0.632s1.612-0.211,2.37-0.632
		c0.757-0.421,1.345-1.009,1.764-1.764s0.628-1.543,0.628-2.366c0-0.828-0.213-1.624-0.64-2.388
		c-0.427-0.765-1.021-1.353-1.783-1.764C446.935,1.151,446.155,0.945,445.358,0.945z M442.854,8.875V2.727h2.117
		c0.723,0,1.247,0.057,1.57,0.17c0.324,0.114,0.582,0.312,0.774,0.594c0.192,0.283,0.289,0.583,0.289,0.901
		c0,0.449-0.161,0.84-0.483,1.173c-0.323,0.333-0.75,0.52-1.283,0.56c0.217,0.091,0.391,0.199,0.522,0.326
		c0.248,0.242,0.55,0.649,0.909,1.219l0.75,1.205h-1.214l-0.546-0.97c-0.429-0.761-0.773-1.238-1.033-1.431
		c-0.182-0.142-0.447-0.212-0.795-0.209h-0.583v2.609H442.854z M443.846,5.414h1.208c0.577,0,0.97-0.086,1.181-0.257
		c0.21-0.171,0.315-0.398,0.315-0.68c0-0.181-0.051-0.344-0.152-0.487c-0.102-0.144-0.242-0.25-0.421-0.321
		c-0.18-0.07-0.513-0.106-0.999-0.106h-1.131V5.414z"/>
</g>
</svg>
