<?xml version="1.0" encoding="UTF-8" standalone="no"?>
<svg width="21px" height="15px" viewBox="0 0 21 15" version="1.1" xmlns="http://www.w3.org/2000/svg" xmlns:xlink="http://www.w3.org/1999/xlink">
    <!-- Generator: Sketch 3.8.2 (29753) - http://www.bohemiancoding.com/sketch -->
    <title>KN</title>
    <desc>Created with Sketch.</desc>
    <defs>
        <rect id="path-1" x="0" y="0" width="21" height="15" rx="2"></rect>
        <rect id="path-3" x="0.5" y="0.5" width="20" height="14" rx="1"></rect>
    </defs>
    <g id=":)" stroke="none" stroke-width="1" fill="none" fill-rule="evenodd">
        <g id="Flags-by-@lucchaissac" transform="translate(-298.000000, -130.000000)">
            <g id="KN" transform="translate(298.000000, 130.000000)">
                <mask id="mask-2" fill="white">
                    <use xlink:href="#path-1"></use>
                </mask>
                <use id="background" fill="#E6253F" xlink:href="#path-1"></use>
                <polygon id="top-left" fill="#3AAB68" mask="url(#mask-2)" points="0 0 8.8817842e-16 14 20 0"></polygon>
                <polygon id="band" fill="#FFEA00" mask="url(#mask-2)" points="21 0 21.0000002 5 4.99999994 15 1.762441e-07 15 1.762441e-07 10 16.0000002 0"></polygon>
                <polygon id="band" fill="#292929" mask="url(#mask-2)" points="21.0000002 0 21.0000002 3 1.99999994 15 1.762441e-07 15 1.762441e-07 12 19.0000002 0"></polygon>
                <path d="M7,8 L7,9 L8,9 L8,8 L7,8 L7,8 Z M7,10 L7,11 L8,11 L8,10 L7,10 L7,10 Z M8,9 L8,10 L9,10 L9,9 L8,9 L8,9 Z M6,9 L6,10 L7,10 L7,9 L6,9 Z M7,9 L7,10 L8,10 L8,9 L7,9 Z" id="star" fill="#FFFFFF" mask="url(#mask-2)"></path>
                <path d="M13,4 L13,5 L14,5 L14,4 L13,4 L13,4 Z M13,6 L13,7 L14,7 L14,6 L13,6 L13,6 Z M14,5 L14,6 L15,6 L15,5 L14,5 L14,5 Z M12,5 L12,6 L13,6 L13,5 L12,5 Z M13,5 L13,6 L14,6 L14,5 L13,5 Z" id="star" fill="#FFFFFF" mask="url(#mask-2)"></path>
                <mask id="mask-4" fill="white">
                    <use xlink:href="#path-3"></use>
                </mask>
                <use id="overlay" stroke-opacity="0.156646286" stroke="#2F343A" xlink:href="#path-3"></use>
            </g>
        </g>
    </g>
</svg>