<?xml version="1.0" encoding="UTF-8" standalone="no"?>
<svg width="21px" height="15px" viewBox="0 0 21 15" version="1.1" xmlns="http://www.w3.org/2000/svg" xmlns:xlink="http://www.w3.org/1999/xlink">
    <!-- Generator: Sketch 3.8.2 (29753) - http://www.bohemiancoding.com/sketch -->
    <title>MK</title>
    <desc>Created with Sketch.</desc>
    <defs>
        <rect id="path-1" x="0" y="0" width="21" height="15" rx="2"></rect>
        <filter x="-50%" y="-50%" width="200%" height="200%" filterUnits="objectBoundingBox" id="filter-3">
            <feMorphology radius="1" operator="erode" in="SourceAlpha" result="shadowSpreadInner1"></feMorphology>
            <feOffset dx="0" dy="0" in="shadowSpreadInner1" result="shadowOffsetInner1"></feOffset>
            <feComposite in="shadowOffsetInner1" in2="SourceAlpha" operator="arithmetic" k2="-1" k3="1" result="shadowInnerInner1"></feComposite>
            <feColorMatrix values="0 0 0 0 0   0 0 0 0 0   0 0 0 0 0  0 0 0 0.121659873 0" type="matrix" in="shadowInnerInner1"></feColorMatrix>
        </filter>
        <rect id="path-4" x="0.5" y="0.5" width="20" height="14" rx="1"></rect>
    </defs>
    <g id=":)" stroke="none" stroke-width="1" fill="none" fill-rule="evenodd">
        <g id="Flags-by-@lucchaissac" transform="translate(-50.000000, -180.000000)">
            <g id="MK" transform="translate(50.000000, 180.000000)">
                <mask id="mask-2" fill="white">
                    <use xlink:href="#path-1"></use>
                </mask>
                <g id="background">
                    <use fill="#D23144" fill-rule="evenodd" xlink:href="#path-1"></use>
                    <use fill="black" fill-opacity="1" filter="url(#filter-3)" xlink:href="#path-1"></use>
                </g>
                <circle id="circle" fill="#FDDC34" mask="url(#mask-2)" cx="10.5" cy="7.5" r="2.5"></circle>
                <path d="M10.5,11 L12,15 L9,15 L10.5,11 L10.5,11 Z M1.65793305e-14,5.5 L7,7.5 L0,9.5 L1.65793305e-14,5.5 L1.65793305e-14,5.5 Z M21,5.5 L14,7.5 L21,9.5 L21,5.5 L21,5.5 Z M10.5,4 L12,0 L9,0 L10.5,4 L10.5,4 Z M13,5 L19,0 L21,0 L21,2 L13,5 L13,5 Z M8,5 L2,0 L0,0 L0,2 L8,5 L8,5 Z M13,10 L19,15 L21,15 L21,13 L13,10 L13,10 Z M8,10 L2,15 L0,15 L0,13 L8,10 L8,10 Z" id="triangle" fill="#FDDC34" mask="url(#mask-2)"></path>
                <mask id="mask-5" fill="white">
                    <use xlink:href="#path-4"></use>
                </mask>
                <use id="overlay" stroke-opacity="0.156646286" stroke="#2F343A" xlink:href="#path-4"></use>
            </g>
        </g>
    </g>
</svg>