<?xml version="1.0" encoding="UTF-8" standalone="no"?>
<svg width="21px" height="15px" viewBox="0 0 21 15" version="1.1" xmlns="http://www.w3.org/2000/svg" xmlns:xlink="http://www.w3.org/1999/xlink">
    <!-- Generator: Sketch 3.8.2 (29753) - http://www.bohemiancoding.com/sketch -->
    <title>PK</title>
    <desc>Created with Sketch.</desc>
    <defs>
        <rect id="path-1" x="0" y="0" width="21" height="15" rx="2"></rect>
        <path d="M16,3 L16,4 L17,4 L17,3 L16,3 L16,3 Z M16,5 L16,6 L17,6 L17,5 L16,5 L16,5 Z M17,4 L17,5 L18,5 L18,4 L17,4 L17,4 Z M15,4 L15,5 L16,5 L16,4 L15,4 L15,4 Z" id="path-3"></path>
        <mask id="mask-4" maskContentUnits="userSpaceOnUse" maskUnits="objectBoundingBox" x="0" y="0" width="3" height="3" fill="white">
            <use xlink:href="#path-3"></use>
        </mask>
        <rect id="path-5" x="0.5" y="0.5" width="20" height="14" rx="1"></rect>
    </defs>
    <g id=":)" stroke="none" stroke-width="1" fill="none" fill-rule="evenodd">
        <g id="Flags-by-@lucchaissac" transform="translate(-205.000000, -205.000000)">
            <g id="PK" transform="translate(205.000000, 205.000000)">
                <mask id="mask-2" fill="white">
                    <use xlink:href="#path-1"></use>
                </mask>
                <use id="background" fill="#FFFFFF" xlink:href="#path-1"></use>
                <rect id="left" fill="#32733C" mask="url(#mask-2)" x="6" y="0" width="15" height="15"></rect>
                <path d="M17.9656016,8.0591468 C17.6902862,10.2805702 15.7959403,12 13.5,12 C11.0147186,12 9,9.98528137 9,7.5 C9,5.52908616 10.267064,3.85411098 12.0310561,3.24521033 C11.3920942,3.96251766 11,4.93241696 11,6 C11,8.209139 12.6789322,10 14.75,10 C16.1150151,10 17.3096879,9.22205633 17.9656016,8.0591468 Z" id="circle" fill="#EFF1F0" mask="url(#mask-2)"></path>
                <g id="star" mask="url(#mask-2)" stroke-width="2" stroke="#A7BCAB">
                    <use mask="url(#mask-4)" xlink:href="#path-3"></use>
                </g>
                <rect id="star" fill="#FFFFFF" mask="url(#mask-2)" x="16" y="4" width="1" height="1"></rect>
                <mask id="mask-6" fill="white">
                    <use xlink:href="#path-5"></use>
                </mask>
                <use id="overlay" stroke-opacity="0.156646286" stroke="#2F343A" xlink:href="#path-5"></use>
            </g>
        </g>
    </g>
</svg>