<?xml version="1.0" encoding="utf-8"?>
<!-- Generator: Adobe Illustrator 13.0.0, SVG Export Plug-In . SVG Version: 6.00 Build 14948)  -->
<!DOCTYPE svg PUBLIC "-//W3C//DTD SVG 1.1//EN" "http://www.w3.org/Graphics/SVG/1.1/DTD/svg11.dtd">
<svg version="1.1" id="Ebene_1" xmlns="http://www.w3.org/2000/svg" xmlns:xlink="http://www.w3.org/1999/xlink" x="0px" y="0px"
	 width="28px" height="21px" viewBox="0 0 355.509 405.591" enable-background="new 0 0 355.509 405.591"
	 xml:space="preserve">
<path fill-rule="evenodd" clip-rule="evenodd" fill="#211E1F" d="M305.354,289.95c-30.246,35.949-75.56,58.812-126.242,58.812
	c-50.182,0-95.056-22.383-125.327-57.729l-35.835,43.095c40.247,43.217,97.668,70.286,161.394,70.286
	c64.106,0,121.784-27.36,162.029-71.04L305.354,289.95"/>
<path fill="none" stroke="#FFFFFF" stroke-width="2.356" d="M305.354,289.95c-30.246,35.949-75.56,58.812-126.242,58.812
	c-50.182,0-95.056-22.383-125.327-57.729l-35.835,43.095c40.247,43.217,97.668,70.286,161.394,70.286
	c64.106,0,121.784-27.36,162.029-71.04L305.354,289.95z"/>
<path fill-rule="evenodd" clip-rule="evenodd" fill="#211E1F" d="M276.995,124.88v191.383c0,5.529-3.502,10.322-8.416,12.16
	l-88.866,34.457l-88.896-34.457c-4.886-1.838-8.416-6.631-8.416-12.16l0.013-191.383H276.995"/>
<path fill="none" stroke="#FFFFFF" stroke-width="2.356" d="M276.995,124.88v191.383c0,5.529-3.502,10.322-8.416,12.16
	l-88.866,34.457l-88.896-34.457c-4.886-1.838-8.416-6.631-8.416-12.16l0.013-191.383H276.995z"/>
<polyline fill-rule="evenodd" clip-rule="evenodd" fill="#FFFFFF" points="87.027,272.62 87.027,154.673 272.323,154.673 
	272.358,272.62 87.027,272.62 "/>
<path fill-rule="evenodd" clip-rule="evenodd" fill="#D61F26" d="M272.358,261.558c-1.633,2.61-5.634,4.446-10.271,4.446
	c-4.706,0-8.728-1.836-10.323-4.481c-1.633,2.646-5.634,4.481-10.322,4.481c-4.689,0-8.641-1.836-10.291-4.446
	c-1.648,2.61-5.632,4.446-10.288,4.446c-4.707,0-8.673-1.836-10.306-4.481h-0.05c-1.615,2.646-5.602,4.481-10.273,4.481
	c-4.688,0-8.657-1.836-10.271-4.446c-1.65,2.61-5.687,4.446-10.318,4.446c-4.699,0-8.675-1.836-10.311-4.481h0.038
	c-1.658,2.646-5.634,4.481-10.293,4.481c-4.694,0-8.695-1.836-10.33-4.446c-1.628,2.61-5.647,4.446-10.311,4.446
	c-4.652,0-8.653-1.836-10.281-4.481h-0.042c-1.606,2.646-5.616,4.481-10.253,4.481c-4.71,0-8.681-1.836-10.333-4.446v0.067
	c-1.636,2.627-5.622,4.379-10.246,4.379c-4.732,0-8.708-1.836-10.313-4.481v-0.224l0.057,52.131c0,5.289,3.343,9.791,8.022,11.541
	l84.664,32.878l84.606-32.878c4.689-1.75,8.039-6.252,8.039-11.541v-52.098V261.558"/>
<path fill-rule="evenodd" clip-rule="evenodd" fill="#2EABE2" d="M272.358,256.114c-1.633,2.592-5.634,4.447-10.271,4.447
	c-4.706,0-8.728-1.873-10.323-4.447c-1.633,2.574-5.634,4.447-10.322,4.447c-4.689,0-8.641-1.855-10.291-4.447
	c-1.648,2.592-5.632,4.447-10.288,4.447c-4.707,0-8.673-1.873-10.306-4.447h-0.05c-1.615,2.574-5.602,4.447-10.273,4.447
	c-4.688,0-8.657-1.855-10.271-4.447c-1.65,2.592-5.687,4.447-10.318,4.447c-4.699,0-8.675-1.873-10.311-4.447h0.038
	c-1.658,2.574-5.634,4.447-10.293,4.447c-4.694,0-8.695-1.855-10.33-4.447c-1.628,2.592-5.647,4.447-10.311,4.447
	c-4.652,0-8.653-1.873-10.281-4.447h-0.042c-1.606,2.574-5.616,4.447-10.253,4.447c-4.71,0-8.681-1.855-10.333-4.447v0.084
	c-1.636,2.609-5.622,4.363-10.246,4.363c-4.732,0-8.708-1.873-10.313-4.447v-6.459c1.605,2.608,5.581,4.481,10.313,4.481
	c4.624,0,8.61-1.838,10.246-4.45c1.652,2.612,5.623,4.45,10.333,4.45c4.637,0,8.647-1.873,10.253-4.481h0.042
	c1.628,2.608,5.629,4.481,10.281,4.481c4.664,0,8.683-1.838,10.311-4.45c1.635,2.612,5.636,4.45,10.33,4.45
	c4.659,0,8.635-1.873,10.293-4.481h-0.038c1.636,2.608,5.612,4.481,10.311,4.481c4.632,0,8.668-1.838,10.318-4.45
	c1.613,2.612,5.582,4.45,10.271,4.45c4.672,0,8.658-1.873,10.273-4.481h0.05c1.633,2.608,5.599,4.481,10.306,4.481
	c4.656,0,8.64-1.838,10.288-4.45c1.65,2.612,5.602,4.45,10.291,4.45c4.688,0,8.689-1.873,10.322-4.481
	c1.596,2.608,5.617,4.481,10.323,4.481c4.637,0,8.638-1.838,10.271-4.45V256.114"/>
<path fill-rule="evenodd" clip-rule="evenodd" fill="#2EABE2" d="M272.358,244.483c-1.633,2.594-5.634,4.416-10.271,4.416
	c-4.706,0-8.728-1.84-10.323-4.416c-1.633,2.576-5.634,4.416-10.322,4.416c-4.689,0-8.641-1.822-10.291-4.416
	c-1.648,2.594-5.632,4.416-10.288,4.416c-4.707,0-8.673-1.84-10.306-4.416h-0.05c-1.615,2.576-5.602,4.416-10.273,4.416
	c-4.688,0-8.657-1.822-10.271-4.416c-1.65,2.594-5.687,4.416-10.318,4.416c-4.699,0-8.675-1.84-10.311-4.416h0.038
	c-1.658,2.576-5.634,4.416-10.293,4.416c-4.694,0-8.695-1.822-10.33-4.416c-1.628,2.594-5.647,4.416-10.311,4.416
	c-4.652,0-8.653-1.84-10.281-4.416h-0.042c-1.606,2.576-5.616,4.416-10.253,4.416c-4.71,0-8.681-1.822-10.333-4.416v0.067
	c-1.636,2.613-5.622,4.349-10.246,4.349c-4.732,0-8.708-1.84-10.313-4.416v-6.457c1.605,2.594,5.581,4.467,10.313,4.467
	c4.624,0,8.61-1.823,10.246-4.452c1.652,2.629,5.623,4.452,10.333,4.452c4.637,0,8.647-1.873,10.253-4.467h0.042
	c1.628,2.594,5.629,4.467,10.281,4.467c4.664,0,8.683-1.823,10.311-4.452c1.635,2.629,5.636,4.452,10.33,4.452
	c4.659,0,8.635-1.873,10.293-4.467h-0.038c1.636,2.594,5.612,4.467,10.311,4.467c4.632,0,8.668-1.823,10.318-4.452
	c1.613,2.629,5.582,4.452,10.271,4.452c4.672,0,8.658-1.873,10.273-4.467h0.05c1.633,2.594,5.599,4.467,10.306,4.467
	c4.656,0,8.64-1.823,10.288-4.452c1.65,2.629,5.602,4.452,10.291,4.452c4.688,0,8.689-1.873,10.322-4.467
	c1.596,2.594,5.617,4.467,10.323,4.467c4.637,0,8.638-1.823,10.271-4.452V244.483"/>
<path fill-rule="evenodd" clip-rule="evenodd" fill="#211E1F" d="M193.279,320.937c0,0,9.087,14.203,4.311,10.203
	c-3.487-3.007-8.262-9.931-11.714-15.632l-18.649,7.248c0,0-10.702,13.021-8.331,7.267c1.709-4.158,6.989-10.906,11.345-16.011
	l-12.772-15.422c0,0-15.707-6.114-9.48-5.651c4.074,0.309,12.574,3.366,18.699,5.842l10.635-16.938c0,0,1-16.849,2.485-10.787
	c1.029,4.158,0.703,13.158,0.207,19.82l19.5,4.743c0,0,16.315-4.278,10.993-0.996c-3.729,2.335-11.871,4.775-18.362,6.337
	L193.279,320.937"/>
<path fill="none" stroke="#211E1F" stroke-width="1.441" d="M193.279,320.937c0,0,9.087,14.203,4.311,10.203
	c-3.487-3.007-8.262-9.931-11.714-15.632l-18.649,7.248c0,0-10.702,13.021-8.331,7.267c1.709-4.158,6.989-10.906,11.345-16.011
	l-12.772-15.422c0,0-15.707-6.114-9.48-5.651c4.074,0.309,12.574,3.366,18.699,5.842l10.635-16.938c0,0,1-16.849,2.485-10.787
	c1.029,4.158,0.703,13.158,0.207,19.82l19.5,4.743c0,0,16.315-4.278,10.993-0.996c-3.729,2.335-11.871,4.775-18.362,6.337
	L193.279,320.937z"/>
<path fill-rule="evenodd" clip-rule="evenodd" fill="#FFFFFF" d="M178.421,317.174c0.115,0.274,0.322,0.463,0.555,0.463
	c0.219,0,0.387-0.188,0.533-0.463c0.204-0.481,0.394-1.612,0.324-3.967c0,0,0.119-7.955,6.061,0.584
	c16.642,23.995-7.061,24.131-7.061,24.131h0.227c0,0-23.707-0.136-7.042-24.131c5.943-8.539,6.013-0.584,6.013-0.584
	c-0.018,2.354,0.127,3.485,0.391,4.002V317.174"/>
<path fill="none" stroke="#211E1F" stroke-width="1.441" d="M178.421,317.174l0.555,0.463l0.533-0.463
	c0.204-0.481,0.324-1.612,0.324-3.967c0,0,0.119-7.955,6.061,0.584c16.642,23.995-7.061,24.131-7.061,24.131h0.227
	c0,0-23.707-0.136-7.042-24.131c5.943-8.539,6.013-0.584,6.013-0.584c0,2.354,0.127,3.485,0.391,4.002V317.174z"/>
<path fill-rule="evenodd" clip-rule="evenodd" fill="#FFFFFF" d="M166.229,307.558c-0.217,0.202-0.317,0.428-0.22,0.616
	c0.053,0.224,0.264,0.396,0.571,0.396h-0.015c0.554,0.035,1.643-0.071,3.89-0.858c0,0,7.612-2.336,1.33,5.892
	c-17.7,23.256-25.103,0.807-25.103,0.807v0.154c0,0-7.145-22.588,20.806-14.154c9.983,2.972,2.4,5.566,2.4,5.566
	C167.596,306.644,166.616,307.161,166.229,307.558"/>
<path fill="none" stroke="#211E1F" stroke-width="1.441" d="M166.229,307.558c-0.217,0.202-0.22,0.616-0.22,0.616l0.571,0.396
	h-0.015c0,0,1.643-0.071,3.89-0.858c0,0,7.612-2.336,1.33,5.892c-17.7,23.256-25.103,0.807-25.103,0.807v0.154
	c0,0-7.145-22.588,20.806-14.154c9.983,2.972,2.4,5.566,2.4,5.566C167.596,306.644,166.616,307.161,166.229,307.558z"/>
<path fill-rule="evenodd" clip-rule="evenodd" fill="#FFFFFF" d="M171.552,292.92c-0.237-0.153-0.504-0.153-0.683,0
	c-0.19,0.119-0.242,0.362-0.19,0.638v-0.019c0.115,0.569,0.576,1.598,2.079,3.452c0,0,4.552,6.494-5.269,3.074
	c-27.554-9.617-8.487-23.636-8.487-23.636l-0.141,0.07c0,0,19.207-13.793,19.883,15.426c0.232,10.408-4.57,3.983-4.57,3.983
	C172.851,293.985,172.036,293.196,171.552,292.92"/>
<path fill="none" stroke="#211E1F" stroke-width="1.441" d="M171.552,292.92h-0.683l-0.19,0.638v-0.019c0,0,0.576,1.598,2.079,3.452
	c0,0,4.552,6.494-5.269,3.074c-27.554-9.617-8.487-23.636-8.487-23.636l-0.141,0.07c0,0,19.207-13.793,19.883,15.426
	c0.232,10.408-4.57,3.983-4.57,3.983C172.851,293.985,172.036,293.196,171.552,292.92z"/>
<path fill-rule="evenodd" clip-rule="evenodd" fill="#FFFFFF" d="M187.182,293.506c0.05-0.259,0-0.532-0.172-0.67
	c-0.172-0.088-0.446-0.069-0.706,0.084c-0.463,0.226-1.288,0.981-2.645,2.974c0,0-4.762,6.37-4.547-4.002
	c0.671-29.201,19.886-15.408,19.886-15.408l-0.137-0.104c0,0,19.083,14.017-8.538,23.655c-9.777,3.416-5.186-3.077-5.186-3.077
	C186.581,295.069,187.095,294.073,187.182,293.506"/>
<path fill="none" stroke="#211E1F" stroke-width="1.441" d="M187.182,293.506l-0.172-0.67l-0.706,0.084
	c-0.463,0.226-1.288,0.981-2.645,2.974c0,0-4.762,6.37-4.547-4.002c0.671-29.201,19.886-15.408,19.886-15.408l-0.137-0.104
	c0,0,19.083,14.017-8.538,23.655c-9.777,3.416-5.186-3.077-5.186-3.077C186.581,295.069,187.182,293.506,187.182,293.506z"/>
<path fill-rule="evenodd" clip-rule="evenodd" fill="#FFFFFF" d="M191.439,308.569c0.274-0.019,0.517-0.172,0.568-0.396
	c0.103-0.188-0.034-0.414-0.241-0.616c-0.412-0.396-1.393-0.945-3.675-1.582c0,0-7.546-2.595,2.386-5.566
	c28.018-8.434,20.835,14.154,20.835,14.154l0.035-0.154c0,0-7.437,22.449-25.11-0.807c-6.335-8.228,1.286-5.892,1.286-5.892
	C189.774,308.498,190.909,308.604,191.439,308.569"/>
<path fill="none" stroke="#211E1F" stroke-width="1.441" d="M191.439,308.569l0.568-0.396c0,0-0.034-0.414-0.241-0.616
	c-0.412-0.396-1.393-0.945-3.675-1.582c0,0-7.546-2.595,2.386-5.566c28.018-8.434,20.835,14.154,20.835,14.154l0.035-0.154
	c0,0-7.437,22.449-25.11-0.807c-6.335-8.228,1.286-5.892,1.286-5.892C189.774,308.498,191.439,308.569,191.439,308.569z"/>
<path fill-rule="evenodd" clip-rule="evenodd" fill="#211E1F" d="M162.713,281.653c0,0-1.779,1.235-3.325,1.733
	c-1.541,0.447-2.206,1.615-2.401,1.892c0,0-0.88,2.026-1.443,1.201c-0.601-0.81,0.598-2.336,0.598-2.336
	c0.177-0.31,0.89-1.427,2.383-1.957c1.539-0.445,3.316-1.664,3.316-1.664c0-0.004,1.742-1.359,2.667-2.649
	c0.948-1.32,2.224-1.613,2.583-1.666c0,0,1.805-0.652,2.436,0.139c0.586,0.843-1.589,0.996-1.589,0.996
	c-0.368,0.138-1.665,0.412-2.594,1.685C164.444,280.332,162.713,281.653,162.713,281.653"/>
<path fill-rule="evenodd" clip-rule="evenodd" fill="#211E1F" d="M195.116,281.635c0,0-1.699-1.319-2.595-2.644
	c-0.944-1.287-2.249-1.58-2.558-1.702c0,0-2.217-0.154-1.633-0.978c0.618-0.806,2.44-0.138,2.44-0.138
	c0.358,0.052,1.665,0.345,2.558,1.666c0.945,1.287,2.662,2.683,2.662,2.683c0-0.004,1.822,1.184,3.333,1.646
	c1.494,0.5,2.182,1.616,2.354,1.909c0,0,1.202,1.562,0.636,2.386c-0.583,0.825-1.426-1.203-1.426-1.203
	c-0.225-0.308-0.893-1.442-2.438-1.903C196.954,282.854,195.116,281.635,195.116,281.635"/>
<path fill-rule="evenodd" clip-rule="evenodd" fill="#211E1F" d="M205.198,312.467c0,0,0.758-2.026,1.682-3.33
	c1.016-1.235,0.826-2.612,0.809-2.938c0,0-0.479-2.147,0.466-1.821c0.942,0.327,0.91,2.235,0.91,2.235
	c0,0.358,0.154,1.699-0.79,2.986c-0.998,1.273-1.735,3.331-1.735,3.331s-0.568,2.099-0.534,3.66c0,1.614-0.909,2.595-1.099,2.903
	c0,0-1.135,1.597-2.06,1.306c-0.997-0.31,0.703-1.754,0.703-1.754c0.189-0.291,1.1-1.319,1.047-2.865
	C204.597,314.581,205.198,312.467,205.198,312.467"/>
<path fill-rule="evenodd" clip-rule="evenodd" fill="#211E1F" d="M178.976,331.483c0,0,2.188,0.084,3.684,0.601
	c1.516,0.498,2.718-0.035,3.062-0.156c0,0,1.854-1.149,1.837-0.118c0,0.942-1.837,1.563-1.837,1.563
	c-0.344,0.103-1.546,0.668-3.062,0.137c-1.495-0.515-3.684-0.618-3.684-0.618s-2.224,0.104-3.712,0.618
	c-1.511,0.531-2.7-0.034-3.079-0.137c0,0-1.867-0.621-1.867-1.563c-0.008-1.031,1.867,0.118,1.867,0.118
	c0.379,0.121,1.568,0.654,3.079,0.156C176.752,331.567,178.976,331.483,178.976,331.483"/>
<path fill-rule="evenodd" clip-rule="evenodd" fill="#211E1F" d="M152.794,312.467c0,0,0.614,2.114,0.586,3.713
	c0,1.611,0.865,2.574,1.099,2.865c0,0,1.663,1.444,0.714,1.754c-0.948,0.291-2.087-1.306-2.087-1.306
	c-0.222-0.309-1.089-1.289-1.089-2.903c0.007-1.562-0.559-3.66-0.559-3.66s-0.748-2.058-1.727-3.331
	c-0.93-1.287-0.798-2.628-0.798-2.986c0,0,0-1.908,0.93-2.235c0.917-0.326,0.421,1.821,0.421,1.821
	c-0.033,0.326-0.157,1.703,0.83,2.938C152.063,310.44,152.794,312.467,152.794,312.467"/>
<path fill-rule="evenodd" clip-rule="evenodd" fill="#FFC213" d="M178.834,298.555c-2.921,0-5.313,2.404-5.313,5.343
	c0,3.006,2.393,5.342,5.313,5.342c2.983,0,5.376-2.336,5.376-5.342C184.21,300.959,181.817,298.555,178.834,298.555"/>
<path fill="none" stroke="#FFCB04" stroke-width="0.571" d="M178.834,298.555c-2.921,0-5.313,2.404-5.313,5.343
	c0,3.006,2.393,5.342,5.313,5.342c2.983,0,5.376-2.336,5.376-5.342C184.21,300.959,181.817,298.555,178.834,298.555z"/>
<path fill-rule="evenodd" clip-rule="evenodd" fill="#211E1F" d="M188.949,201.736l0.706,14.423l12.194-7.919l3.829,6.255
	l-14.376,8.31v3.009c0,0,16.729,9.394-3.66,9.032l0.003,0.106c-7.135,5.959-13.893,0.066-13.893,0.066c-20.387,0.36-3.679-9-3.679-9
	v-3.023l-12.714-9.877l3.014-6.529l11.37,9.726l0.661-14.4L188.949,201.736"/>
<path fill-rule="evenodd" clip-rule="evenodd" fill="#0CB14B" d="M204.134,214.099c11.818,13.52,20.49-0.714,20.49-0.714
	c14.928-3.625,6.066-14.191,6.066-14.191c15.561-10.203-2.715-18.208-2.715-18.208c-0.12-13.558-11.664-12.547-11.664-12.547
	c-12.059-10.537-23.583,1.16-23.583,1.16c-18.073-15.045-31.794,2.316-31.794,2.316s-11.548-8.005-16.733,4.539
	c0,0-18.387-0.511-11.522,18.051c0,0-14.209,14.222,4.338,21.227c0,0,9.861,18.258,23.416,0.875c0,0,8.331,0.498,7.02-11.243
	c0,0,10.559,4.396,20.551-0.479c0-0.002,3.195,7.187,10.066,3.164c0,0-1.064,4.624,5.581,5.57L204.134,214.099"/>
<path fill="none" stroke="#211E1F" stroke-width="5.901" d="M204.134,214.099c11.818,13.52,20.49-0.714,20.49-0.714
	c14.928-3.625,6.066-14.191,6.066-14.191c15.561-10.203-2.715-18.208-2.715-18.208c0-13.558-11.664-12.547-11.664-12.547
	c-12.059-10.537-23.583,1.16-23.583,1.16c-18.073-15.045-31.794,2.316-31.794,2.316s-11.548-8.005-16.733,4.539
	c0,0-18.387-0.511-11.522,18.051c0,0-14.209,14.222,4.338,21.227c0,0,9.861,18.258,23.416,0.875c0,0,8.331,0.498,7.02-11.243
	c0,0,10.559,4.396,20.551-0.479c0,0,3.195,7.187,10.066,3.164c0,0-1.064,4.624,5.581,5.57L204.134,214.099z"/>
<path fill-rule="evenodd" clip-rule="evenodd" fill="#FFC213" d="M45.987,330.521l0.88,0.737c-3.029,5.498-3.458,9.379-1.346,11.185
	c1.52,1.338,3.53,0.787,5.369-1.289c0.786-0.894,1.304-1.924,1.304-2.715c0-1.149-0.854-2.438-1.802-4.379
	c-1.822-3.711-1.745-6.699,1.493-10.443c3.246-3.709,7.486-4.946,10.179-2.627c1.166,1.047,1.777,2.508,1.889,4.396l2.094-0.635
	l0.731,0.635l-6.467,7.865l-0.772-0.755c2.532-5.237,3.073-8.381,1.166-9.997c-1.451-1.306-3.348-0.856-5.028,1.083
	c-2.117,2.423-0.898,3.832,0.708,6.835c0.842,1.668,1.508,2.957,1.164,4.933c-0.317,1.77-1.378,3.813-3.079,5.805
	c-3.525,4.002-7.553,5.222-10.4,2.748c-1.409-1.272-2.062-2.767-1.975-5.049l-2.555,0.856l-0.742-0.651L45.987,330.521"/>
<path fill-rule="evenodd" clip-rule="evenodd" fill="#FFC213" d="M70.248,333.217c2.947-1.39,5.393-1.34,7.583,0.156
	c2.207,1.545,3.132,3.762,2.813,7.161c-0.255,2.99-1.653,6.39-3.997,9.773c-2.353,3.366-4.639,5.549-7.551,6.903
	c-3.111,1.461-5.788,1.479-7.852,0c-2.135-1.457-3.029-3.761-2.727-7.246c0.274-3.299,1.502-6.218,3.88-9.603
	C64.769,336.946,67.498,334.487,70.248,333.217 M62.415,355.478c2.294,1.58,5.716-1.029,10.461-7.832
	c4.758-6.854,6.019-10.906,3.724-12.539c-2.274-1.562-5.657,1.03-10.423,7.867C61.428,349.791,60.108,353.881,62.415,355.478z"/>
<path fill-rule="evenodd" clip-rule="evenodd" fill="#FFC213" d="M94.098,346.495l-1.017-0.551
	c-0.898-0.463-1.259-0.103-1.979,1.254l-6.597,12.332c-2.376,4.433-2.483,7.06,0.078,8.402c1.154,0.581,2.36,0.53,3.425,0
	c1.685-0.945,2.809-2.869,4.45-5.929l4.773-8.897c1.364-2.593,1.641-4.07-0.097-4.981c-0.017-0.033-0.107-0.052-0.125-0.065
	l0.928-1.787l5.599,3.006l-0.948,1.733c-1.749-0.616-2.667,0.276-4.028,2.817L93.642,363c-1.416,2.68-2.523,4.672-4.166,6.081
	c-2.448,2.063-4.846,2.335-7.454,0.876c-4.006-2.113-4.517-5.959-1.683-11.386l7.128-13.295c0.722-1.375,0.773-1.894-0.085-2.354
	l-1.014-0.55l0.92-1.77l7.745,4.123L94.098,346.495"/>
<path fill-rule="evenodd" clip-rule="evenodd" fill="#FFC213" d="M115.619,356.096c-0.787-0.293-1.184,0.033-1.743,1.408
	l-7.326,18.534c-0.583,1.408-0.583,1.925,0.326,2.302l1.1,0.446l-0.756,1.873l-8.134-3.229l0.748-1.907l1.074,0.446
	c0.923,0.362,1.219,0,1.813-1.459l7.376-18.5c0.528-1.39,0.528-1.871-0.232-2.181c-1.675-0.706-4.19,1.63-6.621,6.615l-1.117-0.397
	l4.201-9.586l14.11,5.601l-3.525,9.825l-1.035-0.379C117.507,360.202,117.298,356.748,115.619,356.096"/>
<path fill-rule="evenodd" clip-rule="evenodd" fill="#FFC213" d="M127.753,384.954c0.938,0.291,1.217-0.137,1.611-1.616l2.358-8.744
	l-5.893-1.58l-2.321,8.71c-0.414,1.477-0.369,1.959,0.578,2.232l1.135,0.326l-0.552,1.943l-8.448-2.27l0.524-1.958l1.131,0.258
	c0.956,0.291,1.224-0.103,1.621-1.597l5.11-18.961c0.434-1.496,0.407-2.028-0.573-2.305l-1.124-0.291l0.546-1.925l8.443,2.304
	l-0.528,1.924l-1.11-0.312c-0.95-0.274-1.231,0.173-1.67,1.668l-2.092,7.882l5.901,1.582l2.099-7.886
	c0.427-1.459,0.387-2.024-0.571-2.285l-1.106-0.291l0.498-1.938l8.463,2.336l-0.493,1.904l-1.16-0.31
	c-0.944-0.258-1.216,0.19-1.637,1.683l-5.101,18.965c-0.411,1.494-0.369,1.976,0.596,2.215l1.102,0.343l-0.501,1.926l-8.523-2.269
	l0.57-1.975L127.753,384.954"/>
<path fill-rule="evenodd" clip-rule="evenodd" fill="#FFC213" d="M150.127,389.469l1.159,0.07c0.499,0.034,0.686-0.224,0.776-0.792
	c0.027-0.273,0.027-0.618,0-1.079l-0.395-4.433l-5.837-0.842l-0.831,1.94c-0.261,0.62-0.474,1.373-0.523,1.892
	c-0.275,1.717,0.351,2.368,2.026,2.729l-0.279,1.96l-6.479-0.945l0.297-1.976c1.463-0.17,2.425-1.737,3.669-4.655l8.414-19.994
	l1.695,0.259l2.722,25.166c0.12,1.2,0.432,1.664,1.271,1.817l-0.291,2.01l-7.656-1.135L150.127,389.469 M146.793,380.092
	l4.665,0.722l-0.919-9.586L146.793,380.092z"/>
<path fill-rule="evenodd" clip-rule="evenodd" fill="#FFC213" d="M167.16,386.344c-0.123,3.556,0.329,4.88,2.485,4.981l-0.048,2.045
	l-6.621-0.19v-2.045c2.069-0.084,2.481-1.39,2.575-4.86l0.417-16.644c0.045-1.478-0.107-2.06-1.099-2.131l-1.215-0.015l0.085-2.012
	l7.433,0.206l3.222,16.646l3.764-16.491l7.324,0.172l-0.07,2.028l-1.151-0.084c-0.965,0-1.172,0.479-1.198,2.007l-0.462,19.668
	c-0.052,1.545,0.11,2.026,1.095,2.026l1.184,0.017l-0.066,2.028l-8.588-0.19l0.066-2.009h1.002c0.971,0.035,1.189-0.446,1.244-1.958
	l0.523-20.75l-5.651,24.667l-1.124-0.02l-4.714-24.783L167.16,386.344"/>
<path fill-rule="evenodd" clip-rule="evenodd" fill="#FFC213" d="M198.397,390.586l1.458-0.121l0.19,1.994l-9.07,0.911l-0.204-2.045
	l1.236-0.102c0.995-0.123,1.1-0.568,0.979-2.115l-1.906-19.529c-0.105-1.528-0.345-2.008-1.324-1.942l-1.219,0.142l-0.225-2.012
	l10.084-0.962c4.19-0.413,6.578,2.095,7.077,7.216c0.548,5.461-1.735,8.19-6.855,8.688c-0.686,0.104-1.44,0.122-2.318,0.172
	l0.79,7.853C197.245,390.313,197.47,390.655,198.397,390.586 M196.146,378.719c0.26,0.067,0.619,0.067,1.135,0
	c3.109-0.274,4.243-1.666,3.797-6.237c-0.414-4.447-1.598-5.769-4.313-5.529c-1.477,0.154-1.7,0.447-1.546,2.578L196.146,378.719z"
	/>
<path fill-rule="evenodd" clip-rule="evenodd" fill="#FFC213" d="M218.854,363.291c-0.825,0.137-0.909,0.62-0.601,2.081
	l4.001,19.564c0.327,1.496,0.586,1.889,1.563,1.682l1.116-0.207l0.396,1.996l-8.538,1.752l-0.429-1.959l1.134-0.258
	c0.978-0.19,1.03-0.705,0.756-2.199l-4.054-19.512c-0.309-1.443-0.583-1.892-1.391-1.718c-1.788,0.378-2.595,3.728-1.907,9.224
	l-1.117,0.205l-1.752-10.254l14.84-3.107l2.508,10.167l-1.114,0.223C222.703,365.68,220.659,362.881,218.854,363.291"/>
<path fill-rule="evenodd" clip-rule="evenodd" fill="#FFC213" d="M229.675,362.315c0.688-3.147,2.199-5.121,4.742-5.91
	c2.558-0.858,4.911-0.223,7.419,2.043c2.233,2.027,4.07,5.188,5.36,9.07c1.306,3.916,1.597,7.075,0.979,10.221
	c-0.705,3.365-2.318,5.478-4.776,6.269c-2.473,0.81-4.791,0.119-7.386-2.217c-2.455-2.181-4.054-4.912-5.322-8.861
	C229.401,368.979,229.058,365.319,229.675,362.315 M242.763,381.998c2.631-0.841,2.631-5.152,0.053-13.037
	c-2.578-7.918-5.051-11.403-7.763-10.526c-2.594,0.856-2.594,5.133-0.035,13.053C237.628,379.387,240.118,382.892,242.763,381.998z"
	/>
<path fill-rule="evenodd" clip-rule="evenodd" fill="#FFC213" d="M256.676,376.551c1.771-1.147,1.546-2.455,0.12-5.493
	l-7.006-15.136l-0.723-0.511c-0.738-0.551-1.271-0.911-2.113-0.5l-0.24,0.119l-0.874-1.787l5.289-2.455l15.234,11.957l-4.378-9.396
	c-1.565-3.384-2.475-4.242-4.554-3.281l-0.823-1.854l6.098-2.834l0.857,1.819c-1.717,0.963-1.58,2.216-0.084,5.463l8.949,19.201
	l-1.324,0.619l-18.841-14.856l5.891,12.815c1.476,3.211,2.508,4.153,4.499,3.33l0.893,1.805l-6.01,2.798L256.676,376.551"/>
<path fill-rule="evenodd" clip-rule="evenodd" fill="#FFC213" d="M291.425,338.918l-0.928,0.655
	c-4.054-4.381-6.509-5.153-9.414-3.162c-1.116,0.755-1.32,1.068-0.221,2.697l4.602,6.752c0.122-0.053,0.225-0.103,0.309-0.172
	c1.7-1.17,1.531-2.902-0.326-6.271l0.928-0.653l7.199,10.514l-0.963,0.67c-2.457-3.006-3.986-3.694-5.668-2.578
	c-0.088,0.07-0.189,0.154-0.242,0.189l5.188,7.645c0.878,1.27,1.236,1.544,2.079,0.996l1.356-0.944l1.134,1.683l-7.608,5.223
	l-1.134-1.686l0.944-0.668c0.858-0.533,0.703-1.05-0.137-2.304l-11.096-16.231c-0.86-1.287-1.289-1.58-2.097-1.013l-0.994,0.651
	l-1.117-1.629l12.417-8.504L291.425,338.918"/>
<path fill-rule="evenodd" clip-rule="evenodd" fill="#FFC213" d="M313.735,344.571c-1.511,1.289-3.436,1.701-5.684,1.271
	c-3.418-0.687-6.975-3.075-10.221-6.888c-2.539-2.954-4.174-6.063-4.844-9.051c-0.773-3.369-0.07-5.789,1.977-7.56
	c1.27-1.099,2.748-1.476,4.672-1.135l-0.344-2.336l0.738-0.632l7.541,8.244l-0.809,0.91c-4.896-4.175-8.363-5.412-10.305-3.779
	c-2.318,2.009-0.773,5.771,4.724,12.16c5.515,6.476,8.88,8.521,11.472,6.322c1.942-1.701,1.531-4.98-1.355-9.705l1.408-0.273
	C316.4,337.647,316.725,342.028,313.735,344.571"/>
<path fill-rule="evenodd" clip-rule="evenodd" fill="#FFFFFF" d="M17.951,111.451l4.387,9.074l-12.327,3.366l3.846,7.67l12.36-3.375
	l3.859,7.678l-12.37,3.35l3.812,7.634l12.394-3.341l3.895,7.678l-12.458,3.316l3.874,7.631l12.427-3.286l5.53,10.632
	c2.333-0.661,4.647-1.451,6.845-2.378l-28.907-57.688C23.021,110.297,20.643,110.993,17.951,111.451"/>
<path fill-rule="evenodd" clip-rule="evenodd" fill="#FFFFFF" d="M51.869,114.642c-0.858-4.088,8.443-8.969,15.912-14.985
	l-9.887-19.788c-3.904,2.139-8.249,5.479-12.577,10.353c-1.159,1.196-2.181,2.453-3.166,3.702L51.869,114.642"/>
<path fill-rule="evenodd" clip-rule="evenodd" fill="#D61F26" d="M74.029,79.457c-2.398-3.265-8.566-3.701-16.136,0.412
	l9.886,19.788C74.636,94.056,79.922,87.445,74.029,79.457"/>
<path fill-rule="evenodd" clip-rule="evenodd" fill="#D61F26" d="M25.117,109.412L54.024,167.1
	c8.099-3.358,14.78-8.107,17.033-11.617l-12.444-26.472l-6.175-13.145c-0.321-0.416-0.484-0.795-0.57-1.224L42.15,93.924
	C37.287,99.974,33.079,106.007,25.117,109.412"/>
<path fill-rule="evenodd" clip-rule="evenodd" fill="#D61F26" d="M17.951,111.451c-3.894,0.666-8.427,0.843-13.968,0.386
	l6.028,12.054l12.327-3.366L17.951,111.451"/>
<polyline fill-rule="evenodd" clip-rule="evenodd" fill="#D61F26" points="26.216,128.186 13.856,131.561 17.706,139.214 
	30.076,135.864 26.216,128.186 "/>
<polyline fill-rule="evenodd" clip-rule="evenodd" fill="#D61F26" points="33.912,143.507 21.517,146.848 25.349,154.501 
	37.806,151.185 33.912,143.507 "/>
<path fill-rule="evenodd" clip-rule="evenodd" fill="#D61F26" d="M29.223,162.132l4.512,9.101c4.355,0.237,8.962-0.484,13.444-1.755
	l-5.529-10.632L29.223,162.132"/>
<path fill-rule="evenodd" clip-rule="evenodd" fill="#FFFFFF" d="M67.603,99.81l5.487,10.956c3.904-3.281,8.065-7.185,12.505-10.905
	L75.313,81.499C79.016,88.636,73.967,94.644,67.603,99.81"/>
<path fill-rule="evenodd" clip-rule="evenodd" fill="#D61F26" d="M52.438,115.866c0.279,0.421,0.698,0.783,1.259,1.159
	c5.532,3.904,12.023-0.077,19.392-6.259L67.603,99.81C59.437,106.393,49.074,111.559,52.438,115.866"/>
<path fill="none" stroke="#211E1F" stroke-width="4.704" d="M52.438,115.866c-6.207-7.982,34.504-18.874,21.591-36.409
	c-3.639-4.978-15.927-3.465-28.713,10.765c-9.901,10.919-14.267,23.901-41.335,21.615l29.753,59.396
	c15.005,0.788,33.34-9.485,37.324-15.783L52.438,115.866z"/>
<path fill="none" stroke="#211E1F" stroke-width="4.704" d="M85.595,99.861c-12.736,10.702-23.428,23.119-31.897,17.164
	c-0.561-0.376-0.98-0.738-1.259-1.159c-5.955-7.668,31.361-18.031,22.875-34.367L85.595,99.861z"/>
<path fill-rule="evenodd" clip-rule="evenodd" fill="#FFFFFF" d="M337.561,111.451l-4.397,9.074l12.282,3.366l-3.814,7.67
	l-12.367-3.375l-3.847,7.678l12.367,3.35l-3.814,7.634l-12.384-3.341l-3.882,7.678l12.42,3.316l-3.85,7.631l-12.434-3.286
	l-5.532,10.632c-2.318-0.661-4.637-1.451-6.835-2.378l28.906-57.688C332.492,110.297,334.813,110.993,337.561,111.451"/>
<path fill-rule="evenodd" clip-rule="evenodd" fill="#FFFFFF" d="M303.619,114.642c0.843-4.088-8.45-8.969-15.904-14.985
	l9.895-19.788c3.881,2.139,8.209,5.479,12.624,10.353c1.082,1.196,2.111,2.453,3.126,3.702L303.619,114.642"/>
<path fill-rule="evenodd" clip-rule="evenodd" fill="#D61F26" d="M281.428,79.457c2.423-3.265,8.588-3.701,16.182,0.412
	l-9.895,19.788C280.845,94.056,275.552,87.445,281.428,79.457"/>
<path fill-rule="evenodd" clip-rule="evenodd" fill="#D61F26" d="M330.38,109.412L301.474,167.1
	c-8.075-3.358-14.773-8.107-17.039-11.617l18.619-39.617c0.326-0.416,0.48-0.795,0.565-1.224l9.74-20.718
	C318.237,99.974,322.394,106.007,330.38,109.412"/>
<path fill-rule="evenodd" clip-rule="evenodd" fill="#D61F26" d="M337.561,111.451c3.866,0.666,8.433,0.843,13.965,0.386
	l-6.08,12.054l-12.282-3.366L337.561,111.451"/>
<polyline fill-rule="evenodd" clip-rule="evenodd" fill="#D61F26" points="329.264,128.186 341.631,131.561 337.784,139.214 
	325.417,135.864 329.264,128.186 "/>
<polyline fill-rule="evenodd" clip-rule="evenodd" fill="#D61F26" points="321.586,143.507 333.97,146.848 330.124,154.501 
	317.704,151.185 321.586,143.507 "/>
<path fill-rule="evenodd" clip-rule="evenodd" fill="#D61F26" d="M326.274,162.132l-4.534,9.101
	c-4.327,0.237-8.964-0.484-13.432-1.755l5.532-10.632L326.274,162.132"/>
<path fill-rule="evenodd" clip-rule="evenodd" fill="#FFFFFF" d="M287.869,99.81l-5.479,10.956
	c-3.898-3.281-8.089-7.185-12.469-10.905l10.253-18.362C276.465,88.636,281.53,94.644,287.869,99.81"/>
<path fill-rule="evenodd" clip-rule="evenodd" fill="#D61F26" d="M303.054,115.866c-0.309,0.421-0.74,0.783-1.254,1.159
	c-5.566,3.904-12.006-0.077-19.41-6.259l5.479-10.956C296.046,106.393,306.387,111.559,303.054,115.866"/>
<path fill="none" stroke="#211E1F" stroke-width="4.704" d="M303.054,115.866c6.182-7.982-34.492-18.874-21.626-36.409
	c3.692-4.978,15.975-3.465,28.806,10.765c9.842,10.919,14.204,23.901,41.292,21.615l-29.785,59.396
	c-14.978,0.788-33.322-9.485-37.323-15.783L303.054,115.866z"/>
<path fill="none" stroke="#211E1F" stroke-width="4.704" d="M269.921,99.861c12.727,10.702,23.393,23.119,31.879,17.164
	c0.514-0.376,0.945-0.738,1.254-1.159c5.961-7.668-31.365-18.031-22.88-34.367L269.921,99.861z"/>
<path fill-rule="evenodd" clip-rule="evenodd" fill="#FFFFFF" d="M214.92,97.877c-2.662,2.14-7.281,5.245-12.435,8.374v41.09
	c5.807-3.525,11.714-7.306,17.296-10.318V94.435C217.859,95.708,216.156,96.891,214.92,97.877"/>
<path fill-rule="evenodd" clip-rule="evenodd" fill="#FFFFFF" d="M242.626,86.722c-0.239,0-0.481,0.06-0.721,0.06l-5.875,44.393
	c0.224-0.008,0.48-0.07,0.723-0.07c4.809,0,9.273,1.621,13.481,3.994l13.143-40.338C256.936,90.157,250.013,86.722,242.626,86.722"
	/>
<path fill-rule="evenodd" clip-rule="evenodd" fill="#FFFFFF" d="M301.8,117.025c-5.497,3.852-11.938,0-19.221-6.102l-17.108,35.733
	c6.958,6.015,13.14,10.984,18.946,8.794l18.637-39.584C302.745,116.287,302.313,116.649,301.8,117.025"/>
<path fill-rule="evenodd" clip-rule="evenodd" fill="#FFFFFF" d="M53.697,117.025c-0.561-0.376-0.98-0.738-1.259-1.159
	l18.619,39.582c5.859,2.192,12.022-2.777,18.977-8.792l-17.136-35.733C65.588,117.025,59.194,120.877,53.697,117.025"/>
<path fill-rule="evenodd" clip-rule="evenodd" fill="#FFFFFF" d="M177.751,116.925c-1.713,0-3.999-0.583-6.58-1.51v41.337
	c2.384,0.832,4.59,1.333,6.58,1.333c1.962,0,4.186-0.501,6.544-1.333v-41.337C181.757,116.342,179.446,116.925,177.751,116.925"/>
<path fill-rule="evenodd" clip-rule="evenodd" fill="#FFFFFF" d="M112.849,86.722c-7.364,0-14.281,3.435-20.718,8.039l13.158,40.338
	c4.165-2.373,8.635-3.994,13.461-3.994c0.219,0,0.469,0.062,0.696,0.07l-5.859-44.393C113.342,86.782,113.11,86.722,112.849,86.722"
	/>
<path fill-rule="evenodd" clip-rule="evenodd" fill="#FFFFFF" d="M140.56,97.877c-1.236-0.986-2.876-2.169-4.836-3.442v42.588
	c5.592,3.012,11.5,6.793,17.271,10.318v-41.09C147.825,103.12,143.206,100.017,140.56,97.877"/>
<path fill-rule="evenodd" clip-rule="evenodd" fill="#D61F26" d="M152.995,106.251v41.09c6.471,3.947,12.798,7.571,18.177,9.411
	v-41.337C165.792,113.482,159.001,109.886,152.995,106.251"/>
<path fill-rule="evenodd" clip-rule="evenodd" fill="#D61F26" d="M113.586,86.782l5.859,44.393
	c4.589,0.221,10.208,2.575,16.278,5.848V94.435C130.16,90.905,122.129,87.018,113.586,86.782"/>
<path fill-rule="evenodd" clip-rule="evenodd" fill="#D61F26" d="M72.898,110.923l17.136,35.733
	c4.664-4.039,9.674-8.461,15.254-11.557L92.13,94.761C85.166,99.72,78.747,106.034,72.898,110.923"/>
<path fill-rule="evenodd" clip-rule="evenodd" fill="#D61F26" d="M184.295,115.415v41.337c5.409-1.84,11.714-5.462,18.19-9.411
	v-41.09C196.508,109.886,189.722,113.482,184.295,115.415"/>
<path fill-rule="evenodd" clip-rule="evenodd" fill="#D61F26" d="M219.781,94.435v42.588c6.063-3.273,11.664-5.627,16.249-5.848
	l5.875-44.393C233.367,87.018,225.348,90.905,219.781,94.435"/>
<path fill-rule="evenodd" clip-rule="evenodd" fill="#D61F26" d="M263.377,94.761l-13.143,40.338
	c5.532,3.096,10.547,7.518,15.236,11.557l17.108-35.733C276.757,106.032,270.35,99.72,263.377,94.761"/>
<path fill="none" stroke="#211E1F" stroke-width="4.704" d="M177.751,158.085c14.875,0,43.371-26.98,59.002-26.98
	c20.783,0,34.987,29.12,47.664,24.345l18.637-39.584c-0.309,0.421-0.74,0.783-1.254,1.159
	c-13.965,9.852-33.855-30.303-59.174-30.303c-11.799,0-22.793,7.351-27.706,11.155c-7.334,5.851-28.806,19.048-37.169,19.048
	c-8.327,0-29.875-13.197-37.191-19.048c-4.903-3.804-15.907-11.155-27.711-11.155c-25.265,0-45.176,40.155-59.151,30.303
	c-0.561-0.376-0.98-0.738-1.259-1.159l18.62,39.582c12.691,4.777,26.913-24.343,47.691-24.343
	C134.368,131.105,162.905,158.085,177.751,158.085z"/>
<path fill-rule="evenodd" clip-rule="evenodd" fill="#211E1F" d="M178.392,76.528c38.418,0,69.56-16.884,69.56-37.668
	c0-20.805-31.142-37.682-69.56-37.682c-38.403,0-69.568,16.877-69.568,37.682C108.824,59.644,139.988,76.528,178.392,76.528"/>
<path fill="none" stroke="#FFFFFF" stroke-width="2.356" d="M178.392,76.528c38.418,0,69.56-16.884,69.56-37.668
	c0-20.805-31.142-37.682-69.56-37.682c-38.403,0-69.568,16.877-69.568,37.682C108.824,59.644,139.988,76.528,178.392,76.528z"/>
<path fill-rule="evenodd" clip-rule="evenodd" fill="#FFC213" d="M178.464,70.408c34.119,0,61.844-14.122,61.844-31.548
	c0-17.442-27.725-31.544-61.844-31.544c-34.202,0-61.832,14.102-61.832,31.544C116.632,56.286,144.262,70.408,178.464,70.408"/>
<path fill="none" stroke="#211E1F" stroke-width="0.002" d="M178.464,70.408c34.119,0,61.844-14.122,61.844-31.548
	c0-17.442-27.725-31.544-61.844-31.544c-34.202,0-61.832,14.102-61.832,31.544C116.632,56.286,144.262,70.408,178.464,70.408z"/>
<path fill-rule="evenodd" clip-rule="evenodd" fill="#FFFFFF" d="M178.519,62.854c27.778,0,50.367-9.026,50.367-20.155
	c0-11.1-22.589-20.115-50.367-20.115c-27.808,0-50.361,9.015-50.361,20.115C128.158,53.828,150.71,62.854,178.519,62.854"/>
<path fill="none" stroke="#211E1F" stroke-width="9.436" d="M178.519,62.854c27.778,0,50.367-9.026,50.367-20.155
	c0-11.1-22.589-20.115-50.367-20.115c-27.808,0-50.361,9.015-50.361,20.115C128.158,53.828,150.71,62.854,178.519,62.854z"/>
<path fill-rule="evenodd" clip-rule="evenodd" fill="#FFFFFF" d="M178.347,28.373c-26.785,0-48.436,21.728-48.436,48.464
	c0,26.786,21.651,48.465,48.436,48.465h-0.596c26.727,0,48.454-21.679,48.454-48.465c0-26.736-21.728-48.464-48.454-48.464H178.347"
	/>
<path fill="none" stroke="#211E1F" stroke-width="4.704" d="M178.347,28.373c-26.785,0-48.436,21.728-48.436,48.464
	c0,26.786,21.651,48.465,48.436,48.465h-0.596c26.727,0,48.454-21.679,48.454-48.465c0-26.736-21.728-48.464-48.454-48.464H178.347z
	"/>
<path fill-rule="evenodd" clip-rule="evenodd" fill="#211E1F" d="M170.292,116.905l-9.971-16.931l-18.259-2.982l-4.586,5.806
	c0.207,0.289,0.321,0.598,0.541,0.868l0.79,1.134c6.115,8.633,14.927,15.179,25.275,18.375l1.865,0.346L170.292,116.905"/>
<polyline fill-rule="evenodd" clip-rule="evenodd" fill="#211E1F" points="157.813,70.134 165.65,94.3 190.428,94.3 198.26,70.134 
	178.013,55.473 157.813,70.134 "/>
<path fill-rule="evenodd" clip-rule="evenodd" fill="#211E1F" d="M178.013,45.679v-0.035l15.077-9.849v-4.874
	c-4.724-1.593-9.776-2.488-15.06-2.53c-5.23,0.042-10.281,0.937-15.04,2.53v4.874L178.013,45.679"/>
<path fill-rule="evenodd" clip-rule="evenodd" fill="#211E1F" d="M150.092,62.448l0.529-19.218l-3.904-3.038
	c-2.069,1.75-3.969,3.657-5.674,5.741l-0.2,0.202c-5.513,6.746-9.198,14.995-10.452,24.054l4.319,1.9L150.092,62.448"/>
<path fill-rule="evenodd" clip-rule="evenodd" fill="#211E1F" d="M195.805,99.974l-9.964,16.931l4.313,6.616l1.803-0.338
	c10.494-3.219,19.512-9.957,25.644-18.787l0.379-0.588c0.239-0.344,0.43-0.721,0.653-1.01l-4.621-5.806L195.805,99.974"/>
<path fill-rule="evenodd" clip-rule="evenodd" fill="#211E1F" d="M206.022,62.448l15.339,9.641l4.328-1.9
	c-1.254-9.095-4.964-17.386-10.527-24.159l-0.035-0.007c-1.718-2.122-3.694-4.046-5.736-5.831l-3.916,3.038L206.022,62.448"/>
</svg>
