<?xml version="1.0" encoding="UTF-8" standalone="no"?>
<!-- Created with Inkscape (http://www.inkscape.org/) -->
<svg
   xmlns:dc="http://purl.org/dc/elements/1.1/"
   xmlns:cc="http://creativecommons.org/ns#"
   xmlns:rdf="http://www.w3.org/1999/02/22-rdf-syntax-ns#"
   xmlns:svg="http://www.w3.org/2000/svg"
   xmlns="http://www.w3.org/2000/svg"
   xmlns:sodipodi="http://sodipodi.sourceforge.net/DTD/sodipodi-0.dtd"
   xmlns:inkscape="http://www.inkscape.org/namespaces/inkscape"
   width="28px"
   height="21px"
   id="svg2419"
   sodipodi:version="0.32"
   inkscape:version="0.46"
   version="1.0"
   sodipodi:docname="Swansea City Logo.svg"
   inkscape:output_extension="org.inkscape.output.svg.inkscape">
  <defs
     id="defs2421">
    <filter
       inkscape:collect="always"
       id="filter4463">
      <feGaussianBlur
         inkscape:collect="always"
         stdDeviation="3.9202812"
         id="feGaussianBlur4465" />
    </filter>
    <filter
       inkscape:collect="always"
       id="filter4107">
      <feGaussianBlur
         inkscape:collect="always"
         stdDeviation="4.6895416"
         id="feGaussianBlur4109" />
    </filter>
    <inkscape:perspective
       sodipodi:type="inkscape:persp3d"
       inkscape:vp_x="0 : 526.18109 : 1"
       inkscape:vp_y="0 : 1000 : 0"
       inkscape:vp_z="744.09448 : 526.18109 : 1"
       inkscape:persp3d-origin="372.04724 : 350.78739 : 1"
       id="perspective2427" />
    <filter
       inkscape:collect="always"
       id="filter3318"
       x="-0.079233198"
       width="1.1584664"
       y="-0.20752608"
       height="1.4150522">
      <feGaussianBlur
         inkscape:collect="always"
         stdDeviation="6.5563441"
         id="feGaussianBlur3320" />
    </filter>
  </defs>
  <sodipodi:namedview
     id="base"
     pagecolor="#ffffff"
     bordercolor="#666666"
     borderopacity="1.0"
     inkscape:pageopacity="0.0"
     inkscape:pageshadow="2"
     inkscape:zoom="0.88167494"
     inkscape:cx="335.7735"
     inkscape:cy="319.59857"
     inkscape:document-units="px"
     inkscape:current-layer="layer1"
     showgrid="false"
     inkscape:window-width="1280"
     inkscape:window-height="1005"
     inkscape:window-x="0"
     inkscape:window-y="0" />
  <metadata
     id="metadata2424">
    <rdf:RDF>
      <cc:Work
         rdf:about="">
        <dc:format>image/svg+xml</dc:format>
        <dc:type
           rdf:resource="http://purl.org/dc/dcmitype/StillImage" />
      </cc:Work>
    </rdf:RDF>
  </metadata>
  <g
     inkscape:label="Ebene 1"
     inkscape:groupmode="layer"
     id="layer1"
     transform="translate(-18.512211,-178.47792)">
    <path
       sodipodi:nodetypes="cssssssssssssc"
       id="path3247"
       d="M 545.65651,619.31679 C 545.65651,619.31679 673.74321,574.6365 638.39951,468.48581 C 624.29211,426.11596 544.73981,388.28593 502.93171,361.25922 C 461.10981,334.2236 377.63731,307.26022 409.36451,240.34815 C 420.42781,217.01575 452.65701,211.69332 488.41281,225.564 C 523.00221,238.98219 541.81281,268.75496 589.23571,295.46309 C 592.65251,297.38738 592.41431,286.5185 591.79921,282.64566 C 590.32301,273.35028 577.40241,264.66209 576.41831,255.30181 C 575.51971,246.75455 589.17731,235.44829 584.96331,227.95796 C 574.14921,208.73634 538.54241,195.12387 506.99931,185.01351 C 442.20241,164.24451 380.27401,196.5872 362.79451,231.37595 C 328.52651,299.57819 376.68691,365.82442 470.46091,414.23793 C 546.76991,453.63464 614.93221,472.61036 605.04381,543.69397 C 601.16541,571.57485 545.65651,619.31679 545.65651,619.31679 z"
       style="fill:#000000;fill-opacity:1;fill-rule:evenodd;stroke:none;stroke-width:1px;stroke-linecap:butt;stroke-linejoin:miter;stroke-opacity:1" />
    <path
       style="fill:#ffffff;fill-rule:evenodd;stroke:none;stroke-width:1px;stroke-linecap:butt;stroke-linejoin:miter;stroke-opacity:1;filter:url(#filter3318)"
       d="M 1098.4189,150.55981 C 1098.4189,150.55981 1110.7986,115.01698 1123.0678,101.25743 C 1138.073,84.429621 1160.6847,70.656633 1169.0912,69.89993 C 1175.8499,69.291556 1181.5144,65.71778 1188.1982,65.191123 C 1195.7219,64.598294 1204.7043,65.128036 1212.1291,66.96563 C 1225.2161,70.204591 1247.9163,78.475882 1259.3935,84.92438 C 1269.1144,90.386087 1292.9673,109.09374 1296.0546,118.71443 C 1297.1678,122.18321 1282.6294,118.9684 1278.946,116.38602 C 1266.1204,107.39405 1263.2006,103.06469 1250.7187,96.280157 C 1236.9808,88.812916 1212.1489,75.147035 1195.0093,76.683791 C 1184.5805,77.618857 1173.3869,79.392319 1161.4029,83.227783 C 1155.9784,84.963876 1137.6642,97.332265 1125.2194,111.40746 C 1109.9191,128.71228 1098.4189,150.55981 1098.4189,150.55981 z"
       id="path3249"
       sodipodi:nodetypes="csssssssssssc"
       transform="matrix(0.9924497,0.1226524,-7.5816446e-2,0.6134737,-698.27087,-3.83132)" />
    <path
       style="fill:#ffffff;fill-rule:evenodd;stroke:none;stroke-width:1px;stroke-linecap:butt;stroke-linejoin:miter;stroke-opacity:1;filter:url(#filter4107)"
       d="M 392.35251,271.14235 C 392.35251,271.14235 426.85681,320.80851 447.12911,334.08484 C 478.31371,354.50764 512.95281,370.94446 542.80311,390.17357 C 567.69921,406.21127 606.89181,424.14672 621.35161,449.99129 C 631.54011,468.20169 635.24861,517.66386 635.24861,517.66386 C 635.24861,517.66386 632.22731,486.74802 619.11941,461.69249 C 613.59911,451.14054 601.39041,440.41603 593.30721,434.38525 C 578.14871,423.07562 556.93111,411.7929 540.35021,401.0093 C 521.56331,388.79099 509.25971,380.47412 485.67781,368.11067 C 466.97501,358.30523 439.87911,339.66888 419.33501,319.33329 C 407.34931,307.46926 392.35251,271.14235 392.35251,271.14235 z"
       id="path3817"
       sodipodi:nodetypes="cssscsssssc" />
    <g
       id="g4472"
       transform="translate(-956.26523,-156.92368)">
      <path
         sodipodi:nodetypes="csscssc"
         id="path4111"
         d="M 1009.9333,720.19684 C 1009.9333,720.19684 1097.1065,742.8162 1141.0983,736.00501 C 1217.2808,724.20976 1256.919,631.78541 1309.0066,596.72228 C 1321.4407,588.35217 1357.2856,583.05036 1357.2856,583.05036 C 1357.2856,583.05036 1315.7175,543.33746 1267.9908,550.57954 C 1191.3401,562.21058 1160.7677,646.82315 1091.1103,694.13474 C 1050.1303,721.96851 1009.9333,720.19684 1009.9333,720.19684 z"
         style="fill:#000000;fill-opacity:1;fill-rule:evenodd;stroke:none;stroke-width:1px;stroke-linecap:butt;stroke-linejoin:miter;stroke-opacity:1" />
      <path
         sodipodi:nodetypes="cssssscssssc"
         id="path4113"
         d="M 1053.9053,718.21402 C 1053.9053,718.21402 1072.6446,717.90907 1082.1606,714.0128 C 1093.0241,709.56481 1103.8063,702.76952 1113.2319,694.50566 C 1133.2155,676.98505 1153.9326,653.7177 1173.5335,631.3692 C 1194.1025,607.91697 1221.4068,580.85612 1244.9252,569.49863 C 1254.3417,564.95123 1268.959,566.12392 1279.4159,566.17848 C 1297.8335,566.27456 1339.6701,574.62755 1339.6701,574.62755 C 1339.6701,574.62755 1307.8497,557.43521 1291.6982,554.54361 C 1279.3259,552.3286 1261.739,556.41673 1250.4662,561.97565 C 1194.6918,589.47945 1149.5605,668.03848 1097.1,701.43222 C 1092.3572,704.45125 1085.0406,706.6002 1079.8083,708.65745 C 1072.0998,711.68831 1053.9053,718.21402 1053.9053,718.21402 z"
         style="fill:#ffffff;fill-rule:evenodd;stroke:none;stroke-width:1px;stroke-linecap:butt;stroke-linejoin:miter;stroke-opacity:1;filter:url(#filter4463)" />
    </g>
    <g
       transform="translate(-866.23654,-104.35659)"
       id="g4478">
      <path
         style="fill:#000000;fill-opacity:1;fill-rule:evenodd;stroke:none;stroke-width:1px;stroke-linecap:butt;stroke-linejoin:miter;stroke-opacity:1"
         d="M 1009.9333,720.19684 C 1009.9333,720.19684 1097.1065,742.8162 1141.0983,736.00501 C 1217.2808,724.20976 1256.919,631.78541 1309.0066,596.72228 C 1321.4407,588.35217 1357.2856,583.05036 1357.2856,583.05036 C 1357.2856,583.05036 1315.7175,543.33746 1267.9908,550.57954 C 1191.3401,562.21058 1160.7677,646.82315 1091.1103,694.13474 C 1050.1303,721.96851 1009.9333,720.19684 1009.9333,720.19684 z"
         id="path4480"
         sodipodi:nodetypes="csscssc" />
      <path
         style="fill:#ffffff;fill-rule:evenodd;stroke:none;stroke-width:1px;stroke-linecap:butt;stroke-linejoin:miter;stroke-opacity:1;filter:url(#filter4463)"
         d="M 1053.9053,718.21402 C 1053.9053,718.21402 1072.6446,717.90907 1082.1606,714.0128 C 1093.0241,709.56481 1103.8063,702.76952 1113.2319,694.50566 C 1133.2155,676.98505 1153.9326,653.7177 1173.5335,631.3692 C 1194.1025,607.91697 1221.4068,580.85612 1244.9252,569.49863 C 1254.3417,564.95123 1268.959,566.12392 1279.4159,566.17848 C 1297.8335,566.27456 1339.6701,574.62755 1339.6701,574.62755 C 1339.6701,574.62755 1307.8497,557.43521 1291.6982,554.54361 C 1279.3259,552.3286 1261.739,556.41673 1250.4662,561.97565 C 1194.6918,589.47945 1149.5605,668.03848 1097.1,701.43222 C 1092.3572,704.45125 1085.0406,706.6002 1079.8083,708.65745 C 1072.0998,711.68831 1053.9053,718.21402 1053.9053,718.21402 z"
         id="path4482"
         sodipodi:nodetypes="cssssscssssc" />
    </g>
    <g
       id="g4484"
       transform="translate(-778.62473,-52.99794)">
      <path
         sodipodi:nodetypes="csscssc"
         id="path4486"
         d="M 1009.9333,720.19684 C 1009.9333,720.19684 1097.1065,742.8162 1141.0983,736.00501 C 1217.2808,724.20976 1256.919,631.78541 1309.0066,596.72228 C 1321.4407,588.35217 1357.2856,583.05036 1357.2856,583.05036 C 1357.2856,583.05036 1315.7175,543.33746 1267.9908,550.57954 C 1191.3401,562.21058 1160.7677,646.82315 1091.1103,694.13474 C 1050.1303,721.96851 1009.9333,720.19684 1009.9333,720.19684 z"
         style="fill:#000000;fill-opacity:1;fill-rule:evenodd;stroke:none;stroke-width:1px;stroke-linecap:butt;stroke-linejoin:miter;stroke-opacity:1" />
      <path
         sodipodi:nodetypes="cssssscssssc"
         id="path4488"
         d="M 1053.9053,718.21402 C 1053.9053,718.21402 1072.6446,717.90907 1082.1606,714.0128 C 1093.0241,709.56481 1103.8063,702.76952 1113.2319,694.50566 C 1133.2155,676.98505 1153.9326,653.7177 1173.5335,631.3692 C 1194.1025,607.91697 1221.4068,580.85612 1244.9252,569.49863 C 1254.3417,564.95123 1268.959,566.12392 1279.4159,566.17848 C 1297.8335,566.27456 1339.6701,574.62755 1339.6701,574.62755 C 1339.6701,574.62755 1307.8497,557.43521 1291.6982,554.54361 C 1279.3259,552.3286 1261.739,556.41673 1250.4662,561.97565 C 1194.6918,589.47945 1149.5605,668.03848 1097.1,701.43222 C 1092.3572,704.45125 1085.0406,706.6002 1079.8083,708.65745 C 1072.0998,711.68831 1053.9053,718.21402 1053.9053,718.21402 z"
         style="fill:#ffffff;fill-rule:evenodd;stroke:none;stroke-width:1px;stroke-linecap:butt;stroke-linejoin:miter;stroke-opacity:1;filter:url(#filter4463)" />
    </g>
    <path
       style="font-size:69.84889984px;font-style:normal;font-variant:normal;font-weight:normal;font-stretch:normal;text-align:start;line-height:100%;writing-mode:lr-tb;text-anchor:start;fill:#000000;fill-opacity:1;stroke:#000000;stroke-width:1px;stroke-linecap:butt;stroke-linejoin:miter;stroke-opacity:1;font-family:Lucida Sans;-inkscape-font-specification:Lucida Sans"
       d="M 19.01221,636.79137 L 24.74171,632.6083 C 25.62241,636.97645 26.45631,640.0274 27.24361,641.76116 C 28.03081,643.4949 28.89361,645.00451 29.83211,646.28999 C 31.53481,648.62218 33.51711,649.99724 35.77881,650.41519 C 38.04051,650.83311 40.06201,650.39182 41.84331,649.09134 C 43.18381,648.11259 44.16861,646.85869 44.79781,645.32963 C 45.39501,643.79559 45.46261,641.01546 45.00051,636.98924 L 44.57441,632.99304 C 43.96951,627.69159 44.07931,623.75459 44.90371,621.18201 C 45.72811,618.60946 47.21461,616.53886 49.36321,614.97019 C 51.29141,613.56245 53.47221,612.75143 55.90591,612.53713 C 58.33941,612.32288 60.66041,612.72566 62.86901,613.74547 C 65.07741,614.76533 67.13361,616.57907 69.03741,619.18671 C 71.33001,622.32693 73.22671,626.0237 74.72741,630.27703 L 69.43861,634.13832 C 68.42001,630.23683 67.62241,627.63089 67.04581,626.32052 C 66.46911,625.01015 65.77191,623.79487 64.95411,622.67467 C 63.23791,620.32412 61.35241,619.0333 59.29751,618.80219 C 57.24261,618.57112 55.57241,618.92483 54.28701,619.86333 C 53.40551,620.50689 52.70461,621.42677 52.18451,622.62296 C 51.66421,623.81918 51.40671,625.10518 51.41171,626.48095 C 51.41671,627.85674 51.54591,629.66276 51.79911,631.89899 L 52.27811,636.02549 C 52.89141,641.37707 52.77001,645.33667 51.91381,647.90428 C 51.03921,650.48528 49.43591,652.62715 47.10371,654.32989 C 43.92671,656.64932 40.29061,657.45299 36.19541,656.7409 C 32.10011,656.02876 28.33641,653.32214 24.90411,648.62103 C 23.84491,647.17028 22.91571,645.69506 22.11641,644.19537 C 21.31711,642.69567 20.28241,640.22767 19.01221,636.79137 L 19.01221,636.79137 z M 56.50851,685.91079 L 83.00921,641.02797 L 87.88111,645.89914 L 66.99891,681.40022 L 101.91801,659.9339 L 106.78991,664.80507 L 85.35291,698.97978 L 121.01971,679.03275 L 125.14391,683.15637 L 79.44511,708.84388 L 74.40431,703.80391 L 95.62431,669.99096 L 61.52521,690.92665 L 56.50851,685.91079 z M 98.17301,725.63548 L 143.99451,696.49621 L 149.74011,700.65717 L 136.09931,753.10183 L 129.82891,748.56078 L 133.58351,734.01462 L 116.26391,721.47172 L 103.55941,729.53638 L 98.17301,725.63548 z M 121.06961,718.38282 L 135.01921,728.48516 L 140.82121,705.82054 L 121.06961,718.38282 z M 150.43011,761.61099 L 173.78471,716.86212 L 180.01331,720.11284 L 184.50221,766.42851 L 202.53891,731.86908 L 207.98131,734.70951 L 184.62671,779.45838 L 178.42831,776.22344 L 173.90921,729.892 L 155.87251,764.45142 L 150.43011,761.61099 z M 201.95541,785.79023 L 204.39411,779.12853 C 207.55371,782.27063 209.94251,784.34363 211.56051,785.34753 C 213.17851,786.35143 214.73471,787.12695 216.22941,787.67408 C 218.94101,788.66673 221.35311,788.70833 223.46571,787.79888 C 225.57821,786.88943 227.01361,785.39915 227.77181,783.32804 C 228.34231,781.76938 228.46431,780.17964 228.13751,778.55882 C 227.78161,776.95155 226.29281,774.60269 223.67111,771.51224 L 221.09601,768.42675 C 217.64701,764.35549 215.55031,761.02141 214.80611,758.4245 C 214.06181,755.82765 214.14691,753.28014 215.06141,750.78197 C 215.88211,748.54008 217.24451,746.65385 219.14861,745.12326 C 221.05271,743.59275 223.20611,742.63773 225.60901,742.25822 C 228.01171,741.87878 230.72911,742.24399 233.76111,743.35384 C 237.41221,744.69044 241.04341,746.70977 244.65471,749.41184 L 242.40361,755.56111 C 239.38861,752.88362 237.27741,751.1604 236.06981,750.39142 C 234.86211,749.62252 233.60711,748.99966 232.30471,748.52284 C 229.57171,747.52241 227.28681,747.49711 225.45001,748.44694 C 223.61321,749.39684 222.42121,750.61908 221.87411,752.11365 C 221.49891,753.13856 221.42741,754.29279 221.65981,755.57633 C 221.89201,756.85993 222.39261,758.0722 223.16131,759.21315 C 223.93011,760.35415 225.04111,761.78384 226.49441,763.50224 L 229.18581,766.66665 C 232.66971,770.77493 234.76921,774.13426 235.48441,776.74467 C 236.19161,779.37645 236.04891,782.04816 235.05631,784.75981 C 233.70411,788.45364 231.12781,791.14247 227.32741,792.82631 C 223.52701,794.51013 218.89381,794.35158 213.42781,792.35066 C 211.74111,791.73318 210.14871,791.02315 208.65081,790.22057 C 207.15281,789.41798 204.92101,787.9412 201.95541,785.79023 L 201.95541,785.79023 z M 247.69871,802.31803 L 259.67681,753.28308 L 287.07671,759.97626 L 285.80611,765.17794 L 265.36381,760.18436 L 261.51951,775.92193 L 278.64861,780.10618 L 277.39411,785.2416 L 260.26501,781.05735 L 255.92701,798.81595 L 277.79391,804.15754 L 276.52331,809.35922 L 247.69871,802.31803 z M 290.57031,812.23565 L 315.80311,764.15223 L 322.85751,764.90052 L 337.13651,817.17503 L 329.43761,816.35839 L 325.45221,801.87378 L 304.18711,799.61814 L 297.18381,812.93716 L 290.57031,812.23565 z M 306.81711,794.54675 L 323.94451,796.36349 L 317.69301,773.81874 L 306.81711,794.54675 z M 417.72261,810.37638 C 415.77021,811.64579 414.01061,812.61597 412.44401,813.28692 C 410.87731,813.95788 409.23481,814.49931 407.51651,814.91123 C 405.79821,815.32315 403.92101,815.63101 401.88481,815.83481 C 393.42331,816.68173 386.97971,814.80165 382.55401,810.19458 C 378.12831,805.58753 375.53721,799.50575 374.78091,791.94924 C 374.00871,784.23442 375.41141,777.70149 378.98901,772.35045 C 382.56651,766.9995 388.56341,763.90281 396.97961,763.06037 C 401.45921,762.61206 406.79291,762.82086 412.98081,763.68676 L 413.65001,770.37222 C 408.40771,769.13745 404.81491,768.45734 402.87151,768.3319 C 400.92801,768.20656 399.09661,768.22992 397.37721,768.40197 C 391.35911,769.00437 387.20271,771.48268 384.90781,775.83691 C 382.61301,780.19123 381.76221,785.33213 382.35551,791.25965 C 382.97371,797.43608 385.02901,802.27469 388.52141,805.7755 C 392.01371,809.27632 396.61061,810.7414 402.31191,810.17075 C 403.89561,810.01224 405.45951,809.71289 407.00361,809.2727 C 408.54761,808.83253 410.07251,808.25716 411.57811,807.54661 C 413.08361,806.83608 414.92801,805.74316 417.11121,804.26783 L 417.72261,810.37638 z M 440.70741,808.36644 L 429.90641,759.05881 L 436.90281,757.52625 L 447.70371,806.83387 L 440.70741,808.36644 z M 478.49721,798.51689 L 464.64351,755.57413 L 447.60271,761.07162 L 445.95871,755.97562 L 486.85661,742.78163 L 488.50061,747.87763 L 471.45981,753.37513 L 485.31351,796.31789 L 478.49721,798.51689 z M 530.55801,778.19671 L 521.35711,759.23351 L 493.36521,740.13798 L 500.72961,736.56482 L 522.45781,751.34521 L 525.21601,724.68408 L 531.19961,721.78089 L 527.74141,755.98426 L 537.00181,775.0702 L 530.55801,778.19671 z M 585.87321,747.38505 L 571.15781,695.11493 L 576.79661,690.81036 L 623.09463,718.97071 L 616.94083,723.66849 L 604.09113,715.88549 L 587.09351,728.8613 L 591.15961,743.34951 L 585.87321,747.38505 z M 585.51871,723.36982 L 599.20903,712.9188 L 579.17401,700.83808 L 585.51871,723.36982 z M 634.60953,708.06326 L 599.18553,672.10443 L 619.27873,652.31004 L 623.03653,656.12459 L 608.04553,670.89259 L 619.91743,682.94366 L 632.50303,670.54524 L 636.21293,674.3112 L 623.62733,686.70962 L 639.71183,703.03687 L 634.60953,708.06326 z M 689.55923,641.49005 C 689.13593,643.78006 688.62843,645.72418 688.03663,647.32239 C 687.44473,648.92068 686.70683,650.48475 685.82273,652.01462 C 684.93863,653.54455 683.86963,655.1181 682.61583,656.73529 C 677.40523,663.45571 671.60583,666.83525 665.21753,666.87391 C 658.82913,666.91259 652.63413,664.6053 646.63253,659.95203 C 640.50513,655.20127 636.73213,649.68662 635.31363,643.40804 C 633.89523,637.12954 635.77723,630.64804 640.95993,623.96352 C 643.71843,620.40571 647.54163,616.6807 652.42943,612.78849 L 657.73923,616.90537 C 653.23493,619.85773 650.26833,621.99555 648.83953,623.31883 C 647.41073,624.64221 646.16683,625.9867 645.10803,627.35229 C 641.40213,632.1321 640.33853,636.85298 641.91703,641.51494 C 643.49553,646.17698 646.63883,650.33306 651.34663,653.98319 C 656.25223,657.78662 661.17663,659.62672 666.12013,659.50349 C 671.06353,659.3803 675.29063,657.0546 678.80143,652.52639 C 679.77673,651.26858 680.63613,649.92817 681.37983,648.50515 C 682.12343,647.08218 682.75583,645.58009 683.27683,643.99886 C 683.79793,642.4177 684.27483,640.32756 684.70763,637.72843 L 689.55923,641.49005 z"
       id="text4511" />
  </g>
</svg>
