<?xml version="1.0" encoding="utf-8"?>
<!-- Generator: Adobe Illustrator 13.0.2, SVG Export Plug-In . SVG Version: 6.00 Build 14948)  -->
<!DOCTYPE svg PUBLIC "-//W3C//DTD SVG 1.1 Tiny//EN" "http://www.w3.org/Graphics/SVG/1.1/DTD/svg11-tiny.dtd">
<svg version="1.1" baseProfile="tiny" id="Layer_1" xmlns="http://www.w3.org/2000/svg" xmlns:xlink="http://www.w3.org/1999/xlink"
	 x="0px" y="0px" width="28px" height="21px" viewBox="0 0 320.543 662.833" xml:space="preserve">
<path fill="#002156" d="M88.813,447.336c-1.842-0.461-3.433-1.604-4.661-3.318c-6.228,9.608-8.854,18.198-6.564,25.907
	c9.581,32.35,38.123,56.241,72.306,59.423C117.224,519.425,93.046,485.384,88.813,447.336 M82.123,428.218
	c-2.058-1.467-3.821-2.84-5.075-4.038c-2.185,8.048-3.193,16.562-2.835,25.335c0.07,1.772,0.197,3.528,0.373,5.267
	c1.264-5.184,3.754-10.6,7.322-16.124C81.218,435.426,81.328,431.75,82.123,428.218z M83.734,423.28
	c0.863-1.961,1.944-3.77,3.231-5.296c1.035-1.219,2.138-2.189,3.309-2.909c3.109-14.489,9.602-27.394,19.093-37.15
	C95.196,388,84.335,402.366,78.625,419.035C79.383,420.074,81.398,421.641,83.734,423.28z M206.324,497.659
	c-7.074-0.786-16.538-2.655-20.67-4.086c-4.612-1.595-8.715-5.448-10.97-10.316c-0.934-2.012-1.779-4.688-1.914-7.933
	c-0.076-1.94,0.109-4.079,0.677-6.394c-25.936-7.91-53.408-18.896-72.533-29.109c-0.674,1.232-1.443,2.378-2.306,3.399
	c-1.438,1.702-3.054,2.936-4.717,3.641c1.796,15.913,7.322,31.506,16.121,45.092c11.672,18.022,27.569,30.372,44.741,34.26
	c6.088,1.372,14.045,3.084,21.165,1.507c26.396-5.845,47.913-24.103,58.429-48.12c-1.232,0.219-2.616,0.345-4.103,0.396
	C224.223,497.617,211.557,498.236,206.324,497.659z M241.252,442.716c-0.375-9.28-2.247-18.141-5.378-26.364
	c-3.85-10.084-16.717-17.235-33.666-21.074c-31.335-7.084-72.495,4.618-98.686,26.653c1.006,4.019,0.708,8.812-0.643,13.185
	c18.872,10.147,46.318,21.13,72.213,29.012c6.094-13.995,17.762-16.663,26.862-14.389c6.519,1.626,10.71,2.479,13.769,3.095
	l3.366,0.711c4.325,1.012,8.12,3.886,10.396,7.89c1.613,2.829,3.094,7.303,2.083,13.465c3.182-0.186,4.722-0.72,5.078-1.141
	C240.044,464.071,241.698,453.591,241.252,442.716z M226.403,474.899c1.042-5.163-0.085-8.756-1.34-10.953
	c-1.572-2.774-4.178-4.761-7.126-5.451l-3.224-0.678c-2.934-0.593-7.359-1.493-13.991-3.148
	c-8.882-2.218-16.503,1.849-20.711,10.919c4.326,1.258,8.588,2.421,12.741,3.473c0.669-3.231,0.812-5.472,0.812-5.512
	c0.086-1.399,1.289-2.468,2.689-2.386c1.401,0.082,2.47,1.279,2.386,2.685c-0.008,0.182-0.172,2.752-0.943,6.419
	c0.822,0.193,1.646,0.387,2.454,0.568c0.833,0.191,1.653,0.372,2.457,0.542c0.724-3.574,1.191-6.611,1.203-6.673
	c0.211-1.387,1.508-2.339,2.892-2.129c1.392,0.208,2.344,1.504,2.138,2.893c-0.037,0.244-0.509,3.286-1.254,6.932
	c1.704,0.333,3.32,0.623,4.852,0.885c0.564-3.083,0.702-5.534,0.702-5.58c0.067-1.401,1.263-2.482,2.664-2.413
	c1.405,0.067,2.487,1.259,2.415,2.657c-0.009,0.209-0.146,2.783-0.75,6.097C220.991,474.524,223.949,474.786,226.403,474.899z
	 M179.297,481.114c1.985,4.288,5.445,6.767,8.021,7.654c3.348,1.161,12.205,3.021,19.562,3.828
	c8.07,0.893,14.379-3.597,17.975-12.669c-2.7-0.155-5.592-0.472-8.583-0.888c-0.561,1.826-1.275,3.647-2.197,5.264
	c-0.693,1.22-2.242,1.641-3.463,0.951c-1.22-0.694-1.646-2.247-0.95-3.472c0.61-1.072,1.114-2.289,1.532-3.543
	c-1.578-0.269-3.166-0.568-4.738-0.871c-0.539,2.108-1.157,4.111-1.805,5.609c-0.561,1.287-2.063,1.872-3.35,1.313
	c-1.289-0.56-1.872-2.058-1.313-3.345c0.525-1.204,1.027-2.837,1.489-4.607c-0.824-0.181-1.641-0.362-2.449-0.544
	c-0.854-0.192-1.729-0.399-2.601-0.609c-0.458,1.473-0.996,3.005-1.653,4.557c-0.542,1.292-2.041,1.897-3.333,1.352
	c-1.29-0.544-1.901-2.037-1.354-3.328c0.548-1.28,1.001-2.555,1.389-3.783c-4.283-1.086-8.685-2.294-13.148-3.596
	C177.252,475.068,178.186,478.728,179.297,481.114z M95.55,417.768c-1.127-0.206-3.363-0.189-5.597,2.24
	c-3.539,3.835-5.2,9.032-4.944,15.435l0,0c0.071,1.633,0.299,2.548,0.761,3.864c0.825,2.327,2.807,3.865,4.255,4.128
	c1.721,0.315,3.664-0.691,5.478-2.838c3.963-4.702,5.672-13.324,3.728-18.825C98.424,419.478,97.119,418.056,95.55,417.768z"/>
<path fill="#FFFFFF" d="M121.515,0C88.767,0,81.004,16.791,81.004,16.791s37.786-2.731,37.786,34.588
	c0,16.795-9.14,28.179-18.814,40.226c-11.239,13.991-23.971,29.85-23.971,56.454c0,44.039,28.292,64.699,53.253,82.925
	c21.746,15.882,42.284,30.88,42.284,59.121c0,28.398-12.455,50.413-18.14,56.095c-9.535,9.535-18.127,11.269-25.024,12.664
	c-7.085,1.43-13.78,2.804-15.185,12.982c-26.22,15.747-42.104,43.794-42.104,74.223c0,1.186,0.025,2.378,0.072,3.571
	c0.942,23.126,10.834,44.501,27.851,60.184c17.016,15.687,39.124,23.803,62.246,22.86c23.125-0.942,44.496-10.835,60.183-27.847
	c15.687-17.017,23.804-39.126,22.857-62.245c-1.432-35.302-23.834-65.898-57.067-77.945l0.127,0.047
	c-0.021-0.009-0.453-0.182-0.453-0.182c-0.005-0.004-0.784-0.275-0.784-0.275c-4.203-1.451-8.971-3.099-8.971-13.909
	c0-10.475,4.755-11.344,14.219-13.082c5.626-1.033,12.509-2.295,19.259-6.419c12.014-7.333,14.269-16.18,12.081-18.364
	c-2.976-2.981-6.258,3.28-18.351,6.923c-4.359,1.316-8.747,2.081-11.711,2.081c-2.465,0-4.305-0.207-5.655-0.452
	c6.351-11.899,13.466-21.639,13.545-21.741l1.55-2.11l-1.853-1.853c-2.457-2.456-3.871-7.566-3.871-14.418
	c0-8.454,2.15-19.556,7.14-31.609c5.904-14.243,29.334-60.727,83.075-60.727h3.051v-3.05c0-19.213-1.756-36.883-5.214-52.519
	l-0.674-3.038c0,0-5.217,1.481-9.563,2.451c-0.518,0.114-4.583,1.113-4.767,0.255c-0.164-0.758,2.975-2.335,4.06-2.879
	c4.081-2.03,9.168-4.166,9.168-4.166l-0.702-2.445c-3.833-13.378-7.691-19.772-7.856-20.039l-1.245-2.038l-2.271,0.719
	c-44.753,14.098-54.322,43.795-60.04,61.535c-2.783,8.621-4.504,13.498-7.616,13.498c-9.237,0-16.878-7.639-19.39-10.15
	c-27.901-27.904-25.765-48.021-22.524-78.476c1.147-10.747,2.444-22.925,2.444-36.834C163.438,16.327,150.117,0,121.515,0"/>
<path fill="#002156" d="M174.593,290.104c0,28.282-12.063,51.282-19.033,58.25c-21.598,21.6-39.413,5.871-39.606,27.541
	c-9.801,8.876-16.852,22.371-20.312,37.784c0.215,0.021,0.429,0.051,0.64,0.091c2.028,0.37,3.77,1.529,5.1,3.359
	c27.432-22.357,69.668-34.112,101.95-26.812c10.264,2.32,18.969,6.109,25.563,11.907c-9.914-16.035-25.069-28.41-42.983-34.831
	c-4.253-1.525-11.811-3.271-11.811-17.067c0-25.749,28.171-5.73,46.732-33.775c0.908-1.385-0.399-2.594-1.489-1.505
	c-5.614,5.61-19.402,9.471-26.695,9.471c-7.301,0-10.047-1.663-10.047-1.663c6.892-13.715,15.476-25.388,15.476-25.388
	c-17.231-17.23,11.769-111.962,88.502-111.962c0-21.975-2.322-39.115-5.143-51.861c-1.826,0.445-16.279,3.853-16.94,0.814
	c-0.585-2.693,10.646-8.531,14.513-10.452c-3.771-13.135-7.527-19.291-7.527-19.291c-65.769,20.721-52.551,75.173-68.573,75.173
	c-10.428,0-18.62-8.117-21.545-11.043c-39.283-39.277-20.975-65.272-20.975-117.467c0-35.161-13.655-48.329-38.873-48.329
	c-25.216,0-34.226,10.919-34.226,10.919s34.551,1.119,34.551,37.41c0,37.994-42.786,48.481-42.786,96.679
	C79.055,228.291,174.593,226.784,174.593,290.104 M129.047,51.379c0-4.658-0.501-8.864-1.41-12.66c0,0,7.52-0.393,7.52-9.545
	c0-7.544-5.033-12.688-6.382-12.688c-1.089,0-1.359,1.156-3.716,1.156c-5.743,0-6.164-7.339-6.164-7.339
	c0.85-0.029,1.724-0.042,2.62-0.042c16.444,0,31.664,4.979,31.664,41.119c0,13.365-1.266,25.257-2.382,35.749
	c-1.106,10.362-2.128,20.001-1.834,29.413c0,0-28.635-3.375-28.635-24.918C120.328,77.635,129.047,74.231,129.047,51.379z
	 M88.813,447.336c-1.842-0.461-3.433-1.604-4.661-3.318c-6.228,9.608-8.854,18.198-6.564,25.907
	c9.581,32.35,38.123,56.241,72.306,59.423C117.224,519.425,93.046,485.384,88.813,447.336z M82.123,428.218
	c-2.058-1.467-3.821-2.84-5.075-4.038c-2.185,8.048-3.193,16.562-2.835,25.335c0.07,1.772,0.197,3.528,0.373,5.267
	c1.264-5.184,3.754-10.6,7.322-16.124C81.218,435.426,81.328,431.75,82.123,428.218z M83.734,423.28
	c0.863-1.961,1.944-3.77,3.231-5.296c1.035-1.219,2.138-2.189,3.309-2.909c3.109-14.489,9.602-27.394,19.093-37.15
	C95.196,388,84.335,402.366,78.625,419.035C79.383,420.074,81.398,421.641,83.734,423.28z M206.324,497.659
	c-7.074-0.786-16.538-2.655-20.67-4.086c-4.612-1.595-8.715-5.448-10.97-10.316c-0.934-2.012-1.779-4.688-1.914-7.933
	c-0.076-1.94,0.109-4.079,0.677-6.394c-25.936-7.91-53.408-18.896-72.533-29.109c-0.674,1.232-1.443,2.378-2.306,3.399
	c-1.438,1.702-3.054,2.936-4.717,3.641c1.796,15.913,7.322,31.506,16.121,45.092c11.672,18.022,27.569,30.372,44.741,34.26
	c6.088,1.372,14.045,3.084,21.165,1.507c26.396-5.845,47.913-24.103,58.429-48.12c-1.232,0.219-2.616,0.345-4.103,0.396
	C224.223,497.617,211.557,498.236,206.324,497.659z M235.874,416.352c-3.85-10.084-16.717-17.235-33.666-21.074
	c-31.335-7.084-72.495,4.618-98.686,26.653c1.006,4.019,0.708,8.812-0.643,13.185c18.872,10.147,46.318,21.13,72.213,29.012
	c6.094-13.995,17.762-16.663,26.862-14.389c6.519,1.626,10.71,2.479,13.769,3.095l3.366,0.711c4.325,1.012,8.12,3.886,10.396,7.89
	c1.613,2.829,3.094,7.303,2.083,13.465c3.182-0.186,4.722-0.72,5.078-1.141c3.396-9.688,5.051-20.167,4.604-31.042
	C240.877,433.436,239.005,424.576,235.874,416.352z M179.297,481.114c1.985,4.288,5.445,6.767,8.021,7.654
	c3.348,1.161,12.205,3.021,19.562,3.828c8.07,0.893,14.379-3.597,17.975-12.669c-2.7-0.155-5.592-0.472-8.583-0.888
	c-0.561,1.826-1.275,3.647-2.197,5.264c-0.693,1.22-2.242,1.641-3.463,0.951c-1.22-0.694-1.646-2.247-0.95-3.472
	c0.61-1.072,1.114-2.289,1.532-3.543c-1.578-0.269-3.166-0.568-4.738-0.871c-0.539,2.108-1.157,4.111-1.805,5.609
	c-0.561,1.287-2.063,1.872-3.35,1.313c-1.289-0.56-1.872-2.058-1.313-3.345c0.525-1.204,1.027-2.837,1.489-4.607
	c-0.824-0.181-1.641-0.362-2.449-0.544c-0.854-0.192-1.729-0.399-2.601-0.609c-0.458,1.473-0.996,3.005-1.653,4.557
	c-0.542,1.292-2.041,1.897-3.333,1.352c-1.29-0.544-1.901-2.037-1.354-3.328c0.548-1.28,1.001-2.555,1.389-3.783
	c-4.283-1.086-8.685-2.294-13.148-3.596C177.252,475.068,178.186,478.728,179.297,481.114z M226.403,474.899
	c1.042-5.163-0.085-8.756-1.34-10.953c-1.572-2.774-4.178-4.761-7.126-5.451l-3.224-0.678c-2.934-0.593-7.359-1.493-13.991-3.148
	c-8.882-2.218-16.503,1.849-20.711,10.919c4.326,1.258,8.588,2.421,12.741,3.473c0.669-3.231,0.812-5.472,0.812-5.512
	c0.086-1.399,1.289-2.468,2.689-2.386c1.401,0.082,2.47,1.279,2.386,2.685c-0.008,0.182-0.172,2.752-0.943,6.419
	c0.822,0.193,1.646,0.387,2.454,0.568c0.833,0.191,1.653,0.372,2.457,0.542c0.724-3.574,1.191-6.611,1.203-6.673
	c0.211-1.387,1.508-2.339,2.892-2.129c1.392,0.208,2.344,1.504,2.138,2.893c-0.037,0.244-0.509,3.286-1.254,6.932
	c1.704,0.333,3.32,0.623,4.852,0.885c0.564-3.083,0.702-5.534,0.702-5.58c0.067-1.401,1.263-2.482,2.664-2.413
	c1.405,0.067,2.487,1.259,2.415,2.657c-0.009,0.209-0.146,2.783-0.75,6.097C220.991,474.524,223.949,474.786,226.403,474.899z
	 M95.55,417.768c-1.127-0.206-3.363-0.189-5.597,2.24c-3.539,3.835-5.2,9.032-4.944,15.435l0,0c0.071,1.633,0.299,2.548,0.761,3.864
	c0.825,2.327,2.807,3.865,4.255,4.128c1.721,0.315,3.664-0.691,5.478-2.838c3.963-4.702,5.672-13.324,3.728-18.825
	C98.424,419.478,97.119,418.056,95.55,417.768z"/>
<path fill="#002156" d="M29.8,519.252c6.412,4.229,13.203,8.033,13.203,8.033l-2.377,6.16c-0.888-3.732-4.59-5.757-9.367-8.714
	l-15.64,22.616c-1.91,2.727-5.634,8.698-5.934,11.024c0,0-2.567-1.629-4.909-3.374C2.327,553.171,0,551.48,0,551.48
	c2.331-0.567,6.357-6.505,8.785-9.796l15.216-21.711c-5.699-4.406-7.924-5.269-11.951-5.479l5.416-4.061
	C17.466,510.433,22.671,514.553,29.8,519.252"/>
<path fill="#002156" d="M277.641,595.864l0.472,0.518c-0.442-0.024-0.809,0.205-1.284,0.472l1.373,2.638
	c0.268,0.488,0.647,1.229,0.896,1.284c0,0-0.294,0.167-0.645,0.345c-0.307,0.151-0.597,0.27-0.597,0.27
	c0.004-0.329-0.102-0.59-0.467-1.34l-1.437-2.768c-0.482,0.243-1.009,0.483-1.151,0.874l-0.122-0.766c0,0,0.71-0.344,1.476-0.739
	C277.044,596.192,277.641,595.864,277.641,595.864"/>
<path fill="#002156" d="M39.923,575.351c-10.864-5.185-12.308-17.155-6.959-28.36c5.373-11.252,15.614-17.585,26.429-12.417
	c10.81,5.162,12.333,17.104,6.956,28.359C61,574.139,50.787,580.539,39.923,575.351 M57.839,537.822
	c-6.947-3.315-12.409,4.531-16.528,13.158c-4.119,8.625-6.813,17.865,0.135,21.182c6.947,3.312,12.438-4.587,16.558-13.213
	C62.123,550.323,64.787,541.137,57.839,537.822z"/>
<path fill="#002156" d="M88.54,546.145c7.347,2.074,13.326,3.463,13.326,3.463l-0.636,6.576c-1.969-2.844-2.873-3.539-9.144-5.137
	l-7.603,25.565c-0.61,2.34-3.644,11.193-2.672,12.858c0,0-2.112-0.45-5.521-1.396c-3.833-1.062-5.634-1.781-5.634-1.781
	c1.966-1.292,4.439-8.86,5.248-11.937l7.641-25.735c-6.497-2.167-8.007-2.318-11.112-0.875l3.766-5.608
	C76.198,542.139,80.44,543.851,88.54,546.145"/>
<path fill="#002156" d="M118.848,552.936c7.241,1.094,14.063,1.713,14.063,1.713l0.274,6.598c-2.706-2.407-3.725-3.186-10.874-4.086
	l-4.14,26.253c-0.291,2.406-1.83,11.538-0.64,13.052c0,0-2.508-0.278-5.971-0.762c-3.463-0.492-5.591-0.98-5.591-0.98
	c1.691-1.321,3.097-9.967,3.391-12.375l4.242-26.58c-6.195-1.237-7.468-0.762-10.443,0.963l2.697-6.243
	C105.855,550.488,111.64,551.847,118.848,552.936"/>
<path fill="#002156" d="M145.697,577.897l-0.545,17.643c9.251,0.122,15.584-0.463,18.404-4.477l-1.415,8.016
	c0,0-5.124,0.104-12.627,0c-8.246-0.118-14.718-0.656-14.718-0.656c1.373-1.359,1.713-9.957,1.729-12.374l0.754-17.316
	c0.033-4.611,0.454-12.063-1.094-13.629c6.702,0.463,5.849,0.455,12.004,0.694c8.059,0.32,12.623,0.08,12.623,0.08l1.014,6.619
	c-3.146-2.626-7.863-2.934-15.564-2.979l-0.424,14.808l11.827,0.067c1.065,0.012,1.132,0.605,1.129,1.792
	c-0.013,1.169-0.029,1.792-1.153,1.78L145.697,577.897"/>
<path fill="#002156" d="M197.356,583.208c0.682,6.42,1.359,11.032,2.823,11.874c-0.366,0.664-1.526,1.535-3.066,1.699
	c-1.855,0.198-3.258-0.715-4.545-2.204l-20.972-24.057l0.79,15.305c0.254,2.406,0.531,11.524,2.028,12.741l-6.988,0.318
	c1.216-1.502,0.893-10.19,0.635-12.602l-0.988-17.272c-0.256-2.407-0.707-11.959-2.209-13.166l6.408-0.232l21.493,25.528
	l-1.788-14.688c-0.256-2.415-1.564-11.167-3.01-12.384c0,0,0.771-0.075,3.38-0.429c2.604-0.354,3.552-0.543,3.552-0.543
	c-1.208,1.506,0.193,10.485,0.453,12.893L197.356,583.208"/>
<path fill="#002156" d="M236.758,574.106c0.745,2.987,2.223,10.657,4.415,12.159c0,0-3.317,0.96-5.345,1.583
	c-1.805,0.555-5.781,1.586-5.781,1.586c0.938-1.657-1.153-10.864-1.73-13.162l-1.993-8.011l-13.326,3.269l1.515,8.146
	c0.438,2.634,1.826,11.496,3.623,12.578c0,0-1.864,0.386-5.748,1.182c-3.252,0.669-5.518,1.027-5.518,1.027
	c0.998-1.658-0.34-9.877-0.753-12.498l-3.23-17.223c-0.589-3.21-2.071-11.331-3.854-12.282c0,0,1.729-0.328,5.534-1.068
	c3.807-0.741,5.672-1.246,5.672-1.246c-0.938,1.928,0.715,9.721,1.165,12.451l1.025,5.466l13.113-3.197l-1.414-5.584
	c-0.771-2.959-2.399-10.057-4.221-11.374c0,0,1.8-0.521,5.448-1.558c3.649-1.03,5.222-1.619,5.222-1.619
	c-0.723,1.969,1.306,8.883,2.146,12.446L236.758,574.106"/>
<path fill="#002156" d="M261.104,563.897l-13.003,5.092l0.451,7.141c0.29,2.437,0.299,4.676,0.833,5.938
	c0.262,0.627,0.712,1.042,1.141,1.266c0,0-1.356,0.493-3.59,1.217c-2.235,0.723-3.463,1.078-3.463,1.078
	c0.779-1.345,0.968-3.195,0.9-5.505l-1.146-33.852c-0.108-1.229-0.256-2.382-0.664-3.349c-0.361-0.863-0.971-1.348-1.396-1.709
	c1.48-0.96,3.333-2.012,5.217-2.802c2.987-1.259,4.247-1.208,6.426,1.333l19.077,23.66c3.468,4.516,6.535,7.554,8.53,8.159
	c0,0-1.949,0.9-5.617,2.533c-3.666,1.628-6.093,2.554-6.093,2.554c0.218-0.766,0.243-1.578-0.235-2.798
	c-0.51-1.317-2.387-3.547-3.598-5.238L261.104,563.897 M258.744,561.095l-11.555-16.011l0.815,20.109L258.744,561.095z"/>
<path fill="#002156" d="M315.586,551.624c-2.616,1.763-4.574,3.113-4.574,3.113c-0.192-2.574-5.162-8.937-6.622-10.868
	l-11.206-14.618l9.014,28.818c-0.351,0.573-0.989,1.373-1.583,1.822c-1.779,1.352-3.509,1.086-5.09-0.159l-21.339-17.69
	l7.469,13.756c1.827,3.484,5.348,10.734,7.718,11.449c0,0-1.473,0.787-3.338,1.691c-1.851,0.896-2.983,1.423-2.983,1.423
	c0.413-2.024-3.054-8.041-5.073-11.892l-8.311-15.632c-2.521-4.704-5.302-9.492-7.691-10.447c1.848-0.896,2.406-1.17,5.049-2.475
	c2.204-1.086,4.146-2.15,4.146-2.15l24.025,20.437l-9.45-28.936c0,0,1.266-0.859,3.668-2.462c2.396-1.604,4.558-3.198,4.558-3.198
	c0.182,2.588,5.185,9.186,7.007,11.547l10.347,13.313c2.195,2.739,6.298,8.837,9.219,9.535
	C320.543,548,318.204,549.852,315.586,551.624"/>
<path fill="#002156" d="M282.983,594.568l1.179,1.511c0.346,0.421,0.695,0.942,1.065,1.098c0,0-0.308,0.219-0.606,0.421
	c-0.298,0.197-0.519,0.354-0.519,0.354c-0.083-0.407-0.583-1.039-0.747-1.259l-1.254-1.657l1.026,3.27
	c-0.042,0.067-0.114,0.156-0.182,0.205c-0.269,0.207-0.467,0.089-0.647-0.054l-2.471-1.974l0.965,1.565
	c0.229,0.404,0.643,1.149,0.972,1.301c0,0-0.182,0.108-0.404,0.239c-0.194,0.114-0.384,0.211-0.384,0.211
	c0.046-0.396-0.453-1.174-0.602-1.443l-1.06-1.776c-0.243-0.403-0.626-0.993-0.968-1.093c0,0,0.331-0.173,0.657-0.354
	c0.205-0.113,0.41-0.245,0.534-0.313l2.734,2.276l-1.052-3.244c0.101-0.046,0.26-0.144,0.505-0.295
	c0.315-0.193,0.577-0.369,0.577-0.369C282.299,593.583,282.757,594.264,282.983,594.568"/>
<path fill="#002156" d="M69.709,604.241c2.227,0.817,5.1,1.814,5.1,1.814c-2.419,1.754-4.641,8.73-6.084,12.518l-5.58,15.481
	c-1.493,4.202-4.039,10.292-3.186,12.466c0,0-3.07-1.06-5.554-1.942c-2.125-0.758-3.332-1.162-5.583-2.125
	c2.735-0.725,5.313-9.822,6.152-12.11l2.554-7.225l-13.373-5.575l-3.867,8.264c-1.259,2.87-4.271,9.37-3.555,11.406
	c0,0-2.362-0.963-5.82-2.554c-4.073-1.875-4.96-2.372-4.96-2.372c2.87-1.41,4.569-6.043,6.754-10.723l6.993-15.487
	c2.363-5.302,4.497-9.897,4.337-12.919c0,0,1.249,0.745,4.688,2.29c2.74,1.232,4.14,1.848,5.677,2.465
	c-2.176,0.866-5.205,8.68-6.804,12.186l-2.049,4.377l13.064,5.382l2.004-4.961c0.938-2.534,4.178-10.107,3.479-12.7
	C64.096,602.196,66.777,603.169,69.709,604.241"/>
<path fill="#002156" d="M84.815,654.482c-11.646-3.063-15.35-14.341-12.261-26.089c3.105-11.811,11.924-19.725,23.513-16.674
	c11.584,3.046,15.366,14.276,12.266,26.087C105.24,649.559,96.463,657.545,84.815,654.482 M95.172,615.123
	c-7.444-1.957-11.29,6.576-13.671,15.624c-2.387,9.042-3.245,18.43,4.194,20.391c7.444,1.952,11.311-6.641,13.688-15.684
	C101.769,626.408,102.614,617.083,95.172,615.123z"/>
<path fill="#002156" d="M116.361,658.64c0,0,0.741-0.801,1.246-2.433c0.712-2.293,1.17-6.702,1.718-10.141l3.261-25.213
	c-6.947-0.871-8.711-0.371-11.762,1.435l2.862-6.456c2.163,0.48,6.956,0.998,12.787,1.734c3.902,0.488,15.523,1.537,15.523,1.537
	l0.395,6.457c-2.563-2.965-5.222-3.234-11.012-3.689l-3.248,25.298c-0.291,2.355-1.583,10.527-0.302,12.946
	c-1.397-0.159-3.711-0.421-5.652-0.614C120.166,659.295,117.518,658.837,116.361,658.64"/>
<path fill="#002156" d="M171.718,649.883c0.081,7.59-6.093,13.086-15.589,12.946c-7.385-0.108-11.247-3.147-12.725-4.384
	l1.537-7.203c2.293,4.59,6.093,7.927,10.371,7.994c4.469,0.063,7.986-2.567,8.059-6.997c0.046-3.22-1.726-5.164-9.181-9.043
	c-7.145-3.689-9.804-7.371-9.804-12.859c0-7.474,6.5-11.269,14.138-11.271c5.616-0.005,9.534,1.716,11.996,3.032l-1.587,6.6
	c-3.407-4.55-6.492-6.236-10.212-6.287c-3.665-0.06-6.26,1.939-6.236,5.705c0.025,4.104,4.54,6.324,10.629,9.725
	C170.115,641.757,171.677,645.684,171.718,649.883"/>
<path fill="#002156" d="M206.298,626.631c0.27,0.891,0.434,1.973,0.518,2.823c0.072,0.783,0.11,1.821,0.017,2.803
	c-0.201,2.46-1.368,5.318-3.299,7.329c-2.949,3.08-6.792,4.611-11.887,4.849c-1.966,0.121-2.436-0.48-2.567-1.898l-0.012-0.308
	c0,0-0.042-0.548,0.387-0.577l0.493-0.049c1.506-0.187,3.74-0.658,5.532-2.837c1.718-2.242,2.306-5.222,2.007-8.429
	c-0.319-3.331-1.32-5.731-3.559-7.455c-1.944-1.494-4.229-1.979-6.581-1.793c0,0-0.943,0.08-1.99,0.245c0,0-0.614,0.054-0.561,0.655
	l2.524,26.151c0.219,2.301,0.847,10.405,2.735,12.077c0,0-2.149,0.227-6.198,0.559c-3.088,0.253-5.494,0.315-5.494,0.315
	c0.812-2.007,0.677-4.974,0.475-8.429l-1.957-20.621c-0.222-2.36-0.621-10.449-2.545-12.447c0,0,5.176-0.766,14.752-1.67
	c5.008-0.475,9.11,0.164,12.648,2.558C204.051,622.041,205.642,624.312,206.298,626.631"/>
<path fill="#002156" d="M245.48,635.063c2.05,9.064-2.204,16.781-11.635,19.138c-6.627,1.657-16.17-0.774-18.834-12.4l-3.244-13.726
	c-0.854-3.843-2.25-10.646-4.48-12.418c0,0,2.491-0.353,6.392-1.081s5.713-1.162,5.713-1.162c-1.025,1.615,0.051,7.975,1.07,12.646
	l4.141,17.448c0.739,3.198,1.783,5.387,3.576,6.678c1.329,0.96,3.104,1.222,4.952,0.885c1.683-0.313,3.434-1.263,4.351-2.967
	c0.973-1.788,0.968-4.375,0.219-7.57l-4.648-17.448c-1.272-4.803-2.736-10.814-4.31-11.82c0,0,1.894-0.513,5.483-1.54
	c2.718-0.774,4.334-1.246,5.507-1.659c-1.073,2.627,1.481,10.681,2.023,12.986L245.48,635.063"/>
<path fill="#002156" d="M287.827,631.487c0.914,0.35,1.898,0.59,2.724,0.239c-0.094,0.569-0.628,1.705-1.523,2.622
	c-3.813,3.908-7.393,3.236-8.605,2.756c-6.576-2.508-17.572-12.253-18.025-13.317c0,0-0.113-0.278,0.172-0.396l0.399-0.176
	c1.717-0.715,3.666-2.656,4.435-4.493c1.229-2.694,1.022-5.113-0.227-8.075c-1.292-3.08-3.555-5.02-5.327-5.542
	c-2.621-0.774-4.577-0.16-5.769,0.315c0,0-1.573,0.619-2.041,1.09c0,0-0.316,0.261,0.051,1.334l8.307,23.727
	c1.262,3.49,3.454,10.298,5.44,11.446c0,0-2.244,0.883-5.647,2.112c-3.404,1.229-5.474,1.801-5.474,1.801
	c0.693-2.65-1.928-9.854-2.589-11.875l-5.372-16.022c-1.343-3.862-3.795-10.784-5.791-11.892c0,0,3.922-1.098,12.738-4.801
	c4.688-1.969,9.231-2.811,13.329-1.611c2.487,0.731,4.167,1.98,5.542,3.972c0.526,0.771,0.912,1.528,1.246,2.313
	c0.306,0.729,0.517,1.566,0.656,2.344c0.434,2.421,0.07,4.995-1.33,7.423c0,0-1.263,2.445-3.959,4.363
	C271.187,621.143,279.846,628.479,287.827,631.487"/>
</svg>
