<?xml version="1.0" encoding="UTF-8" standalone="no"?>
<svg width="21px" height="15px" viewBox="0 0 21 15" version="1.1" xmlns="http://www.w3.org/2000/svg" xmlns:xlink="http://www.w3.org/1999/xlink">
    <!-- Generator: Sketch 3.8.2 (29753) - http://www.bohemiancoding.com/sketch -->
    <title>TL</title>
    <desc>Created with Sketch.</desc>
    <defs>
        <rect id="path-1" x="0" y="0" width="21" height="15" rx="2"></rect>
        <filter x="-50%" y="-50%" width="200%" height="200%" filterUnits="objectBoundingBox" id="filter-3">
            <feMorphology radius="1" operator="erode" in="SourceAlpha" result="shadowSpreadInner1"></feMorphology>
            <feOffset dx="0" dy="0" in="shadowSpreadInner1" result="shadowOffsetInner1"></feOffset>
            <feComposite in="shadowOffsetInner1" in2="SourceAlpha" operator="arithmetic" k2="-1" k3="1" result="shadowInnerInner1"></feComposite>
            <feColorMatrix values="0 0 0 0 0   0 0 0 0 0   0 0 0 0 0  0 0 0 0.121659873 0" type="matrix" in="shadowInnerInner1"></feColorMatrix>
        </filter>
        <rect id="path-4" x="0.5" y="0.5" width="20" height="14" rx="1"></rect>
    </defs>
    <g id=":)" stroke="none" stroke-width="1" fill="none" fill-rule="evenodd">
        <g id="Flags-by-@lucchaissac" transform="translate(-112.000000, -255.000000)">
            <g id="TL" transform="translate(112.000000, 255.000000)">
                <mask id="mask-2" fill="white">
                    <use xlink:href="#path-1"></use>
                </mask>
                <g id="background">
                    <use fill="#D23144" fill-rule="evenodd" xlink:href="#path-1"></use>
                    <use fill="black" fill-opacity="1" filter="url(#filter-3)" xlink:href="#path-1"></use>
                </g>
                <polygon id="triangle" fill="#FBD240" mask="url(#mask-2)" points="15 7.5 1.77635684e-15 -1.77635684e-15 3.55271368e-15 15"></polygon>
                <polygon id="triangle" fill="#292929" mask="url(#mask-2)" points="9 7.5 1.77635684e-15 0 3.55271368e-15 15"></polygon>
                <mask id="mask-5" fill="white">
                    <use xlink:href="#path-4"></use>
                </mask>
                <use id="overlay" stroke-opacity="0.156646286" stroke="#2F343A" xlink:href="#path-4"></use>
                <path d="M3,6 L3,7 L4,7 L4,6 L3,6 L3,6 Z M3,8 L3,9 L4,9 L4,8 L3,8 L3,8 Z M4,7 L4,8 L5,8 L5,7 L4,7 L4,7 Z M2,7 L2,8 L3,8 L3,7 L2,7 L2,7 Z" id="star-2" fill="#A6A6A6" mask="url(#mask-5)"></path>
                <rect id="star-2" fill="#FFFFFF" mask="url(#mask-5)" x="3" y="7" width="1" height="1"></rect>
            </g>
        </g>
    </g>
</svg>