<?xml version="1.0" encoding="UTF-8" standalone="no"?>
<svg width="21px" height="15px" viewBox="0 0 21 15" version="1.1" xmlns="http://www.w3.org/2000/svg" xmlns:xlink="http://www.w3.org/1999/xlink">
    <!-- Generator: Sketch 3.8.2 (29753) - http://www.bohemiancoding.com/sketch -->
    <title>US</title>
    <desc>Created with Sketch.</desc>
    <defs>
        <rect id="path-1" x="0" y="0" width="21" height="15" rx="2"></rect>
        <rect id="path-3" x="0" y="0" width="9" height="7"></rect>
        <filter x="-50%" y="-50%" width="200%" height="200%" filterUnits="objectBoundingBox" id="filter-4">
            <feMorphology radius="1" operator="erode" in="SourceAlpha" result="shadowSpreadInner1"></feMorphology>
            <feOffset dx="0" dy="0" in="shadowSpreadInner1" result="shadowOffsetInner1"></feOffset>
            <feComposite in="shadowOffsetInner1" in2="SourceAlpha" operator="arithmetic" k2="-1" k3="1" result="shadowInnerInner1"></feComposite>
            <feColorMatrix values="0 0 0 0 0   0 0 0 0 0   0 0 0 0 0  0 0 0 0.2 0" type="matrix" in="shadowInnerInner1"></feColorMatrix>
        </filter>
        <rect id="path-5" x="0.5" y="0.5" width="20" height="14" rx="1"></rect>
    </defs>
    <g id=":)" stroke="none" stroke-width="1" fill="none" fill-rule="evenodd">
        <g id="Flags-by-@lucchaissac" transform="translate(-236.000000, -255.000000)">
            <g id="US" transform="translate(236.000000, 255.000000)">
                <mask id="mask-2" fill="white">
                    <use xlink:href="#path-1"></use>
                </mask>
                <use id="background" fill="#FFFFFF" xlink:href="#path-1"></use>
                <g id="rectangle" mask="url(#mask-2)">
                    <use fill="#435DB0" fill-rule="evenodd" xlink:href="#path-3"></use>
                    <use fill="black" fill-opacity="1" filter="url(#filter-4)" xlink:href="#path-3"></use>
                </g>
                <path d="M1,1 L1,2 L2,2 L2,1 L1,1 L1,1 Z M3,1 L3,2 L4,2 L4,1 L3,1 L3,1 Z M5,1 L5,2 L6,2 L6,1 L5,1 L5,1 Z M7,1 L7,2 L8,2 L8,1 L7,1 L7,1 Z M6,2 L6,3 L7,3 L7,2 L6,2 L6,2 Z M4,2 L4,3 L5,3 L5,2 L4,2 L4,2 Z M2,2 L2,3 L3,3 L3,2 L2,2 L2,2 Z M1,3 L1,4 L2,4 L2,3 L1,3 L1,3 Z M3,3 L3,4 L4,4 L4,3 L3,3 L3,3 Z M5,3 L5,4 L6,4 L6,3 L5,3 L5,3 Z M7,3 L7,4 L8,4 L8,3 L7,3 L7,3 Z M1,5 L1,6 L2,6 L2,5 L1,5 L1,5 Z M3,5 L3,6 L4,6 L4,5 L3,5 L3,5 Z M5,5 L5,6 L6,6 L6,5 L5,5 L5,5 Z M7,5 L7,6 L8,6 L8,5 L7,5 L7,5 Z M6,4 L6,5 L7,5 L7,4 L6,4 L6,4 Z M4,4 L4,5 L5,5 L5,4 L4,4 L4,4 Z M2,4 L2,5 L3,5 L3,4 L2,4 L2,4 Z" id="stars" fill="#A7B6E7" mask="url(#mask-2)"></path>
                <path d="M9,0 L9,1 L21,1 L21,0 L9,0 L9,0 Z M9,2 L9,3 L21,3 L21,2 L9,2 L9,2 Z M9,4 L9,5 L21,5 L21,4 L9,4 L9,4 Z M9,6 L9,7 L21,7 L21,6 L9,6 L9,6 Z M0,8 L0,9 L21,9 L21,8 L0,8 L0,8 Z M0,10 L0,11 L21,11 L21,10 L0,10 L0,10 Z M0,12 L0,13 L21,13 L21,12 L0,12 L0,12 Z M0,14 L0,15 L21,15 L21,14 L0,14 L0,14 Z" id="stripe" fill="#ED4C49" mask="url(#mask-2)"></path>
                <mask id="mask-6" fill="white">
                    <use xlink:href="#path-5"></use>
                </mask>
                <use id="overlay" stroke-opacity="0.156646286" stroke="#2F343A" xlink:href="#path-5"></use>
            </g>
        </g>
    </g>
</svg>