<?xml version="1.0" encoding="UTF-8" standalone="no"?>
<svg width="21px" height="15px" viewBox="0 0 21 15" version="1.1" xmlns="http://www.w3.org/2000/svg" xmlns:xlink="http://www.w3.org/1999/xlink">
    <!-- Generator: Sketch 3.8.2 (29753) - http://www.bohemiancoding.com/sketch -->
    <title>CN</title>
    <desc>Created with Sketch.</desc>
    <defs>
        <rect id="path-1" x="0" y="0" width="21" height="15" rx="2"></rect>
        <rect id="path-3" x="0.5" y="0.5" width="20" height="14" rx="1"></rect>
    </defs>
    <g id=":)" stroke="none" stroke-width="1" fill="none" fill-rule="evenodd">
        <g id="Flags-by-@lucchaissac" transform="translate(-298.000000, -55.000000)">
            <g id="CN" transform="translate(298.000000, 55.000000)">
                <mask id="mask-2" fill="white">
                    <use xlink:href="#path-1"></use>
                </mask>
                <use id="background" fill="#CF2338" xlink:href="#path-1"></use>
                <path d="M2,5 L5.07692308,6.84615385 L4,10 L6.5,7.66666667 L9,10 L7.92307692,6.84615385 L11,5 L7.5,5 L5.5,5 L2,5 Z M8,5 L5,5 L6.5,2 L8,5 Z" id="star" fill="#FFD128" mask="url(#mask-2)"></path>
                <path d="M12,3 L12,4 L13,4 L13,3 L12,3 L12,3 Z M13,5 L13,6 L14,6 L14,5 L13,5 L13,5 Z M13,7 L13,8 L14,8 L14,7 L13,7 L13,7 Z M12,9 L12,10 L13,10 L13,9 L12,9 L12,9 Z" id="circles" fill="#F8B92A" mask="url(#mask-2)"></path>
                <mask id="mask-4" fill="white">
                    <use xlink:href="#path-3"></use>
                </mask>
                <use id="overlay" stroke-opacity="0.156646286" stroke="#2F343A" xlink:href="#path-3"></use>
            </g>
        </g>
    </g>
</svg>