<?xml version="1.0" encoding="UTF-8" standalone="no"?>
<svg width="21px" height="15px" viewBox="0 0 21 15" version="1.1" xmlns="http://www.w3.org/2000/svg" xmlns:xlink="http://www.w3.org/1999/xlink">
    <!-- Generator: Sketch 3.8.2 (29753) - http://www.bohemiancoding.com/sketch -->
    <title>DZ</title>
    <desc>Created with Sketch.</desc>
    <defs>
        <rect id="path-1" x="0" y="0" width="21" height="15" rx="2"></rect>
        <path d="M14,6 L14,7 L15,7 L15,6 L14,6 L14,6 Z M14,8 L14,9 L15,9 L15,8 L14,8 L14,8 Z M15,7 L15,8 L16,8 L16,7 L15,7 L15,7 Z M13,7 L13,8 L14,8 L14,7 L13,7 L13,7 Z" id="path-3"></path>
        <mask id="mask-4" maskContentUnits="userSpaceOnUse" maskUnits="objectBoundingBox" x="0" y="0" width="3" height="3" fill="white">
            <use xlink:href="#path-3"></use>
        </mask>
        <rect id="path-5" x="0.5" y="0.5" width="20" height="14" rx="1"></rect>
    </defs>
    <g id=":)" stroke="none" stroke-width="1" fill="none" fill-rule="evenodd">
        <g id="Flags-by-@lucchaissac" transform="translate(-174.000000, -80.000000)">
            <g id="DZ" transform="translate(174.000000, 80.000000)">
                <mask id="mask-2" fill="white">
                    <use xlink:href="#path-1"></use>
                </mask>
                <use id="background" fill="#FFFFFF" xlink:href="#path-1"></use>
                <rect id="left" fill="#357C58" mask="url(#mask-2)" x="0" y="0" width="10" height="15"></rect>
                <path d="M13.052071,10.2630856 C12.228638,11.3201293 10.9437152,12 9.5,12 C7.01471863,12 5,9.98528137 5,7.5 C5,5.01471863 7.01471863,3 9.5,3 C10.9437152,3 12.228638,3.67987067 13.052071,4.73691441 C12.4166497,4.27508353 11.6177441,4 10.75,4 C8.67893219,4 7,5.56700338 7,7.5 C7,9.43299662 8.67893219,11 10.75,11 C11.6177441,11 12.4166497,10.7249165 13.052071,10.2630856 Z" id="circle" fill="#E82E2E" mask="url(#mask-2)"></path>
                <g id="star" mask="url(#mask-2)" stroke-width="2" stroke="#E6B6B7">
                    <use mask="url(#mask-4)" xlink:href="#path-3"></use>
                </g>
                <rect id="star" fill="#E82E2E" mask="url(#mask-2)" x="14" y="7" width="1" height="1"></rect>
                <mask id="mask-6" fill="white">
                    <use xlink:href="#path-5"></use>
                </mask>
                <use id="overlay" stroke-opacity="0.156646286" stroke="#2F343A" xlink:href="#path-5"></use>
            </g>
        </g>
    </g>
</svg>