<?xml version="1.0" encoding="UTF-8" standalone="no"?>
<svg width="21px" height="15px" viewBox="0 0 21 15" version="1.1" xmlns="http://www.w3.org/2000/svg" xmlns:xlink="http://www.w3.org/1999/xlink">
    <!-- Generator: Sketch 3.8.2 (29753) - http://www.bohemiancoding.com/sketch -->
    <title>HT</title>
    <desc>Created with Sketch.</desc>
    <defs>
        <rect id="path-1" x="0" y="0" width="21" height="15" rx="2"></rect>
        <filter x="-50%" y="-50%" width="200%" height="200%" filterUnits="objectBoundingBox" id="filter-3">
            <feMorphology radius="1" operator="erode" in="SourceAlpha" result="shadowSpreadInner1"></feMorphology>
            <feOffset dx="0" dy="0" in="shadowSpreadInner1" result="shadowOffsetInner1"></feOffset>
            <feComposite in="shadowOffsetInner1" in2="SourceAlpha" operator="arithmetic" k2="-1" k3="1" result="shadowInnerInner1"></feComposite>
            <feColorMatrix values="0 0 0 0 0   0 0 0 0 0   0 0 0 0 0  0 0 0 0.121659873 0" type="matrix" in="shadowInnerInner1"></feColorMatrix>
        </filter>
        <rect id="path-4" x="0.5" y="0.5" width="20" height="14" rx="1"></rect>
    </defs>
    <g id=":)" stroke="none" stroke-width="1" fill="none" fill-rule="evenodd">
        <g id="Flags-by-@lucchaissac" transform="translate(-205.000000, -105.000000)">
            <g id="HT" transform="translate(205.000000, 105.000000)">
                <mask id="mask-2" fill="white">
                    <use xlink:href="#path-1"></use>
                </mask>
                <g id="background">
                    <use fill="#FFFFFF" fill-rule="evenodd" xlink:href="#path-1"></use>
                    <use fill="black" fill-opacity="1" filter="url(#filter-3)" xlink:href="#path-1"></use>
                </g>
                <rect id="bottom" fill="#D53450" mask="url(#mask-2)" x="0" y="8" width="21" height="7"></rect>
                <rect id="top" fill="#1636A2" mask="url(#mask-2)" x="0" y="0" width="21" height="8"></rect>
                <mask id="mask-5" fill="white">
                    <use xlink:href="#path-4"></use>
                </mask>
                <use id="overlay" stroke-opacity="0.156646286" stroke="#2F343A" xlink:href="#path-4"></use>
                <rect id="symbol" fill="#FFFFFF" mask="url(#mask-5)" x="6" y="5" width="9" height="5"></rect>
                <polygon id="symbol" fill="#5D9B69" mask="url(#mask-5)" points="11 7.33333333 15 10 6 10 10 7.33333333 9 6 12 6 11 7.33333333"></polygon>
                <path d="M12,7 L12,8 L13,8 L13,7 L12,7 L12,7 Z M13,6 L13,7 L14,7 L14,6 L13,6 L13,6 Z M7,7 L7,6 L8,6 L8,7 L7,7 L7,7 Z M8,8 L8,7 L9,7 L9,8 L8,8 L8,8 Z" id="circles" fill="#C19F4A" mask="url(#mask-5)"></path>
            </g>
        </g>
    </g>
</svg>