<?xml version="1.0" encoding="UTF-8" standalone="no"?>
<svg width="21px" height="15px" viewBox="0 0 21 15" version="1.1" xmlns="http://www.w3.org/2000/svg" xmlns:xlink="http://www.w3.org/1999/xlink">
    <!-- Generator: Sketch 3.8.2 (29753) - http://www.bohemiancoding.com/sketch -->
    <title>IR</title>
    <desc>Created with Sketch.</desc>
    <defs>
        <rect id="path-1" x="0" y="0" width="21" height="15" rx="2"></rect>
        <filter x="-50%" y="-50%" width="200%" height="200%" filterUnits="objectBoundingBox" id="filter-3">
            <feMorphology radius="1" operator="erode" in="SourceAlpha" result="shadowSpreadInner1"></feMorphology>
            <feOffset dx="0" dy="0" in="shadowSpreadInner1" result="shadowOffsetInner1"></feOffset>
            <feComposite in="shadowOffsetInner1" in2="SourceAlpha" operator="arithmetic" k2="-1" k3="1" result="shadowInnerInner1"></feComposite>
            <feColorMatrix values="0 0 0 0 0   0 0 0 0 0   0 0 0 0 0  0 0 0 0.121659873 0" type="matrix" in="shadowInnerInner1"></feColorMatrix>
        </filter>
        <rect id="path-4" x="0.5" y="0.5" width="20" height="14" rx="1"></rect>
    </defs>
    <g id=":)" stroke="none" stroke-width="1" fill="none" fill-rule="evenodd">
        <g id="Flags-by-@lucchaissac" transform="translate(-112.000000, -130.000000)">
            <g id="IR" transform="translate(112.000000, 130.000000)">
                <mask id="mask-2" fill="white">
                    <use xlink:href="#path-1"></use>
                </mask>
                <g id="background">
                    <use fill="#FFFFFF" fill-rule="evenodd" xlink:href="#path-1"></use>
                    <use fill="black" fill-opacity="1" filter="url(#filter-3)" xlink:href="#path-1"></use>
                </g>
                <rect id="bottom" fill="#DD313B" mask="url(#mask-2)" x="0" y="10" width="21" height="5"></rect>
                <circle id="circle" stroke="#DD313B" mask="url(#mask-2)" cx="10.5" cy="7.5" r="1"></circle>
                <rect id="top" fill="#4DAD62" mask="url(#mask-2)" x="0" y="0" width="21" height="5"></rect>
                <path d="M1,3 L1,4 L2,4 L2,3 L1,3 L1,3 Z M3,3 L3,4 L4,4 L4,3 L3,3 L3,3 Z M5,3 L5,4 L6,4 L6,3 L5,3 L5,3 Z M7,3 L7,4 L8,4 L8,3 L7,3 L7,3 Z M9,3 L9,4 L10,4 L10,3 L9,3 L9,3 Z M11,3 L11,4 L12,4 L12,3 L11,3 L11,3 Z M13,3 L13,4 L14,4 L14,3 L13,3 L13,3 Z M15,3 L15,4 L16,4 L16,3 L15,3 L15,3 Z M17,3 L17,4 L18,4 L18,3 L17,3 L17,3 Z M19,3 L19,4 L20,4 L20,3 L19,3 L19,3 Z" id="circles" fill="#C9E6D0" mask="url(#mask-2)"></path>
                <path d="M1,11 L1,12 L2,12 L2,11 L1,11 L1,11 Z M3,11 L3,12 L4,12 L4,11 L3,11 L3,11 Z M5,11 L5,12 L6,12 L6,11 L5,11 L5,11 Z M7,11 L7,12 L8,12 L8,11 L7,11 L7,11 Z M9,11 L9,12 L10,12 L10,11 L9,11 L9,11 Z M11,11 L11,12 L12,12 L12,11 L11,11 L11,11 Z M13,11 L13,12 L14,12 L14,11 L13,11 L13,11 Z M15,11 L15,12 L16,12 L16,11 L15,11 L15,11 Z M17,11 L17,12 L18,12 L18,11 L17,11 L17,11 Z M19,11 L19,12 L20,12 L20,11 L19,11 L19,11 Z" id="circles" fill="#F3B2B6" mask="url(#mask-2)"></path>
                <mask id="mask-5" fill="white">
                    <use xlink:href="#path-4"></use>
                </mask>
                <use id="overlay" stroke-opacity="0.156646286" stroke="#2F343A" xlink:href="#path-4"></use>
            </g>
        </g>
    </g>
</svg>