<?xml version="1.0" encoding="UTF-8" standalone="no"?>
<svg width="21px" height="15px" viewBox="0 0 21 15" version="1.1" xmlns="http://www.w3.org/2000/svg" xmlns:xlink="http://www.w3.org/1999/xlink">
    <!-- Generator: Sketch 3.8.2 (29753) - http://www.bohemiancoding.com/sketch -->
    <title>NO</title>
    <desc>Created with Sketch.</desc>
    <defs>
        <rect id="path-1" x="0" y="0" width="21" height="15" rx="2"></rect>
        <rect id="path-3" x="0.5" y="0.5" width="20" height="14" rx="1"></rect>
    </defs>
    <g id=":)" stroke="none" stroke-width="1" fill="none" fill-rule="evenodd">
        <g id="Flags-by-@lucchaissac" transform="translate(-50.000000, -205.000000)">
            <g id="NO" transform="translate(50.000000, 205.000000)">
                <mask id="mask-2" fill="white">
                    <use xlink:href="#path-1"></use>
                </mask>
                <use id="background" fill="#ED3A40" xlink:href="#path-1"></use>
                <polygon id="cross" fill="#FFFFFF" mask="url(#mask-2)" points="6 0 9 0 9 6 21 6 21 9 9 9 9 15 6 15 6 9 0 9 0 6 6 6"></polygon>
                <polygon id="Rectangle-307" fill="#0554A1" mask="url(#mask-2)" points="7 8 0 8 0 7 7 7 7 0 8 0 8 7 21 7 21 8 8 8 8 15 7 15"></polygon>
                <mask id="mask-4" fill="white">
                    <use xlink:href="#path-3"></use>
                </mask>
                <use id="overlay" stroke-opacity="0.156646286" stroke="#2F343A" xlink:href="#path-3"></use>
            </g>
        </g>
    </g>
</svg>