<?xml version="1.0" encoding="UTF-8" standalone="no"?>
<svg width="21px" height="15px" viewBox="0 0 21 15" version="1.1" xmlns="http://www.w3.org/2000/svg" xmlns:xlink="http://www.w3.org/1999/xlink">
    <!-- Generator: Sketch 3.8.2 (29753) - http://www.bohemiancoding.com/sketch -->
    <title>PG</title>
    <desc>Created with Sketch.</desc>
    <defs>
        <rect id="path-1" x="0" y="0" width="21" height="15" rx="2"></rect>
        <rect id="path-3" x="0.5" y="0.5" width="20" height="14" rx="1"></rect>
    </defs>
    <g id=":)" stroke="none" stroke-width="1" fill="none" fill-rule="evenodd">
        <g id="Flags-by-@lucchaissac" transform="translate(-174.000000, -205.000000)">
            <g id="PG" transform="translate(174.000000, 205.000000)">
                <mask id="mask-2" fill="white">
                    <use xlink:href="#path-1"></use>
                </mask>
                <use id="background" fill="#D21F34" xlink:href="#path-1"></use>
                <polygon id="symbol" fill="#FCE343" mask="url(#mask-2)" points="16 5 16 7 12 4 15 4 15 2 19 5"></polygon>
                <polygon id="bottom-left" fill="#292929" mask="url(#mask-2)" points="0 0 0 15 21 15"></polygon>
                <path d="M4,6 L4,7 L5,7 L5,6 L4,6 Z M6,8 L6,9 L7,9 L7,8 L6,8 Z M3,9 L3,10 L4,10 L4,9 L3,9 Z M5,10 L5,11 L6,11 L6,10 L5,10 Z M4,12 L4,13 L5,13 L5,12 L4,12 Z" id="cricle" fill="#C8C8C8" mask="url(#mask-2)"></path>
                <mask id="mask-4" fill="white">
                    <use xlink:href="#path-3"></use>
                </mask>
                <use id="overlay" stroke-opacity="0.156646286" stroke="#2F343A" xlink:href="#path-3"></use>
            </g>
        </g>
    </g>
</svg>