<?xml version="1.0" encoding="UTF-8" standalone="no"?>
<svg width="21px" height="15px" viewBox="0 0 21 15" version="1.1" xmlns="http://www.w3.org/2000/svg" xmlns:xlink="http://www.w3.org/1999/xlink">
    <!-- Generator: Sketch 3.8.2 (29753) - http://www.bohemiancoding.com/sketch -->
    <title>MX</title>
    <desc>Created with Sketch.</desc>
    <defs>
        <rect id="path-1" x="0" y="0" width="21" height="15" rx="2"></rect>
        <rect id="path-3" x="0.5" y="0.5" width="20" height="14" rx="1"></rect>
    </defs>
    <g id=":)" stroke="none" stroke-width="1" fill="none" fill-rule="evenodd">
        <g id="Flags-by-@lucchaissac" transform="translate(-174.000000, -180.000000)">
            <g id="MX" transform="translate(174.000000, 180.000000)">
                <mask id="mask-2" fill="white">
                    <use xlink:href="#path-1"></use>
                </mask>
                <use id="background" fill="#FFFFFF" xlink:href="#path-1"></use>
                <rect id="left" fill="#196F52" mask="url(#mask-2)" x="0" y="0" width="7" height="15"></rect>
                <circle id="gold" fill="#9B7745" mask="url(#mask-2)" cx="10.5" cy="6.5" r="1.5"></circle>
                <path d="M12.9499909,9 C12.7183558,10.1411202 11.709479,11 10.5,11 C9.29052104,11 8.28164422,10.1411202 8.05000906,9 L7,9 L7,8 L8.52500453,8 L9.08535285,8 C9.03007711,8.15638946 9,8.32468229 9,8.5 C9,9.32842712 9.67157288,10 10.5,10 C11.3284271,10 12,9.32842712 12,8.5 C12,8.32468229 11.9699229,8.15638946 11.9146471,8 L12.4749955,8 L14,8 L14,9 L12.9499909,9 Z" id="symbol" fill="#B2B593" mask="url(#mask-2)"></path>
                <rect id="right" fill="#CF3946" mask="url(#mask-2)" x="14" y="0" width="7" height="15"></rect>
                <mask id="mask-4" fill="white">
                    <use xlink:href="#path-3"></use>
                </mask>
                <use id="overlay" stroke-opacity="0.156646286" stroke="#2F343A" xlink:href="#path-3"></use>
            </g>
        </g>
    </g>
</svg>