<?xml version="1.0" encoding="UTF-8" standalone="no"?>
<svg width="21px" height="15px" viewBox="0 0 21 15" version="1.1" xmlns="http://www.w3.org/2000/svg" xmlns:xlink="http://www.w3.org/1999/xlink">
    <!-- Generator: Sketch 3.8.2 (29753) - http://www.bohemiancoding.com/sketch -->
    <title>QA</title>
    <desc>Created with Sketch.</desc>
    <defs>
        <rect id="path-1" x="0" y="0" width="21" height="15" rx="2"></rect>
        <rect id="path-3" x="0.5" y="0.5" width="20" height="14" rx="1"></rect>
    </defs>
    <g id=":)" stroke="none" stroke-width="1" fill="none" fill-rule="evenodd">
        <g id="Flags-by-@lucchaissac" transform="translate(-329.000000, -205.000000)">
            <g id="QA" transform="translate(329.000000, 205.000000)">
                <mask id="mask-2" fill="white">
                    <use xlink:href="#path-1"></use>
                </mask>
                <use id="background" fill="#FFFFFF" xlink:href="#path-1"></use>
                <rect id="left" fill="#7F3252" mask="url(#mask-2)" x="7" y="0" width="14" height="15"></rect>
                <path d="M9,2 L7,2 L7,1 L9,2 L9,2 Z M9,4 L7,4 L7,3 L9,4 L9,4 Z M9,6 L7,6 L7,5 L9,6 L9,6 Z M9,8 L7,8 L7,7 L9,8 L9,8 Z M9,10 L7,10 L7,9 L9,10 L9,10 Z M9,12 L7,12 L7,11 L9,12 L9,12 Z M9,14 L7,14 L7,13 L9,14 L9,14 Z" id="rectangle" fill="#FFFFFF" mask="url(#mask-2)"></path>
                <mask id="mask-4" fill="white">
                    <use xlink:href="#path-3"></use>
                </mask>
                <use id="overlay" stroke-opacity="0.156646286" stroke="#2F343A" xlink:href="#path-3"></use>
            </g>
        </g>
    </g>
</svg>