<svg xmlns="http://www.w3.org/2000/svg" xmlns:xlink="http://www.w3.org/1999/xlink" version="1.1" id="Capa_1" x="0px" y="0px" width="27px" height="27px" viewBox="0 0 496.013 496.013" style="enable-background:new 0 0 496.013 496.013;" xml:space="preserve">
<g>
	<g>
		<polygon points="271.942,209.614 338.425,114.466 257.523,39.026 144.542,79.657 148.303,186.135   " fill="#FFFFFF"/>
		<polygon points="228.868,402.407 289.71,465.777 395.984,420.409 413.34,326.511 307.844,313.522   " fill="#FFFFFF"/>
		<path d="M15.731,336.798l1.343,1.644c36.151,92.23,125.889,157.571,230.934,157.571c136.976,0,248.006-111.029,248.006-248.007    C496.013,111.036,384.983,0,248.007,0C111.036,0,0,111.043,0,248.006c0,30.668,5.604,60.026,15.785,87.145L15.731,336.798z     M12.93,248.006c0-31.32,6.209-61.204,17.38-88.564l58.667-72.789l15.206-24.383c39.792-30.883,89.68-49.339,143.833-49.339    c1.302,0,2.583,0.08,3.893,0.094l26.236,9.664l57.827,7.379c37.029,15.002,69.417,39.15,94.312,69.671l-9.63,41.932    l37.994,107.148l24.272,6.148c-3.727,126.418-107.619,228.106-234.905,228.106c-63.375,0-120.926-25.247-163.249-66.159    l45.626-39.192L86.849,265.485l-68.128-23.465l-1.575,50.047C14.42,277.797,12.93,263.077,12.93,248.006z" fill="#FFFFFF"/>
	</g>
</g>
</svg>
