<svg xmlns="http://www.w3.org/2000/svg" xmlns:xlink="http://www.w3.org/1999/xlink" version="1.1" id="Capa_1" x="0px" y="0px" viewBox="0 0 317.717 317.717" style="enable-background:new 0 0 317.717 317.717;" xml:space="preserve" width="27px" height="27px">
<g>
	<g>
		<path d="M272.339,81.692c0.011-0.402,0.06-0.794,0.06-1.197c0-21.99-17.895-39.885-39.885-39.885    c-6.891,0-13.375,1.757-19.037,4.846c-5.662-3.089-12.145-4.846-19.037-4.846s-13.375,1.757-19.037,4.846    c-5.662-3.089-12.145-4.846-19.037-4.846c-6.891,0-13.375,1.757-19.037,4.846c-5.662-3.089-12.145-4.846-19.037-4.846    s-13.375,1.757-19.037,4.846c-5.662-3.089-12.145-4.846-19.037-4.846c-21.996,0-39.89,17.895-39.89,39.885    c0,0.408,0.049,0.8,0.06,1.202H29.795L0,277.107h317.717L287.922,81.692C287.922,81.692,272.339,81.692,272.339,81.692z     M56.648,80.495c0-12.999,10.574-23.567,23.573-23.567c1.882,0,3.688,0.277,5.445,0.696c-4.558,6.483-7.261,14.359-7.261,22.871    c0,0.408,0.049,0.8,0.06,1.202c0.027,0.914,0.049,1.828,0.136,2.72c0.092,0.919,0.25,1.817,0.402,2.72    c1.006,5.961,3.318,11.476,6.663,16.236c-1.757,0.419-3.563,0.696-5.445,0.696c-10.677,0-19.613-7.18-22.501-16.932    c-0.267-0.892-0.517-1.784-0.674-2.72c-0.152-0.892-0.228-1.8-0.277-2.72C56.751,81.29,56.648,80.903,56.648,80.495z     M123.739,57.624c-2.339,3.329-4.204,7.011-5.445,10.976c-1.175,3.758-1.811,7.756-1.811,11.895c0,0.408,0.049,0.8,0.06,1.202    c0.027,0.914,0.049,1.828,0.136,2.72c0.092,0.919,0.25,1.817,0.402,2.72c0.305,1.789,0.68,3.557,1.213,5.26    c1.24,3.965,3.106,7.647,5.45,10.976c-1.757,0.419-3.563,0.696-5.444,0.696c-1.882,0-3.693-0.277-5.45-0.696    c-2.774-0.664-5.379-1.762-7.68-3.312c-2.306-1.55-4.275-3.535-5.907-5.782c-1.55-2.138-2.698-4.547-3.465-7.141    c-0.267-0.892-0.517-1.784-0.674-2.72c-0.152-0.892-0.228-1.8-0.277-2.72c-0.022-0.408-0.12-0.789-0.12-1.202    c0-5.156,1.713-9.894,4.536-13.777c1.632-2.246,3.606-4.232,5.912-5.782c2.301-1.545,4.906-2.649,7.68-3.307    c1.757-0.419,3.568-0.696,5.45-0.696C120.176,56.928,121.982,57.205,123.739,57.624z M161.812,57.624    c-2.339,3.329-4.204,7.011-5.444,10.976c-1.175,3.758-1.811,7.756-1.811,11.895c0,0.408,0.049,0.8,0.06,1.202    c0.027,0.914,0.049,1.828,0.136,2.72c0.092,0.919,0.25,1.817,0.402,2.72c0.305,1.789,0.68,3.557,1.213,5.26    c1.24,3.965,3.106,7.647,5.45,10.976c-1.757,0.419-3.563,0.696-5.445,0.696c-1.882,0-3.693-0.277-5.45-0.696    c-2.774-0.664-5.379-1.762-7.68-3.312c-2.306-1.55-4.275-3.535-5.907-5.782c-1.55-2.138-2.698-4.547-3.465-7.141    c-0.267-0.892-0.517-1.784-0.674-2.72c-0.152-0.892-0.228-1.8-0.277-2.72c-0.022-0.408-0.12-0.789-0.12-1.202    c0-5.156,1.713-9.894,4.536-13.777c1.632-2.246,3.606-4.232,5.912-5.782c2.301-1.545,4.906-2.649,7.68-3.307    c1.757-0.419,3.568-0.696,5.45-0.696C158.25,56.928,160.055,57.205,161.812,57.624z M199.886,57.624    c-2.339,3.329-4.204,7.011-5.445,10.976c-1.175,3.758-1.811,7.756-1.811,11.895c0,0.408,0.049,0.8,0.06,1.202    c0.027,0.914,0.049,1.828,0.136,2.72c0.092,0.919,0.25,1.817,0.402,2.72c0.305,1.789,0.68,3.557,1.213,5.26    c1.24,3.965,3.106,7.647,5.45,10.976c-1.757,0.419-3.563,0.696-5.445,0.696c-1.882,0-3.693-0.277-5.45-0.696    c-2.774-0.664-5.379-1.762-7.68-3.312c-2.306-1.55-4.275-3.535-5.907-5.782c-1.55-2.138-2.698-4.547-3.465-7.141    c-0.267-0.892-0.517-1.784-0.674-2.72c-0.152-0.892-0.228-1.8-0.277-2.72c-0.022-0.408-0.12-0.789-0.12-1.202    c0-5.156,1.713-9.894,4.536-13.777c1.632-2.246,3.606-4.232,5.912-5.782c2.301-1.545,4.906-2.649,7.68-3.307    c1.757-0.419,3.568-0.696,5.45-0.696C196.323,56.928,198.129,57.205,199.886,57.624z M256.082,80.495L256.082,80.495h-7.25    c-6.804,0-10.742,0.016-13.059,1.202c-0.642,0.326-1.164,0.756-1.572,1.295c-0.315,0.408-0.587,0.87-0.794,1.425    c-0.277,0.751-0.468,1.653-0.598,2.72c-0.174,1.403-0.245,3.127-0.272,5.189c-0.016,1.349-0.022,2.812-0.022,4.493v5.564    c0,0.571,0.109,1.115,0.169,1.67c-0.054,0-0.109,0.016-0.169,0.016c-1.882,0-3.693-0.277-5.45-0.696    c-2.774-0.664-5.379-1.762-7.68-3.312c-2.306-1.55-4.275-3.535-5.907-5.782c-1.55-2.138-2.698-4.547-3.465-7.141    c-0.267-0.892-0.517-1.784-0.674-2.72c-0.152-0.892-0.228-1.8-0.277-2.72c-0.022-0.408-0.12-0.789-0.12-1.202    c0-5.156,1.713-9.894,4.536-13.777c1.632-2.246,3.606-4.232,5.912-5.782c2.301-1.545,4.906-2.649,7.68-3.307    c1.757-0.419,3.568-0.696,5.45-0.696C245.514,56.928,256.082,67.496,256.082,80.495z M34.554,252.979l21.327-125.409h211.416    l18.933,125.409H34.554z" fill="#FFFFFF"/>
		<path d="M156.379,133.254c-31.443,0-57.023,25.58-57.023,57.023s25.58,57.023,57.023,57.023    s57.023-25.58,57.023-57.023S187.822,133.254,156.379,133.254z M192.456,214.416c-5.521-2.535-12.178-2.176-17.449,1.637    c-5.265,3.807-7.696,10.008-7.033,16.034c-3.699,1.028-7.577,1.621-11.596,1.621c-4.242,0-8.333-0.636-12.211-1.779    c0.761-6.021-1.577-12.265-6.793-16.154c-5.211-3.883-11.852-4.346-17.405-1.904c-4.172-6.413-6.668-13.984-6.946-22.115    c5.945-1.175,11.128-5.352,13.179-11.515c2.051-6.168,0.402-12.619-3.655-17.122c4.873-6.054,11.335-10.748,18.743-13.505    c2.991,5.27,8.594,8.871,15.088,8.871c6.494,0,12.096-3.601,15.088-8.871c7.647,2.85,14.272,7.772,19.194,14.109    c-4.128,4.433-5.885,10.851-3.943,17.041c1.942,6.195,7.049,10.459,12.972,11.743    C199.282,200.579,196.704,208.085,192.456,214.416z" fill="#FFFFFF"/>
		<circle cx="156.379" cy="190.278" r="17.416" fill="#FFFFFF"/>
	</g>
</g>
</svg>
