<?xml version="1.0" standalone="no"?>
<!DOCTYPE svg PUBLIC "-//W3C//DTD SVG 20010904//EN"
 "http://www.w3.org/TR/2001/REC-SVG-20010904/DTD/svg10.dtd">
<svg version="1.0" xmlns="http://www.w3.org/2000/svg"
 width="500.000000pt" height="500.000000pt" viewBox="0 0 500.000000 500.000000"
 preserveAspectRatio="xMidYMid meet">
<metadata>
Created by potrace 1.11, written by Peter Selinger 2001-2013
</metadata>
<g transform="translate(0.000000,500.000000) scale(0.100000,-0.100000)"
fill="#000000" stroke="none">
<path d="M2300 4994 c-164 -20 -218 -28 -305 -45 -950 -191 -1723 -950 -1935
-1899 -46 -206 -55 -297 -55 -550 0 -253 9 -344 55 -550 122 -544 437 -1048
880 -1404 298 -240 682 -420 1055 -495 189 -38 277 -46 505 -46 228 0 316 8
505 46 950 191 1723 950 1935 1899 46 206 55 297 55 550 0 253 -9 344 -55 550
-104 464 -353 908 -697 1240 -387 375 -845 602 -1388 686 -96 15 -478 27 -555
18z m410 -1089 c112 -17 215 -45 321 -87 56 -22 89 -43 124 -78 l48 -49 -87
-94 -87 -94 -61 24 c-117 48 -277 63 -431 44 l-69 -9 -60 48 c-65 52 -168 110
-233 130 -22 7 -43 15 -47 19 -4 4 23 37 61 75 62 62 73 69 122 76 91 13 299
11 399 -5z m-546 -185 c78 -26 161 -72 228 -125 l56 -44 -38 -73 c-50 -95 -81
-178 -115 -309 l-27 -105 -44 -13 c-47 -14 -289 -132 -419 -204 l-80 -44 -167
86 -168 86 0 37 c-1 129 67 316 156 433 56 73 296 222 434 269 91 31 111 32
184 6z m1177 -78 c29 -11 155 -126 228 -208 117 -131 218 -305 275 -474 l25
-75 -93 -94 -93 -93 -72 59 c-39 33 -138 108 -221 167 -133 95 -150 111 -150
136 0 43 -46 194 -81 263 -17 34 -49 86 -71 115 l-39 53 86 94 86 94 50 -15
c28 -9 60 -19 70 -22z m-1840 -223 c-79 -119 -131 -275 -131 -394 0 -40 -6
-53 -55 -112 -83 -101 -127 -199 -181 -400 -2 -7 -15 -13 -29 -13 -24 0 -25 2
-25 64 0 85 33 272 65 371 60 183 161 358 295 513 71 82 73 83 92 65 18 -19
18 -20 -31 -94z m970 -491 c101 -61 210 -127 242 -146 33 -20 61 -40 63 -46 5
-14 -21 -615 -27 -619 -2 -2 -122 -61 -267 -132 l-262 -129 -48 23 c-55 26
-258 162 -387 259 l-90 67 -3 65 c-4 75 14 330 31 439 l12 74 155 83 c176 95
345 173 376 173 12 1 105 -49 205 -111z m832 30 c92 -62 276 -200 327 -246
l45 -40 3 -181 c4 -179 -9 -300 -39 -364 -12 -26 -136 -129 -246 -204 -82 -56
-163 -99 -200 -105 -16 -2 -76 38 -218 147 l-197 150 6 170 c4 94 9 233 13
310 l6 140 84 49 c46 27 141 87 211 132 70 46 131 84 135 84 4 0 36 -19 70
-42z m-2156 -538 c18 -73 73 -187 133 -280 47 -72 49 -79 59 -178 14 -129 32
-209 72 -313 17 -44 29 -83 26 -85 -7 -7 -120 146 -168 228 -102 175 -189 467
-189 636 0 52 1 53 26 50 23 -3 29 -10 41 -58z m673 -335 c147 -108 297 -207
352 -233 l36 -17 52 -205 c28 -113 53 -213 56 -223 4 -14 -14 -26 -91 -62 -54
-25 -128 -56 -165 -69 l-68 -25 -80 39 c-92 44 -174 94 -327 201 -84 58 -115
86 -129 115 -52 108 -96 290 -96 398 l0 52 148 61 c81 33 155 61 164 62 9 1
76 -42 148 -94z m1893 -93 l75 -88 -36 -70 c-135 -255 -356 -470 -619 -603
l-80 -40 -58 67 c-32 37 -65 75 -73 84 -13 15 -9 23 36 75 71 83 127 169 172
266 22 47 40 89 40 94 0 4 29 19 64 31 73 26 202 110 321 207 44 35 81 65 81
65 1 0 35 -40 77 -88z m-1306 -638 c70 -17 272 -24 409 -14 l71 5 67 -79 c37
-43 63 -82 59 -87 -14 -12 -166 -57 -259 -75 -132 -27 -396 -24 -529 4 -55 12
-125 30 -155 40 -51 18 -55 21 -55 51 0 31 3 33 105 74 58 24 128 55 155 70
60 31 49 31 132 11z"/>
</g>
</svg>
